<?xml version="1.0" encoding="UTF-8"?>
<svg xmlns="http://www.w3.org/2000/svg" xmlns:xlink="http://www.w3.org/1999/xlink" width="45px" height="45px" viewBox="0 0 45 45" version="1.1">
<g id="surface1">
<path style=" stroke:none;fill-rule:nonzero;fill:rgb(0%,0%,0%);fill-opacity:1;" d="M 33.007812 29.039062 L 31.34375 26.820312 C 31.519531 26.457031 31.675781 26.082031 31.804688 25.695312 L 34.554688 25.304688 C 34.898438 25.253906 35.15625 24.957031 35.15625 24.609375 L 35.15625 20.390625 C 35.15625 20.039062 34.898438 19.746094 34.554688 19.695312 L 31.804688 19.300781 C 31.675781 18.917969 31.519531 18.542969 31.34375 18.175781 L 33.007812 15.960938 C 33.214844 15.679688 33.1875 15.289062 32.941406 15.042969 L 29.957031 12.058594 C 29.710938 11.8125 29.320312 11.785156 29.039062 11.992188 L 26.820312 13.65625 C 26.457031 13.480469 26.082031 13.324219 25.695312 13.195312 L 25.304688 10.445312 C 25.253906 10.101562 24.957031 9.84375 24.609375 9.84375 L 20.390625 9.84375 C 20.039062 9.84375 19.746094 10.101562 19.695312 10.445312 L 19.300781 13.195312 C 18.917969 13.324219 18.542969 13.480469 18.175781 13.65625 L 15.960938 11.992188 C 15.679688 11.785156 15.289062 11.8125 15.042969 12.058594 L 12.058594 15.042969 C 11.8125 15.289062 11.785156 15.679688 11.992188 15.960938 L 13.65625 18.179688 C 13.480469 18.542969 13.324219 18.917969 13.195312 19.304688 L 10.445312 19.695312 C 10.101562 19.746094 9.84375 20.042969 9.84375 20.390625 L 9.84375 24.609375 C 9.84375 24.960938 10.101562 25.253906 10.445312 25.304688 L 13.195312 25.699219 C 13.324219 26.082031 13.480469 26.457031 13.65625 26.824219 L 11.992188 29.039062 C 11.785156 29.320312 11.8125 29.710938 12.058594 29.957031 L 15.042969 32.941406 C 15.289062 33.1875 15.679688 33.214844 15.960938 33.007812 L 18.179688 31.34375 C 18.542969 31.519531 18.917969 31.675781 19.304688 31.804688 L 19.695312 34.554688 C 19.746094 34.898438 20.042969 35.15625 20.390625 35.15625 L 24.609375 35.15625 C 24.960938 35.15625 25.253906 34.898438 25.304688 34.554688 L 25.699219 31.804688 C 26.082031 31.675781 26.457031 31.519531 26.824219 31.34375 L 29.039062 33.007812 C 29.320312 33.214844 29.710938 33.1875 29.957031 32.941406 L 32.941406 29.957031 C 33.1875 29.710938 33.214844 29.320312 33.007812 29.039062 Z M 29.394531 31.515625 L 27.3125 29.953125 C 27.09375 29.789062 26.792969 29.765625 26.554688 29.898438 C 26.015625 30.191406 25.453125 30.425781 24.867188 30.59375 C 24.601562 30.671875 24.40625 30.894531 24.367188 31.167969 L 24 33.75 L 21 33.75 L 20.632812 31.167969 C 20.59375 30.898438 20.398438 30.671875 20.132812 30.59375 C 19.546875 30.425781 18.980469 30.191406 18.445312 29.898438 C 18.203125 29.769531 17.90625 29.789062 17.6875 29.953125 L 15.605469 31.515625 L 13.484375 29.394531 L 15.042969 27.3125 C 15.210938 27.09375 15.230469 26.792969 15.097656 26.554688 C 14.804688 26.015625 14.574219 25.453125 14.402344 24.867188 C 14.328125 24.601562 14.101562 24.40625 13.828125 24.367188 L 11.25 24 L 11.25 21 L 13.832031 20.632812 C 14.101562 20.59375 14.328125 20.398438 14.40625 20.132812 C 14.574219 19.546875 14.808594 18.980469 15.101562 18.445312 C 15.234375 18.203125 15.210938 17.90625 15.046875 17.6875 L 13.484375 15.605469 L 15.605469 13.484375 L 17.6875 15.042969 C 17.90625 15.210938 18.203125 15.230469 18.445312 15.097656 C 18.984375 14.804688 19.546875 14.574219 20.132812 14.402344 C 20.398438 14.328125 20.59375 14.101562 20.632812 13.828125 L 21 11.25 L 24 11.25 L 24.367188 13.832031 C 24.40625 14.101562 24.601562 14.328125 24.867188 14.40625 C 25.453125 14.574219 26.019531 14.808594 26.554688 15.101562 C 26.796875 15.234375 27.09375 15.210938 27.3125 15.046875 L 29.394531 13.484375 L 31.515625 15.605469 L 29.953125 17.6875 C 29.789062 17.90625 29.765625 18.203125 29.898438 18.445312 C 30.191406 18.984375 30.425781 19.546875 30.59375 20.132812 C 30.671875 20.398438 30.894531 20.59375 31.167969 20.632812 L 33.75 21 L 33.75 24 L 31.167969 24.367188 C 30.894531 24.40625 30.671875 24.601562 30.59375 24.867188 C 30.425781 25.453125 30.191406 26.019531 29.898438 26.554688 C 29.765625 26.796875 29.789062 27.09375 29.953125 27.316406 L 31.515625 29.398438 Z M 29.394531 31.515625 "/>
<path style=" stroke:none;fill-rule:nonzero;fill:rgb(0%,0%,0%);fill-opacity:1;" d="M 21.796875 12.65625 L 23.203125 12.65625 L 23.203125 14.0625 L 21.796875 14.0625 Z M 21.796875 12.65625 "/>
<path style=" stroke:none;fill-rule:nonzero;fill:rgb(0%,0%,0%);fill-opacity:1;" d="M 15.042969 16.035156 L 16.039062 15.042969 L 17.03125 16.035156 L 16.039062 17.03125 Z M 15.042969 16.035156 "/>
<path style=" stroke:none;fill-rule:nonzero;fill:rgb(0%,0%,0%);fill-opacity:1;" d="M 15.042969 28.960938 L 16.035156 27.96875 L 17.03125 28.960938 L 16.035156 29.957031 Z M 15.042969 28.960938 "/>
<path style=" stroke:none;fill-rule:nonzero;fill:rgb(0%,0%,0%);fill-opacity:1;" d="M 21.796875 30.9375 L 23.203125 30.9375 L 23.203125 32.34375 L 21.796875 32.34375 Z M 21.796875 30.9375 "/>
<path style=" stroke:none;fill-rule:nonzero;fill:rgb(0%,0%,0%);fill-opacity:1;" d="M 27.96875 28.964844 L 28.964844 27.96875 L 29.957031 28.964844 L 28.964844 29.957031 Z M 27.96875 28.964844 "/>
<path style=" stroke:none;fill-rule:nonzero;fill:rgb(0%,0%,0%);fill-opacity:1;" d="M 27.96875 16.039062 L 28.964844 15.042969 L 29.957031 16.039062 L 28.964844 17.03125 Z M 27.96875 16.039062 "/>
<path style=" stroke:none;fill-rule:nonzero;fill:rgb(0%,0%,0%);fill-opacity:1;" d="M 22.5 16.875 C 19.394531 16.875 16.875 19.394531 16.875 22.5 C 16.875 25.605469 19.394531 28.125 22.5 28.125 C 25.605469 28.125 28.125 25.605469 28.125 22.5 C 28.121094 19.394531 25.605469 16.878906 22.5 16.875 Z M 22.5 26.71875 C 20.171875 26.71875 18.28125 24.828125 18.28125 22.5 C 18.28125 20.171875 20.171875 18.28125 22.5 18.28125 C 24.828125 18.28125 26.71875 20.171875 26.71875 22.5 C 26.714844 24.828125 24.828125 26.714844 22.5 26.71875 Z M 22.5 26.71875 "/>
<path style=" stroke:none;fill-rule:nonzero;fill:rgb(0%,0%,0%);fill-opacity:1;" d="M 12.65625 21.796875 L 14.0625 21.796875 L 14.0625 23.203125 L 12.65625 23.203125 Z M 12.65625 21.796875 "/>
<path style=" stroke:none;fill-rule:nonzero;fill:rgb(0%,0%,0%);fill-opacity:1;" d="M 30.9375 21.796875 L 32.34375 21.796875 L 32.34375 23.203125 L 30.9375 23.203125 Z M 30.9375 21.796875 "/>
<path style=" stroke:none;fill-rule:nonzero;fill:rgb(0%,0%,0%);fill-opacity:1;" d="M 40.078125 36.5625 C 39.390625 36.5625 38.714844 36.765625 38.140625 37.148438 L 35.90625 34.910156 C 42.40625 27.914062 42.40625 17.089844 35.90625 10.089844 L 38.140625 7.855469 C 39.652344 8.855469 41.671875 8.546875 42.820312 7.144531 C 43.964844 5.742188 43.863281 3.699219 42.582031 2.421875 C 41.300781 1.140625 39.257812 1.039062 37.859375 2.183594 C 36.457031 3.328125 36.148438 5.351562 37.148438 6.859375 L 34.910156 9.097656 C 27.914062 2.597656 17.089844 2.597656 10.089844 9.097656 L 7.855469 6.859375 C 8.855469 5.351562 8.546875 3.328125 7.144531 2.183594 C 5.742188 1.039062 3.699219 1.140625 2.421875 2.421875 C 1.140625 3.699219 1.039062 5.742188 2.183594 7.144531 C 3.328125 8.546875 5.351562 8.855469 6.859375 7.855469 L 9.097656 10.089844 C 2.597656 17.089844 2.597656 27.914062 9.097656 34.910156 L 6.859375 37.148438 C 5.351562 36.148438 3.328125 36.457031 2.183594 37.859375 C 1.039062 39.257812 1.140625 41.300781 2.421875 42.582031 C 3.699219 43.863281 5.742188 43.964844 7.144531 42.820312 C 8.546875 41.671875 8.855469 39.652344 7.855469 38.140625 L 10.089844 35.90625 C 17.089844 42.40625 27.914062 42.40625 34.910156 35.90625 L 37.148438 38.140625 C 36.261719 39.488281 36.402344 41.261719 37.488281 42.453125 C 38.578125 43.640625 40.332031 43.9375 41.75 43.171875 C 43.167969 42.40625 43.886719 40.777344 43.492188 39.214844 C 43.09375 37.652344 41.6875 36.558594 40.078125 36.5625 Z M 40.078125 2.8125 C 41.242188 2.8125 42.1875 3.757812 42.1875 4.921875 C 42.1875 6.085938 41.242188 7.03125 40.078125 7.03125 C 38.914062 7.03125 37.96875 6.085938 37.96875 4.921875 C 37.96875 3.757812 38.914062 2.8125 40.078125 2.8125 Z M 4.921875 7.03125 C 3.757812 7.03125 2.8125 6.085938 2.8125 4.921875 C 2.8125 3.757812 3.757812 2.8125 4.921875 2.8125 C 6.085938 2.8125 7.03125 3.757812 7.03125 4.921875 C 7.03125 6.085938 6.085938 7.03125 4.921875 7.03125 Z M 4.921875 42.1875 C 3.757812 42.1875 2.8125 41.242188 2.8125 40.078125 C 2.8125 38.914062 3.757812 37.96875 4.921875 37.96875 C 6.085938 37.96875 7.03125 38.914062 7.03125 40.078125 C 7.03125 41.242188 6.085938 42.1875 4.921875 42.1875 Z M 22.5 39.375 C 18.269531 39.378906 14.191406 37.785156 11.082031 34.914062 L 12.449219 33.542969 L 11.457031 32.550781 L 10.085938 33.917969 C 4.136719 27.46875 4.136719 17.53125 10.085938 11.082031 L 11.457031 12.449219 L 12.449219 11.457031 L 11.082031 10.085938 C 17.53125 4.136719 27.46875 4.136719 33.917969 10.085938 L 32.550781 11.457031 L 33.542969 12.449219 L 34.914062 11.082031 C 40.863281 17.53125 40.863281 27.46875 34.914062 33.917969 L 33.542969 32.550781 L 32.550781 33.542969 L 33.917969 34.914062 C 30.808594 37.785156 26.730469 39.378906 22.5 39.375 Z M 40.078125 42.1875 C 38.914062 42.1875 37.96875 41.242188 37.96875 40.078125 C 37.96875 38.914062 38.914062 37.96875 40.078125 37.96875 C 41.242188 37.96875 42.1875 38.914062 42.1875 40.078125 C 42.1875 41.242188 41.242188 42.1875 40.078125 42.1875 Z M 40.078125 42.1875 "/>
</g>
</svg>
