<?xml version="1.0" encoding="UTF-8"?>
<svg xmlns="http://www.w3.org/2000/svg" xmlns:xlink="http://www.w3.org/1999/xlink" width="45px" height="45px" viewBox="0 0 45 45" version="1.1">
<g id="surface1">
<path style=" stroke:none;fill-rule:nonzero;fill:rgb(0%,0%,0%);fill-opacity:1;" d="M 40.011719 15.472656 L 38.480469 15.472656 C 38.082031 13.832031 37.4375 12.277344 36.554688 10.832031 L 37.640625 9.746094 C 37.992188 9.394531 38.1875 8.929688 38.1875 8.433594 C 38.1875 7.9375 37.992188 7.46875 37.640625 7.117188 L 34.753906 4.230469 C 34.03125 3.507812 32.851562 3.503906 32.125 4.230469 L 31.039062 5.316406 C 29.59375 4.4375 28.039062 3.792969 26.402344 3.394531 L 26.402344 1.859375 C 26.402344 0.835938 25.566406 0 24.539062 0 L 20.460938 0 C 19.433594 0 18.597656 0.835938 18.597656 1.859375 L 18.597656 3.394531 C 16.960938 3.792969 15.40625 4.4375 13.960938 5.316406 L 12.875 4.230469 C 12.148438 3.503906 10.96875 3.503906 10.246094 4.230469 L 7.359375 7.117188 C 7.007812 7.46875 6.8125 7.9375 6.8125 8.433594 C 6.8125 8.929688 7.007812 9.394531 7.359375 9.746094 L 8.445312 10.832031 C 7.5625 12.277344 6.917969 13.832031 6.519531 15.472656 L 4.988281 15.472656 C 3.960938 15.472656 3.128906 16.304688 3.128906 17.332031 L 3.128906 21.414062 C 3.128906 22.4375 3.960938 23.273438 4.988281 23.273438 L 6.519531 23.273438 C 6.917969 24.910156 7.5625 26.46875 8.445312 27.910156 L 7.359375 28.996094 C 7.007812 29.347656 6.8125 29.816406 6.8125 30.3125 C 6.8125 30.808594 7.007812 31.277344 7.359375 31.628906 L 10.246094 34.515625 C 10.539062 34.808594 10.910156 34.980469 11.292969 35.035156 L 11.292969 38.359375 L 8.109375 38.359375 C 7.839844 37.597656 7.113281 37.050781 6.261719 37.050781 C 5.175781 37.050781 4.296875 37.933594 4.296875 39.015625 C 4.296875 40.101562 5.175781 40.980469 6.261719 40.980469 C 7.113281 40.980469 7.839844 40.4375 8.109375 39.675781 L 11.953125 39.675781 C 12.316406 39.675781 12.613281 39.382812 12.613281 39.015625 L 12.613281 34.730469 C 12.703125 34.667969 12.792969 34.597656 12.875 34.515625 L 13.960938 33.429688 C 14.429688 33.714844 14.910156 33.972656 15.398438 34.207031 L 15.398438 42.375 L 12.914062 42.375 C 12.640625 41.617188 11.914062 41.070312 11.0625 41.070312 C 9.980469 41.070312 9.097656 41.953125 9.097656 43.035156 C 9.097656 44.117188 9.980469 45 11.0625 45 C 11.914062 45 12.640625 44.453125 12.914062 43.695312 L 16.058594 43.695312 C 16.421875 43.695312 16.71875 43.398438 16.71875 43.035156 L 16.71875 34.769531 C 17.332031 35 17.957031 35.195312 18.597656 35.351562 L 18.597656 36.886719 C 18.597656 37.699219 19.128906 38.394531 19.859375 38.644531 L 19.859375 41.183594 C 19.097656 41.457031 18.554688 42.183594 18.554688 43.035156 C 18.554688 44.117188 19.433594 45 20.519531 45 C 21.601562 45 22.484375 44.117188 22.484375 43.035156 C 22.484375 42.183594 21.9375 41.457031 21.175781 41.183594 L 21.175781 38.746094 L 23.789062 38.746094 L 23.789062 44.339844 C 23.789062 44.703125 24.082031 45 24.445312 45 C 24.8125 45 25.105469 44.703125 25.105469 44.339844 L 25.105469 38.65625 C 25.855469 38.417969 26.402344 37.714844 26.402344 36.886719 L 26.402344 35.351562 C 27.089844 35.183594 27.765625 34.972656 28.421875 34.71875 L 28.421875 41.183594 C 27.664062 41.457031 27.117188 42.183594 27.117188 43.035156 C 27.117188 44.117188 28 45 29.082031 45 C 30.167969 45 31.046875 44.117188 31.046875 43.035156 C 31.046875 42.183594 30.5 41.457031 29.742188 41.183594 L 29.742188 34.140625 C 30.183594 33.921875 30.617188 33.6875 31.039062 33.429688 L 32.125 34.515625 C 32.207031 34.597656 32.296875 34.667969 32.386719 34.730469 L 32.386719 39.015625 C 32.386719 39.382812 32.683594 39.675781 33.046875 39.675781 L 36.890625 39.675781 C 37.160156 40.4375 37.886719 40.980469 38.738281 40.980469 C 39.824219 40.980469 40.703125 40.101562 40.703125 39.015625 C 40.703125 37.933594 39.824219 37.050781 38.738281 37.050781 C 37.886719 37.050781 37.160156 37.597656 36.890625 38.359375 L 33.707031 38.359375 L 33.707031 35.035156 C 34.089844 34.980469 34.460938 34.808594 34.753906 34.515625 L 37.640625 31.628906 C 37.992188 31.277344 38.1875 30.808594 38.1875 30.3125 C 38.1875 29.816406 37.992188 29.347656 37.640625 28.996094 L 36.183594 27.539062 C 35.925781 27.28125 35.507812 27.28125 35.25 27.539062 C 34.992188 27.796875 34.992188 28.214844 35.25 28.472656 L 36.710938 29.929688 C 36.8125 30.03125 36.867188 30.167969 36.867188 30.3125 C 36.867188 30.457031 36.8125 30.59375 36.710938 30.695312 L 33.824219 33.582031 C 33.613281 33.792969 33.269531 33.792969 33.058594 33.582031 L 31.597656 32.125 C 31.378906 31.902344 31.035156 31.867188 30.773438 32.039062 C 29.1875 33.074219 27.453125 33.792969 25.605469 34.179688 C 25.300781 34.242188 25.082031 34.511719 25.082031 34.824219 L 25.082031 36.886719 C 25.082031 37.183594 24.839844 37.425781 24.542969 37.425781 L 20.460938 37.425781 C 20.160156 37.425781 19.917969 37.183594 19.917969 36.886719 L 19.917969 34.824219 C 19.917969 34.511719 19.699219 34.242188 19.394531 34.179688 C 17.609375 33.8125 15.824219 33.078125 14.226562 32.039062 C 13.96875 31.867188 13.621094 31.902344 13.402344 32.125 L 11.941406 33.582031 C 11.730469 33.792969 11.386719 33.792969 11.175781 33.582031 L 8.292969 30.695312 C 8.1875 30.59375 8.132812 30.457031 8.132812 30.3125 C 8.132812 30.167969 8.1875 30.03125 8.292969 29.929688 L 9.75 28.472656 C 9.96875 28.25 10.003906 27.90625 9.835938 27.644531 C 8.800781 26.0625 8.078125 24.324219 7.695312 22.480469 C 7.628906 22.171875 7.359375 21.953125 7.046875 21.953125 L 4.988281 21.953125 C 4.6875 21.953125 4.445312 21.710938 4.445312 21.414062 L 4.445312 17.332031 C 4.445312 17.03125 4.6875 16.789062 4.988281 16.789062 L 7.046875 16.789062 C 7.359375 16.789062 7.628906 16.570312 7.691406 16.265625 C 8.078125 14.421875 8.796875 12.683594 9.835938 11.101562 C 10.003906 10.839844 9.96875 10.496094 9.75 10.273438 L 8.289062 8.816406 C 8.1875 8.714844 8.132812 8.578125 8.132812 8.433594 C 8.132812 8.289062 8.1875 8.152344 8.289062 8.050781 L 11.175781 5.164062 C 11.386719 4.953125 11.730469 4.953125 11.941406 5.164062 L 13.402344 6.621094 C 13.621094 6.84375 13.96875 6.878906 14.226562 6.707031 C 15.8125 5.671875 17.546875 4.949219 19.394531 4.566406 C 19.699219 4.503906 19.917969 4.234375 19.917969 3.921875 L 19.917969 1.859375 C 19.917969 1.5625 20.160156 1.316406 20.460938 1.316406 L 24.539062 1.316406 C 24.839844 1.316406 25.082031 1.5625 25.082031 1.859375 L 25.082031 3.921875 C 25.082031 4.234375 25.300781 4.5 25.605469 4.566406 C 27.453125 4.949219 29.1875 5.671875 30.773438 6.707031 C 31.03125 6.878906 31.378906 6.84375 31.597656 6.621094 L 33.058594 5.164062 C 33.269531 4.953125 33.613281 4.953125 33.824219 5.164062 L 36.710938 8.050781 C 36.8125 8.152344 36.867188 8.289062 36.867188 8.433594 C 36.867188 8.578125 36.8125 8.710938 36.710938 8.816406 L 35.25 10.273438 C 35.03125 10.492188 34.996094 10.839844 35.164062 11.101562 C 36.203125 12.683594 36.921875 14.421875 37.304688 16.265625 C 37.371094 16.570312 37.640625 16.789062 37.953125 16.789062 L 40.011719 16.789062 C 40.3125 16.789062 40.554688 17.03125 40.554688 17.332031 L 40.554688 21.414062 C 40.554688 21.710938 40.3125 21.953125 40.011719 21.953125 L 37.953125 21.953125 C 37.640625 21.953125 37.371094 22.171875 37.308594 22.480469 C 37.125 23.34375 36.867188 24.203125 36.535156 25.023438 C 36.398438 25.359375 36.5625 25.746094 36.898438 25.878906 C 37.238281 26.015625 37.621094 25.851562 37.757812 25.515625 C 38.050781 24.789062 38.292969 24.035156 38.480469 23.273438 L 40.011719 23.273438 C 41.039062 23.273438 41.871094 22.4375 41.871094 21.414062 L 41.871094 17.332031 C 41.871094 16.304688 41.039062 15.472656 40.011719 15.472656 Z M 6.261719 39.664062 C 5.902344 39.664062 5.613281 39.375 5.613281 39.015625 C 5.613281 38.660156 5.902344 38.371094 6.261719 38.371094 C 6.617188 38.371094 6.90625 38.660156 6.90625 39.015625 C 6.90625 39.375 6.617188 39.664062 6.261719 39.664062 Z M 11.0625 43.679688 C 10.707031 43.679688 10.414062 43.390625 10.414062 43.035156 C 10.414062 42.679688 10.707031 42.390625 11.0625 42.390625 C 11.417969 42.390625 11.707031 42.679688 11.707031 43.035156 C 11.707031 43.390625 11.417969 43.679688 11.0625 43.679688 Z M 29.082031 43.679688 C 28.726562 43.679688 28.4375 43.390625 28.4375 43.035156 C 28.4375 42.679688 28.726562 42.390625 29.082031 42.390625 C 29.4375 42.390625 29.730469 42.679688 29.730469 43.035156 C 29.730469 43.390625 29.4375 43.679688 29.082031 43.679688 Z M 38.738281 38.371094 C 39.097656 38.371094 39.386719 38.660156 39.386719 39.015625 C 39.386719 39.375 39.097656 39.664062 38.738281 39.664062 C 38.382812 39.664062 38.09375 39.375 38.09375 39.015625 C 38.09375 38.660156 38.382812 38.371094 38.738281 38.371094 Z M 20.519531 43.679688 C 20.160156 43.679688 19.871094 43.390625 19.871094 43.035156 C 19.871094 42.679688 20.160156 42.390625 20.519531 42.390625 C 20.875 42.390625 21.164062 42.679688 21.164062 43.035156 C 21.164062 43.390625 20.875 43.679688 20.519531 43.679688 Z M 20.519531 43.679688 "/>
<path style=" stroke:none;fill-rule:nonzero;fill:rgb(0%,0%,0%);fill-opacity:1;" d="M 29.785156 19.371094 C 29.785156 15.355469 26.515625 12.089844 22.5 12.089844 C 19.125 12.089844 16.214844 14.375 15.421875 17.652344 C 15.335938 18.003906 15.550781 18.363281 15.90625 18.449219 C 16.257812 18.535156 16.617188 18.316406 16.703125 17.960938 C 17.351562 15.28125 19.734375 13.40625 22.5 13.40625 C 25.789062 13.40625 28.464844 16.082031 28.464844 19.371094 C 28.464844 22.664062 25.789062 25.339844 22.5 25.339844 C 19.726562 25.339844 17.339844 23.457031 16.695312 20.761719 C 16.613281 20.40625 16.257812 20.1875 15.902344 20.273438 C 15.546875 20.359375 15.328125 20.714844 15.414062 21.066406 C 16.199219 24.359375 19.113281 26.65625 22.5 26.65625 C 26.515625 26.65625 29.785156 23.390625 29.785156 19.371094 Z M 29.785156 19.371094 "/>
<path style=" stroke:none;fill-rule:nonzero;fill:rgb(0%,0%,0%);fill-opacity:1;" d="M 24.914062 31.378906 C 24.957031 31.378906 25.003906 31.375 25.050781 31.367188 C 27.757812 30.792969 30.21875 29.292969 31.984375 27.140625 C 33.773438 24.957031 34.757812 22.199219 34.757812 19.371094 C 34.757812 16.546875 33.773438 13.785156 31.984375 11.605469 C 30.585938 9.898438 28.746094 8.601562 26.695312 7.851562 L 27.40625 7.488281 C 27.730469 7.320312 27.859375 6.925781 27.691406 6.601562 C 27.527344 6.277344 27.128906 6.148438 26.804688 6.3125 L 24.613281 7.4375 C 24.40625 7.515625 24.117188 7.972656 24.328125 8.324219 L 25.449219 10.515625 C 25.566406 10.742188 25.796875 10.875 26.039062 10.875 C 26.136719 10.875 26.242188 10.851562 26.335938 10.800781 C 26.660156 10.636719 26.789062 10.238281 26.625 9.914062 L 26.191406 9.070312 C 28.042969 9.738281 29.703125 10.902344 30.964844 12.441406 C 32.5625 14.386719 33.441406 16.847656 33.441406 19.371094 C 33.441406 21.894531 32.5625 24.355469 30.964844 26.304688 C 29.390625 28.226562 27.191406 29.566406 24.777344 30.078125 C 24.421875 30.152344 24.195312 30.5 24.269531 30.859375 C 24.335938 31.167969 24.609375 31.378906 24.914062 31.378906 Z M 24.914062 31.378906 "/>
<path style=" stroke:none;fill-rule:nonzero;fill:rgb(0%,0%,0%);fill-opacity:1;" d="M 21.210938 22.195312 C 21.21875 22.195312 21.222656 22.195312 21.226562 22.195312 C 21.402344 22.195312 21.570312 22.125 21.695312 22.003906 L 26.023438 17.675781 C 26.28125 17.417969 26.28125 17 26.023438 16.742188 C 25.765625 16.484375 25.347656 16.484375 25.089844 16.742188 L 21.253906 20.582031 L 19.933594 19.117188 C 19.6875 18.847656 19.273438 18.824219 19 19.070312 C 18.730469 19.3125 18.710938 19.730469 18.953125 20 L 20.738281 21.980469 C 20.859375 22.113281 21.03125 22.191406 21.210938 22.195312 Z M 21.210938 22.195312 "/>
<path style=" stroke:none;fill-rule:nonzero;fill:rgb(0%,0%,0%);fill-opacity:1;" d="M 20.742188 30.6875 C 20.742188 30.644531 20.738281 30.601562 20.714844 30.519531 L 19.957031 28.175781 C 19.84375 27.828125 19.472656 27.636719 19.128906 27.75 C 18.78125 27.863281 18.589844 28.234375 18.703125 28.578125 L 19.085938 29.765625 C 17.121094 29.121094 15.359375 27.917969 14.035156 26.304688 C 12.4375 24.355469 11.558594 21.894531 11.558594 19.371094 C 11.558594 16.847656 12.4375 14.386719 14.035156 12.441406 C 15.609375 10.519531 17.808594 9.179688 20.222656 8.667969 C 20.578125 8.59375 20.804688 8.242188 20.730469 7.886719 C 20.65625 7.53125 20.304688 7.304688 19.949219 7.378906 C 17.242188 7.953125 14.78125 9.453125 13.015625 11.605469 C 11.226562 13.785156 10.242188 16.546875 10.242188 19.371094 C 10.242188 22.199219 11.226562 24.957031 13.015625 27.140625 C 14.320312 28.734375 16.007812 29.96875 17.894531 30.734375 L 17.539062 30.851562 C 17.191406 30.960938 17.003906 31.332031 17.113281 31.679688 C 17.203125 31.960938 17.464844 32.136719 17.742188 32.136719 C 17.808594 32.136719 17.878906 32.125 17.945312 32.105469 L 20.289062 31.347656 C 20.5 31.285156 20.769531 31.027344 20.742188 30.6875 Z M 20.742188 30.6875 "/>
</g>
</svg>
