<?xml version="1.0" encoding="UTF-8"?>
<svg xmlns="http://www.w3.org/2000/svg" xmlns:xlink="http://www.w3.org/1999/xlink" width="45px" height="45px" viewBox="0 0 45 45" version="1.1">
<g id="surface1">
<path style=" stroke:none;fill-rule:evenodd;fill:rgb(0%,0%,0%);fill-opacity:1;" d="M 38.5 28.835938 C 37.859375 28.835938 37.335938 28.316406 37.335938 27.671875 C 37.335938 27.03125 37.859375 26.511719 38.5 26.511719 C 39.140625 26.511719 39.664062 27.03125 39.664062 27.671875 C 39.664062 28.316406 39.140625 28.835938 38.5 28.835938 Z M 7.179688 16.265625 C 7.179688 12.910156 10.644531 10.65625 13.71875 12.015625 C 14.0625 12.167969 14.464844 11.945312 14.515625 11.570312 C 15.039062 7.714844 18.375 4.804688 22.273438 4.804688 C 25.617188 4.804688 28.59375 6.929688 29.679688 10.089844 C 29.808594 10.460938 30.261719 10.589844 30.5625 10.363281 C 31.054688 9.992188 31.644531 9.796875 32.261719 9.796875 C 34.589844 9.796875 35.925781 12.46875 34.527344 14.332031 C 34.25 14.707031 34.519531 15.246094 34.984375 15.246094 C 36.546875 15.246094 37.820312 16.515625 37.820312 18.078125 C 37.820312 19.644531 36.546875 20.914062 34.984375 20.914062 L 11.832031 20.914062 C 9.265625 20.914062 7.179688 18.828125 7.179688 16.265625 Z M 33.296875 32.460938 C 33.9375 32.460938 34.460938 32.984375 34.460938 33.625 C 34.460938 34.265625 33.9375 34.789062 33.296875 34.789062 C 32.65625 34.789062 32.132812 34.265625 32.132812 33.625 C 32.132812 32.984375 32.65625 32.460938 33.296875 32.460938 Z M 23.664062 39.03125 C 23.664062 39.675781 23.140625 40.195312 22.5 40.195312 C 21.859375 40.195312 21.335938 39.675781 21.335938 39.03125 C 21.335938 38.390625 21.859375 37.867188 22.5 37.867188 C 23.140625 37.867188 23.664062 38.390625 23.664062 39.03125 Z M 11.703125 34.789062 C 11.0625 34.789062 10.539062 34.265625 10.539062 33.625 C 10.539062 32.984375 11.0625 32.460938 11.703125 32.460938 C 12.34375 32.460938 12.867188 32.984375 12.867188 33.625 C 12.867188 34.265625 12.34375 34.789062 11.703125 34.789062 Z M 6.5 28.835938 C 5.859375 28.835938 5.335938 28.316406 5.335938 27.671875 C 5.335938 27.03125 5.859375 26.511719 6.5 26.511719 C 7.140625 26.511719 7.664062 27.03125 7.664062 27.671875 C 7.664062 28.316406 7.140625 28.835938 6.5 28.835938 Z M 38.5 25.367188 C 37.425781 25.367188 36.519531 26.109375 36.265625 27.101562 L 33.476562 27.101562 L 33.476562 22.058594 L 34.984375 22.058594 C 37.175781 22.058594 38.960938 20.273438 38.960938 18.078125 C 38.960938 16.207031 37.65625 14.628906 35.910156 14.210938 C 37.035156 11.613281 35.132812 8.65625 32.261719 8.65625 C 31.640625 8.65625 31.046875 8.796875 30.503906 9.066406 C 29.09375 5.804688 25.867188 3.664062 22.273438 3.664062 C 18.050781 3.664062 14.402344 6.609375 13.507812 10.71875 C 9.828125 9.609375 6.039062 12.359375 6.039062 16.265625 C 6.039062 19.355469 8.472656 21.890625 11.523438 22.046875 L 11.523438 27.101562 L 8.734375 27.101562 C 8.480469 26.109375 7.574219 25.367188 6.5 25.367188 C 5.230469 25.367188 4.195312 26.402344 4.195312 27.671875 C 4.195312 28.945312 5.230469 29.980469 6.5 29.980469 C 7.574219 29.980469 8.480469 29.238281 8.734375 28.242188 L 12.09375 28.242188 C 12.410156 28.242188 12.664062 27.988281 12.664062 27.671875 L 12.664062 22.058594 L 16.726562 22.058594 L 16.726562 33.054688 L 13.9375 33.054688 C 13.683594 32.058594 12.777344 31.320312 11.703125 31.320312 C 10.433594 31.320312 9.398438 32.355469 9.398438 33.625 C 9.398438 34.894531 10.433594 35.929688 11.703125 35.929688 C 12.777344 35.929688 13.683594 35.195312 13.9375 34.199219 L 17.296875 34.199219 C 17.613281 34.199219 17.867188 33.941406 17.867188 33.625 L 17.867188 22.058594 L 21.929688 22.058594 L 21.929688 36.800781 C 20.933594 37.054688 20.195312 37.960938 20.195312 39.03125 C 20.195312 40.300781 21.230469 41.335938 22.5 41.335938 C 23.769531 41.335938 24.804688 40.300781 24.804688 39.03125 C 24.804688 37.960938 24.066406 37.054688 23.070312 36.800781 L 23.070312 22.058594 L 27.132812 22.058594 L 27.132812 33.625 C 27.132812 33.941406 27.386719 34.199219 27.703125 34.199219 L 31.0625 34.199219 C 31.316406 35.195312 32.222656 35.929688 33.296875 35.929688 C 34.566406 35.929688 35.601562 34.894531 35.601562 33.625 C 35.601562 32.355469 34.566406 31.320312 33.296875 31.320312 C 32.222656 31.320312 31.316406 32.058594 31.0625 33.054688 L 28.273438 33.054688 L 28.273438 22.058594 L 32.335938 22.058594 L 32.335938 27.671875 C 32.335938 27.988281 32.589844 28.242188 32.90625 28.242188 L 36.265625 28.242188 C 36.519531 29.238281 37.425781 29.980469 38.5 29.980469 C 39.769531 29.980469 40.804688 28.945312 40.804688 27.671875 C 40.804688 26.402344 39.769531 25.367188 38.5 25.367188 Z M 38.5 25.367188 "/>
</g>
</svg>
