<?xml version="1.0" encoding="UTF-8"?>
<svg xmlns="http://www.w3.org/2000/svg" xmlns:xlink="http://www.w3.org/1999/xlink" width="45px" height="45px" viewBox="0 0 45 45" version="1.1">
<g id="surface1">
<path style=" stroke:none;fill-rule:nonzero;fill:rgb(0%,0%,0%);fill-opacity:1;" d="M 32.300781 25.539062 C 28.574219 25.539062 25.539062 28.574219 25.539062 32.300781 C 25.539062 36.027344 28.574219 39.058594 32.300781 39.058594 C 33.15625 39.058594 33.988281 38.902344 34.777344 38.589844 C 35.117188 38.457031 35.285156 38.074219 35.152344 37.734375 C 35.015625 37.394531 34.632812 37.230469 34.292969 37.363281 C 33.660156 37.613281 32.988281 37.738281 32.300781 37.738281 C 29.300781 37.738281 26.863281 35.300781 26.863281 32.300781 C 26.863281 29.300781 29.300781 26.859375 32.300781 26.859375 C 35.300781 26.859375 37.738281 29.300781 37.738281 32.300781 C 37.738281 33.699219 37.210938 35.027344 36.25 36.042969 C 35.996094 36.304688 36.007812 36.722656 36.273438 36.976562 C 36.539062 37.226562 36.957031 37.214844 37.207031 36.949219 C 38.402344 35.691406 39.058594 34.039062 39.058594 32.300781 C 39.058594 28.574219 36.027344 25.539062 32.300781 25.539062 Z M 32.300781 25.539062 "/>
<path style=" stroke:none;fill-rule:nonzero;fill:rgb(0%,0%,0%);fill-opacity:1;" d="M 43.816406 30.183594 L 42.234375 29.945312 C 41.984375 28.878906 41.566406 27.875 40.992188 26.941406 L 41.941406 25.652344 C 42.355469 25.097656 42.296875 24.335938 41.808594 23.847656 L 40.753906 22.792969 C 40.644531 22.683594 40.523438 22.597656 40.394531 22.535156 C 40.480469 21.777344 40.523438 21.015625 40.523438 20.261719 C 40.523438 14.847656 38.414062 9.761719 34.589844 5.933594 C 30.761719 2.109375 25.671875 0 20.261719 0 C 15.484375 0 10.847656 1.691406 7.203125 4.769531 C 6.925781 5.003906 6.890625 5.417969 7.125 5.699219 C 7.359375 5.976562 7.777344 6.011719 8.054688 5.777344 C 11.460938 2.902344 15.796875 1.320312 20.261719 1.320312 C 25.320312 1.320312 30.078125 3.292969 33.652344 6.867188 C 37.230469 10.445312 39.203125 15.203125 39.203125 20.261719 C 39.203125 21.03125 39.152344 21.8125 39.058594 22.585938 C 39.019531 22.605469 38.984375 22.632812 38.945312 22.660156 L 37.660156 23.609375 C 37.40625 23.453125 37.148438 23.3125 36.886719 23.179688 C 37.054688 22.21875 37.140625 21.238281 37.140625 20.261719 C 37.140625 16.917969 36.164062 13.6875 34.320312 10.914062 C 34.117188 10.613281 33.707031 10.53125 33.402344 10.730469 C 33.101562 10.933594 33.019531 11.34375 33.21875 11.648438 C 34.921875 14.203125 35.820312 17.179688 35.820312 20.261719 C 35.820312 21.0625 35.757812 21.863281 35.636719 22.652344 C 35.316406 22.539062 34.988281 22.445312 34.65625 22.363281 L 34.417969 20.78125 C 34.316406 20.097656 33.738281 19.601562 33.046875 19.601562 L 31.554688 19.601562 C 30.863281 19.601562 30.285156 20.097656 30.183594 20.78125 L 29.945312 22.363281 C 28.878906 22.617188 27.875 23.03125 26.941406 23.609375 L 25.652344 22.660156 C 25.097656 22.246094 24.335938 22.304688 23.847656 22.792969 L 22.792969 23.847656 C 22.304688 24.335938 22.246094 25.097656 22.660156 25.652344 L 23.609375 26.941406 C 23.03125 27.875 22.617188 28.878906 22.363281 29.945312 L 20.78125 30.183594 C 20.097656 30.285156 19.601562 30.863281 19.601562 31.554688 L 19.601562 33.046875 C 19.601562 33.738281 20.097656 34.316406 20.78125 34.417969 L 22.363281 34.65625 C 22.445312 34.988281 22.539062 35.316406 22.652344 35.636719 C 21.863281 35.757812 21.0625 35.820312 20.261719 35.820312 C 16.207031 35.820312 12.515625 34.261719 9.742188 31.714844 L 18.816406 22.640625 C 19.238281 22.898438 19.730469 23.046875 20.261719 23.046875 C 21.796875 23.046875 23.046875 21.796875 23.046875 20.261719 C 23.046875 18.953125 22.140625 17.851562 20.921875 17.554688 L 20.921875 4.71875 C 22.886719 4.796875 24.785156 5.242188 26.574219 6.035156 C 28.5 6.890625 30.207031 8.109375 31.648438 9.660156 C 31.898438 9.925781 32.316406 9.941406 32.582031 9.691406 C 32.847656 9.441406 32.863281 9.027344 32.613281 8.757812 C 31.050781 7.078125 29.199219 5.757812 27.113281 4.828125 C 24.949219 3.867188 22.644531 3.382812 20.261719 3.382812 C 10.953125 3.382812 3.382812 10.953125 3.382812 20.261719 C 3.382812 29.570312 10.953125 37.140625 20.261719 37.140625 C 21.238281 37.140625 22.21875 37.054688 23.179688 36.886719 C 23.3125 37.148438 23.453125 37.40625 23.609375 37.660156 L 22.660156 38.945312 C 22.632812 38.984375 22.605469 39.019531 22.582031 39.058594 C 21.8125 39.152344 21.03125 39.203125 20.261719 39.203125 C 15.203125 39.203125 10.445312 37.230469 6.867188 33.652344 C 3.289062 30.078125 1.320312 25.320312 1.320312 20.261719 C 1.320312 15.554688 3.058594 11.039062 6.214844 7.554688 C 6.460938 7.28125 6.441406 6.867188 6.171875 6.621094 C 5.898438 6.375 5.480469 6.398438 5.238281 6.667969 C 1.859375 10.398438 0 15.226562 0 20.261719 C 0 25.671875 2.109375 30.761719 5.933594 34.589844 C 9.761719 38.414062 14.847656 40.523438 20.261719 40.523438 C 21.015625 40.523438 21.777344 40.480469 22.535156 40.394531 C 22.601562 40.523438 22.683594 40.644531 22.792969 40.753906 L 23.847656 41.808594 C 24.335938 42.296875 25.097656 42.355469 25.652344 41.941406 L 26.941406 40.992188 C 27.875 41.566406 28.878906 41.984375 29.945312 42.234375 L 30.183594 43.816406 C 30.285156 44.503906 30.863281 45 31.554688 45 L 33.046875 45 C 33.738281 45 34.316406 44.503906 34.417969 43.816406 L 34.65625 42.234375 C 35.722656 41.984375 36.726562 41.566406 37.660156 40.992188 L 38.945312 41.941406 C 39.503906 42.355469 40.261719 42.296875 40.753906 41.808594 L 41.808594 40.753906 C 42.296875 40.265625 42.355469 39.503906 41.941406 38.945312 L 40.992188 37.660156 C 41.566406 36.726562 41.984375 35.722656 42.234375 34.65625 L 43.816406 34.417969 C 44.503906 34.316406 45 33.738281 45 33.046875 L 45 31.554688 C 45 30.863281 44.503906 30.285156 43.816406 30.183594 Z M 21.726562 20.261719 C 21.726562 21.070312 21.070312 21.726562 20.261719 21.726562 C 19.453125 21.726562 18.796875 21.070312 18.796875 20.261719 C 18.796875 19.453125 19.453125 18.796875 20.261719 18.796875 C 21.070312 18.796875 21.726562 19.453125 21.726562 20.261719 Z M 4.71875 20.921875 L 7.109375 20.921875 C 7.472656 20.921875 7.769531 20.625 7.769531 20.261719 C 7.769531 19.894531 7.476562 19.601562 7.109375 19.601562 L 4.71875 19.601562 C 4.875 15.808594 6.398438 12.363281 8.808594 9.742188 L 10.496094 11.429688 C 10.753906 11.6875 11.171875 11.6875 11.429688 11.429688 C 11.6875 11.171875 11.6875 10.753906 11.429688 10.496094 L 9.742188 8.808594 C 12.363281 6.398438 15.808594 4.875 19.601562 4.71875 L 19.601562 17.554688 C 18.382812 17.851562 17.476562 18.953125 17.476562 20.261719 C 17.476562 20.789062 17.625 21.285156 17.878906 21.707031 L 8.808594 30.78125 C 6.398438 28.160156 4.875 24.714844 4.71875 20.921875 Z M 43.679688 33.046875 C 43.679688 33.078125 43.65625 33.105469 43.621094 33.113281 L 41.585938 33.417969 C 41.308594 33.460938 41.085938 33.671875 41.035156 33.949219 C 40.808594 35.160156 40.339844 36.289062 39.640625 37.308594 C 39.484375 37.542969 39.488281 37.847656 39.65625 38.074219 L 40.878906 39.730469 C 40.898438 39.757812 40.898438 39.796875 40.875 39.820312 L 39.820312 40.871094 C 39.796875 40.898438 39.757812 40.898438 39.730469 40.878906 L 38.074219 39.65625 C 37.847656 39.488281 37.542969 39.484375 37.308594 39.640625 C 36.289062 40.339844 35.160156 40.808594 33.949219 41.035156 C 33.671875 41.085938 33.460938 41.308594 33.417969 41.585938 L 33.113281 43.621094 C 33.105469 43.65625 33.078125 43.679688 33.046875 43.679688 L 31.554688 43.679688 C 31.523438 43.679688 31.492188 43.65625 31.488281 43.621094 L 31.183594 41.585938 C 31.140625 41.308594 30.929688 41.085938 30.652344 41.035156 C 29.441406 40.808594 28.308594 40.339844 27.289062 39.640625 C 27.058594 39.484375 26.75 39.488281 26.527344 39.65625 L 24.871094 40.878906 C 24.84375 40.898438 24.804688 40.894531 24.78125 40.871094 L 23.726562 39.820312 C 23.703125 39.796875 23.703125 39.757812 23.722656 39.730469 L 24.945312 38.074219 C 25.113281 37.847656 25.117188 37.542969 24.957031 37.308594 C 24.261719 36.289062 23.792969 35.160156 23.566406 33.949219 C 23.515625 33.671875 23.292969 33.460938 23.015625 33.417969 L 20.980469 33.113281 C 20.945312 33.105469 20.921875 33.078125 20.921875 33.046875 L 20.921875 31.554688 C 20.921875 31.523438 20.945312 31.492188 20.980469 31.488281 L 23.015625 31.183594 C 23.292969 31.140625 23.515625 30.925781 23.566406 30.652344 C 23.792969 29.441406 24.261719 28.308594 24.957031 27.289062 C 25.117188 27.058594 25.113281 26.75 24.945312 26.523438 L 23.722656 24.871094 C 23.703125 24.84375 23.703125 24.804688 23.726562 24.78125 L 24.78125 23.726562 C 24.804688 23.703125 24.84375 23.703125 24.871094 23.722656 L 26.527344 24.945312 C 26.75 25.113281 27.058594 25.117188 27.289062 24.957031 C 28.308594 24.261719 29.441406 23.792969 30.652344 23.566406 C 30.929688 23.515625 31.140625 23.292969 31.183594 23.015625 L 31.488281 20.980469 C 31.492188 20.945312 31.523438 20.921875 31.554688 20.921875 L 33.046875 20.921875 C 33.078125 20.921875 33.105469 20.945312 33.113281 20.980469 L 33.417969 23.015625 C 33.460938 23.292969 33.671875 23.515625 33.949219 23.566406 C 35.160156 23.792969 36.289062 24.261719 37.308594 24.957031 C 37.542969 25.117188 37.847656 25.113281 38.074219 24.945312 L 39.730469 23.722656 C 39.757812 23.699219 39.796875 23.703125 39.820312 23.726562 L 40.875 24.78125 C 40.898438 24.804688 40.898438 24.84375 40.878906 24.871094 L 39.65625 26.523438 C 39.488281 26.75 39.484375 27.058594 39.640625 27.289062 C 40.339844 28.308594 40.808594 29.441406 41.035156 30.652344 C 41.085938 30.925781 41.308594 31.140625 41.585938 31.183594 L 43.621094 31.488281 C 43.65625 31.492188 43.679688 31.523438 43.679688 31.554688 Z M 43.679688 33.046875 "/>
<path style=" stroke:none;fill-rule:nonzero;fill:rgb(0%,0%,0%);fill-opacity:1;" d="M 34.0625 30.339844 L 31.597656 32.867188 L 30.523438 31.828125 C 30.261719 31.574219 29.84375 31.578125 29.589844 31.839844 C 29.335938 32.101562 29.34375 32.519531 29.605469 32.773438 L 31.148438 34.273438 C 31.410156 34.527344 31.828125 34.523438 32.082031 34.261719 L 35.007812 31.261719 C 35.261719 31 35.257812 30.582031 34.996094 30.328125 C 34.734375 30.070312 34.316406 30.078125 34.0625 30.339844 Z M 34.0625 30.339844 "/>
</g>
</svg>
