<?xml version="1.0" encoding="UTF-8"?>
<svg xmlns="http://www.w3.org/2000/svg" xmlns:xlink="http://www.w3.org/1999/xlink" width="35px" height="35px" viewBox="0 0 35 35" version="1.1">
<g id="surface1">
<path style=" stroke:none;fill-rule:nonzero;fill:rgb(0%,0%,0%);fill-opacity:1;" d="M 11.425781 9.113281 L 13.453125 12.691406 L 13.453125 13.570312 C 13.179688 13.757812 13 14.074219 13 14.433594 L 13 15.476562 C 13 16.054688 13.46875 16.523438 14.046875 16.523438 L 14.152344 16.523438 C 14.222656 17.75 15.246094 18.726562 16.492188 18.726562 C 17.738281 18.726562 18.757812 17.75 18.828125 16.523438 L 18.9375 16.523438 C 19.511719 16.523438 19.984375 16.054688 19.984375 15.476562 L 19.984375 14.433594 C 19.984375 14.074219 19.804688 13.757812 19.527344 13.570312 L 19.527344 12.691406 L 21.558594 9.113281 C 21.5625 9.105469 21.566406 9.101562 21.570312 9.09375 C 21.980469 8.34375 22.210938 7.53125 22.265625 6.675781 C 22.28125 6.390625 22.066406 6.148438 21.785156 6.132812 C 21.5 6.117188 21.257812 6.328125 21.242188 6.613281 C 21.199219 7.320312 21.003906 7.992188 20.664062 8.613281 C 20.660156 8.617188 20.660156 8.617188 20.660156 8.621094 L 18.628906 12.203125 C 18.546875 12.347656 18.503906 12.507812 18.503906 12.671875 L 18.503906 13.386719 L 17.003906 13.386719 L 17.003906 9.359375 L 19.609375 6.789062 C 19.757812 6.640625 19.84375 6.441406 19.84375 6.230469 C 19.84375 6.019531 19.761719 5.820312 19.613281 5.667969 L 18.679688 4.734375 C 18.53125 4.585938 18.332031 4.503906 18.121094 4.503906 C 17.910156 4.503906 17.710938 4.585938 17.5625 4.734375 L 17.386719 4.910156 L 16.949219 4.597656 C 16.675781 4.40625 16.308594 4.40625 16.035156 4.597656 L 15.59375 4.910156 L 15.417969 4.734375 C 15.269531 4.585938 15.070312 4.503906 14.863281 4.503906 C 14.652344 4.503906 14.453125 4.585938 14.304688 4.734375 L 13.371094 5.667969 C 13.222656 5.820312 13.140625 6.019531 13.140625 6.230469 C 13.140625 6.441406 13.222656 6.640625 13.375 6.789062 L 15.980469 9.359375 L 15.980469 13.386719 L 14.476562 13.386719 L 14.476562 12.671875 C 14.476562 12.507812 14.433594 12.347656 14.355469 12.203125 L 12.324219 8.621094 C 12.320312 8.617188 12.320312 8.617188 12.320312 8.613281 C 11.933594 7.914062 11.730469 7.121094 11.730469 6.320312 C 11.730469 5.042969 12.230469 3.84375 13.136719 2.945312 C 14.035156 2.050781 15.226562 1.5625 16.492188 1.5625 C 16.5 1.5625 16.511719 1.5625 16.523438 1.5625 C 18.46875 1.574219 20.246094 2.8125 20.941406 4.640625 C 21.042969 4.90625 21.339844 5.039062 21.601562 4.9375 C 21.867188 4.839844 22 4.542969 21.898438 4.277344 C 21.054688 2.054688 18.898438 0.554688 16.53125 0.539062 C 16.515625 0.539062 16.503906 0.539062 16.492188 0.539062 C 14.953125 0.539062 13.507812 1.132812 12.414062 2.21875 C 11.3125 3.3125 10.707031 4.769531 10.707031 6.320312 C 10.707031 7.289062 10.953125 8.25 11.414062 9.09375 C 11.417969 9.101562 11.421875 9.105469 11.425781 9.113281 Z M 14.261719 6.226562 L 14.863281 5.628906 L 15.011719 5.777344 C 15.285156 6.050781 15.710938 6.085938 16.023438 5.863281 L 16.492188 5.53125 L 16.957031 5.863281 C 17.273438 6.085938 17.699219 6.050781 17.972656 5.777344 L 18.121094 5.628906 L 18.71875 6.226562 L 16.492188 8.425781 Z M 16.492188 17.703125 C 15.8125 17.703125 15.25 17.183594 15.179688 16.523438 L 17.800781 16.523438 C 17.734375 17.183594 17.171875 17.703125 16.492188 17.703125 Z M 18.957031 15.476562 C 18.957031 15.488281 18.949219 15.5 18.9375 15.5 L 14.046875 15.5 C 14.035156 15.5 14.023438 15.488281 14.023438 15.476562 L 14.023438 14.433594 C 14.023438 14.417969 14.035156 14.410156 14.046875 14.410156 L 18.9375 14.410156 C 18.949219 14.410156 18.957031 14.417969 18.957031 14.433594 Z M 18.957031 15.476562 "/>
<path style=" stroke:none;fill-rule:nonzero;fill:rgb(0%,0%,0%);fill-opacity:1;" d="M 23.15625 2.976562 C 23.242188 2.976562 23.328125 2.953125 23.410156 2.910156 L 24.011719 2.5625 C 24.257812 2.421875 24.34375 2.109375 24.203125 1.863281 C 24.0625 1.617188 23.75 1.535156 23.503906 1.675781 L 22.902344 2.019531 C 22.65625 2.160156 22.570312 2.472656 22.710938 2.71875 C 22.804688 2.882812 22.976562 2.976562 23.15625 2.976562 Z M 23.15625 2.976562 "/>
<path style=" stroke:none;fill-rule:nonzero;fill:rgb(0%,0%,0%);fill-opacity:1;" d="M 23.152344 6.816406 C 23.039062 7.074219 23.160156 7.378906 23.417969 7.488281 L 24.136719 7.800781 C 24.203125 7.828125 24.269531 7.84375 24.339844 7.84375 C 24.535156 7.84375 24.726562 7.726562 24.808594 7.535156 C 24.921875 7.273438 24.800781 6.972656 24.542969 6.859375 L 23.828125 6.550781 C 23.566406 6.4375 23.265625 6.558594 23.152344 6.816406 Z M 23.152344 6.816406 "/>
<path style=" stroke:none;fill-rule:nonzero;fill:rgb(0%,0%,0%);fill-opacity:1;" d="M 9.042969 2.5625 L 9.644531 2.910156 C 9.722656 2.957031 9.8125 2.976562 9.898438 2.976562 C 10.074219 2.976562 10.25 2.882812 10.34375 2.71875 C 10.484375 2.472656 10.398438 2.160156 10.152344 2.019531 L 9.550781 1.675781 C 9.304688 1.535156 8.992188 1.617188 8.851562 1.863281 C 8.710938 2.109375 8.796875 2.421875 9.042969 2.5625 Z M 9.042969 2.5625 "/>
<path style=" stroke:none;fill-rule:nonzero;fill:rgb(0%,0%,0%);fill-opacity:1;" d="M 8.714844 7.84375 C 8.785156 7.84375 8.851562 7.828125 8.917969 7.800781 L 9.636719 7.488281 C 9.894531 7.378906 10.015625 7.074219 9.902344 6.816406 C 9.789062 6.558594 9.488281 6.4375 9.226562 6.550781 L 8.511719 6.859375 C 8.253906 6.972656 8.132812 7.273438 8.246094 7.535156 C 8.328125 7.726562 8.519531 7.84375 8.714844 7.84375 Z M 8.714844 7.84375 "/>
<path style=" stroke:none;fill-rule:nonzero;fill:rgb(0%,0%,0%);fill-opacity:1;" d="M 21.992188 10.554688 C 21.992188 10.839844 22.222656 11.070312 22.507812 11.070312 L 31.296875 11.070312 L 31.296875 22.894531 C 31.296875 23.175781 31.523438 23.40625 31.808594 23.40625 C 32.089844 23.40625 32.320312 23.175781 32.320312 22.894531 L 32.320312 11.015625 C 32.320312 10.480469 31.882812 10.042969 31.347656 10.042969 L 22.507812 10.042969 C 22.222656 10.042969 21.992188 10.273438 21.992188 10.554688 Z M 21.992188 10.554688 "/>
<path style=" stroke:none;fill-rule:nonzero;fill:rgb(0%,0%,0%);fill-opacity:1;" d="M 31.808594 30.796875 C 31.523438 30.796875 31.296875 31.027344 31.296875 31.308594 L 31.296875 33.4375 L 4.226562 33.4375 C 2.527344 33.4375 1.125 32.113281 1.03125 30.417969 C 0.980469 29.546875 1.289062 28.710938 1.898438 28.070312 C 2.519531 27.414062 3.390625 27.035156 4.296875 27.035156 L 4.824219 27.035156 C 5.265625 27.035156 5.628906 26.675781 5.628906 26.230469 L 5.628906 15.804688 C 5.628906 15.523438 5.398438 15.292969 5.113281 15.292969 C 4.832031 15.292969 4.601562 15.523438 4.601562 15.804688 L 4.601562 26.011719 L 4.296875 26.011719 C 3.113281 26.011719 1.96875 26.503906 1.152344 27.363281 C 1.109375 27.410156 1.066406 27.460938 1.023438 27.507812 L 1.023438 12.207031 C 1.023438 10.4375 2.464844 8.996094 4.234375 8.996094 L 4.601562 8.996094 L 4.601562 13.621094 C 4.601562 13.90625 4.832031 14.136719 5.113281 14.136719 C 5.398438 14.136719 5.628906 13.90625 5.628906 13.621094 L 5.628906 11.070312 L 10.476562 11.070312 C 10.757812 11.070312 10.988281 10.839844 10.988281 10.554688 C 10.988281 10.273438 10.757812 10.042969 10.476562 10.042969 L 5.628906 10.042969 L 5.628906 8.777344 C 5.628906 8.332031 5.265625 7.972656 4.824219 7.972656 L 4.234375 7.972656 C 1.898438 7.972656 0 9.871094 0 12.207031 C 0 12.207031 0.00390625 30.398438 0.0078125 30.476562 C 0.132812 32.710938 1.984375 34.460938 4.226562 34.460938 L 31.347656 34.460938 C 31.882812 34.460938 32.320312 34.027344 32.320312 33.492188 L 32.320312 31.308594 C 32.320312 31.027344 32.089844 30.796875 31.808594 30.796875 Z M 31.808594 30.796875 "/>
<path style=" stroke:none;fill-rule:nonzero;fill:rgb(0%,0%,0%);fill-opacity:1;" d="M 33.132812 24.429688 L 11.640625 24.429688 C 11.554688 24.429688 11.472656 24.453125 11.394531 24.492188 L 7.839844 26.441406 C 7.597656 26.574219 7.445312 26.828125 7.445312 27.101562 C 7.445312 27.375 7.597656 27.628906 7.839844 27.761719 L 11.398438 29.710938 C 11.472656 29.75 11.554688 29.773438 11.644531 29.773438 L 14.660156 29.773438 C 14.945312 29.773438 15.171875 29.542969 15.171875 29.261719 C 15.171875 28.976562 14.945312 28.75 14.660156 28.75 L 12.15625 28.75 L 12.15625 25.453125 L 27.785156 25.453125 L 27.785156 28.75 L 16.84375 28.75 C 16.5625 28.75 16.332031 28.976562 16.332031 29.261719 C 16.332031 29.542969 16.5625 29.773438 16.84375 29.773438 L 33.132812 29.773438 C 34.164062 29.773438 35 28.9375 35 27.90625 L 35 26.296875 C 35 25.265625 34.164062 24.429688 33.132812 24.429688 Z M 11.128906 25.808594 L 11.128906 28.394531 L 8.765625 27.101562 Z M 28.808594 25.453125 L 29.984375 25.453125 L 29.984375 28.75 L 28.808594 28.75 Z M 33.976562 27.90625 C 33.976562 28.371094 33.597656 28.75 33.132812 28.75 L 31.007812 28.75 L 31.007812 25.453125 L 33.132812 25.453125 C 33.597656 25.453125 33.976562 25.832031 33.976562 26.296875 Z M 33.976562 27.90625 "/>
<path style=" stroke:none;fill-rule:nonzero;fill:rgb(0%,0%,0%);fill-opacity:1;" d="M 26.1875 20.703125 L 10.363281 20.703125 C 8.753906 20.703125 7.445312 22.011719 7.445312 23.621094 L 7.445312 24.144531 C 7.445312 24.429688 7.675781 24.660156 7.960938 24.660156 C 8.242188 24.660156 8.472656 24.429688 8.472656 24.144531 L 8.472656 23.621094 C 8.472656 22.578125 9.320312 21.730469 10.363281 21.730469 L 26.1875 21.730469 C 27.710938 21.730469 28.945312 20.492188 28.945312 18.972656 C 28.945312 17.449219 27.710938 16.210938 26.1875 16.210938 L 21.222656 16.210938 C 20.941406 16.210938 20.710938 16.441406 20.710938 16.722656 C 20.710938 17.007812 20.941406 17.238281 21.222656 17.238281 L 26.1875 17.238281 C 27.144531 17.238281 27.921875 18.015625 27.921875 18.972656 C 27.921875 19.925781 27.144531 20.703125 26.1875 20.703125 Z M 26.1875 20.703125 "/>
</g>
</svg>
