<?xml version="1.0" encoding="UTF-8"?>
<svg xmlns="http://www.w3.org/2000/svg" xmlns:xlink="http://www.w3.org/1999/xlink" width="35px" height="35px" viewBox="0 0 35 35" version="1.1">
<g id="surface1">
<path style=" stroke:none;fill-rule:nonzero;fill:rgb(0%,0%,0%);fill-opacity:1;" d="M 14.765625 6.5625 L 20.234375 6.5625 L 20.234375 7.65625 L 14.765625 7.65625 Z M 14.765625 6.5625 "/>
<path style=" stroke:none;fill-rule:nonzero;fill:rgb(0%,0%,0%);fill-opacity:1;" d="M 14.765625 8.75 L 20.234375 8.75 L 20.234375 9.84375 L 14.765625 9.84375 Z M 14.765625 8.75 "/>
<path style=" stroke:none;fill-rule:nonzero;fill:rgb(0%,0%,0%);fill-opacity:1;" d="M 31.171875 29.53125 L 31.171875 25.15625 C 31.171875 24.914062 31.011719 24.699219 30.777344 24.632812 L 18.046875 20.917969 L 18.046875 14.21875 L 21.875 14.21875 C 22.175781 14.21875 22.421875 13.972656 22.421875 13.671875 L 22.421875 4.921875 C 22.421875 4.777344 22.363281 4.636719 22.261719 4.535156 L 18.980469 1.253906 C 18.878906 1.152344 18.738281 1.09375 18.59375 1.09375 L 13.125 1.09375 C 12.824219 1.09375 12.578125 1.339844 12.578125 1.640625 L 12.578125 13.671875 C 12.578125 13.972656 12.824219 14.21875 13.125 14.21875 L 16.953125 14.21875 L 16.953125 20.917969 L 4.222656 24.632812 C 3.988281 24.699219 3.828125 24.914062 3.828125 25.15625 L 3.828125 29.53125 C 3.828125 29.773438 3.988281 29.988281 4.222656 30.054688 L 17.347656 33.882812 C 17.398438 33.898438 17.449219 33.90625 17.5 33.90625 C 17.550781 33.90625 17.601562 33.898438 17.652344 33.882812 L 30.777344 30.054688 C 31.011719 29.988281 31.171875 29.773438 31.171875 29.53125 Z M 19.140625 2.960938 L 20.554688 4.375 L 19.140625 4.375 Z M 13.671875 2.1875 L 18.046875 2.1875 L 18.046875 4.921875 C 18.046875 5.222656 18.292969 5.46875 18.59375 5.46875 L 21.328125 5.46875 L 21.328125 13.125 L 13.671875 13.125 Z M 16.953125 22.058594 L 16.953125 24.929688 L 15.699219 23.675781 L 14.925781 24.449219 L 17.113281 26.636719 C 17.21875 26.742188 17.359375 26.796875 17.5 26.796875 C 17.640625 26.796875 17.78125 26.742188 17.886719 26.636719 L 20.074219 24.449219 L 19.300781 23.675781 L 18.046875 24.929688 L 18.046875 22.058594 L 28.671875 25.15625 L 17.5 28.414062 L 6.328125 25.15625 Z M 4.921875 25.886719 L 16.953125 29.394531 L 16.953125 32.628906 L 4.921875 29.121094 Z M 18.046875 32.628906 L 18.046875 29.394531 L 30.078125 25.886719 L 30.078125 29.121094 Z M 18.046875 32.628906 "/>
<path style=" stroke:none;fill-rule:nonzero;fill:rgb(0%,0%,0%);fill-opacity:1;" d="M 14.765625 4.375 L 16.953125 4.375 L 16.953125 5.46875 L 14.765625 5.46875 Z M 14.765625 4.375 "/>
<path style=" stroke:none;fill-rule:nonzero;fill:rgb(0%,0%,0%);fill-opacity:1;" d="M 1.640625 14.21875 L 5.46875 14.21875 C 5.46875 15.726562 6.695312 16.953125 8.203125 16.953125 L 9.84375 16.953125 C 10.75 16.953125 11.484375 17.6875 11.484375 18.59375 L 11.484375 19.460938 L 10.230469 18.207031 L 9.457031 18.980469 L 11.644531 21.167969 C 11.75 21.273438 11.890625 21.328125 12.03125 21.328125 C 12.171875 21.328125 12.3125 21.273438 12.417969 21.167969 L 14.605469 18.980469 L 13.832031 18.207031 L 12.578125 19.460938 L 12.578125 18.59375 C 12.578125 17.085938 11.351562 15.859375 9.84375 15.859375 L 8.203125 15.859375 C 7.296875 15.859375 6.5625 15.125 6.5625 14.21875 L 10.390625 14.21875 C 10.691406 14.21875 10.9375 13.972656 10.9375 13.671875 L 10.9375 4.921875 C 10.9375 4.777344 10.878906 4.636719 10.777344 4.535156 L 7.496094 1.253906 C 7.394531 1.152344 7.253906 1.09375 7.109375 1.09375 L 1.640625 1.09375 C 1.339844 1.09375 1.09375 1.339844 1.09375 1.640625 L 1.09375 13.671875 C 1.09375 13.972656 1.339844 14.21875 1.640625 14.21875 Z M 7.65625 2.960938 L 9.070312 4.375 L 7.65625 4.375 Z M 2.1875 2.1875 L 6.5625 2.1875 L 6.5625 4.921875 C 6.5625 5.222656 6.808594 5.46875 7.109375 5.46875 L 9.84375 5.46875 L 9.84375 13.125 L 2.1875 13.125 Z M 2.1875 2.1875 "/>
<path style=" stroke:none;fill-rule:nonzero;fill:rgb(0%,0%,0%);fill-opacity:1;" d="M 3.28125 6.5625 L 8.75 6.5625 L 8.75 7.65625 L 3.28125 7.65625 Z M 3.28125 6.5625 "/>
<path style=" stroke:none;fill-rule:nonzero;fill:rgb(0%,0%,0%);fill-opacity:1;" d="M 3.28125 8.75 L 8.75 8.75 L 8.75 9.84375 L 3.28125 9.84375 Z M 3.28125 8.75 "/>
<path style=" stroke:none;fill-rule:nonzero;fill:rgb(0%,0%,0%);fill-opacity:1;" d="M 3.28125 10.9375 L 8.75 10.9375 L 8.75 12.03125 L 3.28125 12.03125 Z M 3.28125 10.9375 "/>
<path style=" stroke:none;fill-rule:nonzero;fill:rgb(0%,0%,0%);fill-opacity:1;" d="M 3.28125 4.375 L 5.46875 4.375 L 5.46875 5.46875 L 3.28125 5.46875 Z M 3.28125 4.375 "/>
<path style=" stroke:none;fill-rule:nonzero;fill:rgb(0%,0%,0%);fill-opacity:1;" d="M 33.90625 13.671875 L 33.90625 4.921875 C 33.90625 4.777344 33.847656 4.636719 33.746094 4.535156 L 30.464844 1.253906 C 30.363281 1.152344 30.222656 1.09375 30.078125 1.09375 L 24.609375 1.09375 C 24.308594 1.09375 24.0625 1.339844 24.0625 1.640625 L 24.0625 13.671875 C 24.0625 13.972656 24.308594 14.21875 24.609375 14.21875 L 28.4375 14.21875 C 28.4375 15.125 27.703125 15.859375 26.796875 15.859375 L 25.15625 15.859375 C 23.648438 15.859375 22.421875 17.085938 22.421875 18.59375 L 22.421875 19.460938 L 21.167969 18.207031 L 20.394531 18.980469 L 22.582031 21.167969 C 22.6875 21.273438 22.828125 21.328125 22.96875 21.328125 C 23.109375 21.328125 23.25 21.273438 23.355469 21.167969 L 25.542969 18.980469 L 24.769531 18.207031 L 23.515625 19.460938 L 23.515625 18.59375 C 23.515625 17.6875 24.25 16.953125 25.15625 16.953125 L 26.796875 16.953125 C 28.304688 16.953125 29.53125 15.726562 29.53125 14.21875 L 33.359375 14.21875 C 33.660156 14.21875 33.90625 13.972656 33.90625 13.671875 Z M 30.625 2.960938 L 32.039062 4.375 L 30.625 4.375 Z M 25.15625 13.125 L 25.15625 2.1875 L 29.53125 2.1875 L 29.53125 4.921875 C 29.53125 5.222656 29.777344 5.46875 30.078125 5.46875 L 32.8125 5.46875 L 32.8125 13.125 Z M 25.15625 13.125 "/>
<path style=" stroke:none;fill-rule:nonzero;fill:rgb(0%,0%,0%);fill-opacity:1;" d="M 26.25 6.5625 L 31.71875 6.5625 L 31.71875 7.65625 L 26.25 7.65625 Z M 26.25 6.5625 "/>
<path style=" stroke:none;fill-rule:nonzero;fill:rgb(0%,0%,0%);fill-opacity:1;" d="M 26.25 8.75 L 31.71875 8.75 L 31.71875 9.84375 L 26.25 9.84375 Z M 26.25 8.75 "/>
<path style=" stroke:none;fill-rule:nonzero;fill:rgb(0%,0%,0%);fill-opacity:1;" d="M 26.25 10.9375 L 31.71875 10.9375 L 31.71875 12.03125 L 26.25 12.03125 Z M 26.25 10.9375 "/>
<path style=" stroke:none;fill-rule:nonzero;fill:rgb(0%,0%,0%);fill-opacity:1;" d="M 26.25 4.375 L 28.4375 4.375 L 28.4375 5.46875 L 26.25 5.46875 Z M 26.25 4.375 "/>
<path style=" stroke:none;fill-rule:nonzero;fill:rgb(0%,0%,0%);fill-opacity:1;" d="M 14.765625 10.9375 L 15.859375 10.9375 L 15.859375 12.03125 L 14.765625 12.03125 Z M 14.765625 10.9375 "/>
<path style=" stroke:none;fill-rule:nonzero;fill:rgb(0%,0%,0%);fill-opacity:1;" d="M 16.953125 10.9375 L 18.046875 10.9375 L 18.046875 12.03125 L 16.953125 12.03125 Z M 16.953125 10.9375 "/>
<path style=" stroke:none;fill-rule:nonzero;fill:rgb(0%,0%,0%);fill-opacity:1;" d="M 19.140625 10.9375 L 20.234375 10.9375 L 20.234375 12.03125 L 19.140625 12.03125 Z M 19.140625 10.9375 "/>
</g>
</svg>
