<?xml version="1.0" encoding="UTF-8"?>
<svg xmlns="http://www.w3.org/2000/svg" xmlns:xlink="http://www.w3.org/1999/xlink" width="35px" height="35px" viewBox="0 0 35 35" version="1.1">
<g id="surface1">
<path style=" stroke:none;fill-rule:nonzero;fill:rgb(0%,0%,0%);fill-opacity:1;" d="M 25.980469 11.378906 L 31.171875 11.378906 C 32.078125 11.375 32.8125 10.644531 32.8125 9.738281 L 32.8125 5.621094 C 32.8125 4.714844 32.078125 3.980469 31.171875 3.980469 L 25.980469 3.980469 C 25.074219 3.980469 24.339844 4.714844 24.339844 5.621094 L 24.339844 7.132812 L 20.78125 7.132812 C 19.875 7.132812 19.140625 7.867188 19.140625 8.773438 L 19.140625 17.605469 L 14.527344 17.605469 L 14.527344 13.457031 C 14.523438 12.703125 14.210938 11.980469 13.660156 11.460938 L 10.835938 8.8125 C 10.328125 8.335938 9.660156 8.074219 8.964844 8.074219 L 3.839844 8.074219 C 2.882812 8.121094 2.144531 8.933594 2.1875 9.886719 L 2.1875 24.660156 C 2.144531 25.617188 2.882812 26.425781 3.839844 26.472656 L 12.875 26.472656 C 13.832031 26.425781 14.566406 25.617188 14.527344 24.660156 L 14.527344 18.699219 C 14.988281 18.703125 18.804688 18.699219 19.140625 18.699219 L 19.140625 26.90625 C 19.140625 27.8125 19.875 28.546875 20.78125 28.546875 L 24.339844 28.546875 L 24.339844 29.378906 C 24.339844 30.285156 25.074219 31.019531 25.980469 31.019531 L 31.171875 31.019531 C 32.078125 31.019531 32.8125 30.285156 32.8125 29.378906 L 32.8125 25.261719 C 32.8125 24.355469 32.078125 23.625 31.171875 23.621094 L 25.980469 23.621094 C 25.074219 23.625 24.339844 24.355469 24.339844 25.261719 L 24.339844 27.453125 L 20.78125 27.453125 C 20.480469 27.453125 20.234375 27.207031 20.234375 26.90625 L 20.234375 18.699219 L 24.339844 18.699219 L 24.339844 19.558594 C 24.339844 20.464844 25.074219 21.199219 25.980469 21.199219 L 31.171875 21.199219 C 32.078125 21.199219 32.8125 20.464844 32.8125 19.558594 L 32.8125 15.441406 C 32.8125 14.535156 32.078125 13.800781 31.171875 13.800781 L 25.980469 13.800781 C 25.074219 13.800781 24.339844 14.535156 24.339844 15.441406 L 24.339844 17.605469 L 20.234375 17.605469 L 20.234375 8.773438 C 20.234375 8.46875 20.480469 8.226562 20.78125 8.226562 L 24.339844 8.226562 L 24.339844 9.738281 C 24.339844 10.644531 25.074219 11.375 25.980469 11.378906 Z M 12.914062 12.261719 C 13.109375 12.445312 13.253906 12.675781 13.335938 12.929688 L 10.058594 12.929688 C 9.757812 12.929688 9.511719 12.683594 9.511719 12.382812 L 9.511719 9.265625 C 9.726562 9.339844 9.921875 9.457031 10.085938 9.613281 Z M 12.875 25.378906 L 3.839844 25.378906 C 3.488281 25.328125 3.242188 25.011719 3.28125 24.660156 L 3.28125 9.886719 C 3.242188 9.535156 3.488281 9.21875 3.839844 9.167969 L 8.417969 9.167969 L 8.417969 12.382812 C 8.417969 13.289062 9.152344 14.023438 10.058594 14.023438 L 13.433594 14.023438 L 13.433594 24.660156 C 13.472656 25.011719 13.226562 25.328125 12.875 25.378906 Z M 25.433594 25.261719 C 25.433594 24.960938 25.675781 24.714844 25.980469 24.714844 L 31.171875 24.714844 C 31.472656 24.714844 31.71875 24.960938 31.71875 25.261719 L 31.71875 29.378906 C 31.71875 29.679688 31.472656 29.925781 31.171875 29.925781 L 25.980469 29.925781 C 25.675781 29.925781 25.433594 29.679688 25.433594 29.378906 Z M 25.433594 15.441406 C 25.433594 15.140625 25.675781 14.894531 25.980469 14.894531 L 31.171875 14.894531 C 31.472656 14.894531 31.71875 15.140625 31.71875 15.441406 L 31.71875 19.558594 C 31.71875 19.859375 31.472656 20.105469 31.171875 20.105469 L 25.980469 20.105469 C 25.675781 20.105469 25.433594 19.859375 25.433594 19.558594 Z M 25.433594 5.621094 C 25.433594 5.320312 25.675781 5.074219 25.980469 5.074219 L 31.171875 5.074219 C 31.472656 5.074219 31.71875 5.320312 31.71875 5.621094 L 31.71875 9.738281 C 31.71875 10.039062 31.472656 10.285156 31.171875 10.285156 L 25.980469 10.285156 C 25.675781 10.285156 25.433594 10.039062 25.433594 9.738281 Z M 25.433594 5.621094 "/>
<path style=" stroke:none;fill-rule:nonzero;fill:rgb(0%,0%,0%);fill-opacity:1;" d="M 26.773438 7.292969 L 30.375 7.292969 C 30.675781 7.289062 30.914062 7.046875 30.914062 6.746094 C 30.914062 6.449219 30.675781 6.207031 30.375 6.199219 L 26.773438 6.199219 C 26.476562 6.207031 26.238281 6.449219 26.238281 6.746094 C 26.238281 7.046875 26.476562 7.289062 26.773438 7.292969 Z M 26.773438 7.292969 "/>
<path style=" stroke:none;fill-rule:nonzero;fill:rgb(0%,0%,0%);fill-opacity:1;" d="M 26.773438 9.15625 L 30.375 9.15625 C 30.675781 9.152344 30.914062 8.90625 30.914062 8.609375 C 30.914062 8.3125 30.675781 8.070312 30.375 8.0625 L 26.773438 8.0625 C 26.476562 8.070312 26.238281 8.3125 26.238281 8.609375 C 26.238281 8.90625 26.476562 9.152344 26.773438 9.15625 Z M 26.773438 9.15625 "/>
<path style=" stroke:none;fill-rule:nonzero;fill:rgb(0%,0%,0%);fill-opacity:1;" d="M 26.773438 17.117188 L 30.375 17.117188 C 30.675781 17.109375 30.914062 16.867188 30.914062 16.570312 C 30.914062 16.269531 30.675781 16.027344 30.375 16.023438 L 26.773438 16.023438 C 26.476562 16.027344 26.238281 16.269531 26.238281 16.570312 C 26.238281 16.867188 26.476562 17.109375 26.773438 17.117188 Z M 26.773438 17.117188 "/>
<path style=" stroke:none;fill-rule:nonzero;fill:rgb(0%,0%,0%);fill-opacity:1;" d="M 26.773438 18.976562 L 30.375 18.976562 C 30.675781 18.972656 30.914062 18.730469 30.914062 18.429688 C 30.914062 18.132812 30.675781 17.890625 30.375 17.882812 L 26.773438 17.882812 C 26.476562 17.890625 26.238281 18.132812 26.238281 18.429688 C 26.238281 18.730469 26.476562 18.972656 26.773438 18.976562 Z M 26.773438 18.976562 "/>
<path style=" stroke:none;fill-rule:nonzero;fill:rgb(0%,0%,0%);fill-opacity:1;" d="M 26.773438 26.9375 L 30.375 26.9375 C 30.675781 26.929688 30.914062 26.6875 30.914062 26.390625 C 30.914062 26.09375 30.675781 25.847656 30.375 25.84375 L 26.773438 25.84375 C 26.476562 25.847656 26.238281 26.09375 26.238281 26.390625 C 26.238281 26.6875 26.476562 26.929688 26.773438 26.9375 Z M 26.773438 26.9375 "/>
<path style=" stroke:none;fill-rule:nonzero;fill:rgb(0%,0%,0%);fill-opacity:1;" d="M 26.773438 28.800781 L 30.375 28.800781 C 30.675781 28.792969 30.914062 28.550781 30.914062 28.253906 C 30.914062 27.953125 30.675781 27.710938 30.375 27.707031 L 26.773438 27.707031 C 26.476562 27.710938 26.238281 27.953125 26.238281 28.253906 C 26.238281 28.550781 26.476562 28.792969 26.773438 28.800781 Z M 26.773438 28.800781 "/>
<path style=" stroke:none;fill-rule:nonzero;fill:rgb(0%,0%,0%);fill-opacity:1;" d="M 11.78125 16.464844 L 4.9375 16.464844 C 4.636719 16.46875 4.398438 16.714844 4.398438 17.011719 C 4.398438 17.308594 4.636719 17.550781 4.9375 17.558594 L 11.78125 17.558594 C 12.078125 17.550781 12.316406 17.308594 12.316406 17.011719 C 12.316406 16.714844 12.078125 16.46875 11.78125 16.464844 Z M 11.78125 16.464844 "/>
<path style=" stroke:none;fill-rule:nonzero;fill:rgb(0%,0%,0%);fill-opacity:1;" d="M 11.78125 19.378906 L 4.9375 19.378906 C 4.636719 19.386719 4.398438 19.628906 4.398438 19.925781 C 4.398438 20.222656 4.636719 20.46875 4.9375 20.472656 L 11.78125 20.472656 C 12.078125 20.46875 12.316406 20.222656 12.316406 19.925781 C 12.316406 19.628906 12.078125 19.386719 11.78125 19.378906 Z M 11.78125 19.378906 "/>
<path style=" stroke:none;fill-rule:nonzero;fill:rgb(0%,0%,0%);fill-opacity:1;" d="M 11.78125 22.234375 L 4.9375 22.234375 C 4.636719 22.238281 4.398438 22.480469 4.398438 22.78125 C 4.398438 23.078125 4.636719 23.320312 4.9375 23.328125 L 11.78125 23.328125 C 12.078125 23.320312 12.316406 23.078125 12.316406 22.78125 C 12.316406 22.480469 12.078125 22.238281 11.78125 22.234375 Z M 11.78125 22.234375 "/>
</g>
</svg>
