<?xml version="1.0" encoding="UTF-8"?>
<svg xmlns="http://www.w3.org/2000/svg" xmlns:xlink="http://www.w3.org/1999/xlink" width="35px" height="35px" viewBox="0 0 35 35" version="1.1">
<g id="surface1">
<path style=" stroke:none;fill-rule:nonzero;fill:rgb(0%,0%,0%);fill-opacity:1;" d="M 8.304688 13.929688 L 12.992188 13.929688 C 13.488281 13.929688 13.890625 13.527344 13.890625 13.035156 L 13.890625 9.691406 C 13.890625 9.109375 13.320312 8.671875 12.757812 8.824219 C 11.53125 9.15625 10.324219 8.140625 10.40625 6.878906 C 10.484375 5.726562 11.632812 4.894531 12.753906 5.195312 C 13.316406 5.34375 13.890625 4.917969 13.890625 4.332031 L 13.890625 0.894531 C 13.890625 0.402344 13.488281 0 12.992188 0 L 2 0 C 0.898438 0 0 0.898438 0 2.003906 L 0 4.101562 C 0 4.386719 0.230469 4.617188 0.511719 4.617188 C 0.796875 4.617188 1.027344 4.386719 1.027344 4.101562 L 1.027344 2.003906 C 1.027344 1.464844 1.464844 1.023438 2 1.023438 L 12.863281 1.023438 L 12.863281 4.167969 C 11.171875 3.816406 9.5 5.085938 9.386719 6.8125 C 9.261719 8.683594 11.019531 10.238281 12.863281 9.855469 L 12.863281 12.90625 L 7.488281 12.90625 C 7.113281 12.90625 6.816406 13.355469 7.070312 13.710938 C 7.964844 14.984375 6.953125 16.773438 5.410156 16.667969 C 3.984375 16.570312 3.183594 14.890625 4.011719 13.710938 C 4.265625 13.355469 3.96875 12.90625 3.59375 12.90625 L 1.023438 12.90625 L 1.023438 6.152344 C 1.023438 5.867188 0.796875 5.636719 0.511719 5.636719 C 0.230469 5.636719 0 5.867188 0 6.152344 L 0 13.035156 C 0 13.527344 0.402344 13.929688 0.894531 13.929688 L 2.773438 13.929688 C 2.230469 15.679688 3.507812 17.566406 5.339844 17.691406 C 7.332031 17.828125 8.902344 15.839844 8.304688 13.929688 Z M 8.304688 13.929688 "/>
<path style=" stroke:none;fill-rule:nonzero;fill:rgb(0%,0%,0%);fill-opacity:1;" d="M 33 8.164062 L 22.007812 8.164062 C 21.511719 8.164062 21.109375 8.566406 21.109375 9.0625 L 21.109375 12.332031 C 19.421875 11.980469 17.746094 13.253906 17.632812 14.976562 C 17.507812 16.851562 19.269531 18.402344 21.109375 18.019531 L 21.109375 21.070312 L 16.371094 21.070312 C 16.078125 21.070312 15.804688 21.214844 15.636719 21.457031 C 15.46875 21.699219 15.429688 22.011719 15.539062 22.292969 C 15.976562 23.445312 15.15625 24.75 13.921875 24.835938 C 12.578125 24.925781 11.558594 23.554688 12.042969 22.289062 C 12.148438 22.011719 12.109375 21.699219 11.941406 21.457031 C 11.777344 21.214844 11.5 21.070312 11.207031 21.070312 L 9.144531 21.070312 C 8.648438 21.070312 8.246094 21.472656 8.246094 21.964844 L 8.246094 32.996094 C 8.246094 34.101562 9.144531 35 10.25 35 L 33 35 C 34.101562 35 35 34.101562 35 32.996094 L 35 30.117188 C 35 29.835938 34.769531 29.605469 34.488281 29.605469 C 34.203125 29.605469 33.972656 29.835938 33.972656 30.117188 L 33.972656 32.996094 C 33.972656 33.535156 33.539062 33.976562 33 33.976562 L 22.136719 33.976562 L 22.136719 31.945312 C 22.136719 31.523438 21.671875 31.3125 21.351562 31.511719 C 20.4375 32.089844 19.171875 31.390625 19.179688 30.296875 C 19.1875 29.214844 20.421875 28.515625 21.351562 29.101562 C 21.6875 29.316406 22.136719 29.074219 22.136719 28.667969 L 22.136719 22.09375 L 25.558594 22.09375 C 25.964844 22.09375 26.210938 21.628906 25.984375 21.292969 C 25.695312 20.875 25.542969 20.371094 25.542969 19.863281 C 25.546875 16.550781 30.566406 16.554688 30.570312 19.863281 C 30.570312 20.371094 30.414062 20.875 30.128906 21.292969 C 29.882812 21.648438 30.179688 22.09375 30.550781 22.09375 L 33.972656 22.09375 L 33.972656 28.070312 C 33.972656 28.355469 34.203125 28.585938 34.488281 28.585938 C 34.769531 28.585938 35 28.355469 35 28.070312 L 35 10.171875 C 35 9.066406 34.101562 8.164062 33 8.164062 Z M 21.109375 32.703125 L 21.109375 33.976562 L 10.25 33.976562 C 9.710938 33.976562 9.273438 33.535156 9.273438 32.996094 L 9.273438 22.09375 L 11.023438 22.09375 C 10.429688 24 11.992188 25.996094 13.988281 25.859375 C 15.820312 25.734375 17.101562 23.84375 16.554688 22.09375 L 21.109375 22.09375 L 21.109375 27.910156 C 19.730469 27.613281 18.324219 28.625 18.167969 30.03125 C 17.992188 31.660156 19.496094 33.050781 21.109375 32.703125 Z M 31.386719 21.070312 C 31.523438 20.6875 31.59375 20.28125 31.59375 19.867188 C 31.59375 15.179688 24.453125 15.226562 24.519531 19.914062 C 24.523438 20.3125 24.59375 20.703125 24.726562 21.070312 L 22.136719 21.070312 L 22.136719 17.296875 C 22.058594 16.863281 21.808594 16.710938 21.386719 16.84375 C 20.109375 17.511719 18.5625 16.476562 18.65625 15.046875 C 18.742188 13.726562 20.207031 12.894531 21.386719 13.511719 C 21.808594 13.640625 22.058594 13.488281 22.136719 13.054688 L 22.136719 9.191406 L 33 9.191406 C 33.535156 9.191406 33.976562 9.628906 33.976562 10.171875 L 33.976562 21.070312 Z M 31.386719 21.070312 "/>
<path style=" stroke:none;fill-rule:nonzero;fill:rgb(0%,0%,0%);fill-opacity:1;" d="M 18.695312 10.09375 C 18.695312 10.378906 18.925781 10.605469 19.210938 10.605469 C 19.492188 10.605469 19.722656 10.378906 19.722656 10.09375 L 19.722656 7.941406 L 22.703125 4.960938 L 29.402344 4.960938 C 29.625 5.714844 30.320312 6.265625 31.144531 6.265625 C 32.148438 6.265625 32.964844 5.453125 32.964844 4.449219 C 32.964844 3.445312 32.148438 2.632812 31.144531 2.632812 C 30.320312 2.632812 29.625 3.183594 29.402344 3.9375 L 22.488281 3.9375 C 22.351562 3.9375 22.222656 3.992188 22.125 4.085938 L 18.847656 7.367188 C 18.75 7.460938 18.695312 7.59375 18.695312 7.730469 Z M 31.144531 3.65625 C 31.582031 3.65625 31.9375 4.011719 31.9375 4.449219 C 31.9375 4.886719 31.582031 5.242188 31.144531 5.242188 C 30.710938 5.242188 30.355469 4.886719 30.355469 4.449219 C 30.355469 4.011719 30.710938 3.65625 31.144531 3.65625 Z M 31.144531 3.65625 "/>
<path style=" stroke:none;fill-rule:nonzero;fill:rgb(0%,0%,0%);fill-opacity:1;" d="M 16.367188 3.5625 L 16.367188 10.914062 C 16.367188 11.199219 16.59375 11.425781 16.878906 11.425781 C 17.160156 11.425781 17.390625 11.199219 17.390625 10.914062 L 17.390625 3.5625 C 18.144531 3.339844 18.695312 2.640625 18.695312 1.816406 C 18.695312 0.816406 17.878906 0 16.878906 0 C 15.875 0 15.0625 0.816406 15.0625 1.816406 C 15.0625 2.640625 15.613281 3.339844 16.367188 3.5625 Z M 16.878906 1.023438 C 17.316406 1.023438 17.671875 1.382812 17.671875 1.816406 C 17.671875 2.25 17.320312 2.601562 16.890625 2.609375 C 16.886719 2.609375 16.882812 2.609375 16.878906 2.609375 C 16.875 2.609375 16.871094 2.609375 16.867188 2.609375 C 16.433594 2.601562 16.085938 2.25 16.085938 1.816406 C 16.085938 1.382812 16.441406 1.027344 16.878906 1.027344 Z M 16.878906 1.023438 "/>
<path style=" stroke:none;fill-rule:nonzero;fill:rgb(0%,0%,0%);fill-opacity:1;" d="M 12.925781 17.054688 C 12.925781 16.054688 12.109375 15.238281 11.109375 15.238281 C 10.105469 15.238281 9.289062 16.054688 9.289062 17.054688 C 9.289062 18.058594 10.105469 18.875 11.109375 18.875 C 11.421875 18.875 11.71875 18.792969 11.980469 18.652344 L 13.226562 19.898438 L 13.226562 22.421875 C 13.226562 22.707031 13.457031 22.933594 13.742188 22.933594 C 14.023438 22.933594 14.253906 22.707031 14.253906 22.421875 L 14.253906 19.6875 C 14.253906 19.550781 14.199219 19.421875 14.101562 19.324219 L 12.703125 17.925781 C 12.84375 17.667969 12.925781 17.371094 12.925781 17.054688 Z M 10.316406 17.054688 C 10.316406 16.617188 10.671875 16.261719 11.109375 16.261719 C 11.546875 16.261719 11.902344 16.617188 11.902344 17.054688 C 11.902344 17.492188 11.546875 17.847656 11.109375 17.847656 C 10.671875 17.847656 10.316406 17.492188 10.316406 17.054688 Z M 10.316406 17.054688 "/>
</g>
</svg>
