<?xml version="1.0" encoding="UTF-8"?>
<svg xmlns="http://www.w3.org/2000/svg" xmlns:xlink="http://www.w3.org/1999/xlink" width="50px" height="50px" viewBox="0 0 50 50" version="1.1">
<g id="surface1">
<path style=" stroke:none;fill-rule:nonzero;fill:rgb(0%,0%,0%);fill-opacity:1;" d="M 6.46875 29.851562 C 6.46875 29.410156 6.175781 29.117188 5.734375 29.117188 C 5.292969 29.117188 5 29.410156 5 29.851562 C 5 32.5 7.132812 34.632812 9.78125 34.632812 C 10.21875 34.632812 10.515625 34.339844 10.515625 33.898438 C 10.515625 33.457031 10.21875 33.160156 9.78125 33.160156 C 7.941406 33.160156 6.46875 31.691406 6.46875 29.851562 Z M 6.46875 29.851562 "/>
<path style=" stroke:none;fill-rule:nonzero;fill:rgb(0%,0%,0%);fill-opacity:1;" d="M 24.78125 30.734375 C 24.78125 31.984375 25.734375 32.941406 26.984375 32.941406 C 28.234375 32.941406 29.191406 31.984375 29.191406 30.734375 C 29.191406 29.484375 28.234375 28.53125 26.984375 28.53125 C 25.734375 28.53125 24.78125 29.558594 24.78125 30.734375 Z M 27.71875 30.734375 C 27.71875 31.175781 27.425781 31.46875 26.984375 31.46875 C 26.542969 31.46875 26.25 31.175781 26.25 30.734375 C 26.25 30.292969 26.542969 30 26.984375 30 C 27.425781 30 27.71875 30.367188 27.71875 30.734375 Z M 27.71875 30.734375 "/>
<path style=" stroke:none;fill-rule:nonzero;fill:rgb(0%,0%,0%);fill-opacity:1;" d="M 33.601562 32.941406 C 34.851562 32.941406 35.808594 31.984375 35.808594 30.734375 C 35.808594 29.484375 34.851562 28.53125 33.601562 28.53125 C 32.351562 28.53125 31.398438 29.484375 31.398438 30.734375 C 31.398438 31.984375 32.425781 32.941406 33.601562 32.941406 Z M 33.601562 30 C 34.042969 30 34.339844 30.292969 34.339844 30.734375 C 34.339844 31.175781 34.042969 31.46875 33.601562 31.46875 C 33.160156 31.46875 32.867188 31.175781 32.867188 30.734375 C 32.867188 30.292969 33.234375 30 33.601562 30 Z M 33.601562 30 "/>
<path style=" stroke:none;fill-rule:nonzero;fill:rgb(0%,0%,0%);fill-opacity:1;" d="M 42.425781 30.734375 C 42.425781 29.484375 41.46875 28.53125 40.21875 28.53125 C 38.96875 28.53125 38.015625 29.484375 38.015625 30.734375 C 38.015625 31.984375 38.96875 32.941406 40.21875 32.941406 C 41.46875 32.941406 42.425781 31.984375 42.425781 30.734375 Z M 39.484375 30.734375 C 39.484375 30.292969 39.78125 30 40.21875 30 C 40.660156 30 40.957031 30.292969 40.957031 30.734375 C 40.957031 31.175781 40.660156 31.46875 40.21875 31.46875 C 39.78125 31.46875 39.484375 31.175781 39.484375 30.734375 Z M 39.484375 30.734375 "/>
<path style=" stroke:none;fill-rule:nonzero;fill:rgb(0%,0%,0%);fill-opacity:1;" d="M 5.292969 23.75 C 2.941406 25.148438 1.46875 27.648438 1.46875 30.367188 C 1.46875 34.632812 4.925781 38.089844 9.117188 38.089844 L 17.351562 38.089844 L 17.351562 43.457031 L 15.441406 43.457031 C 15.148438 42.425781 14.117188 41.617188 13.015625 41.617188 C 11.617188 41.617188 10.441406 42.792969 10.441406 44.191406 C 10.441406 45.589844 11.617188 46.765625 13.015625 46.765625 C 14.191406 46.765625 15.148438 45.957031 15.441406 44.925781 L 17.351562 44.925781 C 18.160156 44.925781 18.824219 44.265625 18.824219 43.457031 L 18.824219 38.089844 L 23.308594 38.089844 L 23.308594 43.457031 C 22.28125 43.75 21.46875 44.78125 21.46875 45.882812 C 21.46875 47.28125 22.648438 48.457031 24.042969 48.457031 C 25.441406 48.457031 26.617188 47.28125 26.617188 45.882812 C 26.617188 44.707031 25.808594 43.75 24.78125 43.457031 L 24.78125 38.089844 L 31.175781 38.089844 L 31.175781 43.457031 C 31.175781 44.265625 31.839844 44.925781 32.648438 44.925781 L 34.558594 44.925781 C 34.851562 45.957031 35.882812 46.765625 36.984375 46.765625 C 38.382812 46.765625 39.558594 45.589844 39.558594 44.191406 C 39.558594 42.792969 38.382812 41.617188 36.984375 41.617188 C 35.808594 41.617188 34.851562 42.425781 34.558594 43.457031 L 32.648438 43.457031 L 32.648438 38.089844 L 40.292969 38.089844 C 44.851562 38.089844 48.53125 34.410156 48.53125 29.851562 C 48.53125 25.21875 44.632812 21.542969 40.21875 21.617188 C 40.21875 15.957031 35.957031 11.25 30.515625 10.515625 C 30.148438 10.441406 29.78125 10.734375 29.707031 11.175781 C 29.632812 11.542969 29.925781 11.910156 30.367188 11.984375 C 35.441406 12.648438 39.191406 17.207031 38.75 22.351562 C 38.675781 22.792969 39.117188 23.234375 39.558594 23.160156 C 43.308594 22.648438 47.058594 25.734375 47.058594 29.851562 C 47.058594 33.601562 44.042969 36.617188 40.292969 36.617188 C 23.75 36.617188 27.5 36.617188 9.117188 36.617188 C 5.734375 36.617188 2.941406 33.824219 2.941406 30.367188 C 2.941406 27.941406 4.339844 25.808594 6.46875 24.78125 C 8.675781 26.542969 11.542969 27.648438 14.558594 27.648438 C 21.765625 27.648438 27.648438 21.765625 27.648438 14.558594 C 27.648438 7.351562 21.765625 1.46875 14.558594 1.46875 C 7.351562 1.46875 1.46875 7.351562 1.46875 14.558594 C 1.46875 18.089844 2.867188 21.398438 5.292969 23.75 Z M 13.015625 45.292969 C 12.425781 45.292969 11.910156 44.78125 11.910156 44.191406 C 11.910156 43.601562 12.425781 43.089844 13.015625 43.089844 C 13.601562 43.089844 14.117188 43.601562 14.117188 44.191406 C 14.117188 44.78125 13.601562 45.292969 13.015625 45.292969 Z M 25.148438 45.957031 C 25.148438 46.542969 24.632812 47.058594 24.042969 47.058594 C 23.457031 47.058594 22.941406 46.542969 22.941406 45.957031 C 22.941406 45.367188 23.457031 44.851562 24.042969 44.851562 C 24.632812 44.851562 25.148438 45.367188 25.148438 45.957031 Z M 36.984375 43.089844 C 37.574219 43.089844 38.089844 43.601562 38.089844 44.191406 C 38.089844 44.78125 37.574219 45.292969 36.984375 45.292969 C 36.398438 45.292969 35.882812 44.78125 35.882812 44.191406 C 35.882812 43.601562 36.398438 43.089844 36.984375 43.089844 Z M 5.367188 7.574219 C 6.617188 8.089844 8.015625 8.457031 9.632812 8.75 C 9.339844 10.292969 9.117188 12.058594 9.117188 13.898438 L 2.941406 13.898438 C 3.160156 11.46875 3.96875 9.339844 5.367188 7.574219 Z M 17.71875 7.425781 C 15.589844 7.648438 13.601562 7.648438 11.398438 7.425781 C 12.207031 4.707031 13.382812 2.941406 14.558594 2.941406 C 16.101562 2.867188 17.28125 5.882812 17.71875 7.425781 Z M 26.175781 13.824219 L 20.074219 13.824219 C 20 11.984375 19.851562 10.21875 19.558594 8.675781 C 21.175781 8.382812 22.574219 8.015625 23.824219 7.5 C 25.148438 9.339844 26.03125 11.46875 26.175781 13.824219 Z M 23.824219 21.617188 C 22.574219 21.101562 21.175781 20.734375 19.558594 20.441406 C 19.851562 18.898438 20.074219 17.132812 20.074219 15.292969 L 26.175781 15.292969 C 26.03125 17.648438 25.148438 19.851562 23.824219 21.617188 Z M 14.558594 26.175781 C 13.382812 26.175781 12.207031 24.484375 11.398438 21.691406 C 13.53125 21.46875 15.589844 21.46875 17.71875 21.691406 C 16.910156 24.484375 15.734375 26.175781 14.558594 26.175781 Z M 6.324219 22.792969 C 7.351562 22.425781 8.601562 22.132812 9.925781 21.910156 C 10.367188 23.53125 10.957031 24.851562 11.691406 25.882812 C 9.632812 25.292969 7.792969 24.265625 6.324219 22.792969 Z M 11.03125 20.21875 C 10.734375 18.75 10.515625 17.132812 10.515625 15.292969 L 18.601562 15.292969 C 18.53125 17.132812 18.382812 18.75 18.089844 20.21875 C 15.734375 20 13.457031 20 11.03125 20.21875 Z M 18.601562 13.824219 L 10.515625 13.824219 C 10.589844 11.984375 10.734375 10.367188 11.03125 8.898438 C 13.382812 9.191406 15.660156 9.191406 18.089844 8.898438 C 18.382812 10.367188 18.601562 11.984375 18.601562 13.824219 Z M 9.925781 7.28125 C 8.601562 7.058594 7.425781 6.765625 6.324219 6.398438 C 7.792969 4.925781 9.558594 3.898438 11.617188 3.382812 C 10.957031 4.339844 10.367188 5.660156 9.925781 7.28125 Z M 9.042969 15.292969 C 9.117188 17.132812 9.265625 18.898438 9.558594 20.441406 C 7.941406 20.734375 6.542969 21.101562 5.292969 21.617188 C 3.96875 19.851562 3.160156 17.648438 2.941406 15.292969 Z M 17.5 25.808594 C 18.234375 24.851562 18.824219 23.457031 19.265625 21.839844 C 20.589844 22.058594 21.839844 22.351562 22.867188 22.71875 C 21.324219 24.265625 19.558594 25.292969 17.5 25.808594 Z M 22.792969 6.398438 C 21.765625 6.765625 20.515625 7.058594 19.191406 7.28125 C 18.75 5.660156 18.160156 4.339844 17.425781 3.308594 C 19.558594 3.824219 21.324219 4.925781 22.792969 6.398438 Z M 22.792969 6.398438 "/>
</g>
</svg>
