<?xml version="1.0" encoding="UTF-8"?>
<svg xmlns="http://www.w3.org/2000/svg" xmlns:xlink="http://www.w3.org/1999/xlink" width="50px" height="50px" viewBox="0 0 50 50" version="1.1">
<g id="surface1">
<path style=" stroke:none;fill-rule:nonzero;fill:rgb(0%,0%,0%);fill-opacity:1;" d="M 20.726562 10.421875 C 20.78125 10.683594 20.703125 10.953125 20.515625 11.140625 C 20.328125 11.328125 20.058594 11.40625 19.796875 11.351562 C 19.492188 11.300781 19.1875 11.429688 19.015625 11.6875 C 18.511719 12.441406 18.15625 13.285156 17.96875 14.171875 C 17.910156 14.472656 18.035156 14.777344 18.28125 14.953125 C 18.503906 15.097656 18.636719 15.34375 18.636719 15.609375 C 18.636719 15.875 18.503906 16.121094 18.28125 16.265625 C 18.035156 16.441406 17.910156 16.746094 17.96875 17.046875 C 18.15625 17.933594 18.511719 18.777344 19.015625 19.53125 C 19.1875 19.789062 19.492188 19.917969 19.796875 19.867188 C 20.058594 19.8125 20.328125 19.890625 20.515625 20.078125 C 20.703125 20.265625 20.78125 20.535156 20.726562 20.796875 C 20.675781 21.101562 20.804688 21.40625 21.0625 21.578125 C 21.8125 22.09375 22.65625 22.457031 23.546875 22.65625 C 23.847656 22.714844 24.152344 22.589844 24.328125 22.34375 C 24.484375 22.140625 24.726562 22.019531 24.984375 22.019531 C 25.242188 22.019531 25.484375 22.140625 25.640625 22.34375 C 25.785156 22.546875 26.023438 22.671875 26.273438 22.671875 L 26.4375 22.671875 C 27.320312 22.476562 28.15625 22.117188 28.90625 21.609375 C 29.164062 21.4375 29.292969 21.132812 29.242188 20.828125 C 29.1875 20.566406 29.265625 20.296875 29.453125 20.109375 C 29.640625 19.921875 29.910156 19.84375 30.171875 19.898438 C 30.476562 19.949219 30.78125 19.820312 30.953125 19.5625 C 31.46875 18.8125 31.832031 17.96875 32.03125 17.078125 C 32.089844 16.777344 31.964844 16.472656 31.71875 16.296875 C 31.496094 16.152344 31.363281 15.90625 31.363281 15.640625 C 31.363281 15.375 31.496094 15.128906 31.71875 14.984375 C 31.964844 14.808594 32.089844 14.503906 32.03125 14.203125 C 31.84375 13.316406 31.488281 12.472656 30.984375 11.71875 C 30.8125 11.460938 30.507812 11.332031 30.203125 11.382812 C 29.941406 11.4375 29.671875 11.359375 29.484375 11.171875 C 29.296875 10.984375 29.21875 10.714844 29.273438 10.453125 C 29.324219 10.148438 29.195312 9.84375 28.9375 9.671875 C 28.1875 9.15625 27.34375 8.792969 26.453125 8.59375 C 26.152344 8.535156 25.847656 8.660156 25.671875 8.90625 C 25.515625 9.109375 25.273438 9.230469 25.015625 9.230469 C 24.757812 9.230469 24.515625 9.109375 24.359375 8.90625 C 24.183594 8.660156 23.878906 8.535156 23.578125 8.59375 C 22.691406 8.78125 21.847656 9.136719 21.09375 9.640625 C 20.824219 9.804688 20.679688 10.113281 20.726562 10.421875 Z M 22.289062 10.726562 C 22.652344 10.523438 23.039062 10.359375 23.4375 10.242188 C 24.339844 11 25.660156 11 26.5625 10.242188 C 26.96875 10.359375 27.359375 10.523438 27.726562 10.726562 C 27.800781 11.902344 28.738281 12.839844 29.914062 12.914062 C 30.113281 13.277344 30.269531 13.664062 30.382812 14.0625 C 29.585938 14.953125 29.585938 16.296875 30.382812 17.1875 C 30.265625 17.59375 30.101562 17.984375 29.898438 18.351562 C 28.722656 18.425781 27.785156 19.363281 27.710938 20.539062 C 27.34375 20.742188 26.953125 20.90625 26.546875 21.023438 C 25.65625 20.226562 24.3125 20.226562 23.421875 21.023438 C 23.015625 20.90625 22.625 20.742188 22.257812 20.539062 C 22.183594 19.363281 21.246094 18.425781 20.070312 18.351562 C 19.875 17.980469 19.722656 17.589844 19.617188 17.1875 C 20.414062 16.296875 20.414062 14.953125 19.617188 14.0625 C 19.734375 13.65625 19.898438 13.265625 20.101562 12.898438 C 21.277344 12.824219 22.214844 11.886719 22.289062 10.710938 Z M 22.289062 10.726562 "/>
<path style=" stroke:none;fill-rule:nonzero;fill:rgb(0%,0%,0%);fill-opacity:1;" d="M 25 18.75 C 26.726562 18.75 28.125 17.351562 28.125 15.625 C 28.125 13.898438 26.726562 12.5 25 12.5 C 23.273438 12.5 21.875 13.898438 21.875 15.625 C 21.875 17.351562 23.273438 18.75 25 18.75 Z M 25 14.0625 C 25.863281 14.0625 26.5625 14.761719 26.5625 15.625 C 26.5625 16.488281 25.863281 17.1875 25 17.1875 C 24.136719 17.1875 23.4375 16.488281 23.4375 15.625 C 23.4375 14.761719 24.136719 14.0625 25 14.0625 Z M 25 14.0625 "/>
<path style=" stroke:none;fill-rule:nonzero;fill:rgb(0%,0%,0%);fill-opacity:1;" d="M 13.28125 27.34375 L 24.21875 27.34375 L 24.21875 30.46875 L 20.3125 30.46875 C 18.890625 30.472656 17.652344 31.4375 17.296875 32.8125 L 11.71875 32.8125 C 11.289062 32.8125 10.9375 33.164062 10.9375 33.59375 L 10.9375 38.28125 L 12.5 38.28125 L 12.5 34.375 L 17.296875 34.375 C 17.652344 35.75 18.890625 36.714844 20.3125 36.71875 L 29.6875 36.71875 C 31.109375 36.714844 32.347656 35.75 32.703125 34.375 L 37.5 34.375 L 37.5 38.28125 L 39.0625 38.28125 L 39.0625 33.59375 C 39.0625 33.164062 38.710938 32.8125 38.28125 32.8125 L 32.703125 32.8125 C 32.347656 31.4375 31.109375 30.472656 29.6875 30.46875 L 25.78125 30.46875 L 25.78125 27.34375 L 36.71875 27.34375 C 41.054688 27.332031 44.699219 24.089844 45.222656 19.789062 C 45.746094 15.488281 42.984375 11.46875 38.78125 10.414062 C 37.84375 7.03125 34.761719 4.6875 31.25 4.6875 C 30.585938 4.6875 29.921875 4.773438 29.28125 4.945312 C 26.738281 1.46875 22.277344 -0.0273438 18.152344 1.214844 C 14.027344 2.460938 11.132812 6.171875 10.9375 10.476562 C 6.800781 11.636719 4.160156 15.675781 4.75 19.933594 C 5.339844 24.1875 8.984375 27.351562 13.28125 27.34375 Z M 29.6875 32.03125 C 30.550781 32.03125 31.25 32.730469 31.25 33.59375 C 31.25 34.457031 30.550781 35.15625 29.6875 35.15625 L 20.3125 35.15625 C 19.449219 35.15625 18.75 34.457031 18.75 33.59375 C 18.75 32.730469 19.449219 32.03125 20.3125 32.03125 Z M 11.882812 11.859375 C 12.253906 11.785156 12.515625 11.457031 12.507812 11.078125 C 12.507812 11.078125 12.5 10.9375 12.5 10.9375 C 12.488281 7.121094 14.992188 3.757812 18.652344 2.671875 C 22.308594 1.589844 26.242188 3.046875 28.3125 6.25 C 28.507812 6.550781 28.878906 6.675781 29.21875 6.5625 C 30.914062 5.980469 32.78125 6.152344 34.339844 7.039062 C 35.898438 7.925781 37 9.441406 37.367188 11.195312 C 37.429688 11.511719 37.675781 11.753906 37.992188 11.8125 C 41.632812 12.410156 44.191406 15.714844 43.859375 19.390625 C 43.523438 23.0625 40.40625 25.851562 36.71875 25.78125 L 13.28125 25.78125 C 9.671875 25.78125 6.648438 23.046875 6.285156 19.453125 C 5.925781 15.859375 8.34375 12.578125 11.882812 11.859375 Z M 11.882812 11.859375 "/>
<path style=" stroke:none;fill-rule:nonzero;fill:rgb(0%,0%,0%);fill-opacity:1;" d="M 21.09375 5.46875 L 21.09375 3.90625 C 17.210938 3.90625 14.0625 7.054688 14.0625 10.9375 L 15.625 10.9375 C 15.625 7.917969 18.074219 5.46875 21.09375 5.46875 Z M 21.09375 5.46875 "/>
<path style=" stroke:none;fill-rule:nonzero;fill:rgb(0%,0%,0%);fill-opacity:1;" d="M 1.5625 49.21875 L 22.65625 49.21875 C 23.085938 49.21875 23.4375 48.867188 23.4375 48.4375 L 23.4375 40.625 C 23.4375 40.195312 23.085938 39.84375 22.65625 39.84375 L 1.5625 39.84375 C 1.132812 39.84375 0.78125 40.195312 0.78125 40.625 L 0.78125 48.4375 C 0.78125 48.867188 1.132812 49.21875 1.5625 49.21875 Z M 2.34375 41.40625 L 21.875 41.40625 L 21.875 47.65625 L 2.34375 47.65625 Z M 2.34375 41.40625 "/>
<path style=" stroke:none;fill-rule:nonzero;fill:rgb(0%,0%,0%);fill-opacity:1;" d="M 3.90625 43.75 L 5.46875 43.75 L 5.46875 45.3125 L 3.90625 45.3125 Z M 3.90625 43.75 "/>
<path style=" stroke:none;fill-rule:nonzero;fill:rgb(0%,0%,0%);fill-opacity:1;" d="M 7.03125 43.75 L 8.59375 43.75 L 8.59375 45.3125 L 7.03125 45.3125 Z M 7.03125 43.75 "/>
<path style=" stroke:none;fill-rule:nonzero;fill:rgb(0%,0%,0%);fill-opacity:1;" d="M 10.15625 43.75 L 19.53125 43.75 L 19.53125 45.3125 L 10.15625 45.3125 Z M 10.15625 43.75 "/>
<path style=" stroke:none;fill-rule:nonzero;fill:rgb(0%,0%,0%);fill-opacity:1;" d="M 48.4375 39.84375 L 27.34375 39.84375 C 26.914062 39.84375 26.5625 40.195312 26.5625 40.625 L 26.5625 48.4375 C 26.5625 48.867188 26.914062 49.21875 27.34375 49.21875 L 48.4375 49.21875 C 48.867188 49.21875 49.21875 48.867188 49.21875 48.4375 L 49.21875 40.625 C 49.21875 40.195312 48.867188 39.84375 48.4375 39.84375 Z M 47.65625 47.65625 L 28.125 47.65625 L 28.125 41.40625 L 47.65625 41.40625 Z M 47.65625 47.65625 "/>
<path style=" stroke:none;fill-rule:nonzero;fill:rgb(0%,0%,0%);fill-opacity:1;" d="M 44.53125 43.75 L 46.09375 43.75 L 46.09375 45.3125 L 44.53125 45.3125 Z M 44.53125 43.75 "/>
<path style=" stroke:none;fill-rule:nonzero;fill:rgb(0%,0%,0%);fill-opacity:1;" d="M 41.40625 43.75 L 42.96875 43.75 L 42.96875 45.3125 L 41.40625 45.3125 Z M 41.40625 43.75 "/>
<path style=" stroke:none;fill-rule:nonzero;fill:rgb(0%,0%,0%);fill-opacity:1;" d="M 30.46875 43.75 L 39.84375 43.75 L 39.84375 45.3125 L 30.46875 45.3125 Z M 30.46875 43.75 "/>
<path style=" stroke:none;fill-rule:nonzero;fill:rgb(0%,0%,0%);fill-opacity:1;" d="M 21.09375 32.8125 L 22.65625 32.8125 L 22.65625 34.375 L 21.09375 34.375 Z M 21.09375 32.8125 "/>
<path style=" stroke:none;fill-rule:nonzero;fill:rgb(0%,0%,0%);fill-opacity:1;" d="M 24.21875 32.8125 L 25.78125 32.8125 L 25.78125 34.375 L 24.21875 34.375 Z M 24.21875 32.8125 "/>
<path style=" stroke:none;fill-rule:nonzero;fill:rgb(0%,0%,0%);fill-opacity:1;" d="M 27.34375 32.8125 L 28.90625 32.8125 L 28.90625 34.375 L 27.34375 34.375 Z M 27.34375 32.8125 "/>
</g>
</svg>
