<?xml version="1.0" encoding="UTF-8"?>
<svg xmlns="http://www.w3.org/2000/svg" xmlns:xlink="http://www.w3.org/1999/xlink" width="50px" height="50px" viewBox="0 0 50 50" version="1.1">
<g id="surface1">
<path style=" stroke:none;fill-rule:nonzero;fill:rgb(0%,0%,0%);fill-opacity:1;" d="M 37.917969 0 L 4.582031 0 C 2.285156 0.00390625 0.417969 1.867188 0.417969 4.167969 L 0.417969 30.832031 C 0.417969 32.734375 1.703125 34.394531 3.542969 34.867188 L 3.960938 33.253906 C 2.855469 32.96875 2.082031 31.972656 2.082031 30.832031 L 2.082031 4.167969 C 2.082031 2.785156 3.203125 1.667969 4.582031 1.667969 L 37.917969 1.667969 C 39.296875 1.667969 40.417969 2.785156 40.417969 4.167969 L 40.417969 5 L 42.082031 5 L 42.082031 4.167969 C 42.082031 1.867188 40.21875 0.00390625 37.917969 0 Z M 37.917969 0 "/>
<path style=" stroke:none;fill-rule:nonzero;fill:rgb(0%,0%,0%);fill-opacity:1;" d="M 3.75 3.332031 L 5.417969 3.332031 L 5.417969 5 L 3.75 5 Z M 3.75 3.332031 "/>
<path style=" stroke:none;fill-rule:nonzero;fill:rgb(0%,0%,0%);fill-opacity:1;" d="M 7.082031 3.332031 L 8.75 3.332031 L 8.75 5 L 7.082031 5 Z M 7.082031 3.332031 "/>
<path style=" stroke:none;fill-rule:nonzero;fill:rgb(0%,0%,0%);fill-opacity:1;" d="M 10.417969 3.332031 L 12.082031 3.332031 L 12.082031 5 L 10.417969 5 Z M 10.417969 3.332031 "/>
<path style=" stroke:none;fill-rule:nonzero;fill:rgb(0%,0%,0%);fill-opacity:1;" d="M 49.339844 46.078125 L 41.433594 38.171875 C 41.851562 37.433594 42.183594 36.648438 42.425781 35.832031 L 43.75 35.832031 L 43.75 34.167969 L 42.785156 34.167969 C 43.097656 32.148438 42.855469 30.085938 42.082031 28.195312 L 42.082031 20 L 40.417969 20 L 40.417969 25.308594 C 39.921875 24.675781 39.363281 24.09375 38.75 23.578125 L 38.75 16.667969 L 37.082031 16.667969 L 37.082031 22.410156 C 36.550781 22.101562 35.992188 21.835938 35.417969 21.617188 L 35.417969 13.332031 L 33.75 13.332031 L 33.75 21.109375 C 33.199219 20.992188 32.644531 20.914062 32.082031 20.875 L 32.082031 15 L 30.417969 15 L 30.417969 20.875 C 29.855469 20.914062 29.300781 20.992188 28.75 21.109375 L 28.75 18.332031 L 27.082031 18.332031 L 27.082031 21.617188 C 26.507812 21.835938 25.949219 22.101562 25.417969 22.410156 L 25.417969 17.5 L 23.75 17.5 L 23.75 23.578125 C 23.136719 24.09375 22.578125 24.675781 22.082031 25.308594 L 22.082031 19.167969 L 20.417969 19.167969 L 20.417969 28.195312 C 19.644531 30.085938 19.402344 32.148438 19.714844 34.167969 L 8.75 34.167969 L 8.75 35.832031 L 20.074219 35.832031 C 21.902344 42 28.382812 45.515625 34.546875 43.6875 C 35.761719 43.328125 36.910156 42.769531 37.945312 42.039062 L 45.660156 49.757812 C 45.988281 50.082031 46.515625 50.082031 46.839844 49.757812 L 49.339844 47.257812 C 49.664062 46.929688 49.664062 46.402344 49.339844 46.078125 Z M 31.25 42.5 C 25.730469 42.496094 21.257812 38.019531 21.25 32.5 C 21.25 26.976562 25.726562 22.5 31.25 22.5 C 36.773438 22.5 41.25 26.976562 41.25 32.5 C 41.25 38.023438 36.773438 42.5 31.25 42.5 Z M 46.25 47.988281 L 39.238281 40.976562 C 39.695312 40.550781 40.113281 40.085938 40.496094 39.589844 L 47.570312 46.667969 Z M 46.25 47.988281 "/>
<path style=" stroke:none;fill-rule:nonzero;fill:rgb(0%,0%,0%);fill-opacity:1;" d="M 31.25 24.167969 C 26.648438 24.167969 22.917969 27.898438 22.917969 32.5 C 22.917969 37.101562 26.648438 40.832031 31.25 40.832031 C 35.851562 40.832031 39.582031 37.101562 39.582031 32.5 C 39.578125 27.898438 35.851562 24.171875 31.25 24.167969 Z M 31.25 39.167969 C 28.871094 39.164062 26.675781 37.894531 25.484375 35.832031 L 37.015625 35.832031 C 35.824219 37.894531 33.628906 39.164062 31.25 39.167969 Z M 24.800781 34.167969 C 24.132812 31.628906 25.027344 28.933594 27.082031 27.304688 L 27.082031 32.5 L 28.75 32.5 L 28.75 26.324219 C 29.285156 26.109375 29.84375 25.960938 30.417969 25.890625 L 30.417969 32.5 L 32.082031 32.5 L 32.082031 25.890625 C 32.65625 25.960938 33.214844 26.109375 33.75 26.324219 L 33.75 32.5 L 35.417969 32.5 L 35.417969 27.304688 C 37.472656 28.933594 38.367188 31.628906 37.699219 34.167969 Z M 24.800781 34.167969 "/>
<path style=" stroke:none;fill-rule:nonzero;fill:rgb(0%,0%,0%);fill-opacity:1;" d="M 42.917969 6.667969 L 9.582031 6.667969 C 7.285156 6.667969 5.417969 8.535156 5.417969 10.832031 L 5.417969 37.5 C 5.417969 39.800781 7.285156 41.664062 9.582031 41.667969 L 20.417969 41.667969 L 20.417969 40 L 9.582031 40 C 8.203125 40 7.082031 38.882812 7.082031 37.5 L 7.082031 10.832031 C 7.082031 9.453125 8.203125 8.332031 9.582031 8.332031 L 42.917969 8.332031 C 44.296875 8.332031 45.417969 9.453125 45.417969 10.832031 L 45.417969 37.5 C 45.417969 38.109375 45.195312 38.695312 44.792969 39.152344 L 46.042969 40.257812 C 46.714844 39.496094 47.082031 38.515625 47.082031 37.5 L 47.082031 10.832031 C 47.082031 8.535156 45.21875 6.667969 42.917969 6.667969 Z M 42.917969 6.667969 "/>
<path style=" stroke:none;fill-rule:nonzero;fill:rgb(0%,0%,0%);fill-opacity:1;" d="M 8.75 10 L 10.417969 10 L 10.417969 11.667969 L 8.75 11.667969 Z M 8.75 10 "/>
<path style=" stroke:none;fill-rule:nonzero;fill:rgb(0%,0%,0%);fill-opacity:1;" d="M 12.082031 10 L 13.75 10 L 13.75 11.667969 L 12.082031 11.667969 Z M 12.082031 10 "/>
<path style=" stroke:none;fill-rule:nonzero;fill:rgb(0%,0%,0%);fill-opacity:1;" d="M 15.417969 10 L 17.082031 10 L 17.082031 11.667969 L 15.417969 11.667969 Z M 15.417969 10 "/>
<path style=" stroke:none;fill-rule:nonzero;fill:rgb(0%,0%,0%);fill-opacity:1;" d="M 10.417969 27.5 L 12.082031 27.5 L 12.082031 32.5 L 10.417969 32.5 Z M 10.417969 27.5 "/>
<path style=" stroke:none;fill-rule:nonzero;fill:rgb(0%,0%,0%);fill-opacity:1;" d="M 13.75 22.5 L 15.417969 22.5 L 15.417969 32.5 L 13.75 32.5 Z M 13.75 22.5 "/>
<path style=" stroke:none;fill-rule:nonzero;fill:rgb(0%,0%,0%);fill-opacity:1;" d="M 17.082031 25 L 18.75 25 L 18.75 32.5 L 17.082031 32.5 Z M 17.082031 25 "/>
</g>
</svg>
