<?xml version="1.0" encoding="UTF-8"?>
<svg xmlns="http://www.w3.org/2000/svg" xmlns:xlink="http://www.w3.org/1999/xlink" width="50px" height="50px" viewBox="0 0 50 50" version="1.1">
<g id="surface1">
<path style=" stroke:none;fill-rule:nonzero;fill:rgb(0%,0%,0%);fill-opacity:1;" d="M 31.15625 15.183594 L 19.015625 15.183594 C 16.835938 15.183594 15.058594 16.960938 15.058594 19.140625 L 15.058594 30.859375 C 15.058594 33.039062 16.835938 34.816406 19.015625 34.816406 L 31.15625 34.816406 C 33.339844 34.816406 35.117188 33.039062 35.117188 30.859375 L 35.117188 19.140625 C 35.117188 16.960938 33.339844 15.183594 31.15625 15.183594 Z M 33.617188 30.859375 C 33.617188 32.214844 32.511719 33.316406 31.15625 33.316406 L 19.015625 33.316406 C 17.660156 33.316406 16.558594 32.214844 16.558594 30.859375 L 16.558594 19.140625 C 16.558594 17.785156 17.660156 16.683594 19.015625 16.683594 L 31.15625 16.683594 C 32.511719 16.683594 33.617188 17.785156 33.617188 19.140625 Z M 33.617188 30.859375 "/>
<path style=" stroke:none;fill-rule:nonzero;fill:rgb(0%,0%,0%);fill-opacity:1;" d="M 19.757812 9.644531 L 19.757812 12.488281 C 19.757812 12.902344 20.09375 13.238281 20.507812 13.238281 C 20.921875 13.238281 21.257812 12.902344 21.257812 12.488281 L 21.257812 9.644531 C 22.589844 9.308594 23.582031 8.097656 23.582031 6.660156 C 23.582031 4.964844 22.203125 3.585938 20.507812 3.585938 C 18.808594 3.585938 17.429688 4.964844 17.429688 6.660156 C 17.429688 8.097656 18.421875 9.308594 19.757812 9.644531 Z M 20.507812 5.085938 C 21.375 5.085938 22.082031 5.792969 22.082031 6.660156 C 22.082031 7.53125 21.375 8.238281 20.507812 8.238281 C 19.636719 8.238281 18.929688 7.53125 18.929688 6.660156 C 18.929688 5.792969 19.636719 5.085938 20.507812 5.085938 Z M 20.507812 5.085938 "/>
<path style=" stroke:none;fill-rule:nonzero;fill:rgb(0%,0%,0%);fill-opacity:1;" d="M 28.570312 9.644531 L 28.570312 12.488281 C 28.570312 12.902344 28.90625 13.238281 29.320312 13.238281 C 29.734375 13.238281 30.070312 12.902344 30.070312 12.488281 L 30.070312 9.644531 C 31.40625 9.308594 32.394531 8.097656 32.394531 6.660156 C 32.394531 4.964844 31.015625 3.585938 29.320312 3.585938 C 27.625 3.585938 26.242188 4.964844 26.242188 6.660156 C 26.242188 8.097656 27.234375 9.308594 28.570312 9.644531 Z M 29.320312 5.085938 C 30.1875 5.085938 30.894531 5.792969 30.894531 6.660156 C 30.894531 7.53125 30.1875 8.238281 29.320312 8.238281 C 28.449219 8.238281 27.742188 7.53125 27.742188 6.660156 C 27.742188 5.792969 28.449219 5.085938 29.320312 5.085938 Z M 29.320312 5.085938 "/>
<path style=" stroke:none;fill-rule:nonzero;fill:rgb(0%,0%,0%);fill-opacity:1;" d="M 30.242188 40.355469 L 30.242188 37.511719 C 30.242188 37.097656 29.90625 36.761719 29.492188 36.761719 C 29.078125 36.761719 28.742188 37.097656 28.742188 37.511719 L 28.742188 40.355469 C 27.410156 40.691406 26.417969 41.902344 26.417969 43.339844 C 26.417969 45.035156 27.796875 46.414062 29.492188 46.414062 C 31.191406 46.414062 32.570312 45.035156 32.570312 43.339844 C 32.570312 41.902344 31.578125 40.691406 30.242188 40.355469 Z M 29.492188 44.914062 C 28.625 44.914062 27.917969 44.207031 27.917969 43.339844 C 27.917969 42.46875 28.625 41.761719 29.492188 41.761719 C 30.363281 41.761719 31.070312 42.46875 31.070312 43.339844 C 31.070312 44.207031 30.363281 44.914062 29.492188 44.914062 Z M 29.492188 44.914062 "/>
<path style=" stroke:none;fill-rule:nonzero;fill:rgb(0%,0%,0%);fill-opacity:1;" d="M 21.429688 40.355469 L 21.429688 37.511719 C 21.429688 37.097656 21.09375 36.761719 20.679688 36.761719 C 20.265625 36.761719 19.929688 37.097656 19.929688 37.511719 L 19.929688 40.355469 C 18.59375 40.691406 17.605469 41.902344 17.605469 43.339844 C 17.605469 45.035156 18.984375 46.414062 20.679688 46.414062 C 22.375 46.414062 23.757812 45.035156 23.757812 43.339844 C 23.757812 41.902344 22.765625 40.691406 21.429688 40.355469 Z M 20.679688 44.914062 C 19.8125 44.914062 19.105469 44.207031 19.105469 43.339844 C 19.105469 42.46875 19.8125 41.761719 20.679688 41.761719 C 21.550781 41.761719 22.257812 42.46875 22.257812 43.339844 C 22.257812 44.207031 21.550781 44.914062 20.679688 44.914062 Z M 20.679688 44.914062 "/>
<path style=" stroke:none;fill-rule:nonzero;fill:rgb(0%,0%,0%);fill-opacity:1;" d="M 37.511719 21.257812 L 40.355469 21.257812 C 40.691406 22.589844 41.902344 23.582031 43.339844 23.582031 C 45.035156 23.582031 46.414062 22.203125 46.414062 20.507812 C 46.414062 18.808594 45.035156 17.429688 43.339844 17.429688 C 41.902344 17.429688 40.691406 18.421875 40.355469 19.757812 L 37.511719 19.757812 C 37.097656 19.757812 36.761719 20.09375 36.761719 20.507812 C 36.761719 20.921875 37.097656 21.257812 37.511719 21.257812 Z M 43.339844 18.929688 C 44.207031 18.929688 44.914062 19.636719 44.914062 20.507812 C 44.914062 21.375 44.207031 22.082031 43.339844 22.082031 C 42.46875 22.082031 41.761719 21.375 41.761719 20.507812 C 41.761719 19.636719 42.46875 18.929688 43.339844 18.929688 Z M 43.339844 18.929688 "/>
<path style=" stroke:none;fill-rule:nonzero;fill:rgb(0%,0%,0%);fill-opacity:1;" d="M 43.339844 26.242188 C 41.902344 26.242188 40.691406 27.234375 40.355469 28.570312 L 37.511719 28.570312 C 37.097656 28.570312 36.761719 28.90625 36.761719 29.320312 C 36.761719 29.734375 37.097656 30.070312 37.511719 30.070312 L 40.355469 30.070312 C 40.691406 31.40625 41.902344 32.394531 43.339844 32.394531 C 45.035156 32.394531 46.414062 31.015625 46.414062 29.320312 C 46.414062 27.625 45.035156 26.242188 43.339844 26.242188 Z M 43.339844 30.894531 C 42.46875 30.894531 41.761719 30.1875 41.761719 29.320312 C 41.761719 28.449219 42.46875 27.742188 43.339844 27.742188 C 44.207031 27.742188 44.914062 28.449219 44.914062 29.320312 C 44.914062 30.1875 44.207031 30.894531 43.339844 30.894531 Z M 43.339844 30.894531 "/>
<path style=" stroke:none;fill-rule:nonzero;fill:rgb(0%,0%,0%);fill-opacity:1;" d="M 12.488281 28.742188 L 9.644531 28.742188 C 9.308594 27.410156 8.097656 26.417969 6.660156 26.417969 C 4.964844 26.417969 3.585938 27.796875 3.585938 29.492188 C 3.585938 31.191406 4.964844 32.570312 6.660156 32.570312 C 8.097656 32.570312 9.308594 31.578125 9.644531 30.242188 L 12.488281 30.242188 C 12.902344 30.242188 13.238281 29.90625 13.238281 29.492188 C 13.238281 29.078125 12.902344 28.742188 12.488281 28.742188 Z M 6.660156 31.070312 C 5.792969 31.070312 5.085938 30.363281 5.085938 29.492188 C 5.085938 28.625 5.792969 27.917969 6.660156 27.917969 C 7.53125 27.917969 8.238281 28.625 8.238281 29.492188 C 8.238281 30.363281 7.53125 31.070312 6.660156 31.070312 Z M 6.660156 31.070312 "/>
<path style=" stroke:none;fill-rule:nonzero;fill:rgb(0%,0%,0%);fill-opacity:1;" d="M 12.488281 19.929688 L 9.644531 19.929688 C 9.308594 18.59375 8.097656 17.605469 6.660156 17.605469 C 4.964844 17.605469 3.585938 18.984375 3.585938 20.679688 C 3.585938 22.375 4.964844 23.757812 6.660156 23.757812 C 8.097656 23.757812 9.308594 22.765625 9.644531 21.429688 L 12.488281 21.429688 C 12.902344 21.429688 13.238281 21.09375 13.238281 20.679688 C 13.238281 20.265625 12.902344 19.929688 12.488281 19.929688 Z M 6.660156 22.257812 C 5.792969 22.257812 5.085938 21.550781 5.085938 20.679688 C 5.085938 19.8125 5.792969 19.105469 6.660156 19.105469 C 7.53125 19.105469 8.238281 19.8125 8.238281 20.679688 C 8.238281 21.550781 7.53125 22.257812 6.660156 22.257812 Z M 6.660156 22.257812 "/>
<path style=" stroke:none;fill-rule:nonzero;fill:rgb(0%,0%,0%);fill-opacity:1;" d="M 24.257812 20.972656 C 24.050781 20.511719 23.59375 20.214844 23.089844 20.214844 C 22.582031 20.214844 22.125 20.511719 21.921875 20.972656 L 18.6875 28.28125 C 18.457031 28.796875 18.835938 29.378906 19.398438 29.378906 C 19.710938 29.378906 19.992188 29.195312 20.117188 28.910156 L 20.730469 27.496094 C 20.765625 27.417969 20.84375 27.367188 20.929688 27.367188 L 25.242188 27.367188 C 25.328125 27.367188 25.40625 27.417969 25.441406 27.496094 L 26.054688 28.910156 C 26.179688 29.195312 26.460938 29.378906 26.773438 29.378906 C 27.339844 29.378906 27.71875 28.796875 27.492188 28.277344 Z M 24.480469 26.019531 L 21.710938 26.019531 C 21.554688 26.019531 21.449219 25.859375 21.511719 25.71875 L 22.898438 22.527344 C 22.972656 22.355469 23.21875 22.355469 23.292969 22.527344 L 24.679688 25.71875 C 24.738281 25.859375 24.636719 26.019531 24.480469 26.019531 Z M 24.480469 26.019531 "/>
<path style=" stroke:none;fill-rule:nonzero;fill:rgb(0%,0%,0%);fill-opacity:1;" d="M 29.882812 20.214844 C 29.433594 20.214844 29.070312 20.578125 29.070312 21.027344 L 29.070312 28.566406 C 29.070312 29.015625 29.433594 29.378906 29.882812 29.378906 C 30.332031 29.378906 30.695312 29.015625 30.695312 28.566406 L 30.695312 21.027344 C 30.695312 20.578125 30.332031 20.214844 29.882812 20.214844 Z M 29.882812 20.214844 "/>
</g>
</svg>
