<?xml version="1.0" encoding="UTF-8"?>
<svg xmlns="http://www.w3.org/2000/svg" xmlns:xlink="http://www.w3.org/1999/xlink" width="45px" height="45px" viewBox="0 0 45 45" version="1.1">
<g id="surface1">
<path style=" stroke:none;fill-rule:nonzero;fill:rgb(0%,0%,0%);fill-opacity:1;" d="M 20.429688 2.527344 C 20.382812 2.152344 20.035156 1.890625 19.660156 1.941406 C 15.144531 2.554688 10.882812 4.6875 7.667969 7.949219 C 4.902344 10.753906 2.984375 14.320312 2.152344 18.148438 L 1.277344 16.644531 C 1.085938 16.316406 0.667969 16.207031 0.339844 16.394531 C 0.0117188 16.585938 -0.0976562 17.003906 0.09375 17.332031 L 1.921875 20.464844 C 2.015625 20.632812 2.179688 20.75 2.367188 20.789062 C 2.382812 20.792969 2.398438 20.796875 2.414062 20.796875 C 2.417969 20.796875 2.425781 20.800781 2.429688 20.800781 C 2.433594 20.800781 2.433594 20.800781 2.433594 20.800781 C 2.460938 20.804688 2.484375 20.804688 2.511719 20.804688 C 2.511719 20.804688 2.511719 20.804688 2.515625 20.804688 C 2.546875 20.804688 2.578125 20.800781 2.613281 20.796875 C 2.613281 20.796875 2.617188 20.796875 2.621094 20.796875 C 2.652344 20.792969 2.6875 20.785156 2.71875 20.773438 C 2.792969 20.75 2.863281 20.714844 2.925781 20.667969 L 5.867188 18.582031 C 6.175781 18.363281 6.246094 17.933594 6.027344 17.628906 C 5.8125 17.320312 5.382812 17.246094 5.074219 17.464844 L 3.453125 18.617188 C 4.207031 14.976562 6.015625 11.574219 8.644531 8.910156 C 11.648438 5.859375 15.625 3.867188 19.84375 3.296875 C 20.21875 3.246094 20.480469 2.902344 20.429688 2.527344 Z M 20.429688 2.527344 "/>
<path style=" stroke:none;fill-rule:nonzero;fill:rgb(0%,0%,0%);fill-opacity:1;" d="M 20.679688 42.09375 L 18.582031 39.132812 C 18.363281 38.824219 17.933594 38.753906 17.628906 38.972656 C 17.320312 39.191406 17.246094 39.617188 17.464844 39.925781 L 18.640625 41.585938 C 14.933594 40.847656 11.566406 39.058594 8.839844 36.371094 C 5.824219 33.398438 3.898438 29.625 3.269531 25.460938 C 3.214844 25.085938 2.867188 24.828125 2.492188 24.882812 C 2.117188 24.941406 1.859375 25.289062 1.917969 25.664062 C 2.589844 30.125 4.648438 34.164062 7.878906 37.347656 C 10.730469 40.160156 14.242188 42.050781 18.105469 42.871094 L 16.644531 43.722656 C 16.316406 43.914062 16.207031 44.332031 16.394531 44.660156 C 16.523438 44.878906 16.753906 45 16.988281 45 C 17.105469 45 17.222656 44.96875 17.332031 44.90625 L 20.464844 43.078125 C 20.632812 42.984375 20.75 42.820312 20.789062 42.632812 C 20.832031 42.445312 20.789062 42.25 20.679688 42.09375 Z M 20.679688 42.09375 "/>
<path style=" stroke:none;fill-rule:nonzero;fill:rgb(0%,0%,0%);fill-opacity:1;" d="M 44.90625 27.667969 L 43.078125 24.535156 C 42.984375 24.367188 42.820312 24.25 42.632812 24.210938 C 42.445312 24.167969 42.25 24.210938 42.09375 24.320312 L 39.132812 26.417969 C 38.824219 26.636719 38.753906 27.066406 38.972656 27.371094 C 39.1875 27.679688 39.617188 27.753906 39.925781 27.535156 L 41.507812 26.414062 C 40.746094 30.199219 38.890625 33.628906 36.105469 36.371094 C 33.089844 39.347656 29.28125 41.21875 25.101562 41.785156 C 24.726562 41.835938 24.464844 42.179688 24.515625 42.554688 C 24.5625 42.898438 24.855469 43.148438 25.191406 43.148438 C 25.222656 43.148438 25.253906 43.148438 25.285156 43.140625 C 29.761719 42.535156 33.835938 40.53125 37.066406 37.347656 C 40.015625 34.441406 41.992188 30.816406 42.824219 26.8125 L 43.722656 28.359375 C 43.851562 28.574219 44.082031 28.695312 44.316406 28.695312 C 44.433594 28.695312 44.550781 28.667969 44.660156 28.605469 C 44.988281 28.414062 45.097656 27.996094 44.90625 27.667969 Z M 44.90625 27.667969 "/>
<path style=" stroke:none;fill-rule:nonzero;fill:rgb(0%,0%,0%);fill-opacity:1;" d="M 43.113281 20.039062 C 42.570312 15.507812 40.496094 11.210938 37.277344 7.949219 C 34.417969 5.046875 30.730469 3.039062 26.769531 2.199219 L 28.359375 1.277344 C 28.683594 1.085938 28.792969 0.667969 28.605469 0.339844 C 28.414062 0.0117188 27.996094 -0.0976562 27.667969 0.09375 L 24.535156 1.921875 C 24.367188 2.015625 24.25 2.179688 24.210938 2.367188 C 24.167969 2.554688 24.210938 2.75 24.320312 2.90625 L 26.417969 5.867188 C 26.550781 6.054688 26.761719 6.15625 26.976562 6.15625 C 27.113281 6.15625 27.253906 6.113281 27.371094 6.027344 C 27.679688 5.808594 27.753906 5.382812 27.535156 5.074219 L 26.4375 3.53125 C 30.15625 4.304688 33.617188 6.1875 36.304688 8.910156 C 39.308594 11.957031 41.246094 15.96875 41.753906 20.203125 C 41.796875 20.550781 42.089844 20.804688 42.433594 20.804688 C 42.460938 20.804688 42.488281 20.804688 42.515625 20.800781 C 42.890625 20.753906 43.15625 20.414062 43.113281 20.039062 Z M 43.113281 20.039062 "/>
<path style=" stroke:none;fill-rule:nonzero;fill:rgb(0%,0%,0%);fill-opacity:1;" d="M 25.257812 26.972656 C 24.953125 26.761719 24.53125 26.835938 24.320312 27.144531 L 21.484375 31.21875 L 23.8125 24.476562 C 23.882812 24.273438 23.851562 24.042969 23.722656 23.867188 C 23.597656 23.6875 23.390625 23.582031 23.171875 23.582031 L 16.695312 23.582031 L 18.59375 20.855469 C 18.808594 20.550781 18.730469 20.128906 18.425781 19.917969 C 18.121094 19.703125 17.699219 19.777344 17.484375 20.085938 L 14.851562 23.871094 C 14.707031 24.078125 14.691406 24.347656 14.804688 24.570312 C 14.921875 24.792969 15.152344 24.933594 15.40625 24.933594 L 22.226562 24.933594 L 18.621094 35.378906 C 18.507812 35.699219 18.652344 36.050781 18.953125 36.203125 C 19.050781 36.253906 19.152344 36.277344 19.257812 36.277344 C 19.472656 36.277344 19.683594 36.171875 19.8125 35.984375 L 25.429688 27.914062 C 25.640625 27.609375 25.566406 27.1875 25.257812 26.972656 Z M 25.257812 26.972656 "/>
<path style=" stroke:none;fill-rule:nonzero;fill:rgb(0%,0%,0%);fill-opacity:1;" d="M 30.195312 20.429688 C 30.078125 20.207031 29.847656 20.066406 29.59375 20.066406 L 22.773438 20.066406 L 26.378906 9.621094 C 26.492188 9.300781 26.347656 8.949219 26.046875 8.796875 C 25.746094 8.644531 25.382812 8.738281 25.1875 9.015625 L 19.304688 17.46875 C 19.09375 17.777344 19.167969 18.195312 19.472656 18.410156 C 19.78125 18.621094 20.199219 18.546875 20.414062 18.242188 L 23.515625 13.78125 L 21.1875 20.523438 C 21.117188 20.726562 21.148438 20.957031 21.277344 21.132812 C 21.402344 21.3125 21.609375 21.417969 21.828125 21.417969 L 28.304688 21.417969 L 26.164062 24.492188 C 25.953125 24.796875 26.027344 25.21875 26.332031 25.429688 C 26.449219 25.511719 26.585938 25.550781 26.71875 25.550781 C 26.933594 25.550781 27.140625 25.449219 27.273438 25.261719 L 30.148438 21.128906 C 30.292969 20.921875 30.308594 20.652344 30.195312 20.429688 Z M 30.195312 20.429688 "/>
</g>
</svg>
