<?xml version="1.0" encoding="UTF-8"?>
<svg xmlns="http://www.w3.org/2000/svg" xmlns:xlink="http://www.w3.org/1999/xlink" width="45px" height="45px" viewBox="0 0 45 45" version="1.1">
<g id="surface1">
<path style=" stroke:none;fill-rule:nonzero;fill:rgb(0%,0%,0%);fill-opacity:1;" d="M 24.917969 24.800781 C 23.296875 24.800781 21.707031 25.226562 20.300781 26.035156 C 19.964844 26.230469 19.851562 26.660156 20.042969 26.996094 C 20.238281 27.335938 20.667969 27.449219 21.003906 27.253906 C 24.582031 25.1875 29.152344 26.25 31.445312 29.6875 C 33.742188 33.121094 32.976562 37.75 29.695312 40.261719 C 26.417969 42.777344 21.75 42.3125 19.027344 39.203125 C 16.308594 36.089844 16.46875 31.402344 19.398438 28.488281 C 19.578125 28.3125 19.652344 28.050781 19.589844 27.804688 C 19.527344 27.558594 19.335938 27.367188 19.089844 27.300781 C 18.84375 27.234375 18.582031 27.308594 18.40625 27.492188 C 15.28125 30.597656 14.789062 35.480469 17.230469 39.148438 C 19.671875 42.816406 24.367188 44.25 28.4375 42.566406 C 32.511719 40.886719 34.828125 36.5625 33.972656 32.238281 C 33.113281 27.917969 29.324219 24.804688 24.917969 24.804688 Z M 24.917969 24.800781 "/>
<path style=" stroke:none;fill-rule:nonzero;fill:rgb(0%,0%,0%);fill-opacity:1;" d="M 25.679688 36.8125 L 23.914062 36.8125 C 23.339844 36.816406 22.875 36.351562 22.875 35.777344 C 22.875 35.386719 22.558594 35.074219 22.171875 35.074219 C 21.785156 35.074219 21.46875 35.386719 21.46875 35.777344 C 21.46875 37.125 22.5625 38.21875 23.914062 38.21875 L 24.09375 38.21875 L 24.09375 39.566406 C 24.09375 39.957031 24.410156 40.269531 24.796875 40.269531 C 25.183594 40.269531 25.5 39.957031 25.5 39.566406 L 25.5 38.21875 L 25.679688 38.21875 C 27.027344 38.21875 28.125 37.125 28.125 35.777344 C 28.125 34.425781 27.027344 33.332031 25.679688 33.332031 L 23.914062 33.332031 C 23.355469 33.316406 22.90625 32.855469 22.90625 32.292969 C 22.90625 31.730469 23.355469 31.273438 23.914062 31.253906 L 25.679688 31.253906 C 26.253906 31.253906 26.71875 31.71875 26.71875 32.292969 C 26.71875 32.679688 27.035156 32.996094 27.421875 32.996094 C 27.808594 32.996094 28.125 32.679688 28.125 32.292969 C 28.125 30.945312 27.03125 29.851562 25.679688 29.847656 L 25.5 29.847656 L 25.5 28.5 C 25.5 28.113281 25.183594 27.796875 24.796875 27.796875 C 24.410156 27.796875 24.09375 28.113281 24.09375 28.5 L 24.09375 29.847656 L 23.914062 29.847656 C 22.585938 29.875 21.519531 30.960938 21.519531 32.292969 C 21.519531 33.625 22.585938 34.710938 23.914062 34.738281 L 25.679688 34.738281 C 26.253906 34.738281 26.71875 35.203125 26.71875 35.777344 C 26.71875 36.347656 26.253906 36.8125 25.679688 36.8125 Z M 25.679688 36.8125 "/>
<path style=" stroke:none;fill-rule:nonzero;fill:rgb(0%,0%,0%);fill-opacity:1;" d="M 41.640625 14.660156 C 41.273438 14.570312 40.898438 14.789062 40.796875 15.15625 C 40.695312 15.519531 40.902344 15.902344 41.265625 16.015625 C 43.167969 16.542969 43.597656 17.140625 43.597656 17.300781 C 43.597656 17.886719 40.84375 19.265625 35.511719 19.265625 C 30.175781 19.265625 27.421875 17.886719 27.421875 17.300781 C 27.421875 16.714844 30.175781 15.335938 35.511719 15.335938 C 36.773438 15.332031 38.035156 15.421875 39.28125 15.601562 C 39.660156 15.648438 40.003906 15.382812 40.0625 15.007812 C 40.117188 14.628906 39.863281 14.277344 39.488281 14.210938 C 38.171875 14.019531 36.84375 13.925781 35.511719 13.929688 C 30.9375 13.929688 26.015625 14.984375 26.015625 17.296875 L 26.015625 22.769531 C 26.015625 25.082031 30.9375 26.136719 35.511719 26.136719 C 38.582031 26.136719 41.808594 25.660156 43.597656 24.644531 L 43.597656 25.503906 C 43.597656 26.089844 40.84375 27.46875 35.511719 27.46875 C 34.898438 27.46875 34.300781 27.449219 33.730469 27.410156 C 33.34375 27.386719 33.007812 27.679688 32.980469 28.066406 C 32.964844 28.253906 33.027344 28.4375 33.152344 28.578125 C 33.273438 28.71875 33.449219 28.804688 33.636719 28.816406 C 34.242188 28.855469 34.867188 28.875 35.511719 28.875 C 38.582031 28.875 41.808594 28.398438 43.597656 27.375 L 43.597656 28.238281 C 43.597656 28.824219 40.84375 30.207031 35.511719 30.207031 C 35.511719 30.207031 35.21875 30.210938 35.085938 30.207031 C 34.703125 30.207031 34.386719 30.507812 34.363281 30.886719 C 34.351562 31.277344 34.65625 31.601562 35.046875 31.613281 L 35.515625 31.613281 C 38.585938 31.613281 41.8125 31.132812 43.601562 30.113281 L 43.601562 30.972656 C 43.601562 31.558594 40.847656 32.9375 35.515625 32.9375 C 35.125 32.9375 34.8125 33.25 34.8125 33.640625 C 34.8125 34.027344 35.125 34.34375 35.515625 34.34375 C 38.585938 34.34375 41.8125 33.863281 43.601562 32.847656 L 43.601562 33.777344 C 43.601562 34.363281 40.847656 35.738281 35.515625 35.738281 L 35.261719 35.738281 C 34.882812 35.753906 34.574219 36.054688 34.550781 36.433594 C 34.546875 36.824219 34.859375 37.140625 35.246094 37.144531 L 35.515625 37.144531 C 40.078125 37.148438 45 36.09375 45 33.777344 L 45 17.300781 C 45 16.523438 44.417969 15.433594 41.640625 14.660156 Z M 35.507812 20.671875 C 38.582031 20.671875 41.804688 20.191406 43.59375 19.175781 L 43.59375 20.035156 C 43.59375 20.621094 40.84375 22.003906 35.507812 22.003906 C 30.171875 22.003906 27.421875 20.625 27.421875 20.035156 L 27.421875 19.175781 C 29.207031 20.191406 32.4375 20.671875 35.507812 20.671875 Z M 35.507812 24.734375 C 30.171875 24.734375 27.421875 23.359375 27.421875 22.769531 L 27.421875 21.910156 C 29.207031 22.925781 32.433594 23.410156 35.507812 23.410156 C 38.582031 23.410156 41.804688 22.929688 43.59375 21.910156 L 43.59375 22.769531 C 43.59375 23.359375 40.84375 24.734375 35.507812 24.734375 Z M 35.507812 24.734375 "/>
<path style=" stroke:none;fill-rule:nonzero;fill:rgb(0%,0%,0%);fill-opacity:1;" d="M 14.8125 37.761719 C 14.566406 37.773438 14.316406 37.777344 14.0625 37.777344 C 6.609375 37.777344 1.40625 33.5 1.40625 27.378906 C 1.40625 22.386719 4.78125 15.003906 9.816406 11.972656 C 9.882812 11.929688 9.941406 11.878906 10.003906 11.832031 L 15.75 11.832031 C 16.136719 11.832031 16.453125 11.515625 16.453125 11.128906 C 16.453125 10.738281 16.136719 10.425781 15.75 10.425781 L 10.890625 10.425781 C 10.984375 9.898438 10.875 9.351562 10.582031 8.902344 C 8.207031 5.21875 7.746094 3.5625 7.832031 3.132812 C 8.917969 3.148438 9.964844 3.308594 10.976562 3.613281 C 11.953125 3.910156 12.96875 4.070312 13.988281 4.082031 C 15.144531 4.054688 16.292969 3.886719 17.40625 3.578125 C 18.289062 3.335938 19.195312 3.1875 20.109375 3.140625 C 20.082031 3.667969 19.558594 5.234375 17.742188 8.332031 L 12.375 8.332031 C 11.988281 8.332031 11.671875 8.648438 11.671875 9.035156 C 11.671875 9.425781 11.988281 9.738281 12.375 9.738281 L 17.121094 9.738281 C 17.085938 10 17.101562 10.269531 17.164062 10.523438 C 17.316406 11.113281 17.699219 11.613281 18.226562 11.917969 C 20.757812 13.566406 22.8125 15.851562 24.179688 18.542969 C 24.296875 18.773438 24.527344 18.917969 24.78125 18.925781 C 25.035156 18.933594 25.277344 18.804688 25.40625 18.585938 C 25.539062 18.367188 25.542969 18.09375 25.414062 17.871094 C 23.925781 14.957031 21.695312 12.484375 18.945312 10.707031 C 18.742188 10.59375 18.59375 10.402344 18.53125 10.179688 C 18.480469 9.992188 18.511719 9.789062 18.613281 9.625 C 22.144531 3.753906 21.574219 2.746094 21.332031 2.3125 C 21.117188 1.9375 20.707031 1.710938 20.273438 1.726562 C 19.195312 1.757812 18.125 1.917969 17.085938 2.207031 C 16.078125 2.488281 15.039062 2.644531 13.992188 2.675781 C 13.089844 2.660156 12.199219 2.515625 11.339844 2.25 C 10.210938 1.914062 9.039062 1.738281 7.863281 1.730469 C 7.347656 1.695312 6.863281 1.960938 6.609375 2.410156 C 6.375 2.84375 5.746094 3.996094 9.402344 9.660156 C 9.515625 9.824219 9.550781 10.027344 9.507812 10.222656 C 9.449219 10.453125 9.296875 10.648438 9.089844 10.765625 C 3.65625 14.046875 0 22.003906 0 27.378906 C 0 34.21875 5.914062 39.1875 14.0625 39.1875 C 14.332031 39.1875 14.601562 39.183594 14.867188 39.171875 C 15.253906 39.15625 15.558594 38.828125 15.542969 38.441406 C 15.527344 38.050781 15.199219 37.75 14.8125 37.765625 Z M 14.8125 37.761719 "/>
</g>
</svg>
