<?xml version="1.0" encoding="UTF-8"?>
<svg xmlns="http://www.w3.org/2000/svg" xmlns:xlink="http://www.w3.org/1999/xlink" width="45px" height="45px" viewBox="0 0 45 45" version="1.1">
<g id="surface1">
<path style=" stroke:none;fill-rule:nonzero;fill:rgb(0%,0%,0%);fill-opacity:1;" d="M 26.71875 9.140625 L 24.609375 9.140625 L 24.609375 7.03125 C 24.609375 6.644531 24.292969 6.328125 23.90625 6.328125 L 21.09375 6.328125 C 20.707031 6.328125 20.390625 6.644531 20.390625 7.03125 L 20.390625 9.140625 L 18.28125 9.140625 C 17.894531 9.140625 17.578125 9.457031 17.578125 9.84375 L 17.578125 12.65625 C 17.578125 13.042969 17.894531 13.359375 18.28125 13.359375 L 20.390625 13.359375 L 20.390625 15.46875 C 20.390625 15.855469 20.707031 16.171875 21.09375 16.171875 L 23.90625 16.171875 C 24.292969 16.171875 24.609375 15.855469 24.609375 15.46875 L 24.609375 13.359375 L 26.71875 13.359375 C 27.105469 13.359375 27.421875 13.042969 27.421875 12.65625 L 27.421875 9.84375 C 27.421875 9.457031 27.105469 9.140625 26.71875 9.140625 Z M 26.015625 11.953125 L 23.90625 11.953125 C 23.519531 11.953125 23.203125 12.269531 23.203125 12.65625 L 23.203125 14.765625 L 21.796875 14.765625 L 21.796875 12.65625 C 21.796875 12.269531 21.480469 11.953125 21.09375 11.953125 L 18.984375 11.953125 L 18.984375 10.546875 L 21.09375 10.546875 C 21.480469 10.546875 21.796875 10.230469 21.796875 9.84375 L 21.796875 7.734375 L 23.203125 7.734375 L 23.203125 9.84375 C 23.203125 10.230469 23.519531 10.546875 23.90625 10.546875 L 26.015625 10.546875 Z M 26.015625 11.953125 "/>
<path style=" stroke:none;fill-rule:nonzero;fill:rgb(0%,0%,0%);fill-opacity:1;" d="M 41.996094 12.910156 C 42.011719 12.785156 42.019531 12.660156 42.019531 12.535156 C 42.011719 11.207031 41.082031 10.066406 39.78125 9.789062 C 38.304688 9.507812 36.859375 10.417969 36.476562 11.875 L 33.382812 20.777344 C 33.339844 20.796875 33.292969 20.816406 33.25 20.839844 L 27.035156 24.484375 C 25.101562 25.621094 23.910156 27.695312 23.90625 29.9375 L 23.90625 36.5625 C 23.519531 36.5625 23.203125 36.878906 23.203125 37.265625 L 23.203125 42.890625 C 23.203125 43.277344 23.519531 43.59375 23.90625 43.59375 L 33.75 43.59375 C 34.136719 43.59375 34.453125 43.277344 34.453125 42.890625 L 34.453125 37.265625 C 34.453125 36.878906 34.136719 36.5625 33.75 36.5625 L 33.75 35.015625 C 33.753906 34.414062 34.007812 33.84375 34.453125 33.441406 L 39.207031 29.214844 C 39.726562 28.761719 40.097656 28.160156 40.273438 27.492188 L 43.328125 16.082031 C 43.390625 15.84375 43.425781 15.597656 43.425781 15.347656 C 43.417969 14.339844 42.875 13.410156 41.996094 12.910156 Z M 37.820312 12.289062 C 38 11.535156 38.730469 11.046875 39.496094 11.164062 C 40.144531 11.300781 40.609375 11.875 40.613281 12.535156 L 40.613281 12.550781 C 39.320312 12.574219 38.203125 13.453125 37.878906 14.703125 L 35.914062 20.757812 C 35.617188 20.617188 35.300781 20.523438 34.972656 20.488281 Z M 33.046875 42.1875 L 24.609375 42.1875 L 24.609375 37.96875 L 33.046875 37.96875 Z M 41.96875 15.714844 L 38.910156 27.132812 C 38.804688 27.53125 38.585938 27.886719 38.277344 28.160156 L 33.519531 32.386719 C 32.773438 33.058594 32.347656 34.011719 32.34375 35.015625 L 32.34375 36.5625 L 25.3125 36.5625 L 25.3125 29.9375 C 25.320312 28.195312 26.242188 26.582031 27.746094 25.691406 L 33.953125 22.058594 C 34.277344 21.867188 34.664062 21.816406 35.023438 21.914062 C 35.386719 22.007812 35.695312 22.246094 35.878906 22.570312 C 36.0625 22.894531 36.113281 23.277344 36.019531 23.640625 C 35.921875 24 35.683594 24.304688 35.359375 24.488281 L 31.332031 26.816406 C 31.011719 27.019531 30.910156 27.4375 31.101562 27.761719 C 31.289062 28.089844 31.699219 28.207031 32.035156 28.035156 L 36.0625 25.707031 C 36.714844 25.335938 37.1875 24.722656 37.378906 23.996094 C 37.570312 23.277344 37.46875 22.511719 37.097656 21.867188 L 37.054688 21.804688 L 39.226562 15.101562 C 39.40625 14.347656 40.136719 13.859375 40.902344 13.976562 C 41.550781 14.113281 42.015625 14.6875 42.019531 15.347656 C 42.019531 15.472656 42.003906 15.597656 41.96875 15.714844 Z M 41.96875 15.714844 "/>
<path style=" stroke:none;fill-rule:nonzero;fill:rgb(0%,0%,0%);fill-opacity:1;" d="M 21.09375 36.5625 L 21.09375 29.9375 C 21.089844 27.695312 19.898438 25.621094 17.964844 24.484375 L 11.75 20.832031 C 11.707031 20.8125 11.65625 20.796875 11.617188 20.777344 L 8.542969 11.925781 C 8.171875 10.445312 6.714844 9.511719 5.21875 9.789062 C 3.917969 10.066406 2.988281 11.207031 2.980469 12.535156 C 2.980469 12.660156 2.988281 12.785156 3.003906 12.910156 C 2.125 13.410156 1.582031 14.339844 1.574219 15.347656 C 1.578125 15.597656 1.605469 15.839844 1.667969 16.082031 L 4.726562 27.484375 C 4.898438 28.15625 5.273438 28.757812 5.792969 29.214844 L 10.539062 33.441406 C 10.988281 33.839844 11.246094 34.414062 11.25 35.015625 L 11.25 36.5625 C 10.863281 36.5625 10.546875 36.878906 10.546875 37.265625 L 10.546875 42.890625 C 10.546875 43.277344 10.863281 43.59375 11.25 43.59375 L 21.09375 43.59375 C 21.480469 43.59375 21.796875 43.277344 21.796875 42.890625 L 21.796875 37.265625 C 21.796875 36.878906 21.480469 36.5625 21.09375 36.5625 Z M 4.386719 12.535156 C 4.390625 11.875 4.851562 11.304688 5.5 11.164062 C 6.285156 11.050781 7.027344 11.5625 7.199219 12.339844 L 10.027344 20.488281 C 9.699219 20.523438 9.382812 20.617188 9.085938 20.757812 L 7.136719 14.738281 C 6.8125 13.476562 5.6875 12.585938 4.386719 12.550781 Z M 11.476562 32.386719 L 6.722656 28.160156 C 6.414062 27.886719 6.191406 27.527344 6.089844 27.125 L 3.023438 15.714844 C 2.996094 15.59375 2.980469 15.472656 2.980469 15.347656 C 2.984375 14.6875 3.445312 14.117188 4.09375 13.976562 C 4.875 13.859375 5.613281 14.367188 5.785156 15.136719 L 7.945312 21.804688 L 7.902344 21.867188 C 7.53125 22.511719 7.429688 23.277344 7.621094 23.996094 C 7.8125 24.722656 8.285156 25.335938 8.9375 25.707031 L 12.964844 28.035156 C 13.300781 28.207031 13.710938 28.089844 13.898438 27.761719 C 14.089844 27.4375 13.988281 27.019531 13.667969 26.816406 L 9.640625 24.488281 C 9.316406 24.304688 9.078125 24 8.980469 23.640625 C 8.886719 23.277344 8.9375 22.894531 9.121094 22.570312 C 9.507812 21.898438 10.367188 21.664062 11.039062 22.050781 L 17.253906 25.691406 C 18.757812 26.582031 19.679688 28.195312 19.6875 29.9375 L 19.6875 36.5625 L 12.65625 36.5625 L 12.65625 35.015625 C 12.652344 34.011719 12.222656 33.054688 11.476562 32.386719 Z M 20.390625 42.1875 L 11.953125 42.1875 L 11.953125 37.96875 L 20.390625 37.96875 Z M 20.390625 42.1875 "/>
<path style=" stroke:none;fill-rule:nonzero;fill:rgb(0%,0%,0%);fill-opacity:1;" d="M 32.445312 3.609375 C 31.128906 2.289062 29.339844 1.546875 27.472656 1.546875 C 25.609375 1.546875 23.816406 2.289062 22.5 3.609375 C 21.183594 2.289062 19.394531 1.546875 17.527344 1.546875 C 15.660156 1.546875 13.871094 2.289062 12.554688 3.609375 C 9.8125 6.355469 9.8125 10.800781 12.554688 13.546875 L 22.003906 22.996094 C 22.277344 23.273438 22.722656 23.273438 22.996094 22.996094 L 32.449219 13.546875 C 35.1875 10.800781 35.1875 6.355469 32.445312 3.609375 Z M 22.5 21.503906 L 13.546875 12.554688 C 11.941406 10.941406 11.460938 8.523438 12.332031 6.421875 C 13.203125 4.320312 15.253906 2.953125 17.527344 2.953125 C 19.023438 2.949219 20.453125 3.542969 21.503906 4.601562 L 22.003906 5.101562 C 22.277344 5.378906 22.722656 5.378906 22.996094 5.101562 L 23.496094 4.601562 C 24.550781 3.546875 25.984375 2.953125 27.476562 2.953125 C 28.96875 2.953125 30.398438 3.546875 31.453125 4.601562 C 33.644531 6.796875 33.644531 10.355469 31.453125 12.550781 Z M 22.5 21.503906 "/>
</g>
</svg>
