<?xml version="1.0" encoding="UTF-8"?>
<svg xmlns="http://www.w3.org/2000/svg" xmlns:xlink="http://www.w3.org/1999/xlink" width="45px" height="45px" viewBox="0 0 45 45" version="1.1">
<g id="surface1">
<path style=" stroke:none;fill-rule:nonzero;fill:rgb(0%,0%,0%);fill-opacity:1;" d="M 23.203125 1.773438 L 23.203125 0.703125 C 23.203125 0.316406 22.886719 0 22.5 0 C 22.113281 0 21.796875 0.316406 21.796875 0.703125 L 21.796875 1.773438 C 11.265625 2.164062 2.8125 11.148438 2.8125 22.148438 C 2.8125 22.535156 3.128906 22.851562 3.515625 22.851562 C 3.902344 22.851562 4.21875 22.535156 4.21875 22.148438 C 4.21875 19.140625 6.621094 16.699219 9.574219 16.699219 C 12.0625 16.699219 14.324219 18.378906 14.953125 20.691406 C 15.035156 21.003906 15.328125 21.222656 15.640625 21.214844 C 15.960938 21.210938 16.238281 20.984375 16.3125 20.671875 C 16.90625 18.164062 19.195312 16.226562 21.792969 15.925781 L 21.792969 22.527344 C 22.019531 22.511719 22.25 22.5 22.496094 22.5 C 22.742188 22.5 22.972656 22.511719 23.199219 22.527344 L 23.199219 15.925781 C 25.792969 16.226562 28.082031 18.164062 28.679688 20.671875 C 28.753906 20.984375 29.03125 21.207031 29.351562 21.214844 L 29.363281 21.214844 C 29.679688 21.214844 29.957031 21.003906 30.039062 20.691406 C 30.671875 18.378906 32.933594 16.699219 35.421875 16.699219 C 38.375 16.699219 40.773438 19.140625 40.773438 22.148438 C 40.773438 22.535156 41.089844 22.851562 41.476562 22.851562 C 41.863281 22.851562 42.179688 22.535156 42.179688 22.148438 C 42.1875 11.148438 33.734375 2.164062 23.203125 1.777344 Z M 14.777344 17.582031 C 13.476562 16.175781 11.585938 15.292969 9.578125 15.292969 C 7.730469 15.292969 6.054688 16.046875 4.835938 17.265625 C 6.75 9.789062 12.957031 4.121094 20.539062 3.277344 C 15.722656 8.097656 14.878906 14.492188 14.777344 17.582031 Z M 22.5 14.472656 C 19.960938 14.472656 17.621094 15.730469 16.191406 17.675781 C 16.308594 14.65625 17.1875 8.019531 22.359375 3.5 C 22.402344 3.507812 22.449219 3.515625 22.5 3.515625 C 22.550781 3.515625 22.597656 3.507812 22.644531 3.5 C 27.8125 8.019531 28.695312 14.65625 28.808594 17.675781 C 27.378906 15.726562 25.039062 14.472656 22.5 14.472656 Z M 35.425781 15.292969 C 33.417969 15.292969 31.527344 16.171875 30.226562 17.582031 C 30.125 14.492188 29.28125 8.097656 24.46875 3.28125 C 32.046875 4.125 38.257812 9.792969 40.171875 17.269531 C 38.945312 16.046875 37.273438 15.292969 35.425781 15.292969 Z M 35.425781 15.292969 "/>
<path style=" stroke:none;fill-rule:nonzero;fill:rgb(0%,0%,0%);fill-opacity:1;" d="M 16.171875 41.484375 L 16.171875 44.296875 C 16.171875 44.683594 16.488281 45 16.875 45 C 17.261719 45 17.578125 44.683594 17.578125 44.296875 L 17.578125 41.484375 C 17.578125 41.097656 17.261719 40.78125 16.875 40.78125 C 16.488281 40.78125 16.171875 41.09375 16.171875 41.484375 Z M 16.171875 41.484375 "/>
<path style=" stroke:none;fill-rule:nonzero;fill:rgb(0%,0%,0%);fill-opacity:1;" d="M 31.640625 45 C 34.160156 45 36.210938 42.949219 36.210938 40.429688 C 36.210938 37.910156 34.160156 35.859375 31.640625 35.859375 C 29.121094 35.859375 27.070312 37.910156 27.070312 40.429688 C 27.070312 42.949219 29.121094 45 31.640625 45 Z M 31.640625 37.265625 C 33.382812 37.265625 34.804688 38.6875 34.804688 40.429688 C 34.804688 42.171875 33.382812 43.59375 31.640625 43.59375 C 29.898438 43.59375 28.476562 42.171875 28.476562 40.429688 C 28.476562 38.6875 29.898438 37.265625 31.640625 37.265625 Z M 31.640625 37.265625 "/>
<path style=" stroke:none;fill-rule:nonzero;fill:rgb(0%,0%,0%);fill-opacity:1;" d="M 30.601562 41.667969 C 30.734375 41.78125 30.894531 41.835938 31.058594 41.835938 C 31.21875 41.835938 31.382812 41.78125 31.515625 41.667969 L 33.148438 40.261719 C 33.445312 40.007812 33.476562 39.566406 33.222656 39.269531 C 32.96875 38.972656 32.527344 38.941406 32.230469 39.195312 L 31.054688 40.207031 L 31.039062 40.195312 C 30.742188 39.941406 30.300781 39.972656 30.046875 40.269531 C 29.796875 40.5625 29.828125 41.007812 30.121094 41.257812 Z M 30.601562 41.667969 "/>
<path style=" stroke:none;fill-rule:nonzero;fill:rgb(0%,0%,0%);fill-opacity:1;" d="M 18.21875 36.40625 L 13.84375 38.210938 C 13.097656 38.515625 12.558594 39.21875 12.390625 40.089844 L 11.617188 44.164062 C 11.542969 44.542969 11.792969 44.914062 12.175781 44.984375 C 12.558594 45.058594 12.921875 44.808594 12.996094 44.425781 L 13.773438 40.351562 C 13.847656 39.957031 14.082031 39.636719 14.382812 39.511719 L 18.753906 37.703125 C 18.777344 37.699219 18.792969 37.6875 18.8125 37.675781 L 21.796875 40.0625 L 21.796875 43.242188 C 21.796875 43.628906 22.113281 43.945312 22.5 43.945312 C 22.886719 43.945312 23.203125 43.628906 23.203125 43.242188 L 23.203125 40.0625 L 26.1875 37.675781 C 26.207031 37.683594 26.226562 37.695312 26.242188 37.703125 L 26.3125 37.734375 C 26.53125 37.304688 26.800781 36.902344 27.113281 36.542969 L 26.78125 36.40625 C 26.554688 36.308594 26.359375 36.097656 26.246094 35.824219 L 25.890625 34.9375 C 26.140625 34.632812 26.339844 34.269531 26.457031 33.875 C 26.640625 33.269531 26.890625 32.285156 27.007812 31.148438 C 27.089844 30.914062 28.109375 27.75 26.601562 25.644531 C 25.78125 24.488281 24.398438 23.90625 22.5 23.90625 C 20.601562 23.90625 19.21875 24.492188 18.394531 25.644531 C 16.890625 27.75 17.914062 30.914062 17.988281 31.148438 C 18.101562 32.285156 18.351562 33.265625 18.539062 33.875 C 18.65625 34.269531 18.855469 34.628906 19.109375 34.933594 L 18.75 35.820312 C 18.640625 36.097656 18.441406 36.308594 18.21875 36.40625 Z M 22.5 38.828125 L 19.867188 36.71875 C 19.9375 36.605469 20 36.480469 20.054688 36.347656 L 20.226562 35.921875 C 20.804688 36.328125 21.375 36.601562 21.734375 36.757812 C 21.980469 36.859375 22.238281 36.914062 22.5 36.914062 C 22.761719 36.914062 23.015625 36.859375 23.261719 36.757812 C 23.621094 36.601562 24.191406 36.324219 24.769531 35.921875 L 24.945312 36.347656 C 24.996094 36.476562 25.058594 36.601562 25.128906 36.71875 Z M 25.117188 33.46875 C 25.035156 33.730469 24.902344 33.960938 24.722656 34.144531 C 24.054688 34.824219 23.175781 35.265625 22.707031 35.464844 C 22.574219 35.523438 22.425781 35.523438 22.289062 35.464844 C 21.824219 35.265625 20.941406 34.828125 20.273438 34.148438 C 20.09375 33.964844 19.960938 33.734375 19.878906 33.472656 C 19.707031 32.898438 19.472656 31.960938 19.378906 30.894531 C 19.4375 30.609375 19.636719 29.902344 20.214844 29.46875 C 20.671875 29.125 21.300781 29.011719 22.078125 29.140625 C 22.355469 29.1875 22.632812 29.1875 22.910156 29.140625 C 23.683594 29.015625 24.308594 29.121094 24.765625 29.460938 C 25.347656 29.894531 25.550781 30.613281 25.613281 30.894531 C 25.523438 31.960938 25.289062 32.894531 25.117188 33.46875 Z M 18.988281 28.683594 C 18.96875 27.90625 19.097656 27.082031 19.535156 26.460938 C 20.085938 25.699219 21.078125 25.3125 22.5 25.3125 C 23.917969 25.3125 24.914062 25.699219 25.460938 26.460938 C 25.917969 27.101562 26.035156 27.933594 26.015625 28.691406 C 25.898438 28.566406 25.769531 28.453125 25.628906 28.347656 C 25.046875 27.902344 24.339844 27.683594 23.523438 27.683594 C 23.257812 27.683594 22.976562 27.707031 22.6875 27.753906 C 22.5625 27.773438 22.4375 27.773438 22.308594 27.753906 C 21.136719 27.558594 20.148438 27.757812 19.371094 28.347656 C 19.230469 28.449219 19.105469 28.566406 18.988281 28.683594 Z M 18.988281 28.683594 "/>
</g>
</svg>
