<?xml version="1.0" encoding="UTF-8"?>
<svg xmlns="http://www.w3.org/2000/svg" xmlns:xlink="http://www.w3.org/1999/xlink" width="45px" height="45px" viewBox="0 0 45 45" version="1.1">
<g id="surface1">
<path style=" stroke:none;fill-rule:nonzero;fill:rgb(0%,0%,0%);fill-opacity:1;" d="M 43.222656 37.492188 L 40.90625 37.492188 L 40.90625 21.226562 C 42.71875 20.5 43.988281 18.890625 43.988281 17.027344 C 43.988281 16.898438 43.953125 16.773438 43.886719 16.664062 L 38.898438 8.410156 C 38.882812 8.382812 38.863281 8.359375 38.847656 8.332031 L 38.847656 4.683594 C 38.847656 3.617188 37.980469 2.75 36.914062 2.75 L 13.296875 2.75 C 12.230469 2.75 11.363281 3.617188 11.363281 4.683594 L 11.363281 8.578125 L 6.476562 16.664062 C 6.410156 16.773438 6.375 16.898438 6.375 17.027344 C 6.375 18.890625 7.640625 20.5 9.457031 21.226562 L 9.457031 25.84375 L 4.332031 25.84375 L 3.800781 23.464844 C 3.730469 23.144531 3.445312 22.914062 3.117188 22.914062 L 1.40625 22.914062 C 1.019531 22.914062 0.703125 23.230469 0.703125 23.617188 C 0.703125 24.007812 1.019531 24.320312 1.40625 24.320312 L 2.550781 24.320312 L 4.488281 32.984375 C 3.910156 33.289062 3.515625 33.890625 3.515625 34.589844 C 3.515625 35.492188 4.179688 36.238281 5.046875 36.371094 C 4.992188 36.550781 4.960938 36.746094 4.960938 36.941406 C 4.960938 37.714844 5.414062 38.386719 6.066406 38.703125 L 6.066406 41.175781 C 6.066406 41.765625 6.546875 42.25 7.140625 42.25 L 43.222656 42.25 C 43.816406 42.25 44.296875 41.765625 44.296875 41.175781 L 44.296875 38.566406 C 44.296875 37.972656 43.816406 37.492188 43.222656 37.492188 Z M 38.757812 20.226562 C 36.9375 20.226562 35.414062 19.15625 35.03125 17.730469 L 42.484375 17.730469 C 42.101562 19.15625 40.578125 20.226562 38.757812 20.226562 Z M 12.726562 9.132812 L 17.804688 9.132812 L 15.609375 16.324219 L 8.324219 16.324219 L 12.664062 9.140625 C 12.671875 9.140625 12.691406 9.132812 12.726562 9.132812 Z M 31.085938 9.132812 L 33.28125 16.324219 L 25.882812 16.324219 L 25.882812 9.132812 Z M 24.476562 16.324219 L 17.082031 16.324219 L 19.277344 9.132812 L 24.476562 9.132812 Z M 24.382812 17.730469 C 24 19.15625 22.476562 20.226562 20.65625 20.226562 C 18.835938 20.226562 17.3125 19.15625 16.925781 17.730469 Z M 33.433594 17.730469 C 33.050781 19.15625 31.527344 20.226562 29.707031 20.226562 C 27.886719 20.226562 26.363281 19.15625 25.980469 17.730469 Z M 42.035156 16.324219 L 34.753906 16.324219 L 32.554688 9.132812 L 37.636719 9.132812 C 37.671875 9.132812 37.691406 9.140625 37.699219 9.140625 Z M 13.296875 4.15625 L 36.914062 4.15625 C 37.207031 4.15625 37.441406 4.394531 37.441406 4.683594 L 37.441406 7.726562 L 12.769531 7.726562 L 12.769531 4.683594 C 12.769531 4.394531 13.007812 4.15625 13.296875 4.15625 Z M 7.875 17.730469 L 15.332031 17.730469 C 14.949219 19.15625 13.425781 20.226562 11.605469 20.226562 C 9.785156 20.226562 8.261719 19.15625 7.875 17.730469 Z M 14.371094 27.25 C 14.425781 27.25 14.570312 27.300781 14.648438 27.398438 C 14.6875 27.445312 14.71875 27.507812 14.6875 27.648438 L 13.539062 32.78125 L 5.886719 32.78125 L 4.648438 27.25 Z M 4.921875 34.589844 C 4.921875 34.371094 5.105469 34.1875 5.320312 34.1875 L 14.101562 34.1875 C 14.433594 34.1875 14.71875 33.960938 14.789062 33.636719 L 16.058594 27.953125 C 16.179688 27.429688 16.066406 26.917969 15.746094 26.519531 C 15.417969 26.109375 14.878906 25.84375 14.371094 25.84375 L 10.863281 25.84375 L 10.863281 21.585938 C 11.105469 21.617188 11.351562 21.632812 11.605469 21.632812 C 13.535156 21.632812 15.226562 20.707031 16.128906 19.332031 C 17.035156 20.707031 18.726562 21.632812 20.65625 21.632812 C 22.585938 21.632812 24.277344 20.707031 25.179688 19.332031 C 26.085938 20.707031 27.777344 21.632812 29.707031 21.632812 C 31.636719 21.632812 33.328125 20.707031 34.234375 19.332031 C 35.136719 20.707031 36.828125 21.632812 38.757812 21.632812 C 39.011719 21.632812 39.257812 21.617188 39.5 21.585938 L 39.5 37.492188 L 33.488281 37.492188 L 33.488281 27.417969 L 33.605469 27.417969 C 33.996094 27.417969 34.308594 27.101562 34.308594 26.714844 L 34.308594 24.726562 C 34.308594 24.335938 33.996094 24.023438 33.605469 24.023438 L 16.757812 24.023438 C 16.367188 24.023438 16.054688 24.335938 16.054688 24.726562 L 16.054688 26.714844 C 16.054688 27.101562 16.367188 27.417969 16.757812 27.417969 L 16.875 27.417969 L 16.875 37.492188 L 15.277344 37.492188 C 15.332031 37.316406 15.359375 37.132812 15.359375 36.941406 C 15.359375 35.867188 14.480469 34.988281 13.40625 34.988281 C 13.40625 34.988281 13.402344 34.988281 13.402344 34.988281 L 5.320312 34.988281 C 5.105469 34.988281 4.921875 34.804688 4.921875 34.589844 Z M 32.902344 26.011719 L 17.460938 26.011719 L 17.460938 25.429688 L 32.902344 25.429688 Z M 24.476562 27.417969 L 24.476562 37.492188 L 18.28125 37.492188 L 18.28125 27.417969 Z M 25.882812 27.417969 L 32.082031 27.417969 L 32.082031 37.492188 L 25.882812 37.492188 Z M 13.402344 37.492188 C 13.101562 37.492188 12.855469 37.246094 12.855469 36.941406 C 12.855469 36.640625 13.101562 36.394531 13.402344 36.394531 C 13.707031 36.394531 13.953125 36.640625 13.953125 36.941406 C 13.953125 37.246094 13.707031 37.492188 13.402344 37.492188 Z M 6.914062 36.394531 C 7.21875 36.394531 7.464844 36.640625 7.464844 36.941406 C 7.464844 37.246094 7.21875 37.492188 6.914062 37.492188 C 6.613281 37.492188 6.367188 37.246094 6.367188 36.941406 C 6.367188 36.640625 6.613281 36.394531 6.914062 36.394531 Z M 8.792969 36.394531 L 11.527344 36.394531 C 11.476562 36.570312 11.449219 36.753906 11.449219 36.941406 C 11.449219 37.132812 11.476562 37.316406 11.527344 37.492188 L 8.792969 37.492188 C 8.84375 37.316406 8.871094 37.132812 8.871094 36.941406 C 8.871094 36.753906 8.84375 36.570312 8.792969 36.394531 Z M 42.890625 40.84375 L 7.472656 40.84375 L 7.472656 38.898438 L 42.890625 38.898438 Z M 16.34375 5.941406 C 16.34375 5.554688 16.660156 5.238281 17.046875 5.238281 L 22.414062 5.238281 C 22.800781 5.238281 23.117188 5.554688 23.117188 5.941406 C 23.117188 6.328125 22.800781 6.644531 22.414062 6.644531 L 17.046875 6.644531 C 16.660156 6.644531 16.34375 6.328125 16.34375 5.941406 Z M 27.246094 5.941406 C 27.246094 5.554688 27.5625 5.238281 27.949219 5.238281 L 33.316406 5.238281 C 33.703125 5.238281 34.019531 5.554688 34.019531 5.941406 C 34.019531 6.328125 33.703125 6.644531 33.316406 6.644531 L 27.949219 6.644531 C 27.558594 6.644531 27.246094 6.328125 27.246094 5.941406 Z M 20.722656 33.832031 L 22.246094 31.195312 C 22.4375 30.859375 22.867188 30.746094 23.203125 30.9375 C 23.542969 31.132812 23.65625 31.5625 23.460938 31.898438 L 21.941406 34.535156 C 21.808594 34.761719 21.574219 34.886719 21.332031 34.886719 C 21.210938 34.886719 21.089844 34.855469 20.980469 34.792969 C 20.644531 34.597656 20.527344 34.167969 20.722656 33.832031 Z M 19.296875 33.007812 L 20.820312 30.371094 C 21.011719 30.035156 21.441406 29.921875 21.777344 30.117188 C 22.117188 30.308594 22.230469 30.738281 22.035156 31.074219 L 20.515625 33.710938 C 20.386719 33.9375 20.148438 34.0625 19.90625 34.0625 C 19.785156 34.0625 19.664062 34.03125 19.554688 33.96875 C 19.21875 33.773438 19.101562 33.34375 19.296875 33.007812 Z M 31.066406 31.898438 L 29.542969 34.535156 C 29.414062 34.761719 29.175781 34.886719 28.933594 34.886719 C 28.816406 34.886719 28.695312 34.855469 28.582031 34.792969 C 28.246094 34.597656 28.132812 34.167969 28.328125 33.832031 L 29.847656 31.195312 C 30.042969 30.859375 30.472656 30.746094 30.808594 30.9375 C 31.144531 31.132812 31.261719 31.5625 31.066406 31.898438 Z M 29.640625 31.074219 L 28.117188 33.710938 C 27.988281 33.9375 27.75 34.0625 27.507812 34.0625 C 27.390625 34.0625 27.269531 34.03125 27.15625 33.96875 C 26.820312 33.773438 26.707031 33.34375 26.902344 33.007812 L 28.421875 30.371094 C 28.617188 30.035156 29.046875 29.921875 29.382812 30.117188 C 29.71875 30.308594 29.835938 30.738281 29.640625 31.074219 Z M 29.640625 31.074219 "/>
</g>
</svg>
