<?xml version="1.0" encoding="UTF-8"?>
<svg xmlns="http://www.w3.org/2000/svg" xmlns:xlink="http://www.w3.org/1999/xlink" width="45px" height="45px" viewBox="0 0 45 45" version="1.1">
<g id="surface1">
<path style=" stroke:none;fill-rule:nonzero;fill:rgb(0%,0%,0%);fill-opacity:1;" d="M 30.828125 41.738281 C 30.609375 41.738281 30.410156 41.589844 30.351562 41.371094 L 22.558594 11.761719 C 22.488281 11.488281 22.648438 11.21875 22.921875 11.148438 C 23.191406 11.078125 23.460938 11.238281 23.53125 11.511719 L 31.320312 41.121094 C 31.390625 41.390625 31.230469 41.660156 30.960938 41.730469 C 30.910156 41.738281 30.871094 41.738281 30.828125 41.738281 Z M 14.21875 41.738281 C 14.179688 41.738281 14.128906 41.730469 14.089844 41.71875 C 13.820312 41.648438 13.660156 41.378906 13.730469 41.109375 L 21.519531 11.5 C 21.589844 11.230469 21.859375 11.070312 22.128906 11.140625 C 22.398438 11.210938 22.558594 11.480469 22.488281 11.75 L 14.699219 41.359375 C 14.648438 41.601562 14.441406 41.738281 14.21875 41.738281 Z M 14.21875 41.738281 "/>
<path style=" stroke:none;fill-rule:nonzero;fill:rgb(0%,0%,0%);fill-opacity:1;" d="M 30.011719 38.640625 C 29.941406 38.640625 29.859375 38.621094 29.789062 38.589844 L 16.53125 32.101562 C 16.371094 32.019531 16.269531 31.871094 16.25 31.691406 C 16.238281 31.511719 16.308594 31.339844 16.460938 31.238281 L 25.511719 24.738281 L 19.289062 21.609375 C 19.140625 21.53125 19.039062 21.390625 19.019531 21.21875 C 19 21.050781 19.070312 20.890625 19.199219 20.78125 L 24.171875 16.699219 C 24.378906 16.519531 24.699219 16.558594 24.871094 16.769531 C 25.050781 16.980469 25.011719 17.300781 24.800781 17.46875 L 20.429688 21.058594 L 26.699219 24.21875 C 26.859375 24.300781 26.960938 24.449219 26.96875 24.628906 C 26.980469 24.800781 26.910156 24.96875 26.761719 25.078125 L 17.71875 31.570312 L 30.230469 37.691406 C 30.480469 37.808594 30.578125 38.109375 30.460938 38.359375 C 30.371094 38.53125 30.199219 38.640625 30.011719 38.640625 Z M 30.011719 38.640625 "/>
<path style=" stroke:none;fill-rule:nonzero;fill:rgb(0%,0%,0%);fill-opacity:1;" d="M 34.929688 44.671875 L 10.128906 44.671875 C 9.851562 44.671875 9.628906 44.449219 9.628906 44.171875 L 9.628906 42.699219 C 9.628906 41.621094 10.511719 40.738281 11.589844 40.738281 L 33.46875 40.738281 C 34.550781 40.738281 35.429688 41.621094 35.429688 42.699219 L 35.429688 44.171875 C 35.429688 44.449219 35.199219 44.671875 34.929688 44.671875 Z M 10.621094 43.671875 L 34.421875 43.671875 L 34.421875 42.699219 C 34.421875 42.171875 33.988281 41.738281 33.460938 41.738281 L 11.589844 41.738281 C 11.058594 41.738281 10.628906 42.171875 10.628906 42.699219 L 10.628906 43.671875 Z M 10.621094 43.671875 "/>
<path style=" stroke:none;fill-rule:nonzero;fill:rgb(0%,0%,0%);fill-opacity:1;" d="M 22.53125 12.199219 C 21.140625 12.199219 20.019531 11.070312 20.019531 9.691406 C 20.019531 8.308594 21.148438 7.179688 22.53125 7.179688 C 23.910156 7.179688 25.039062 8.308594 25.039062 9.691406 C 25.039062 11.078125 23.910156 12.199219 22.53125 12.199219 Z M 22.53125 8.179688 C 21.699219 8.179688 21.019531 8.859375 21.019531 9.691406 C 21.019531 10.519531 21.699219 11.199219 22.53125 11.199219 C 23.359375 11.199219 24.039062 10.519531 24.039062 9.691406 C 24.039062 8.859375 23.359375 8.179688 22.53125 8.179688 Z M 22.53125 8.179688 "/>
<path style=" stroke:none;fill-rule:nonzero;fill:rgb(0%,0%,0%);fill-opacity:1;" d="M 25.140625 14.488281 C 24.960938 14.488281 24.789062 14.390625 24.699219 14.21875 C 24.570312 13.980469 24.660156 13.671875 24.910156 13.539062 C 26.480469 12.710938 27.410156 11.269531 27.410156 9.691406 C 27.410156 8.109375 26.480469 6.671875 24.910156 5.839844 C 24.671875 5.710938 24.570312 5.410156 24.699219 5.160156 C 24.828125 4.921875 25.128906 4.820312 25.378906 4.949219 C 27.28125 5.960938 28.410156 7.730469 28.410156 9.691406 C 28.410156 11.648438 27.28125 13.421875 25.378906 14.429688 C 25.300781 14.46875 25.210938 14.488281 25.140625 14.488281 Z M 25.140625 14.488281 "/>
<path style=" stroke:none;fill-rule:nonzero;fill:rgb(0%,0%,0%);fill-opacity:1;" d="M 27.691406 16.71875 C 27.53125 16.71875 27.371094 16.640625 27.269531 16.488281 C 27.121094 16.261719 27.191406 15.949219 27.421875 15.800781 C 29.660156 14.339844 30.949219 12.121094 30.949219 9.691406 C 30.949219 7.261719 29.660156 5.039062 27.421875 3.578125 C 27.191406 3.429688 27.121094 3.121094 27.269531 2.890625 C 27.421875 2.660156 27.730469 2.589844 27.960938 2.738281 C 30.460938 4.359375 31.949219 6.960938 31.949219 9.691406 C 31.949219 12.421875 30.460938 15.019531 27.960938 16.640625 C 27.878906 16.691406 27.78125 16.71875 27.691406 16.71875 Z M 27.691406 16.71875 "/>
<path style=" stroke:none;fill-rule:nonzero;fill:rgb(0%,0%,0%);fill-opacity:1;" d="M 30.191406 18.910156 C 30.03125 18.910156 29.878906 18.839844 29.78125 18.699219 C 29.621094 18.46875 29.671875 18.160156 29.898438 18 C 32.800781 15.960938 34.460938 12.929688 34.460938 9.691406 C 34.460938 6.449219 32.800781 3.429688 29.910156 1.378906 C 29.679688 1.21875 29.628906 0.910156 29.789062 0.679688 C 29.949219 0.449219 30.261719 0.398438 30.488281 0.558594 C 33.660156 2.789062 35.46875 6.121094 35.46875 9.679688 C 35.46875 13.238281 33.648438 16.570312 30.488281 18.800781 C 30.398438 18.878906 30.289062 18.910156 30.191406 18.910156 Z M 30.191406 18.910156 "/>
<path style=" stroke:none;fill-rule:nonzero;fill:rgb(0%,0%,0%);fill-opacity:1;" d="M 19.921875 14.488281 C 19.839844 14.488281 19.761719 14.46875 19.691406 14.429688 C 17.789062 13.421875 16.660156 11.648438 16.660156 9.691406 C 16.660156 7.730469 17.789062 5.960938 19.691406 4.949219 C 19.929688 4.820312 20.238281 4.910156 20.371094 5.160156 C 20.5 5.398438 20.410156 5.710938 20.160156 5.839844 C 18.589844 6.671875 17.660156 8.109375 17.660156 9.691406 C 17.660156 11.269531 18.589844 12.710938 20.160156 13.539062 C 20.398438 13.671875 20.5 13.96875 20.371094 14.21875 C 20.269531 14.390625 20.101562 14.488281 19.921875 14.488281 Z M 19.921875 14.488281 "/>
<path style=" stroke:none;fill-rule:nonzero;fill:rgb(0%,0%,0%);fill-opacity:1;" d="M 17.359375 16.71875 C 17.269531 16.71875 17.171875 16.691406 17.089844 16.640625 C 14.589844 15.019531 13.101562 12.421875 13.101562 9.691406 C 13.101562 6.960938 14.589844 4.359375 17.089844 2.738281 C 17.320312 2.589844 17.628906 2.660156 17.78125 2.890625 C 17.929688 3.121094 17.859375 3.429688 17.628906 3.578125 C 15.390625 5.039062 14.101562 7.261719 14.101562 9.691406 C 14.101562 12.121094 15.390625 14.339844 17.628906 15.800781 C 17.859375 15.949219 17.929688 16.261719 17.78125 16.488281 C 17.691406 16.640625 17.53125 16.71875 17.359375 16.71875 Z M 17.359375 16.71875 "/>
<path style=" stroke:none;fill-rule:nonzero;fill:rgb(0%,0%,0%);fill-opacity:1;" d="M 14.859375 18.910156 C 14.761719 18.910156 14.660156 18.878906 14.570312 18.820312 C 11.398438 16.589844 9.589844 13.261719 9.589844 9.699219 C 9.589844 6.140625 11.410156 2.808594 14.570312 0.578125 C 14.800781 0.421875 15.109375 0.46875 15.269531 0.699219 C 15.429688 0.929688 15.378906 1.238281 15.148438 1.398438 C 12.25 3.441406 10.589844 6.46875 10.589844 9.710938 C 10.589844 12.949219 12.25 15.96875 15.148438 18.019531 C 15.378906 18.179688 15.429688 18.488281 15.269531 18.71875 C 15.171875 18.828125 15.011719 18.910156 14.859375 18.910156 Z M 14.859375 18.910156 "/>
<path style=" stroke:none;fill-rule:nonzero;fill:rgb(0%,0%,0%);fill-opacity:1;" d="M 15 38.789062 C 14.820312 38.789062 14.640625 38.691406 14.558594 38.519531 C 14.429688 38.269531 14.53125 37.96875 14.769531 37.851562 L 27.238281 31.378906 L 18.160156 25.699219 C 17.929688 25.550781 17.859375 25.238281 18 25.011719 C 18.148438 24.78125 18.460938 24.710938 18.691406 24.851562 L 28.511719 31 C 28.660156 31.101562 28.75 31.261719 28.738281 31.441406 C 28.730469 31.621094 28.628906 31.78125 28.46875 31.859375 L 15.21875 38.730469 C 15.160156 38.78125 15.078125 38.789062 15 38.789062 Z M 15 38.789062 "/>
</g>
</svg>
