<?xml version="1.0" encoding="UTF-8"?>
<svg xmlns="http://www.w3.org/2000/svg" xmlns:xlink="http://www.w3.org/1999/xlink" width="82px" height="82px" viewBox="0 0 82 82" version="1.1">
<g id="surface1">
<path style=" stroke:none;fill-rule:evenodd;fill:rgb(51.764709%,46.666667%,51.764709%);fill-opacity:1;" d="M 37.164062 22.390625 C 38.441406 22.867188 39.613281 23.554688 40.644531 24.402344 L 44.625 23.558594 C 44.773438 23.523438 44.921875 23.589844 44.996094 23.722656 L 47.714844 28.429688 C 47.789062 28.558594 47.773438 28.71875 47.671875 28.832031 L 44.949219 31.855469 C 45.171875 33.1875 45.167969 34.542969 44.949219 35.875 L 47.671875 38.898438 C 47.773438 39.011719 47.789062 39.167969 47.714844 39.300781 L 44.996094 44.007812 C 44.921875 44.140625 44.773438 44.203125 44.625 44.171875 L 40.644531 43.328125 C 39.613281 44.175781 38.441406 44.863281 37.164062 45.339844 L 35.910156 49.207031 C 35.863281 49.351562 35.734375 49.445312 35.582031 49.445312 L 30.144531 49.445312 C 29.996094 49.445312 29.863281 49.351562 29.816406 49.207031 L 28.5625 45.339844 C 27.289062 44.859375 26.113281 44.175781 25.082031 43.328125 L 21.101562 44.171875 C 20.953125 44.203125 20.808594 44.140625 20.730469 44.007812 L 18.011719 39.300781 C 17.9375 39.167969 17.953125 39.011719 18.054688 38.898438 L 20.777344 35.875 C 20.558594 34.546875 20.558594 33.183594 20.777344 31.855469 L 18.054688 28.832031 C 17.953125 28.71875 17.9375 28.5625 18.011719 28.429688 L 20.730469 23.722656 C 20.808594 23.589844 20.953125 23.527344 21.101562 23.558594 L 25.082031 24.402344 C 26.113281 23.554688 27.289062 22.871094 28.5625 22.390625 L 29.816406 18.523438 C 29.863281 18.378906 29.996094 18.285156 30.144531 18.285156 L 35.582031 18.285156 C 35.734375 18.285156 35.863281 18.378906 35.910156 18.523438 Z M 32.863281 26.726562 C 28.921875 26.726562 25.726562 29.921875 25.726562 33.863281 C 25.726562 37.808594 28.921875 41.003906 32.863281 41.003906 C 36.804688 41.003906 40.003906 37.808594 40.003906 33.863281 C 40.003906 29.921875 36.804688 26.726562 32.863281 26.726562 Z M 32.863281 26.726562 "/>
<path style=" stroke:none;fill-rule:evenodd;fill:rgb(67.843139%,62.7451%,67.843139%);fill-opacity:1;" d="M 40.390625 24.199219 C 40.476562 24.265625 40.5625 24.332031 40.644531 24.402344 L 43.785156 23.734375 L 46.496094 28.429688 C 46.570312 28.558594 46.554688 28.71875 46.453125 28.832031 L 43.730469 31.855469 C 43.949219 33.1875 43.949219 34.542969 43.730469 35.875 L 46.453125 38.898438 C 46.554688 39.011719 46.570312 39.167969 46.492188 39.300781 L 43.785156 43.992188 L 40.644531 43.328125 C 40.5625 43.394531 40.476562 43.464844 40.390625 43.53125 L 39.425781 43.328125 C 38.394531 44.175781 37.21875 44.859375 35.945312 45.339844 L 34.6875 49.207031 C 34.640625 49.351562 34.511719 49.445312 34.359375 49.445312 L 30.144531 49.445312 C 29.992188 49.445312 29.863281 49.351562 29.816406 49.207031 L 28.5625 45.339844 C 27.289062 44.859375 26.113281 44.175781 25.082031 43.328125 L 24.117188 43.53125 C 24.03125 43.464844 23.945312 43.394531 23.863281 43.328125 L 20.722656 43.992188 L 18.011719 39.300781 C 17.9375 39.167969 17.953125 39.011719 18.054688 38.898438 L 20.777344 35.875 C 20.558594 34.546875 20.558594 33.183594 20.777344 31.855469 L 18.054688 28.832031 C 17.953125 28.71875 17.9375 28.558594 18.011719 28.429688 L 20.722656 23.734375 L 23.863281 24.402344 C 23.945312 24.332031 24.03125 24.265625 24.117188 24.199219 L 25.082031 24.402344 C 26.113281 23.554688 27.289062 22.867188 28.5625 22.390625 L 29.816406 18.523438 C 29.863281 18.378906 29.992188 18.285156 30.144531 18.285156 L 34.359375 18.285156 C 34.511719 18.285156 34.640625 18.378906 34.6875 18.523438 L 35.945312 22.390625 C 37.21875 22.867188 38.394531 23.554688 39.425781 24.402344 Z M 31.644531 26.726562 C 27.703125 26.726562 24.503906 29.921875 24.503906 33.863281 C 24.503906 37.808594 27.699219 41.003906 31.644531 41.003906 C 31.847656 41.003906 32.050781 40.996094 32.253906 40.976562 C 32.453125 40.996094 32.660156 41.003906 32.863281 41.003906 C 36.804688 41.003906 40.003906 37.808594 40.003906 33.863281 C 40.003906 29.921875 36.808594 26.726562 32.863281 26.726562 C 32.660156 26.726562 32.457031 26.734375 32.253906 26.753906 C 32.050781 26.734375 31.847656 26.726562 31.644531 26.726562 Z M 31.644531 26.726562 "/>
<path style=" stroke:none;fill-rule:evenodd;fill:rgb(80.000001%,80.000001%,80.000001%);fill-opacity:1;" d="M 15.25 25.238281 C 15.414062 25.238281 15.578125 25.246094 15.738281 25.261719 C 15.03125 22.332031 17.242188 19.484375 20.28125 19.484375 C 21.210938 19.484375 22.078125 19.757812 22.804688 20.226562 C 23.050781 15.183594 28.492188 12.191406 32.863281 14.546875 L 32.863281 53.183594 C 28.492188 55.539062 23.050781 52.546875 22.804688 47.503906 C 19.738281 49.480469 15.609375 47.292969 15.609375 43.570312 C 15.609375 43.191406 15.652344 42.820312 15.738281 42.464844 C 12.976562 42.753906 10.574219 40.59375 10.574219 37.820312 C 10.574219 36.152344 11.445312 34.691406 12.757812 33.863281 C 11.445312 33.035156 10.574219 31.574219 10.574219 29.910156 C 10.574219 27.328125 12.667969 25.238281 15.25 25.238281 Z M 15.25 25.238281 "/>
<path style=" stroke:none;fill-rule:evenodd;fill:rgb(90.196079%,90.196079%,90.196079%);fill-opacity:1;" d="M 21.710938 19.707031 C 22.101562 19.832031 22.46875 20.007812 22.804688 20.226562 C 22.820312 19.976562 22.84375 19.730469 22.882812 19.492188 C 23.898438 19.4375 24.863281 19.703125 25.671875 20.226562 C 25.832031 16.921875 28.222656 14.5 31.078125 13.882812 C 31.683594 14.015625 32.28125 14.234375 32.863281 14.546875 L 32.863281 53.183594 C 32.28125 53.496094 31.683594 53.714844 31.078125 53.84375 C 28.222656 53.226562 25.832031 50.804688 25.671875 47.503906 C 24.789062 48.074219 23.816406 48.296875 22.882812 48.238281 C 22.84375 48 22.820312 47.753906 22.808594 47.503906 C 22.457031 47.726562 22.097656 47.898438 21.730469 48.019531 C 19.914062 47.433594 18.472656 45.769531 18.472656 43.570312 C 18.472656 43.191406 18.519531 42.820312 18.605469 42.46875 C 15.839844 42.753906 13.441406 40.59375 13.441406 37.820312 C 13.441406 36.152344 14.3125 34.691406 15.621094 33.863281 C 14.3125 33.035156 13.441406 31.574219 13.441406 29.910156 C 13.441406 27.136719 15.84375 24.972656 18.605469 25.261719 C 18.011719 22.820312 19.453125 20.433594 21.710938 19.707031 Z M 21.710938 19.707031 "/>
<path style=" stroke:none;fill-rule:evenodd;fill:rgb(67.843139%,62.7451%,67.843139%);fill-opacity:1;" d="M 32.863281 32.804688 L 32.863281 34.925781 L 25.65625 34.925781 C 25.261719 37.019531 23.710938 38.746094 21.664062 39.359375 C 21.101562 39.523438 20.511719 39.207031 20.34375 38.644531 C 20.175781 38.085938 20.496094 37.496094 21.058594 37.328125 C 23.464844 36.609375 24.40625 33.703125 22.921875 31.707031 C 22.464844 31.09375 21.8125 30.628906 21.058594 30.402344 C 20.496094 30.234375 20.175781 29.644531 20.34375 29.085938 C 20.511719 28.523438 21.101562 28.203125 21.664062 28.371094 C 23.710938 28.984375 25.261719 30.707031 25.65625 32.804688 Z M 32.863281 32.804688 "/>
<path style=" stroke:none;fill-rule:evenodd;fill:rgb(37.64706%,71.764708%,99.607843%);fill-opacity:1;" d="M 56.820312 10.140625 L 56.820312 25.128906 C 56.820312 46.074219 39.6875 63.210938 18.742188 63.210938 L 13.921875 63.210938 C 13.335938 63.210938 12.863281 62.734375 12.863281 62.148438 C 12.863281 61.5625 13.335938 61.085938 13.921875 61.085938 L 18.742188 61.085938 C 38.515625 61.085938 54.699219 44.90625 54.699219 25.128906 L 54.699219 10.140625 L 50.597656 14.246094 C 50.179688 14.660156 49.511719 14.660156 49.09375 14.246094 C 48.679688 13.832031 48.679688 13.160156 49.09375 12.746094 L 55.011719 6.832031 C 55.425781 6.417969 56.097656 6.417969 56.511719 6.832031 L 62.425781 12.746094 C 62.839844 13.160156 62.839844 13.832031 62.425781 14.246094 C 62.011719 14.660156 61.339844 14.660156 60.925781 14.246094 Z M 56.820312 10.140625 "/>
<path style=" stroke:none;fill-rule:evenodd;fill:rgb(89.019608%,24.705882%,39.607844%);fill-opacity:1;" d="M 15.027344 68.050781 L 22.457031 68.050781 L 22.457031 75.480469 L 15.027344 75.480469 Z M 15.027344 68.050781 "/>
<path style=" stroke:none;fill-rule:evenodd;fill:rgb(100%,74.901962%,19.215687%);fill-opacity:1;" d="M 31.351562 65.996094 L 38.78125 65.996094 L 38.78125 75.480469 L 31.351562 75.480469 Z M 31.351562 65.996094 "/>
<path style=" stroke:none;fill-rule:evenodd;fill:rgb(7.843138%,70.980394%,63.529414%);fill-opacity:1;" d="M 47.671875 55.570312 L 55.101562 55.570312 L 55.101562 75.480469 L 47.671875 75.480469 Z M 47.671875 55.570312 "/>
<path style=" stroke:none;fill-rule:evenodd;fill:rgb(37.64706%,71.764708%,99.607843%);fill-opacity:1;" d="M 63.996094 18.167969 L 71.425781 18.167969 L 71.425781 75.480469 L 63.996094 75.480469 Z M 63.996094 18.167969 "/>
<path style=" stroke:none;fill-rule:evenodd;fill:rgb(98.039216%,43.137255%,52.156866%);fill-opacity:1;" d="M 15.027344 68.050781 L 20.230469 68.050781 L 20.230469 75.480469 L 15.027344 75.480469 Z M 15.027344 68.050781 "/>
<path style=" stroke:none;fill-rule:evenodd;fill:rgb(100%,88.235295%,46.666667%);fill-opacity:1;" d="M 31.351562 65.996094 L 36.550781 65.996094 L 36.550781 75.480469 L 31.351562 75.480469 Z M 31.351562 65.996094 "/>
<path style=" stroke:none;fill-rule:evenodd;fill:rgb(9.803922%,81.176472%,72.941178%);fill-opacity:1;" d="M 47.671875 55.570312 L 52.875 55.570312 L 52.875 75.480469 L 47.671875 75.480469 Z M 47.671875 55.570312 "/>
<path style=" stroke:none;fill-rule:evenodd;fill:rgb(53.333336%,78.431374%,99.607843%);fill-opacity:1;" d="M 63.996094 18.167969 L 69.195312 18.167969 L 69.195312 75.480469 L 63.996094 75.480469 Z M 63.996094 18.167969 "/>
</g>
</svg>
