<?xml version="1.0" encoding="UTF-8"?>
<svg xmlns="http://www.w3.org/2000/svg" xmlns:xlink="http://www.w3.org/1999/xlink" width="82px" height="82px" viewBox="0 0 82 82" version="1.1">
<g id="surface1">
<path style=" stroke:none;fill-rule:evenodd;fill:rgb(82.352942%,89.803922%,96.470588%);fill-opacity:1;" d="M 57.449219 46.492188 C 60.828125 46.140625 64.160156 48.175781 65.28125 51.539062 C 71.605469 50.976562 77.035156 55.941406 77.035156 62.269531 C 77.035156 68.113281 72.390625 72.855469 66.59375 73.046875 L 32.558594 73.046875 C 26.601562 73.046875 21.78125 68.226562 21.78125 62.269531 C 21.78125 57.878906 24.40625 54.117188 28.171875 52.417969 C 26.90625 43.417969 33.890625 35.363281 43 35.363281 C 49.921875 35.378906 55.75 40.101562 57.449219 46.492188 Z M 4.964844 8.9375 L 54.980469 8.9375 L 54.980469 28.234375 C 38.308594 28.234375 21.636719 28.234375 4.964844 28.234375 C 4.964844 21.796875 4.964844 15.359375 4.964844 8.9375 Z M 4.964844 8.9375 "/>
<path style=" stroke:none;fill-rule:nonzero;fill:rgb(28.235295%,38.039216%,67.843139%);fill-opacity:1;" d="M 39.941406 64.078125 C 39.6875 64.542969 39.109375 64.71875 38.644531 64.460938 C 38.179688 64.207031 38.003906 63.628906 38.261719 63.164062 L 46.589844 47.949219 C 46.957031 47.277344 47.949219 47.261719 48.304688 48.015625 L 55.847656 63.039062 C 56.261719 63.886719 55.335938 64.78125 54.5 64.285156 L 45.210938 58.9375 C 44.765625 58.679688 44.601562 58.089844 44.859375 57.625 C 45.117188 57.160156 45.707031 57.015625 46.15625 57.273438 L 52.691406 61.050781 L 47.390625 50.480469 Z M 58.152344 45.5 C 61.5 45.484375 64.574219 47.453125 65.921875 50.546875 C 72.46875 50.320312 77.996094 55.65625 77.996094 62.285156 C 77.996094 68.628906 72.953125 73.832031 66.625 74.007812 C 66.609375 74.007812 66.59375 74.007812 66.578125 74.007812 L 32.558594 74.023438 C 28.042969 74.023438 24.054688 71.460938 22.085938 67.585938 L 4.964844 67.585938 C 4.4375 67.585938 4.003906 67.152344 4.003906 66.625 L 4.003906 8.9375 C 4.003906 8.410156 4.4375 7.976562 4.964844 7.976562 L 54.980469 7.976562 C 55.511719 7.976562 55.941406 8.410156 55.941406 8.9375 L 55.941406 41.097656 C 56.886719 42.425781 57.640625 43.898438 58.152344 45.5 Z M 21.316406 65.664062 C 19.683594 60.25 22.164062 54.46875 27.128906 51.875 C 26.234375 42.523438 33.585938 34.417969 42.984375 34.417969 C 47.214844 34.417969 51.121094 36.082031 54.019531 38.871094 L 54.019531 29.195312 L 5.925781 29.195312 L 5.925781 65.664062 Z M 61.742188 48.464844 C 60.523438 47.679688 59.050781 47.292969 57.558594 47.453125 C 57.09375 47.519531 56.632812 47.214844 56.519531 46.75 C 54.917969 40.695312 49.390625 36.355469 42.96875 36.355469 C 34.449219 36.355469 27.914062 43.898438 29.101562 52.324219 C 29.164062 52.738281 28.941406 53.15625 28.539062 53.332031 C 22.277344 56.117188 20.722656 64.367188 25.609375 69.234375 C 27.386719 71.011719 29.835938 72.101562 32.558594 72.101562 L 66.578125 72.101562 C 69.21875 72.023438 71.589844 70.886719 73.320312 69.109375 C 77.164062 65.136719 76.972656 58.761719 72.886719 55.03125 C 70.902344 53.203125 68.179688 52.242188 65.375 52.5 C 64.945312 52.53125 64.527344 52.273438 64.382812 51.84375 C 63.886719 50.402344 62.941406 49.230469 61.742188 48.464844 Z M 24.34375 21.972656 C 24.761719 22.292969 24.839844 22.902344 24.519531 23.320312 C 24.199219 23.734375 23.589844 23.816406 23.175781 23.496094 L 17.761719 19.347656 C 17.25 18.945312 17.265625 18.195312 17.777344 17.808594 L 23.191406 13.660156 C 23.605469 13.339844 24.214844 13.421875 24.535156 13.835938 C 24.855469 14.253906 24.777344 14.863281 24.359375 15.183594 L 19.90625 18.578125 Z M 31.871094 13.355469 C 32.144531 12.894531 32.71875 12.75 33.183594 13.003906 C 33.648438 13.277344 33.792969 13.855469 33.535156 14.316406 L 28.058594 23.800781 C 27.804688 24.265625 27.210938 24.40625 26.746094 24.152344 C 26.28125 23.878906 26.121094 23.304688 26.394531 22.839844 Z M 36.773438 23.496094 C 36.355469 23.816406 35.746094 23.734375 35.425781 23.320312 C 35.105469 22.902344 35.1875 22.292969 35.601562 21.972656 L 40.023438 18.578125 L 35.601562 15.183594 C 35.1875 14.863281 35.105469 14.253906 35.425781 13.835938 C 35.746094 13.421875 36.355469 13.339844 36.773438 13.660156 L 42.183594 17.808594 C 42.679688 18.195312 42.714844 18.945312 42.203125 19.347656 Z M 11.050781 53.539062 C 10.523438 53.539062 10.089844 53.109375 10.089844 52.578125 C 10.089844 52.050781 10.523438 51.617188 11.050781 51.617188 L 18.144531 51.617188 C 18.675781 51.617188 19.105469 52.050781 19.105469 52.578125 C 19.105469 53.109375 18.675781 53.539062 18.144531 53.539062 Z M 11.050781 47.535156 C 10.523438 47.535156 10.089844 47.101562 10.089844 46.574219 C 10.089844 46.046875 10.523438 45.613281 11.050781 45.613281 L 25.242188 45.613281 C 25.769531 45.613281 26.203125 46.046875 26.203125 46.574219 C 26.203125 47.101562 25.769531 47.535156 25.242188 47.535156 Z M 11.050781 41.527344 C 10.523438 41.527344 10.089844 41.097656 10.089844 40.566406 C 10.089844 40.039062 10.523438 39.605469 11.050781 39.605469 L 25.242188 39.605469 C 25.769531 39.605469 26.203125 40.039062 26.203125 40.566406 C 26.203125 41.097656 25.769531 41.527344 25.242188 41.527344 Z M 11.050781 35.523438 C 10.523438 35.523438 10.089844 35.089844 10.089844 34.5625 C 10.089844 34.03125 10.523438 33.601562 11.050781 33.601562 L 25.242188 33.601562 C 25.769531 33.601562 26.203125 34.03125 26.203125 34.5625 C 26.203125 35.089844 25.769531 35.523438 25.242188 35.523438 Z M 54.019531 9.898438 L 5.925781 9.898438 L 5.925781 27.273438 L 54.019531 27.273438 Z M 54.019531 9.898438 "/>
</g>
</svg>
