<?xml version="1.0" encoding="UTF-8"?>
<svg xmlns="http://www.w3.org/2000/svg" xmlns:xlink="http://www.w3.org/1999/xlink" width="45px" height="45px" viewBox="0 0 45 45" version="1.1">
<g id="surface1">
<path style=" stroke:none;fill-rule:nonzero;fill:rgb(0%,0%,0%);fill-opacity:1;" d="M 7.03125 40.078125 L 32.34375 40.078125 C 35.0625 40.074219 37.261719 37.875 37.265625 35.15625 C 37.265625 34.96875 37.191406 34.789062 37.058594 34.660156 C 36.929688 34.527344 36.75 34.453125 36.5625 34.453125 L 35.859375 34.453125 L 35.859375 30.9375 C 35.859375 30.550781 35.542969 30.234375 35.15625 30.234375 C 34.769531 30.234375 34.453125 30.550781 34.453125 30.9375 L 34.453125 34.453125 L 4.921875 34.453125 L 4.921875 32.34375 C 4.921875 31.957031 4.605469 31.640625 4.21875 31.640625 C 3.832031 31.640625 3.515625 31.957031 3.515625 32.34375 L 3.515625 34.453125 L 2.8125 34.453125 C 2.625 34.453125 2.445312 34.527344 2.316406 34.660156 C 2.183594 34.789062 2.109375 34.96875 2.109375 35.15625 C 2.113281 37.875 4.3125 40.074219 7.03125 40.078125 Z M 35.15625 35.859375 L 35.789062 35.859375 C 35.453125 37.496094 34.015625 38.667969 32.34375 38.671875 L 7.03125 38.671875 C 5.363281 38.667969 3.921875 37.496094 3.585938 35.859375 Z M 35.15625 35.859375 "/>
<path style=" stroke:none;fill-rule:nonzero;fill:rgb(0%,0%,0%);fill-opacity:1;" d="M 4.21875 27.421875 C 4.40625 27.421875 4.585938 27.347656 4.714844 27.214844 C 4.847656 27.085938 4.921875 26.90625 4.921875 26.71875 L 4.921875 14.765625 L 16.875 14.765625 C 17.261719 14.765625 17.578125 14.449219 17.578125 14.0625 C 17.578125 13.675781 17.261719 13.359375 16.875 13.359375 L 4.21875 13.359375 C 4.03125 13.359375 3.851562 13.433594 3.722656 13.566406 C 3.589844 13.695312 3.515625 13.875 3.515625 14.0625 L 3.515625 26.71875 C 3.515625 26.90625 3.589844 27.085938 3.722656 27.214844 C 3.851562 27.347656 4.03125 27.421875 4.21875 27.421875 Z M 4.21875 27.421875 "/>
<path style=" stroke:none;fill-rule:nonzero;fill:rgb(0%,0%,0%);fill-opacity:1;" d="M 30.9375 4.921875 C 24.335938 4.921875 18.984375 10.273438 18.984375 16.875 C 18.984375 23.476562 24.335938 28.828125 30.9375 28.828125 C 37.539062 28.828125 42.890625 23.476562 42.890625 16.875 C 42.882812 10.277344 37.535156 4.929688 30.9375 4.921875 Z M 31.640625 27.386719 L 31.640625 26.71875 C 31.640625 26.332031 31.324219 26.015625 30.9375 26.015625 C 30.550781 26.015625 30.234375 26.332031 30.234375 26.71875 L 30.234375 27.386719 C 24.972656 27.03125 20.78125 22.839844 20.425781 17.578125 L 21.09375 17.578125 C 21.480469 17.578125 21.796875 17.261719 21.796875 16.875 C 21.796875 16.488281 21.480469 16.171875 21.09375 16.171875 L 20.425781 16.171875 C 20.78125 10.910156 24.972656 6.71875 30.234375 6.363281 L 30.234375 7.03125 C 30.234375 7.417969 30.550781 7.734375 30.9375 7.734375 C 31.324219 7.734375 31.640625 7.417969 31.640625 7.03125 L 31.640625 6.363281 C 36.902344 6.71875 41.09375 10.910156 41.449219 16.171875 L 40.78125 16.171875 C 40.394531 16.171875 40.078125 16.488281 40.078125 16.875 C 40.078125 17.261719 40.394531 17.578125 40.78125 17.578125 L 41.449219 17.578125 C 41.09375 22.839844 36.902344 27.03125 31.640625 27.386719 Z M 31.640625 27.386719 "/>
<path style=" stroke:none;fill-rule:nonzero;fill:rgb(0%,0%,0%);fill-opacity:1;" d="M 31.640625 16.582031 L 31.640625 12.65625 C 31.640625 12.269531 31.324219 11.953125 30.9375 11.953125 C 30.550781 11.953125 30.234375 12.269531 30.234375 12.65625 L 30.234375 16.875 C 30.234375 17.0625 30.308594 17.242188 30.441406 17.371094 L 31.847656 18.777344 C 32.121094 19.042969 32.5625 19.042969 32.832031 18.769531 C 33.101562 18.5 33.105469 18.058594 32.839844 17.785156 Z M 31.640625 16.582031 "/>
<path style=" stroke:none;fill-rule:nonzero;fill:rgb(0%,0%,0%);fill-opacity:1;" d="M 30.9375 9.140625 C 30.550781 9.140625 30.234375 9.457031 30.234375 9.84375 C 30.234375 10.230469 30.550781 10.546875 30.9375 10.546875 C 33.496094 10.550781 35.804688 12.09375 36.785156 14.457031 C 37.761719 16.824219 37.222656 19.546875 35.414062 21.359375 C 35.234375 21.535156 35.164062 21.796875 35.230469 22.042969 C 35.296875 22.289062 35.488281 22.476562 35.734375 22.539062 C 35.980469 22.605469 36.238281 22.53125 36.414062 22.347656 C 38.621094 20.132812 39.277344 16.804688 38.082031 13.917969 C 36.882812 11.027344 34.066406 9.144531 30.9375 9.140625 Z M 30.9375 9.140625 "/>
<path style=" stroke:none;fill-rule:nonzero;fill:rgb(0%,0%,0%);fill-opacity:1;" d="M 4.921875 29.53125 C 4.921875 29.144531 4.605469 28.828125 4.21875 28.828125 C 3.832031 28.828125 3.515625 29.144531 3.515625 29.53125 C 3.515625 29.917969 3.832031 30.234375 4.21875 30.234375 C 4.605469 30.234375 4.921875 29.917969 4.921875 29.53125 Z M 4.921875 29.53125 "/>
</g>
</svg>
