<?xml version="1.0" encoding="UTF-8"?>
<svg xmlns="http://www.w3.org/2000/svg" xmlns:xlink="http://www.w3.org/1999/xlink" width="82px" height="82px" viewBox="0 0 82 82" version="1.1">
<g id="surface1">
<path style=" stroke:none;fill-rule:nonzero;fill:rgb(52.941179%,80.784315%,85.09804%);fill-opacity:1;" d="M 6.359375 0 L 62.90625 0 C 66.027344 0 68.558594 2.53125 68.558594 5.65625 L 68.558594 50.890625 C 68.558594 54.011719 66.027344 56.542969 62.90625 56.542969 L 6.359375 56.542969 C 3.238281 56.542969 0.707031 54.011719 0.707031 50.890625 L 0.707031 5.65625 C 0.707031 2.53125 3.238281 0 6.359375 0 Z M 6.359375 0 "/>
<path style=" stroke:none;fill-rule:nonzero;fill:rgb(26.274511%,59.607846%,81.960785%);fill-opacity:1;" d="M 4.945312 4.242188 L 7.773438 4.242188 L 7.773438 7.066406 L 4.945312 7.066406 Z M 4.945312 4.242188 "/>
<path style=" stroke:none;fill-rule:nonzero;fill:rgb(26.274511%,59.607846%,81.960785%);fill-opacity:1;" d="M 10.601562 4.242188 L 13.429688 4.242188 L 13.429688 7.066406 L 10.601562 7.066406 Z M 10.601562 4.242188 "/>
<path style=" stroke:none;fill-rule:nonzero;fill:rgb(26.274511%,59.607846%,81.960785%);fill-opacity:1;" d="M 16.257812 4.242188 L 19.082031 4.242188 L 19.082031 7.066406 L 16.257812 7.066406 Z M 16.257812 4.242188 "/>
<path style=" stroke:none;fill-rule:nonzero;fill:rgb(26.274511%,59.607846%,81.960785%);fill-opacity:1;" d="M 14.84375 11.308594 L 71.386719 11.308594 C 74.511719 11.308594 77.042969 13.839844 77.042969 16.964844 L 77.042969 62.199219 C 77.042969 65.320312 74.511719 67.855469 71.386719 67.855469 L 14.84375 67.855469 C 11.71875 67.855469 9.1875 65.320312 9.1875 62.199219 L 9.1875 16.964844 C 9.1875 13.839844 11.71875 11.308594 14.84375 11.308594 Z M 14.84375 11.308594 "/>
<path style=" stroke:none;fill-rule:nonzero;fill:rgb(24.705882%,56.078434%,76.862746%);fill-opacity:1;" d="M 71.386719 11.308594 L 64.671875 11.308594 C 54.539062 43.566406 35.140625 59.871094 21.707031 67.855469 L 71.386719 67.855469 C 74.511719 67.855469 77.042969 65.320312 77.042969 62.199219 L 77.042969 16.964844 C 77.042969 13.839844 74.511719 11.308594 71.386719 11.308594 Z M 71.386719 11.308594 "/>
<path style=" stroke:none;fill-rule:nonzero;fill:rgb(52.941179%,80.784315%,85.09804%);fill-opacity:1;" d="M 13.429688 15.550781 L 16.257812 15.550781 L 16.257812 18.375 L 13.429688 18.375 Z M 13.429688 15.550781 "/>
<path style=" stroke:none;fill-rule:nonzero;fill:rgb(52.941179%,80.784315%,85.09804%);fill-opacity:1;" d="M 19.082031 15.550781 L 21.910156 15.550781 L 21.910156 18.375 L 19.082031 18.375 Z M 19.082031 15.550781 "/>
<path style=" stroke:none;fill-rule:nonzero;fill:rgb(52.941179%,80.784315%,85.09804%);fill-opacity:1;" d="M 24.738281 15.550781 L 27.566406 15.550781 L 27.566406 18.375 L 24.738281 18.375 Z M 24.738281 15.550781 "/>
<path style=" stroke:none;fill-rule:nonzero;fill:rgb(21.176471%,52.156866%,72.941178%);fill-opacity:1;" d="M 13.429688 56.542969 L 72.800781 56.542969 L 72.800781 59.371094 L 13.429688 59.371094 Z M 13.429688 56.542969 "/>
<path style=" stroke:none;fill-rule:nonzero;fill:rgb(21.176471%,52.156866%,72.941178%);fill-opacity:1;" d="M 16.257812 45.234375 L 19.082031 45.234375 L 19.082031 53.71875 L 16.257812 53.71875 Z M 16.257812 45.234375 "/>
<path style=" stroke:none;fill-rule:nonzero;fill:rgb(21.176471%,52.156866%,72.941178%);fill-opacity:1;" d="M 21.910156 36.753906 L 24.738281 36.753906 L 24.738281 53.71875 L 21.910156 53.71875 Z M 21.910156 36.753906 "/>
<path style=" stroke:none;fill-rule:nonzero;fill:rgb(21.176471%,52.156866%,72.941178%);fill-opacity:1;" d="M 27.566406 40.996094 L 30.390625 40.996094 L 30.390625 53.71875 L 27.566406 53.71875 Z M 27.566406 40.996094 "/>
<path style=" stroke:none;fill-rule:nonzero;fill:rgb(21.176471%,52.156866%,72.941178%);fill-opacity:1;" d="M 33.21875 31.097656 L 36.046875 31.097656 L 36.046875 53.71875 L 33.21875 53.71875 Z M 33.21875 31.097656 "/>
<path style=" stroke:none;fill-rule:nonzero;fill:rgb(21.176471%,52.156866%,72.941178%);fill-opacity:1;" d="M 38.875 28.273438 L 41.703125 28.273438 L 41.703125 53.71875 L 38.875 53.71875 Z M 38.875 28.273438 "/>
<path style=" stroke:none;fill-rule:nonzero;fill:rgb(21.176471%,52.156866%,72.941178%);fill-opacity:1;" d="M 44.527344 29.6875 L 47.355469 29.6875 L 47.355469 39.582031 L 44.527344 39.582031 Z M 44.527344 29.6875 "/>
<path style=" stroke:none;fill-rule:nonzero;fill:rgb(21.176471%,52.156866%,72.941178%);fill-opacity:1;" d="M 50.183594 24.03125 L 53.011719 24.03125 L 53.011719 39.582031 L 50.183594 39.582031 Z M 50.183594 24.03125 "/>
<path style=" stroke:none;fill-rule:nonzero;fill:rgb(21.176471%,52.156866%,72.941178%);fill-opacity:1;" d="M 55.835938 21.203125 L 58.664062 21.203125 L 58.664062 39.582031 L 55.835938 39.582031 Z M 55.835938 21.203125 "/>
<path style=" stroke:none;fill-rule:nonzero;fill:rgb(21.176471%,52.156866%,72.941178%);fill-opacity:1;" d="M 61.492188 26.859375 L 64.320312 26.859375 L 64.320312 53.71875 L 61.492188 53.71875 Z M 61.492188 26.859375 "/>
<path style=" stroke:none;fill-rule:nonzero;fill:rgb(21.176471%,52.156866%,72.941178%);fill-opacity:1;" d="M 67.144531 32.511719 L 69.972656 32.511719 L 69.972656 53.71875 L 67.144531 53.71875 Z M 67.144531 32.511719 "/>
<path style=" stroke:none;fill-rule:nonzero;fill:rgb(99.215686%,71.372551%,18.431373%);fill-opacity:1;" d="M 81.292969 77.757812 L 77.054688 82 L 60.089844 65.035156 L 64.332031 60.796875 Z M 81.292969 77.757812 "/>
<path style=" stroke:none;fill-rule:nonzero;fill:rgb(98.039216%,58.823532%,16.470589%);fill-opacity:1;" d="M 69.976562 66.445312 L 65.734375 70.6875 L 60.078125 65.03125 L 64.320312 60.789062 Z M 69.976562 66.445312 "/>
<path style=" stroke:none;fill-rule:nonzero;fill:rgb(99.215686%,71.372551%,18.431373%);fill-opacity:1;" d="M 69.972656 53.71875 C 69.972656 43.566406 61.746094 35.339844 51.597656 35.339844 C 41.445312 35.339844 33.21875 43.566406 33.21875 53.71875 C 33.21875 63.867188 41.445312 72.09375 51.597656 72.09375 C 61.746094 72.09375 69.972656 63.867188 69.972656 53.71875 Z M 69.972656 53.71875 "/>
<path style=" stroke:none;fill-rule:nonzero;fill:rgb(52.941179%,80.784315%,85.09804%);fill-opacity:1;" d="M 64.320312 53.71875 C 64.320312 46.691406 58.621094 40.996094 51.597656 40.996094 C 44.570312 40.996094 38.875 46.691406 38.875 53.71875 C 38.875 60.742188 44.570312 66.441406 51.597656 66.441406 C 58.621094 66.441406 64.320312 60.742188 64.320312 53.71875 Z M 64.320312 53.71875 "/>
<path style=" stroke:none;fill-rule:nonzero;fill:rgb(26.274511%,59.607846%,81.960785%);fill-opacity:1;" d="M 39.199219 56.542969 C 39.425781 57.523438 39.761719 58.472656 40.210938 59.371094 L 62.980469 59.371094 C 63.429688 58.472656 63.769531 57.523438 63.992188 56.542969 Z M 39.199219 56.542969 "/>
<path style=" stroke:none;fill-rule:nonzero;fill:rgb(26.274511%,59.607846%,81.960785%);fill-opacity:1;" d="M 53.011719 53.71875 L 53.011719 41.078125 C 52.070312 40.964844 51.121094 40.964844 50.183594 41.078125 L 50.183594 53.71875 Z M 53.011719 53.71875 "/>
<path style=" stroke:none;fill-rule:nonzero;fill:rgb(26.274511%,59.607846%,81.960785%);fill-opacity:1;" d="M 47.355469 53.71875 L 47.355469 41.734375 C 46.359375 42.082031 45.410156 42.554688 44.527344 43.140625 L 44.527344 53.71875 Z M 47.355469 53.71875 "/>
<path style=" stroke:none;fill-rule:nonzero;fill:rgb(26.274511%,59.607846%,81.960785%);fill-opacity:1;" d="M 58.664062 53.71875 L 58.664062 43.140625 C 57.785156 42.554688 56.835938 42.082031 55.835938 41.734375 L 55.835938 53.71875 Z M 58.664062 53.71875 "/>
<path style=" stroke:none;fill-rule:nonzero;fill:rgb(26.274511%,59.607846%,81.960785%);fill-opacity:1;" d="M 41.703125 45.730469 C 39.867188 47.988281 38.871094 50.808594 38.875 53.71875 L 41.703125 53.71875 Z M 41.703125 45.730469 "/>
<path style=" stroke:none;fill-rule:nonzero;fill:rgb(26.274511%,59.607846%,81.960785%);fill-opacity:1;" d="M 61.492188 53.71875 L 64.320312 53.71875 C 64.320312 50.808594 63.324219 47.988281 61.492188 45.730469 Z M 61.492188 53.71875 "/>
</g>
</svg>
