<?xml version="1.0" encoding="UTF-8"?>
<svg xmlns="http://www.w3.org/2000/svg" xmlns:xlink="http://www.w3.org/1999/xlink" width="82px" height="82px" viewBox="0 0 82 82" version="1.1">
<g id="surface1">
<path style=" stroke:none;fill-rule:nonzero;fill:rgb(88.235295%,60.000002%,45.490196%);fill-opacity:1;" d="M 81.007812 73.199219 L 67.914062 60.109375 L 66.363281 57.746094 L 61.125 62.710938 L 63.117188 64.910156 L 76.207031 78 C 77.53125 79.324219 79.679688 79.324219 81.007812 78 C 82.332031 76.675781 82.332031 74.527344 81.007812 73.199219 Z M 81.007812 73.199219 "/>
<path style=" stroke:none;fill-rule:nonzero;fill:rgb(97.647059%,96.862745%,97.254902%);fill-opacity:1;" d="M 68.09375 43.480469 C 68.09375 31.550781 58.421875 21.878906 46.488281 21.878906 C 34.558594 21.878906 24.886719 31.550781 24.886719 43.480469 C 24.886719 55.414062 34.558594 65.085938 46.488281 65.085938 C 58.421875 65.085938 68.09375 55.414062 68.09375 43.480469 Z M 68.09375 43.480469 "/>
<path style=" stroke:none;fill-rule:nonzero;fill:rgb(99.215686%,50.196081%,52.941179%);fill-opacity:1;" d="M 21.289062 40.726562 C 20.914062 40.726562 20.546875 40.554688 20.308594 40.230469 L 19 38.441406 C 18.992188 38.429688 18.980469 38.417969 18.972656 38.40625 C 18.339844 37.472656 17.929688 36.390625 17.785156 35.277344 C 17.699219 34.609375 18.167969 34 18.832031 33.910156 C 19.5 33.824219 20.109375 34.292969 20.199219 34.960938 C 20.292969 35.695312 20.5625 36.40625 20.976562 37.023438 L 22.269531 38.792969 C 22.667969 39.332031 22.550781 40.09375 22.007812 40.492188 C 21.792969 40.652344 21.539062 40.726562 21.289062 40.726562 Z M 21.289062 40.726562 "/>
<path style=" stroke:none;fill-rule:nonzero;fill:rgb(99.215686%,50.196081%,52.941179%);fill-opacity:1;" d="M 18.9375 30.949219 C 18.265625 30.949219 17.722656 30.402344 17.722656 29.730469 L 17.722656 28 C 17.722656 23.988281 20.984375 20.726562 24.992188 20.726562 C 26.554688 20.726562 28.042969 21.214844 29.296875 22.140625 C 29.335938 22.167969 29.375 22.199219 29.414062 22.234375 L 31.882812 24.574219 C 32.371094 25.039062 32.390625 25.808594 31.929688 26.296875 C 31.46875 26.785156 30.695312 26.804688 30.207031 26.34375 L 27.796875 24.058594 C 26.976562 23.472656 26.007812 23.160156 24.992188 23.160156 C 22.324219 23.160156 20.15625 25.332031 20.15625 28 L 20.15625 29.730469 C 20.15625 30.402344 19.609375 30.949219 18.9375 30.949219 Z M 18.9375 30.949219 "/>
<path style=" stroke:none;fill-rule:nonzero;fill:rgb(95.294118%,94.117647%,95.294118%);fill-opacity:1;" d="M 33.875 42.671875 C 33.875 34.300781 37.816406 26.835938 43.9375 22.027344 C 33.210938 23.265625 24.882812 32.433594 24.886719 43.480469 C 24.886719 55.394531 34.578125 65.085938 46.488281 65.085938 L 46.496094 65.085938 C 38.933594 60.480469 33.875 52.15625 33.875 42.671875 Z M 33.875 42.671875 "/>
<path style=" stroke:none;fill-rule:nonzero;fill:rgb(98.431373%,16.862746%,22.745098%);fill-opacity:1;" d="M 21.691406 42.03125 C 21.085938 42.03125 20.5625 41.578125 20.488281 40.960938 C 20.40625 40.292969 20.878906 39.6875 21.546875 39.605469 L 25.15625 39.164062 C 25.183594 39.164062 25.214844 39.160156 25.242188 39.160156 C 27.8125 39.027344 29.828125 36.90625 29.828125 34.328125 L 29.828125 24.195312 C 29.828125 23.523438 30.375 22.976562 31.046875 22.976562 C 31.71875 22.976562 32.261719 23.523438 32.261719 24.195312 L 32.261719 34.328125 C 32.261719 38.1875 29.257812 41.367188 25.410156 41.585938 L 21.839844 42.019531 C 21.792969 42.027344 21.742188 42.03125 21.691406 42.03125 Z M 21.691406 42.03125 "/>
<path style=" stroke:none;fill-rule:nonzero;fill:rgb(99.607843%,39.215687%,43.529412%);fill-opacity:1;" d="M 21.695312 47.730469 C 21.058594 47.730469 20.519531 47.238281 20.480469 46.59375 C 20.4375 45.921875 20.945312 45.34375 21.617188 45.300781 L 25.226562 45.070312 C 25.242188 45.070312 25.257812 45.070312 25.273438 45.066406 C 28.078125 44.996094 30.707031 43.84375 32.675781 41.828125 C 34.648438 39.808594 35.734375 37.144531 35.734375 34.328125 L 35.734375 28 C 35.734375 26.910156 35.574219 25.835938 35.25 24.808594 L 33.988281 21.847656 C 33.726562 21.230469 34.011719 20.515625 34.628906 20.25 C 35.25 19.988281 35.964844 20.277344 36.226562 20.894531 L 37.515625 23.90625 C 37.527344 23.945312 37.542969 23.980469 37.554688 24.015625 C 37.960938 25.300781 38.167969 26.640625 38.167969 28 L 38.167969 34.328125 C 38.167969 37.785156 36.835938 41.050781 34.417969 43.527344 C 32.007812 45.996094 28.792969 47.40625 25.359375 47.5 L 21.773438 47.730469 C 21.746094 47.730469 21.71875 47.730469 21.695312 47.730469 Z M 21.695312 47.730469 "/>
<path style=" stroke:none;fill-rule:nonzero;fill:rgb(98.431373%,16.862746%,22.745098%);fill-opacity:1;" d="M 33.875 42.671875 C 33.875 41.835938 33.914062 41.011719 33.992188 40.191406 C 33.609375 40.773438 33.171875 41.320312 32.675781 41.828125 C 30.707031 43.84375 28.078125 44.996094 25.273438 45.066406 C 25.257812 45.070312 25.242188 45.070312 25.226562 45.070312 L 24.945312 45.089844 C 25.003906 45.90625 25.113281 46.714844 25.261719 47.507812 L 25.359375 47.5 C 28.558594 47.414062 31.566406 46.183594 33.910156 44.023438 C 33.886719 43.574219 33.875 43.125 33.875 42.671875 Z M 33.875 42.671875 "/>
<path style=" stroke:none;fill-rule:nonzero;fill:rgb(98.431373%,16.862746%,22.745098%);fill-opacity:1;" d="M 35.734375 27.996094 L 35.734375 32.964844 C 36.390625 31.324219 37.210938 29.761719 38.171875 28.300781 L 38.171875 27.996094 C 38.171875 26.636719 37.960938 25.296875 37.554688 24.011719 C 37.542969 23.976562 37.527344 23.941406 37.515625 23.90625 L 37.488281 23.84375 C 36.738281 24.1875 36.011719 24.574219 35.308594 25 C 35.589844 25.96875 35.734375 26.976562 35.734375 27.996094 Z M 35.734375 27.996094 "/>
<path style=" stroke:none;fill-rule:nonzero;fill:rgb(99.607843%,39.215687%,43.529412%);fill-opacity:1;" d="M 42.859375 29.503906 C 42.1875 29.503906 41.644531 28.957031 41.644531 28.285156 L 41.644531 28.246094 C 41.644531 26.40625 41.351562 24.597656 40.773438 22.863281 L 38.984375 19.125 C 38.695312 18.519531 38.949219 17.792969 39.554688 17.5 C 40.164062 17.210938 40.890625 17.46875 41.179688 18.074219 L 43 21.878906 C 43.019531 21.925781 43.039062 21.96875 43.054688 22.015625 C 43.734375 24.019531 44.078125 26.117188 44.078125 28.246094 L 44.078125 28.285156 C 44.078125 28.957031 43.53125 29.503906 42.859375 29.503906 Z M 42.859375 29.503906 "/>
<path style=" stroke:none;fill-rule:nonzero;fill:rgb(98.431373%,16.862746%,22.745098%);fill-opacity:1;" d="M 40.679688 22.671875 L 40.773438 22.863281 C 40.949219 23.398438 41.101562 23.933594 41.222656 24.480469 C 41.863281 23.820312 42.535156 23.1875 43.242188 22.59375 C 43.195312 22.445312 43.148438 22.292969 43.097656 22.144531 C 42.277344 22.273438 41.46875 22.449219 40.679688 22.671875 Z M 40.679688 22.671875 "/>
<path style=" stroke:none;fill-rule:nonzero;fill:rgb(99.607843%,60.000002%,62.7451%);fill-opacity:1;" d="M 1.21875 44.769531 C 0.710938 44.769531 0.238281 44.449219 0.0664062 43.945312 C -0.152344 43.308594 0.1875 42.617188 0.824219 42.398438 L 3.480469 41.492188 C 4.933594 40.996094 5.90625 39.632812 5.90625 38.097656 L 5.90625 28 C 5.90625 22.96875 7.855469 18.21875 11.390625 14.625 C 14.921875 11.03125 19.632812 9.007812 24.648438 8.917969 C 30.714844 8.808594 36.539062 11.6875 40.214844 16.613281 C 40.226562 16.628906 40.242188 16.648438 40.253906 16.664062 L 42.148438 19.5 C 42.523438 20.058594 42.371094 20.8125 41.8125 21.1875 C 41.253906 21.5625 40.5 21.410156 40.125 20.851562 L 38.246094 18.042969 C 35.035156 13.757812 29.972656 11.253906 24.691406 11.351562 C 20.316406 11.429688 16.207031 13.195312 13.125 16.332031 C 10.039062 19.46875 8.339844 23.609375 8.339844 28 L 8.339844 38.097656 C 8.339844 40.675781 6.703125 42.964844 4.265625 43.796875 L 1.609375 44.703125 C 1.480469 44.746094 1.347656 44.769531 1.21875 44.769531 Z M 1.21875 44.769531 "/>
<path style=" stroke:none;fill-rule:nonzero;fill:rgb(99.607843%,39.215687%,43.529412%);fill-opacity:1;" d="M 48.765625 35.546875 C 48.09375 35.546875 47.550781 35 47.550781 34.328125 L 47.550781 28 C 47.550781 26.066406 47.304688 24.148438 46.820312 22.296875 L 45.851562 19.488281 C 45.632812 18.851562 45.96875 18.160156 46.605469 17.941406 C 47.238281 17.71875 47.933594 18.058594 48.152344 18.695312 L 49.136719 21.546875 C 49.144531 21.578125 49.15625 21.605469 49.164062 21.632812 C 49.707031 23.703125 49.984375 25.84375 49.984375 28 L 49.984375 34.328125 C 49.984375 35 49.4375 35.546875 48.765625 35.546875 Z M 48.765625 35.546875 "/>
<path style=" stroke:none;fill-rule:nonzero;fill:rgb(99.607843%,60.000002%,62.7451%);fill-opacity:1;" d="M 47.136719 20.699219 C 46.675781 20.699219 46.230469 20.433594 46.027344 19.984375 L 44.632812 16.914062 C 40.621094 9.835938 33.101562 5.441406 24.992188 5.441406 C 22.664062 5.441406 20.367188 5.796875 18.160156 6.5 C 17.519531 6.703125 16.835938 6.347656 16.632812 5.710938 C 16.429688 5.070312 16.78125 4.382812 17.421875 4.179688 C 19.867188 3.402344 22.414062 3.007812 24.992188 3.007812 C 33.996094 3.007812 42.34375 7.894531 46.777344 15.761719 C 46.796875 15.792969 46.8125 15.824219 46.828125 15.859375 L 48.246094 18.980469 C 48.523438 19.589844 48.25 20.3125 47.640625 20.589844 C 47.476562 20.664062 47.304688 20.699219 47.136719 20.699219 Z M 47.136719 20.699219 "/>
<path style=" stroke:none;fill-rule:nonzero;fill:rgb(99.607843%,39.215687%,43.529412%);fill-opacity:1;" d="M 23.683594 53.753906 C 23.085938 53.753906 22.566406 53.3125 22.480469 52.703125 C 22.386719 52.039062 22.851562 51.425781 23.519531 51.332031 L 26.546875 50.90625 C 26.5625 50.90625 26.578125 50.902344 26.597656 50.902344 C 29.652344 50.609375 32.566406 49.46875 35.023438 47.605469 C 36.078125 46.808594 37.425781 46.539062 38.722656 46.863281 L 46.191406 48.746094 C 46.84375 48.910156 47.238281 49.570312 47.074219 50.222656 C 46.910156 50.875 46.25 51.269531 45.597656 51.105469 L 38.125 49.222656 C 37.550781 49.078125 36.957031 49.195312 36.496094 49.546875 C 33.683594 51.675781 30.351562 52.980469 26.855469 53.320312 L 23.855469 53.742188 C 23.796875 53.75 23.742188 53.753906 23.683594 53.753906 Z M 23.683594 53.753906 "/>
<path style=" stroke:none;fill-rule:nonzero;fill:rgb(98.431373%,16.862746%,22.745098%);fill-opacity:1;" d="M 27.238281 53.277344 C 30.023438 52.949219 32.699219 52.011719 35.074219 50.523438 C 34.820312 49.710938 34.601562 48.882812 34.425781 48.039062 C 32.097656 49.644531 29.410156 50.632812 26.597656 50.902344 C 26.578125 50.902344 26.5625 50.90625 26.542969 50.90625 L 26.21875 50.953125 C 26.511719 51.75 26.851562 52.527344 27.238281 53.277344 Z M 27.238281 53.277344 "/>
<path style=" stroke:none;fill-rule:nonzero;fill:rgb(99.607843%,60.000002%,62.7451%);fill-opacity:1;" d="M 24.550781 53.753906 C 24.460938 53.753906 24.371094 53.742188 24.28125 53.722656 L 20.101562 52.777344 C 20.085938 52.773438 20.070312 52.769531 20.054688 52.765625 C 17.753906 52.148438 15.613281 51.117188 13.6875 49.695312 C 13.078125 49.246094 12.316406 49.082031 11.59375 49.25 L 3.414062 51.113281 C 2.757812 51.261719 2.105469 50.851562 1.957031 50.195312 C 1.804688 49.539062 2.214844 48.886719 2.871094 48.738281 L 11.050781 46.875 C 12.46875 46.550781 13.953125 46.867188 15.132812 47.734375 C 16.804688 48.96875 18.667969 49.871094 20.664062 50.40625 L 24.820312 51.347656 C 25.476562 51.5 25.886719 52.148438 25.738281 52.804688 C 25.609375 53.371094 25.105469 53.753906 24.550781 53.753906 Z M 24.550781 53.753906 "/>
<path style=" stroke:none;fill-rule:nonzero;fill:rgb(99.607843%,60.000002%,62.7451%);fill-opacity:1;" d="M 25.910156 59.519531 C 25.867188 59.519531 25.828125 59.519531 25.785156 59.511719 L 23.273438 59.257812 C 19.972656 59.03125 16.804688 58.171875 13.855469 56.695312 C 13.792969 56.664062 13.726562 56.65625 13.671875 56.671875 L 8.953125 57.90625 C 8.304688 58.074219 7.640625 57.6875 7.46875 57.035156 C 7.300781 56.386719 7.6875 55.71875 8.339844 55.550781 L 13.054688 54.316406 C 13.683594 54.152344 14.355469 54.222656 14.945312 54.519531 C 17.609375 55.851562 20.472656 56.628906 23.457031 56.832031 C 23.46875 56.832031 23.484375 56.832031 23.496094 56.835938 L 26.03125 57.089844 C 26.699219 57.160156 27.1875 57.757812 27.121094 58.425781 C 27.054688 59.050781 26.527344 59.519531 25.910156 59.519531 Z M 25.910156 59.519531 "/>
<path style=" stroke:none;fill-rule:nonzero;fill:rgb(99.607843%,60.000002%,62.7451%);fill-opacity:1;" d="M 24.992188 65.226562 C 21.335938 65.226562 17.753906 64.589844 14.34375 63.332031 C 13.714844 63.101562 13.390625 62.402344 13.621094 61.769531 C 13.855469 61.140625 14.554688 60.816406 15.183594 61.050781 C 18.328125 62.207031 21.625 62.792969 24.992188 62.792969 C 26.117188 62.792969 27.25 62.726562 28.363281 62.59375 L 34.304688 61.714844 C 34.96875 61.617188 35.585938 62.078125 35.6875 62.742188 C 35.785156 63.40625 35.324219 64.027344 34.660156 64.125 L 28.703125 65.003906 C 28.691406 65.003906 28.679688 65.007812 28.667969 65.007812 C 27.457031 65.152344 26.21875 65.226562 24.992188 65.226562 Z M 24.992188 65.226562 "/>
<path style=" stroke:none;fill-rule:nonzero;fill:rgb(99.607843%,60.000002%,62.7451%);fill-opacity:1;" d="M 24.992188 71.132812 C 21.828125 71.132812 18.675781 70.726562 15.625 69.921875 C 15.164062 69.800781 14.820312 69.425781 14.734375 68.957031 L 14.730469 68.9375 C 14.613281 68.277344 15.054688 67.644531 15.714844 67.527344 C 15.972656 67.480469 16.222656 67.519531 16.4375 67.617188 C 19.226562 68.335938 22.105469 68.699219 24.992188 68.699219 C 27.964844 68.699219 33.757812 67.542969 33.8125 67.53125 L 40.703125 66.164062 C 41.359375 66.035156 42 66.460938 42.132812 67.121094 C 42.265625 67.78125 41.835938 68.421875 41.175781 68.550781 L 34.289062 69.917969 C 34.046875 69.96875 28.207031 71.132812 24.992188 71.132812 Z M 24.992188 71.132812 "/>
<path style=" stroke:none;fill-rule:nonzero;fill:rgb(99.607843%,39.215687%,43.529412%);fill-opacity:1;" d="M 28.183594 59.261719 C 27.640625 59.261719 27.148438 58.898438 27.007812 58.351562 C 26.835938 57.703125 27.226562 57.035156 27.878906 56.867188 L 29.832031 56.359375 C 29.84375 56.355469 29.859375 56.355469 29.871094 56.351562 C 31.679688 55.949219 33.429688 55.328125 35.074219 54.5 C 35.621094 54.226562 36.246094 54.144531 36.832031 54.265625 L 40.214844 54.96875 C 40.875 55.101562 41.296875 55.746094 41.160156 56.40625 C 41.023438 57.0625 40.378906 57.488281 39.722656 57.351562 L 36.339844 56.648438 C 36.285156 56.636719 36.226562 56.648438 36.167969 56.675781 C 34.347656 57.589844 32.414062 58.277344 30.421875 58.722656 L 28.488281 59.222656 C 28.386719 59.25 28.285156 59.261719 28.183594 59.261719 Z M 28.183594 59.261719 "/>
<path style=" stroke:none;fill-rule:nonzero;fill:rgb(98.431373%,16.862746%,22.745098%);fill-opacity:1;" d="M 31.046875 58.574219 C 32.820312 58.128906 34.539062 57.496094 36.167969 56.675781 C 36.226562 56.648438 36.285156 56.636719 36.339844 56.648438 L 38.160156 57.027344 C 37.570312 56.128906 37.035156 55.191406 36.558594 54.222656 C 36.054688 54.175781 35.535156 54.269531 35.074219 54.5 C 33.429688 55.328125 31.679688 55.949219 29.871094 56.351562 C 29.859375 56.355469 29.84375 56.359375 29.832031 56.359375 L 29.265625 56.507812 C 29.816406 57.234375 30.410156 57.921875 31.046875 58.574219 Z M 31.046875 58.574219 "/>
<path style=" stroke:none;fill-rule:nonzero;fill:rgb(60.000002%,90.196079%,98.823529%);fill-opacity:1;" d="M 46.488281 16.359375 C 61.46875 16.359375 73.613281 28.503906 73.613281 43.480469 C 73.613281 58.460938 61.46875 70.605469 46.488281 70.605469 C 31.511719 70.605469 19.367188 58.460938 19.367188 43.480469 C 19.367188 28.503906 31.511719 16.359375 46.488281 16.359375 Z M 68.09375 43.480469 C 68.09375 31.570312 58.402344 21.878906 46.488281 21.878906 C 34.578125 21.878906 24.886719 31.570312 24.886719 43.480469 C 24.886719 55.394531 34.578125 65.085938 46.488281 65.085938 C 58.402344 65.085938 68.09375 55.394531 68.09375 43.480469 Z M 68.09375 43.480469 "/>
<path style=" stroke:none;fill-rule:nonzero;fill:rgb(99.607843%,60.000002%,62.7451%);fill-opacity:1;" d="M 1.21875 35.546875 C 0.546875 35.546875 0 35 0 34.328125 L 0 28 C 0 23.597656 1.167969 19.265625 3.375 15.472656 C 5.511719 11.792969 8.574219 8.699219 12.230469 6.519531 C 12.808594 6.171875 13.554688 6.363281 13.898438 6.941406 C 14.246094 7.519531 14.054688 8.265625 13.476562 8.609375 C 10.175781 10.578125 7.410156 13.375 5.476562 16.695312 C 3.488281 20.117188 2.433594 24.027344 2.433594 28 L 2.433594 34.328125 C 2.433594 35 1.890625 35.546875 1.21875 35.546875 Z M 1.21875 35.546875 "/>
<path style=" stroke:none;fill-rule:nonzero;fill:rgb(99.607843%,39.215687%,43.529412%);fill-opacity:1;" d="M 48.765625 44.769531 C 48.636719 44.769531 48.503906 44.746094 48.375 44.703125 L 45.71875 43.796875 C 43.28125 42.964844 41.644531 40.675781 41.644531 38.097656 L 41.644531 33.671875 C 41.644531 33 42.1875 32.457031 42.859375 32.457031 C 43.53125 32.457031 44.078125 33 44.078125 33.671875 L 44.078125 38.097656 C 44.078125 39.632812 45.050781 40.996094 46.503906 41.492188 L 49.160156 42.398438 C 49.796875 42.617188 50.136719 43.308594 49.917969 43.945312 C 49.746094 44.449219 49.273438 44.769531 48.765625 44.769531 Z M 48.765625 44.769531 "/>
<path style=" stroke:none;fill-rule:nonzero;fill:rgb(99.215686%,50.196081%,52.941179%);fill-opacity:1;" d="M 15.394531 42.671875 C 15.019531 42.671875 14.65625 42.5 14.414062 42.179688 C 12.714844 39.894531 11.8125 37.179688 11.8125 34.328125 L 11.8125 28 C 11.8125 20.734375 17.726562 14.820312 24.992188 14.820312 C 26.609375 14.820312 28.199219 15.117188 29.710938 15.695312 C 30.335938 15.9375 30.648438 16.644531 30.410156 17.269531 C 30.167969 17.898438 29.460938 18.210938 28.835938 17.96875 C 27.605469 17.496094 26.3125 17.253906 24.992188 17.253906 C 19.066406 17.253906 14.25 22.074219 14.25 28 L 14.25 34.328125 C 14.25 36.652344 14.980469 38.863281 16.367188 40.726562 C 16.769531 41.265625 16.65625 42.027344 16.117188 42.429688 C 15.902344 42.59375 15.644531 42.671875 15.394531 42.671875 Z M 15.394531 42.671875 "/>
</g>
</svg>
