<?xml version="1.0" encoding="UTF-8"?>
<svg xmlns="http://www.w3.org/2000/svg" xmlns:xlink="http://www.w3.org/1999/xlink" width="45px" height="45px" viewBox="0 0 45 45" version="1.1">
<g id="surface1">
<path style=" stroke:none;fill-rule:evenodd;fill:rgb(0%,0%,0%);fill-opacity:1;" d="M 27.191406 6.679688 C 26.890625 7.195312 26.71875 7.796875 26.71875 8.4375 C 26.71875 10.378906 28.292969 11.953125 30.234375 11.953125 C 32.175781 11.953125 33.75 10.378906 33.75 8.4375 C 33.75 4.945312 30.914062 2.109375 27.421875 2.109375 C 25.433594 2.109375 23.660156 3.027344 22.5 4.460938 C 21.339844 3.027344 19.566406 2.109375 17.578125 2.109375 C 14.085938 2.109375 11.25 4.945312 11.25 8.4375 C 11.25 10.378906 12.824219 11.953125 14.765625 11.953125 C 16.707031 11.953125 18.28125 10.378906 18.28125 8.4375 C 18.28125 7.796875 18.109375 7.195312 17.808594 6.679688 C 17.617188 6.34375 17.183594 6.230469 16.847656 6.421875 C 16.511719 6.617188 16.398438 7.046875 16.59375 7.382812 C 16.773438 7.695312 16.875 8.054688 16.875 8.4375 C 16.875 9.601562 15.929688 10.546875 14.765625 10.546875 C 13.601562 10.546875 12.65625 9.601562 12.65625 8.4375 C 12.65625 5.722656 14.863281 3.515625 17.578125 3.515625 C 19.429688 3.515625 21.046875 4.542969 21.886719 6.054688 C 22.007812 6.277344 22.246094 6.417969 22.5 6.417969 C 22.753906 6.417969 22.992188 6.277344 23.113281 6.054688 C 23.957031 4.542969 25.570312 3.515625 27.421875 3.515625 C 30.136719 3.515625 32.34375 5.722656 32.34375 8.4375 C 32.34375 9.601562 31.398438 10.546875 30.234375 10.546875 C 29.070312 10.546875 28.125 9.601562 28.125 8.4375 C 28.125 8.054688 28.226562 7.695312 28.40625 7.382812 C 28.601562 7.046875 28.488281 6.617188 28.152344 6.421875 C 27.816406 6.230469 27.382812 6.34375 27.191406 6.679688 Z M 27.191406 6.679688 "/>
<path style=" stroke:none;fill-rule:evenodd;fill:rgb(0%,0%,0%);fill-opacity:1;" d="M 12.234375 7.5 C 11.496094 7.199219 10.6875 7.03125 9.84375 7.03125 C 6.351562 7.03125 3.515625 9.867188 3.515625 13.359375 C 3.515625 16.851562 6.351562 19.6875 9.84375 19.6875 C 11.785156 19.6875 13.359375 18.113281 13.359375 16.171875 C 13.359375 14.230469 11.785156 12.65625 9.84375 12.65625 C 9.226562 12.65625 8.644531 12.816406 8.140625 13.097656 C 7.800781 13.285156 7.679688 13.714844 7.867188 14.050781 C 8.054688 14.390625 8.484375 14.515625 8.824219 14.324219 C 9.125 14.15625 9.472656 14.0625 9.84375 14.0625 C 11.007812 14.0625 11.953125 15.007812 11.953125 16.171875 C 11.953125 17.335938 11.007812 18.28125 9.84375 18.28125 C 7.128906 18.28125 4.921875 16.078125 4.921875 13.359375 C 4.921875 10.644531 7.128906 8.4375 9.84375 8.4375 C 10.5 8.4375 11.128906 8.566406 11.703125 8.800781 C 12.0625 8.949219 12.59375 7.644531 12.234375 7.5 Z M 12.234375 7.5 "/>
<path style=" stroke:none;fill-rule:evenodd;fill:rgb(0%,0%,0%);fill-opacity:1;" d="M 33.296875 8.800781 C 33.871094 8.566406 34.5 8.4375 35.15625 8.4375 C 37.871094 8.4375 40.078125 10.644531 40.078125 13.359375 C 40.078125 16.078125 37.871094 18.28125 35.15625 18.28125 C 33.992188 18.28125 33.046875 17.335938 33.046875 16.171875 C 33.046875 15.007812 33.992188 14.0625 35.15625 14.0625 C 35.527344 14.0625 35.875 14.15625 36.175781 14.324219 C 36.515625 14.515625 36.945312 14.390625 37.132812 14.050781 C 37.320312 13.714844 37.199219 13.285156 36.859375 13.097656 C 36.355469 12.816406 35.773438 12.65625 35.15625 12.65625 C 33.214844 12.65625 31.640625 14.230469 31.640625 16.171875 C 31.640625 18.113281 33.214844 19.6875 35.15625 19.6875 C 38.648438 19.6875 41.484375 16.851562 41.484375 13.359375 C 41.484375 9.867188 38.648438 7.03125 35.15625 7.03125 C 34.3125 7.03125 33.503906 7.199219 32.765625 7.5 C 32.40625 7.644531 32.9375 8.949219 33.296875 8.800781 Z M 33.296875 8.800781 "/>
<path style=" stroke:none;fill-rule:evenodd;fill:rgb(0%,0%,0%);fill-opacity:1;" d="M 14.765625 38.671875 C 13.601562 38.671875 12.65625 39.617188 12.65625 40.78125 C 12.65625 41.945312 13.601562 42.890625 14.765625 42.890625 C 15.929688 42.890625 16.875 41.945312 16.875 40.78125 C 16.875 39.617188 15.929688 38.671875 14.765625 38.671875 Z M 14.765625 40.078125 C 15.152344 40.078125 15.46875 40.394531 15.46875 40.78125 C 15.46875 41.167969 15.152344 41.484375 14.765625 41.484375 C 14.378906 41.484375 14.0625 41.167969 14.0625 40.78125 C 14.0625 40.394531 14.378906 40.078125 14.765625 40.078125 Z M 14.765625 40.078125 "/>
<path style=" stroke:none;fill-rule:evenodd;fill:rgb(0%,0%,0%);fill-opacity:1;" d="M 9.84375 33.75 C 8.679688 33.75 7.734375 34.695312 7.734375 35.859375 C 7.734375 37.023438 8.679688 37.96875 9.84375 37.96875 C 11.007812 37.96875 11.953125 37.023438 11.953125 35.859375 C 11.953125 34.695312 11.007812 33.75 9.84375 33.75 Z M 9.84375 35.15625 C 10.230469 35.15625 10.546875 35.472656 10.546875 35.859375 C 10.546875 36.246094 10.230469 36.5625 9.84375 36.5625 C 9.457031 36.5625 9.140625 36.246094 9.140625 35.859375 C 9.140625 35.472656 9.457031 35.15625 9.84375 35.15625 Z M 9.84375 35.15625 "/>
<path style=" stroke:none;fill-rule:evenodd;fill:rgb(0%,0%,0%);fill-opacity:1;" d="M 5.625 28.828125 C 4.460938 28.828125 3.515625 29.773438 3.515625 30.9375 C 3.515625 32.101562 4.460938 33.046875 5.625 33.046875 C 6.789062 33.046875 7.734375 32.101562 7.734375 30.9375 C 7.734375 29.773438 6.789062 28.828125 5.625 28.828125 Z M 5.625 30.234375 C 6.011719 30.234375 6.328125 30.550781 6.328125 30.9375 C 6.328125 31.324219 6.011719 31.640625 5.625 31.640625 C 5.238281 31.640625 4.921875 31.324219 4.921875 30.9375 C 4.921875 30.550781 5.238281 30.234375 5.625 30.234375 Z M 5.625 30.234375 "/>
<path style=" stroke:none;fill-rule:evenodd;fill:rgb(0%,0%,0%);fill-opacity:1;" d="M 30.234375 38.671875 C 29.070312 38.671875 28.125 39.617188 28.125 40.78125 C 28.125 41.945312 29.070312 42.890625 30.234375 42.890625 C 31.398438 42.890625 32.34375 41.945312 32.34375 40.78125 C 32.34375 39.617188 31.398438 38.671875 30.234375 38.671875 Z M 30.234375 40.078125 C 30.621094 40.078125 30.9375 40.394531 30.9375 40.78125 C 30.9375 41.167969 30.621094 41.484375 30.234375 41.484375 C 29.847656 41.484375 29.53125 41.167969 29.53125 40.78125 C 29.53125 40.394531 29.847656 40.078125 30.234375 40.078125 Z M 30.234375 40.078125 "/>
<path style=" stroke:none;fill-rule:evenodd;fill:rgb(0%,0%,0%);fill-opacity:1;" d="M 35.15625 33.75 C 33.992188 33.75 33.046875 34.695312 33.046875 35.859375 C 33.046875 37.023438 33.992188 37.96875 35.15625 37.96875 C 36.320312 37.96875 37.265625 37.023438 37.265625 35.859375 C 37.265625 34.695312 36.320312 33.75 35.15625 33.75 Z M 35.15625 35.15625 C 35.542969 35.15625 35.859375 35.472656 35.859375 35.859375 C 35.859375 36.246094 35.542969 36.5625 35.15625 36.5625 C 34.769531 36.5625 34.453125 36.246094 34.453125 35.859375 C 34.453125 35.472656 34.769531 35.15625 35.15625 35.15625 Z M 35.15625 35.15625 "/>
<path style=" stroke:none;fill-rule:evenodd;fill:rgb(0%,0%,0%);fill-opacity:1;" d="M 39.375 28.828125 C 38.210938 28.828125 37.265625 29.773438 37.265625 30.9375 C 37.265625 32.101562 38.210938 33.046875 39.375 33.046875 C 40.539062 33.046875 41.484375 32.101562 41.484375 30.9375 C 41.484375 29.773438 40.539062 28.828125 39.375 28.828125 Z M 39.375 30.234375 C 39.761719 30.234375 40.078125 30.550781 40.078125 30.9375 C 40.078125 31.324219 39.761719 31.640625 39.375 31.640625 C 38.988281 31.640625 38.671875 31.324219 38.671875 30.9375 C 38.671875 30.550781 38.988281 30.234375 39.375 30.234375 Z M 39.375 30.234375 "/>
<path style=" stroke:none;fill-rule:evenodd;fill:rgb(0%,0%,0%);fill-opacity:1;" d="M 22.5 38.671875 C 21.335938 38.671875 20.390625 39.617188 20.390625 40.78125 C 20.390625 41.945312 21.335938 42.890625 22.5 42.890625 C 23.664062 42.890625 24.609375 41.945312 24.609375 40.78125 C 24.609375 39.617188 23.664062 38.671875 22.5 38.671875 Z M 22.5 40.078125 C 22.886719 40.078125 23.203125 40.394531 23.203125 40.78125 C 23.203125 41.167969 22.886719 41.484375 22.5 41.484375 C 22.113281 41.484375 21.796875 41.167969 21.796875 40.78125 C 21.796875 40.394531 22.113281 40.078125 22.5 40.078125 Z M 22.5 40.078125 "/>
<path style=" stroke:none;fill-rule:evenodd;fill:rgb(0%,0%,0%);fill-opacity:1;" d="M 28.828125 18.28125 C 28.828125 17.117188 27.882812 16.171875 26.71875 16.171875 L 18.28125 16.171875 C 17.117188 16.171875 16.171875 17.117188 16.171875 18.28125 L 16.171875 26.71875 C 16.171875 27.882812 17.117188 28.828125 18.28125 28.828125 L 26.71875 28.828125 C 27.882812 28.828125 28.828125 27.882812 28.828125 26.71875 Z M 27.421875 18.28125 L 27.421875 26.71875 C 27.421875 27.105469 27.105469 27.421875 26.71875 27.421875 L 18.28125 27.421875 C 17.894531 27.421875 17.578125 27.105469 17.578125 26.71875 L 17.578125 18.28125 C 17.578125 17.894531 17.894531 17.578125 18.28125 17.578125 L 26.71875 17.578125 C 27.105469 17.578125 27.421875 17.894531 27.421875 18.28125 Z M 27.421875 18.28125 "/>
<path style=" stroke:none;fill-rule:evenodd;fill:rgb(0%,0%,0%);fill-opacity:1;" d="M 25.3125 20.390625 C 25.3125 20.003906 24.996094 19.6875 24.609375 19.6875 L 20.390625 19.6875 C 20.003906 19.6875 19.6875 20.003906 19.6875 20.390625 L 19.6875 24.609375 C 19.6875 25 20.003906 25.3125 20.390625 25.3125 L 24.609375 25.3125 C 24.996094 25.3125 25.3125 25 25.3125 24.609375 Z M 23.90625 21.09375 L 23.90625 23.90625 L 21.09375 23.90625 L 21.09375 21.09375 Z M 23.90625 21.09375 "/>
<path style=" stroke:none;fill-rule:evenodd;fill:rgb(0%,0%,0%);fill-opacity:1;" d="M 4.933594 15.9375 C 3.265625 16.726562 2.109375 18.425781 2.109375 20.390625 C 2.109375 23.109375 4.316406 25.3125 7.03125 25.3125 L 11.25 25.3125 C 11.640625 25.3125 11.953125 24.996094 11.953125 24.609375 C 11.953125 24.222656 11.640625 23.90625 11.25 23.90625 L 7.03125 23.90625 C 5.089844 23.90625 3.515625 22.332031 3.515625 20.390625 C 3.515625 18.988281 4.34375 17.773438 5.535156 17.210938 C 5.882812 17.042969 5.28125 15.773438 4.933594 15.9375 Z M 4.933594 15.9375 "/>
<path style=" stroke:none;fill-rule:evenodd;fill:rgb(0%,0%,0%);fill-opacity:1;" d="M 33.75 25.3125 L 37.96875 25.3125 C 40.683594 25.3125 42.890625 23.109375 42.890625 20.390625 C 42.890625 18.425781 41.734375 16.726562 40.066406 15.9375 C 39.71875 15.773438 39.117188 17.042969 39.464844 17.210938 C 40.660156 17.773438 41.484375 18.988281 41.484375 20.390625 C 41.484375 22.332031 39.910156 23.90625 37.96875 23.90625 L 33.75 23.90625 C 33.363281 23.90625 33.046875 24.222656 33.046875 24.609375 C 33.046875 24.996094 33.363281 25.3125 33.75 25.3125 Z M 33.75 25.3125 "/>
<path style=" stroke:none;fill-rule:evenodd;fill:rgb(0%,0%,0%);fill-opacity:1;" d="M 21.796875 28.125 L 21.796875 30.9375 C 21.796875 31.324219 22.113281 31.640625 22.5 31.640625 C 22.886719 31.640625 23.203125 31.324219 23.203125 30.9375 L 23.203125 28.125 Z M 21.796875 28.125 "/>
<path style=" stroke:none;fill-rule:evenodd;fill:rgb(0%,0%,0%);fill-opacity:1;" d="M 21.796875 33.75 L 21.796875 39.375 L 23.203125 39.375 L 23.203125 33.75 C 23.203125 33.363281 22.886719 33.046875 22.5 33.046875 C 22.113281 33.046875 21.796875 33.363281 21.796875 33.75 Z M 21.796875 33.75 "/>
<path style=" stroke:none;fill-rule:evenodd;fill:rgb(0%,0%,0%);fill-opacity:1;" d="M 25.3125 34.453125 L 29.53125 34.453125 L 29.53125 39.375 L 30.9375 39.375 L 30.9375 33.75 C 30.9375 33.363281 30.625 33.046875 30.234375 33.046875 L 25.3125 33.046875 C 24.921875 33.046875 24.609375 33.363281 24.609375 33.75 C 24.609375 34.136719 24.921875 34.453125 25.3125 34.453125 Z M 25.3125 34.453125 "/>
<path style=" stroke:none;fill-rule:evenodd;fill:rgb(0%,0%,0%);fill-opacity:1;" d="M 33.75 28.125 L 38.671875 28.125 C 38.671875 28.125 38.671875 29.53125 38.671875 29.53125 L 40.078125 29.53125 L 40.078125 27.421875 C 40.078125 27.035156 39.761719 26.71875 39.375 26.71875 L 33.75 26.71875 C 33.363281 26.71875 33.046875 27.035156 33.046875 27.421875 C 33.046875 27.808594 33.363281 28.125 33.75 28.125 Z M 33.75 28.125 "/>
<path style=" stroke:none;fill-rule:evenodd;fill:rgb(0%,0%,0%);fill-opacity:1;" d="M 11.25 26.71875 L 5.625 26.71875 C 5.238281 26.71875 4.921875 27.035156 4.921875 27.421875 L 4.921875 29.53125 L 6.328125 29.53125 L 6.328125 28.125 C 6.328125 28.125 11.25 28.125 11.25 28.125 C 11.636719 28.125 11.953125 27.808594 11.953125 27.421875 C 11.953125 27.035156 11.636719 26.71875 11.25 26.71875 Z M 11.25 26.71875 "/>
<path style=" stroke:none;fill-rule:evenodd;fill:rgb(0%,0%,0%);fill-opacity:1;" d="M 30.234375 27.773438 L 30.234375 30.9375 C 30.234375 31.328125 30.550781 31.640625 30.9375 31.640625 L 34.453125 31.640625 L 34.453125 34.453125 L 35.859375 34.453125 L 35.859375 30.9375 C 35.859375 30.550781 35.546875 30.234375 35.15625 30.234375 L 31.640625 30.234375 L 31.640625 27.773438 C 31.640625 27.386719 31.324219 27.070312 30.9375 27.070312 C 30.550781 27.070312 30.234375 27.386719 30.234375 27.773438 Z M 30.234375 27.773438 "/>
<path style=" stroke:none;fill-rule:evenodd;fill:rgb(0%,0%,0%);fill-opacity:1;" d="M 13.359375 27.773438 L 13.359375 30.234375 L 9.84375 30.234375 C 9.457031 30.234375 9.140625 30.550781 9.140625 30.9375 L 9.140625 34.453125 L 10.546875 34.453125 L 10.546875 31.640625 L 14.0625 31.640625 C 14.449219 31.640625 14.765625 31.328125 14.765625 30.9375 L 14.765625 27.773438 C 14.765625 27.386719 14.449219 27.070312 14.0625 27.070312 C 13.675781 27.070312 13.359375 27.386719 13.359375 27.773438 Z M 13.359375 27.773438 "/>
<path style=" stroke:none;fill-rule:evenodd;fill:rgb(0%,0%,0%);fill-opacity:1;" d="M 19.6875 33.046875 L 14.765625 33.046875 C 14.375 33.046875 14.0625 33.363281 14.0625 33.75 L 14.0625 39.375 L 15.46875 39.375 L 15.46875 34.453125 L 19.6875 34.453125 C 20.078125 34.453125 20.390625 34.136719 20.390625 33.75 C 20.390625 33.363281 20.078125 33.046875 19.6875 33.046875 Z M 19.6875 33.046875 "/>
<path style=" stroke:none;fill-rule:evenodd;fill:rgb(0%,0%,0%);fill-opacity:1;" d="M 16.875 21.796875 L 14.0625 21.796875 C 13.675781 21.796875 13.359375 22.113281 13.359375 22.5 C 13.359375 22.886719 13.675781 23.203125 14.0625 23.203125 L 16.875 23.203125 Z M 16.875 21.796875 "/>
<path style=" stroke:none;fill-rule:evenodd;fill:rgb(0%,0%,0%);fill-opacity:1;" d="M 21.796875 14.0625 L 21.796875 16.875 L 23.203125 16.875 L 23.203125 14.0625 C 23.203125 13.675781 22.886719 13.359375 22.5 13.359375 C 22.113281 13.359375 21.796875 13.675781 21.796875 14.0625 Z M 21.796875 14.0625 "/>
<path style=" stroke:none;fill-rule:evenodd;fill:rgb(0%,0%,0%);fill-opacity:1;" d="M 21.796875 5.625 L 21.796875 11.25 C 21.796875 11.636719 22.113281 11.953125 22.5 11.953125 C 22.886719 11.953125 23.203125 11.636719 23.203125 11.25 L 23.203125 5.625 C 23.203125 5.238281 22.886719 4.921875 22.5 4.921875 C 22.113281 4.921875 21.796875 5.238281 21.796875 5.625 Z M 21.796875 5.625 "/>
<path style=" stroke:none;fill-rule:evenodd;fill:rgb(0%,0%,0%);fill-opacity:1;" d="M 30.9375 21.796875 L 28.125 21.796875 L 28.125 23.203125 L 30.9375 23.203125 C 31.324219 23.203125 31.640625 22.886719 31.640625 22.5 C 31.640625 22.113281 31.324219 21.796875 30.9375 21.796875 Z M 30.9375 21.796875 "/>
<path style=" stroke:none;fill-rule:evenodd;fill:rgb(0%,0%,0%);fill-opacity:1;" d="M 18.984375 28.125 L 18.984375 30.9375 C 18.984375 31.324219 19.300781 31.640625 19.6875 31.640625 C 20.074219 31.640625 20.390625 31.324219 20.390625 30.9375 L 20.390625 28.125 Z M 18.984375 28.125 "/>
<path style=" stroke:none;fill-rule:evenodd;fill:rgb(0%,0%,0%);fill-opacity:1;" d="M 16.875 18.984375 L 14.0625 18.984375 C 13.675781 18.984375 13.359375 19.300781 13.359375 19.6875 C 13.359375 20.074219 13.675781 20.390625 14.0625 20.390625 L 16.875 20.390625 Z M 16.875 18.984375 "/>
<path style=" stroke:none;fill-rule:evenodd;fill:rgb(0%,0%,0%);fill-opacity:1;" d="M 18.984375 14.0625 L 18.984375 16.875 L 20.390625 16.875 L 20.390625 14.0625 C 20.390625 13.675781 20.074219 13.359375 19.6875 13.359375 C 19.300781 13.359375 18.984375 13.675781 18.984375 14.0625 Z M 18.984375 14.0625 "/>
<path style=" stroke:none;fill-rule:evenodd;fill:rgb(0%,0%,0%);fill-opacity:1;" d="M 30.9375 18.984375 L 28.125 18.984375 L 28.125 20.390625 L 30.9375 20.390625 C 31.324219 20.390625 31.640625 20.074219 31.640625 19.6875 C 31.640625 19.300781 31.324219 18.984375 30.9375 18.984375 Z M 30.9375 18.984375 "/>
<path style=" stroke:none;fill-rule:evenodd;fill:rgb(0%,0%,0%);fill-opacity:1;" d="M 24.609375 28.125 L 24.609375 30.9375 C 24.609375 31.324219 24.925781 31.640625 25.3125 31.640625 C 25.699219 31.640625 26.015625 31.324219 26.015625 30.9375 L 26.015625 28.125 Z M 24.609375 28.125 "/>
<path style=" stroke:none;fill-rule:evenodd;fill:rgb(0%,0%,0%);fill-opacity:1;" d="M 16.875 24.609375 L 14.0625 24.609375 C 13.675781 24.609375 13.359375 24.925781 13.359375 25.3125 C 13.359375 25.699219 13.675781 26.015625 14.0625 26.015625 L 16.875 26.015625 Z M 16.875 24.609375 "/>
<path style=" stroke:none;fill-rule:evenodd;fill:rgb(0%,0%,0%);fill-opacity:1;" d="M 24.609375 14.0625 L 24.609375 16.875 L 26.015625 16.875 L 26.015625 14.0625 C 26.015625 13.675781 25.699219 13.359375 25.3125 13.359375 C 24.925781 13.359375 24.609375 13.675781 24.609375 14.0625 Z M 24.609375 14.0625 "/>
<path style=" stroke:none;fill-rule:evenodd;fill:rgb(0%,0%,0%);fill-opacity:1;" d="M 30.9375 24.609375 L 28.125 24.609375 L 28.125 26.015625 L 30.9375 26.015625 C 31.324219 26.015625 31.640625 25.699219 31.640625 25.3125 C 31.640625 24.925781 31.324219 24.609375 30.9375 24.609375 Z M 30.9375 24.609375 "/>
<path style=" stroke:none;fill-rule:evenodd;fill:rgb(0%,0%,0%);fill-opacity:1;" d="M 10.546875 40.78125 C 10.546875 40.394531 10.230469 40.078125 9.84375 40.078125 C 9.457031 40.078125 9.140625 40.394531 9.140625 40.78125 C 9.140625 41.171875 9.457031 41.484375 9.84375 41.484375 C 10.230469 41.484375 10.546875 41.171875 10.546875 40.78125 Z M 10.546875 40.78125 "/>
<path style=" stroke:none;fill-rule:evenodd;fill:rgb(0%,0%,0%);fill-opacity:1;" d="M 35.859375 40.78125 C 35.859375 40.394531 35.542969 40.078125 35.15625 40.078125 C 34.769531 40.078125 34.453125 40.394531 34.453125 40.78125 C 34.453125 41.171875 34.769531 41.484375 35.15625 41.484375 C 35.542969 41.484375 35.859375 41.171875 35.859375 40.78125 Z M 35.859375 40.78125 "/>
<path style=" stroke:none;fill-rule:evenodd;fill:rgb(0%,0%,0%);fill-opacity:1;" d="M 10.546875 4.921875 C 10.546875 4.535156 10.230469 4.21875 9.84375 4.21875 C 9.457031 4.21875 9.140625 4.535156 9.140625 4.921875 C 9.140625 5.308594 9.457031 5.625 9.84375 5.625 C 10.230469 5.625 10.546875 5.308594 10.546875 4.921875 Z M 10.546875 4.921875 "/>
<path style=" stroke:none;fill-rule:evenodd;fill:rgb(0%,0%,0%);fill-opacity:1;" d="M 35.859375 4.921875 C 35.859375 4.535156 35.542969 4.21875 35.15625 4.21875 C 34.769531 4.21875 34.453125 4.535156 34.453125 4.921875 C 34.453125 5.308594 34.769531 5.625 35.15625 5.625 C 35.542969 5.625 35.859375 5.308594 35.859375 4.921875 Z M 35.859375 4.921875 "/>
</g>
</svg>
