<?xml version="1.0" encoding="UTF-8"?>
<svg xmlns="http://www.w3.org/2000/svg" xmlns:xlink="http://www.w3.org/1999/xlink" width="45px" height="45px" viewBox="0 0 45 45" version="1.1">
<g id="surface1">
<path style=" stroke:none;fill-rule:nonzero;fill:rgb(0%,0%,0%);fill-opacity:1;" d="M 43.023438 19.117188 C 42.164062 19.117188 41.429688 19.667969 41.15625 20.433594 L 37.398438 20.433594 L 37.398438 19.664062 C 37.398438 19.300781 37.101562 19.007812 36.738281 19.007812 C 36.375 19.007812 36.078125 19.300781 36.078125 19.664062 L 36.078125 22.878906 C 36.078125 26.167969 34.976562 29.261719 32.976562 31.59375 C 30.179688 34.851562 26.65625 37.328125 22.5 38.957031 C 18.785156 37.5 15.5625 35.359375 12.929688 32.59375 C 12.675781 32.332031 12.257812 32.320312 11.996094 32.570312 C 11.734375 32.824219 11.722656 33.238281 11.972656 33.503906 C 12.882812 34.457031 13.859375 35.339844 14.898438 36.152344 L 14.898438 41.160156 C 14.128906 41.429688 13.578125 42.164062 13.578125 43.023438 C 13.578125 44.113281 14.464844 45 15.558594 45 C 16.648438 45 17.535156 44.113281 17.535156 43.023438 C 17.535156 42.164062 16.984375 41.429688 16.214844 41.160156 L 16.214844 37.117188 C 18.023438 38.363281 20 39.402344 22.132812 40.230469 C 22.25 40.273438 22.375 40.296875 22.5 40.296875 C 22.625 40.296875 22.75 40.273438 22.867188 40.230469 C 27.277344 38.523438 31.015625 35.90625 33.976562 32.453125 C 35.347656 30.855469 36.335938 28.9375 36.886719 26.851562 L 39.113281 26.851562 C 39.386719 27.617188 40.121094 28.167969 40.980469 28.167969 C 42.070312 28.167969 42.957031 27.28125 42.957031 26.191406 C 42.957031 25.101562 42.070312 24.214844 40.980469 24.214844 C 40.121094 24.214844 39.386719 24.765625 39.113281 25.53125 L 37.171875 25.53125 C 37.320312 24.667969 37.398438 23.777344 37.398438 22.878906 L 37.398438 21.753906 L 41.15625 21.753906 C 41.429688 22.519531 42.164062 23.070312 43.023438 23.070312 C 44.113281 23.070312 45 22.183594 45 21.09375 C 45 20.003906 44.113281 19.117188 43.023438 19.117188 Z M 15.558594 43.679688 C 15.191406 43.679688 14.898438 43.386719 14.898438 43.023438 C 14.898438 42.660156 15.191406 42.363281 15.558594 42.363281 C 15.921875 42.363281 16.214844 42.660156 16.214844 43.023438 C 16.214844 43.386719 15.921875 43.679688 15.558594 43.679688 Z M 40.980469 25.53125 C 41.34375 25.53125 41.636719 25.828125 41.636719 26.191406 C 41.636719 26.554688 41.34375 26.851562 40.980469 26.851562 C 40.617188 26.851562 40.320312 26.554688 40.320312 26.191406 C 40.320312 25.828125 40.617188 25.53125 40.980469 25.53125 Z M 43.023438 21.753906 C 42.660156 21.753906 42.363281 21.457031 42.363281 21.09375 C 42.363281 20.730469 42.660156 20.433594 43.023438 20.433594 C 43.386719 20.433594 43.679688 20.730469 43.679688 21.09375 C 43.679688 21.457031 43.386719 21.753906 43.023438 21.753906 Z M 43.023438 21.753906 "/>
<path style=" stroke:none;fill-rule:nonzero;fill:rgb(0%,0%,0%);fill-opacity:1;" d="M 8.921875 22.878906 L 8.921875 10.886719 C 11.339844 10.316406 13.851562 9.25 16.390625 7.71875 C 20.160156 5.445312 24.839844 5.445312 28.609375 7.71875 C 29.738281 8.398438 30.863281 8.988281 31.976562 9.484375 C 31.988281 9.488281 32 9.496094 32.015625 9.5 C 33.390625 10.109375 34.75 10.574219 36.078125 10.886719 L 36.078125 16.84375 C 36.078125 17.210938 36.375 17.503906 36.738281 17.503906 C 37.101562 17.503906 37.398438 17.210938 37.398438 16.84375 L 37.398438 10.644531 C 37.398438 10.175781 37.074219 9.757812 36.625 9.660156 C 35.414062 9.390625 34.175781 8.988281 32.914062 8.453125 L 32.914062 3.839844 C 33.683594 3.570312 34.234375 2.835938 34.234375 1.976562 C 34.234375 0.886719 33.347656 0 32.253906 0 C 31.164062 0 30.277344 0.886719 30.277344 1.976562 C 30.277344 2.835938 30.828125 3.570312 31.597656 3.839844 L 31.597656 7.851562 C 30.832031 7.476562 30.0625 7.054688 29.289062 6.589844 C 25.101562 4.066406 19.898438 4.066406 15.710938 6.589844 C 13.203125 8.101562 10.734375 9.136719 8.375 9.660156 C 7.925781 9.757812 7.601562 10.175781 7.601562 10.644531 L 7.601562 14.632812 L 3.84375 14.632812 C 3.570312 13.867188 2.835938 13.316406 1.976562 13.316406 C 0.886719 13.316406 0 14.203125 0 15.292969 C 0 16.382812 0.886719 17.269531 1.976562 17.269531 C 2.835938 17.269531 3.570312 16.71875 3.84375 15.953125 L 7.601562 15.953125 L 7.601562 19.730469 L 5.886719 19.730469 C 5.613281 18.964844 4.878906 18.414062 4.019531 18.414062 C 2.929688 18.414062 2.042969 19.300781 2.042969 20.390625 C 2.042969 21.480469 2.929688 22.367188 4.019531 22.367188 C 4.878906 22.367188 5.613281 21.816406 5.886719 21.050781 L 7.601562 21.050781 L 7.601562 22.878906 C 7.601562 26.039062 8.515625 29 10.242188 31.449219 C 10.371094 31.628906 10.574219 31.726562 10.78125 31.726562 C 10.910156 31.726562 11.042969 31.6875 11.160156 31.605469 C 11.457031 31.394531 11.527344 30.984375 11.320312 30.6875 C 9.75 28.464844 8.921875 25.765625 8.921875 22.878906 Z M 32.253906 1.316406 C 32.621094 1.316406 32.914062 1.613281 32.914062 1.976562 C 32.914062 2.339844 32.621094 2.636719 32.253906 2.636719 C 31.890625 2.636719 31.597656 2.339844 31.597656 1.976562 C 31.597656 1.613281 31.890625 1.316406 32.253906 1.316406 Z M 1.976562 15.953125 C 1.613281 15.953125 1.320312 15.65625 1.320312 15.292969 C 1.320312 14.929688 1.613281 14.632812 1.976562 14.632812 C 2.339844 14.632812 2.636719 14.929688 2.636719 15.292969 C 2.636719 15.65625 2.339844 15.953125 1.976562 15.953125 Z M 4.019531 21.050781 C 3.65625 21.050781 3.363281 20.753906 3.363281 20.390625 C 3.363281 20.027344 3.65625 19.730469 4.019531 19.730469 C 4.382812 19.730469 4.679688 20.027344 4.679688 20.390625 C 4.679688 20.753906 4.382812 21.050781 4.019531 21.050781 Z M 4.019531 21.050781 "/>
<path style=" stroke:none;fill-rule:nonzero;fill:rgb(0%,0%,0%);fill-opacity:1;" d="M 15.25 11.351562 C 15.574219 11.191406 15.707031 10.792969 15.546875 10.46875 C 15.386719 10.140625 14.988281 10.007812 14.664062 10.167969 C 13.417969 10.785156 12.164062 11.296875 10.941406 11.691406 C 10.523438 11.824219 10.238281 12.210938 10.238281 12.652344 L 10.238281 22.878906 C 10.238281 25.851562 11.226562 28.640625 13.023438 30.734375 C 15.484375 33.601562 18.546875 35.835938 22.132812 37.382812 C 22.25 37.433594 22.375 37.457031 22.5 37.457031 C 22.625 37.457031 22.75 37.433594 22.867188 37.382812 C 26.453125 35.835938 29.515625 33.601562 31.976562 30.734375 C 33.769531 28.640625 34.761719 25.851562 34.761719 22.878906 L 34.761719 12.652344 C 34.761719 12.210938 34.476562 11.824219 34.058594 11.691406 C 32.050781 11.046875 29.988281 10.089844 27.925781 8.847656 C 26.289062 7.859375 24.414062 7.339844 22.5 7.339844 C 20.585938 7.339844 18.710938 7.859375 17.074219 8.847656 L 16.933594 8.929688 C 16.621094 9.117188 16.519531 9.523438 16.703125 9.835938 C 16.890625 10.148438 17.292969 10.25 17.609375 10.0625 C 17.65625 10.035156 17.707031 10.003906 17.753906 9.976562 C 19.183594 9.113281 20.828125 8.65625 22.5 8.65625 C 24.171875 8.65625 25.816406 9.113281 27.246094 9.976562 C 29.320312 11.226562 31.40625 12.203125 33.441406 12.878906 L 33.441406 22.878906 C 33.441406 25.535156 32.566406 28.023438 30.972656 29.878906 C 28.683594 32.546875 25.832031 34.640625 22.5 36.101562 C 19.167969 34.640625 16.316406 32.546875 14.023438 29.878906 C 12.433594 28.023438 11.558594 25.535156 11.558594 22.878906 L 11.558594 12.878906 C 12.773438 12.472656 14.015625 11.960938 15.25 11.351562 Z M 15.25 11.351562 "/>
<path style=" stroke:none;fill-rule:nonzero;fill:rgb(0%,0%,0%);fill-opacity:1;" d="M 22.5 15.425781 C 20.683594 15.425781 19.203125 16.902344 19.203125 18.71875 L 19.203125 19.820312 L 18.984375 19.820312 C 18.136719 19.820312 17.445312 20.507812 17.445312 21.355469 L 17.445312 26.628906 C 17.445312 27.480469 18.136719 28.167969 18.984375 28.167969 L 26.015625 28.167969 C 26.863281 28.167969 27.554688 27.480469 27.554688 26.628906 L 27.554688 21.355469 C 27.554688 20.507812 26.863281 19.820312 26.015625 19.820312 L 25.796875 19.820312 L 25.796875 18.71875 C 25.796875 16.902344 24.316406 15.425781 22.5 15.425781 Z M 20.523438 18.71875 C 20.523438 17.628906 21.410156 16.742188 22.5 16.742188 C 23.589844 16.742188 24.476562 17.628906 24.476562 18.71875 L 24.476562 19.820312 L 20.523438 19.820312 Z M 26.234375 21.355469 L 26.234375 26.628906 C 26.234375 26.75 26.136719 26.851562 26.015625 26.851562 L 18.984375 26.851562 C 18.863281 26.851562 18.765625 26.75 18.765625 26.628906 L 18.765625 21.355469 C 18.765625 21.234375 18.863281 21.136719 18.984375 21.136719 L 26.015625 21.136719 C 26.136719 21.136719 26.234375 21.234375 26.234375 21.355469 Z M 26.234375 21.355469 "/>
<path style=" stroke:none;fill-rule:nonzero;fill:rgb(0%,0%,0%);fill-opacity:1;" d="M 22.5 21.355469 C 21.410156 21.355469 20.523438 22.246094 20.523438 23.335938 C 20.523438 24.195312 21.074219 24.925781 21.839844 25.199219 L 21.839844 25.972656 C 21.839844 26.335938 22.136719 26.628906 22.5 26.628906 C 22.863281 26.628906 23.160156 26.335938 23.160156 25.972656 L 23.160156 25.199219 C 23.925781 24.925781 24.476562 24.195312 24.476562 23.335938 C 24.476562 22.246094 23.589844 21.355469 22.5 21.355469 Z M 22.5 23.992188 C 22.136719 23.992188 21.839844 23.699219 21.839844 23.335938 C 21.839844 22.972656 22.136719 22.675781 22.5 22.675781 C 22.863281 22.675781 23.160156 22.972656 23.160156 23.335938 C 23.160156 23.699219 22.863281 23.992188 22.5 23.992188 Z M 22.5 23.992188 "/>
</g>
</svg>
