<?xml version="1.0" encoding="UTF-8"?>
<svg xmlns="http://www.w3.org/2000/svg" xmlns:xlink="http://www.w3.org/1999/xlink" width="45px" height="45px" viewBox="0 0 45 45" version="1.1">
<g id="surface1">
<path style=" stroke:none;fill-rule:nonzero;fill:rgb(0%,0%,0%);fill-opacity:1;" d="M 34.453125 0.703125 C 33.445312 0.703125 24.609375 0.78125 24.609375 3.515625 L 24.609375 7.734375 L 18.984375 7.734375 L 18.984375 2.8125 C 18.984375 1.648438 18.039062 0.703125 16.875 0.703125 L 2.8125 0.703125 C 1.648438 0.703125 0.703125 1.648438 0.703125 2.8125 L 0.703125 14.0625 C 0.703125 15.226562 1.648438 16.171875 2.8125 16.171875 L 9.140625 16.171875 L 9.140625 18.984375 L 2.8125 18.984375 C 1.648438 18.984375 0.703125 19.929688 0.703125 21.09375 L 0.703125 32.34375 C 0.703125 33.507812 1.648438 34.453125 2.8125 34.453125 L 9.140625 34.453125 L 9.140625 35.988281 C 8.324219 36.28125 7.734375 37.054688 7.734375 37.96875 C 7.734375 39.132812 8.679688 40.078125 9.84375 40.078125 C 10.757812 40.078125 11.53125 39.488281 11.824219 38.671875 L 25.3125 38.671875 L 25.3125 42.1875 C 25.3125 43.351562 26.257812 44.296875 27.421875 44.296875 L 41.484375 44.296875 C 42.648438 44.296875 43.59375 43.351562 43.59375 42.1875 L 43.59375 30.9375 C 43.59375 29.773438 42.648438 28.828125 41.484375 28.828125 L 35.15625 28.828125 L 35.15625 25.886719 C 35.972656 25.59375 36.5625 24.820312 36.5625 23.90625 C 36.5625 22.992188 35.972656 22.21875 35.15625 21.925781 L 35.15625 18.976562 C 37.515625 18.925781 44.296875 18.566406 44.296875 16.171875 L 44.296875 3.515625 C 44.296875 0.78125 35.460938 0.703125 34.453125 0.703125 Z M 42.890625 7.679688 C 42.550781 8.214844 39.492188 9.140625 34.453125 9.140625 C 29.414062 9.140625 26.355469 8.214844 26.015625 7.679688 L 26.015625 5.113281 C 28.550781 6.285156 33.699219 6.328125 34.453125 6.328125 C 35.207031 6.328125 40.355469 6.285156 42.890625 5.113281 Z M 42.890625 11.898438 C 42.550781 12.433594 39.492188 13.359375 34.453125 13.359375 C 29.414062 13.359375 26.355469 12.433594 26.015625 11.898438 L 26.015625 9.332031 C 28.550781 10.503906 33.699219 10.546875 34.453125 10.546875 C 35.207031 10.546875 40.355469 10.503906 42.890625 9.332031 Z M 34.453125 2.109375 C 39.324219 2.109375 42.347656 2.976562 42.851562 3.515625 C 42.347656 4.054688 39.324219 4.921875 34.453125 4.921875 C 29.582031 4.921875 26.558594 4.054688 26.054688 3.515625 C 26.558594 2.976562 29.582031 2.109375 34.453125 2.109375 Z M 2.8125 2.109375 L 16.875 2.109375 C 17.261719 2.109375 17.578125 2.425781 17.578125 2.8125 L 17.578125 6.328125 L 2.109375 6.328125 L 2.109375 2.8125 C 2.109375 2.425781 2.425781 2.109375 2.8125 2.109375 Z M 2.109375 14.0625 L 2.109375 7.734375 L 17.578125 7.734375 L 17.578125 14.0625 C 17.578125 14.449219 17.261719 14.765625 16.875 14.765625 L 2.8125 14.765625 C 2.425781 14.765625 2.109375 14.449219 2.109375 14.0625 Z M 10.546875 16.171875 L 16.875 16.171875 C 18.039062 16.171875 18.984375 15.226562 18.984375 14.0625 L 18.984375 9.140625 L 24.609375 9.140625 L 24.609375 16.171875 C 24.609375 18.566406 31.390625 18.925781 33.75 18.976562 L 33.75 21.925781 C 33.15625 22.136719 32.683594 22.609375 32.472656 23.203125 L 18.984375 23.203125 L 18.984375 21.09375 C 18.984375 19.929688 18.039062 18.984375 16.875 18.984375 L 10.546875 18.984375 Z M 2.8125 20.390625 L 16.875 20.390625 C 17.261719 20.390625 17.578125 20.707031 17.578125 21.09375 L 17.578125 24.609375 L 2.109375 24.609375 L 2.109375 21.09375 C 2.109375 20.707031 2.425781 20.390625 2.8125 20.390625 Z M 2.109375 32.34375 L 2.109375 26.015625 L 17.578125 26.015625 L 17.578125 32.34375 C 17.578125 32.730469 17.261719 33.046875 16.875 33.046875 L 2.8125 33.046875 C 2.425781 33.046875 2.109375 32.730469 2.109375 32.34375 Z M 9.84375 38.671875 C 9.457031 38.671875 9.140625 38.355469 9.140625 37.96875 C 9.140625 37.582031 9.457031 37.265625 9.84375 37.265625 C 10.230469 37.265625 10.546875 37.582031 10.546875 37.96875 C 10.546875 38.355469 10.230469 38.671875 9.84375 38.671875 Z M 41.484375 42.890625 L 27.421875 42.890625 C 27.035156 42.890625 26.71875 42.574219 26.71875 42.1875 L 26.71875 35.859375 L 42.1875 35.859375 L 42.1875 42.1875 C 42.1875 42.574219 41.871094 42.890625 41.484375 42.890625 Z M 42.1875 30.9375 L 42.1875 34.453125 L 26.71875 34.453125 L 26.71875 30.9375 C 26.71875 30.550781 27.035156 30.234375 27.421875 30.234375 L 41.484375 30.234375 C 41.871094 30.234375 42.1875 30.550781 42.1875 30.9375 Z M 27.421875 28.828125 C 26.257812 28.828125 25.3125 29.773438 25.3125 30.9375 L 25.3125 37.265625 L 11.824219 37.265625 C 11.613281 36.671875 11.140625 36.199219 10.546875 35.988281 L 10.546875 34.453125 L 16.875 34.453125 C 18.039062 34.453125 18.984375 33.507812 18.984375 32.34375 L 18.984375 24.609375 L 32.472656 24.609375 C 32.683594 25.203125 33.15625 25.675781 33.75 25.886719 L 33.75 28.828125 Z M 34.453125 24.609375 C 34.066406 24.609375 33.75 24.292969 33.75 23.90625 C 33.75 23.519531 34.066406 23.203125 34.453125 23.203125 C 34.839844 23.203125 35.15625 23.519531 35.15625 23.90625 C 35.15625 24.292969 34.839844 24.609375 34.453125 24.609375 Z M 34.453125 17.578125 C 29.433594 17.578125 26.378906 16.65625 26.015625 16.125 L 26.015625 13.550781 C 28.550781 14.722656 33.699219 14.765625 34.453125 14.765625 C 35.207031 14.765625 40.355469 14.722656 42.890625 13.550781 L 42.890625 16.125 C 42.527344 16.65625 39.472656 17.578125 34.453125 17.578125 Z M 34.453125 17.578125 "/>
<path style=" stroke:none;fill-rule:nonzero;fill:rgb(0%,0%,0%);fill-opacity:1;" d="M 9.140625 3.515625 L 10.546875 3.515625 L 10.546875 4.921875 L 9.140625 4.921875 Z M 9.140625 3.515625 "/>
<path style=" stroke:none;fill-rule:nonzero;fill:rgb(0%,0%,0%);fill-opacity:1;" d="M 3.515625 3.515625 L 4.921875 3.515625 L 4.921875 4.921875 L 3.515625 4.921875 Z M 3.515625 3.515625 "/>
<path style=" stroke:none;fill-rule:nonzero;fill:rgb(0%,0%,0%);fill-opacity:1;" d="M 6.328125 3.515625 L 7.734375 3.515625 L 7.734375 4.921875 L 6.328125 4.921875 Z M 6.328125 3.515625 "/>
<path style=" stroke:none;fill-rule:nonzero;fill:rgb(0%,0%,0%);fill-opacity:1;" d="M 9.140625 21.796875 L 10.546875 21.796875 L 10.546875 23.203125 L 9.140625 23.203125 Z M 9.140625 21.796875 "/>
<path style=" stroke:none;fill-rule:nonzero;fill:rgb(0%,0%,0%);fill-opacity:1;" d="M 3.515625 21.796875 L 4.921875 21.796875 L 4.921875 23.203125 L 3.515625 23.203125 Z M 3.515625 21.796875 "/>
<path style=" stroke:none;fill-rule:nonzero;fill:rgb(0%,0%,0%);fill-opacity:1;" d="M 6.328125 21.796875 L 7.734375 21.796875 L 7.734375 23.203125 L 6.328125 23.203125 Z M 6.328125 21.796875 "/>
<path style=" stroke:none;fill-rule:nonzero;fill:rgb(0%,0%,0%);fill-opacity:1;" d="M 28.125 31.640625 L 29.53125 31.640625 L 29.53125 33.046875 L 28.125 33.046875 Z M 28.125 31.640625 "/>
<path style=" stroke:none;fill-rule:nonzero;fill:rgb(0%,0%,0%);fill-opacity:1;" d="M 33.75 31.640625 L 35.15625 31.640625 L 35.15625 33.046875 L 33.75 33.046875 Z M 33.75 31.640625 "/>
<path style=" stroke:none;fill-rule:nonzero;fill:rgb(0%,0%,0%);fill-opacity:1;" d="M 30.9375 31.640625 L 32.34375 31.640625 L 32.34375 33.046875 L 30.9375 33.046875 Z M 30.9375 31.640625 "/>
<path style=" stroke:none;fill-rule:nonzero;fill:rgb(0%,0%,0%);fill-opacity:1;" d="M 30.234375 37.265625 C 29.070312 37.265625 28.125 38.210938 28.125 39.375 C 28.125 40.539062 29.070312 41.484375 30.234375 41.484375 C 31.398438 41.484375 32.34375 40.539062 32.34375 39.375 C 32.34375 38.210938 31.398438 37.265625 30.234375 37.265625 Z M 30.234375 40.078125 C 29.847656 40.078125 29.53125 39.761719 29.53125 39.375 C 29.53125 38.988281 29.847656 38.671875 30.234375 38.671875 C 30.621094 38.671875 30.9375 38.988281 30.9375 39.375 C 30.9375 39.761719 30.621094 40.078125 30.234375 40.078125 Z M 30.234375 40.078125 "/>
<path style=" stroke:none;fill-rule:nonzero;fill:rgb(0%,0%,0%);fill-opacity:1;" d="M 33.75 37.265625 L 40.78125 37.265625 L 40.78125 38.671875 L 33.75 38.671875 Z M 33.75 37.265625 "/>
<path style=" stroke:none;fill-rule:nonzero;fill:rgb(0%,0%,0%);fill-opacity:1;" d="M 33.75 40.078125 L 37.96875 40.078125 L 37.96875 41.484375 L 33.75 41.484375 Z M 33.75 40.078125 "/>
<path style=" stroke:none;fill-rule:nonzero;fill:rgb(0%,0%,0%);fill-opacity:1;" d="M 39.375 40.078125 L 40.78125 40.078125 L 40.78125 41.484375 L 39.375 41.484375 Z M 39.375 40.078125 "/>
<path style=" stroke:none;fill-rule:nonzero;fill:rgb(0%,0%,0%);fill-opacity:1;" d="M 3.515625 27.421875 L 4.921875 27.421875 L 4.921875 28.828125 L 3.515625 28.828125 Z M 3.515625 27.421875 "/>
<path style=" stroke:none;fill-rule:nonzero;fill:rgb(0%,0%,0%);fill-opacity:1;" d="M 6.328125 27.421875 L 16.171875 27.421875 L 16.171875 28.828125 L 6.328125 28.828125 Z M 6.328125 27.421875 "/>
<path style=" stroke:none;fill-rule:nonzero;fill:rgb(0%,0%,0%);fill-opacity:1;" d="M 3.515625 30.234375 L 16.171875 30.234375 L 16.171875 31.640625 L 3.515625 31.640625 Z M 3.515625 30.234375 "/>
<path style=" stroke:none;fill-rule:nonzero;fill:rgb(0%,0%,0%);fill-opacity:1;" d="M 11.953125 13.359375 L 16.171875 13.359375 L 16.171875 9.140625 L 11.953125 9.140625 Z M 13.359375 10.546875 L 14.765625 10.546875 L 14.765625 11.953125 L 13.359375 11.953125 Z M 13.359375 10.546875 "/>
<path style=" stroke:none;fill-rule:nonzero;fill:rgb(0%,0%,0%);fill-opacity:1;" d="M 3.515625 9.140625 L 10.546875 9.140625 L 10.546875 10.546875 L 3.515625 10.546875 Z M 3.515625 9.140625 "/>
<path style=" stroke:none;fill-rule:nonzero;fill:rgb(0%,0%,0%);fill-opacity:1;" d="M 3.515625 11.953125 L 7.734375 11.953125 L 7.734375 13.359375 L 3.515625 13.359375 Z M 3.515625 11.953125 "/>
<path style=" stroke:none;fill-rule:nonzero;fill:rgb(0%,0%,0%);fill-opacity:1;" d="M 9.140625 11.953125 L 10.546875 11.953125 L 10.546875 13.359375 L 9.140625 13.359375 Z M 9.140625 11.953125 "/>
</g>
</svg>
