<?xml version="1.0" encoding="UTF-8"?>
<svg xmlns="http://www.w3.org/2000/svg" xmlns:xlink="http://www.w3.org/1999/xlink" width="40px" height="40px" viewBox="0 0 40 40" version="1.1">
<g id="surface1">
<path style=" stroke:none;fill-rule:evenodd;fill:rgb(0%,0%,0%);fill-opacity:1;" d="M 20 9.09375 C 26.023438 9.09375 30.90625 13.976562 30.90625 20 C 30.90625 26.023438 26.023438 30.90625 20 30.90625 C 13.976562 30.90625 9.09375 26.023438 9.09375 20 C 9.09375 13.976562 13.976562 9.09375 20 9.09375 Z M 27.511719 26.058594 C 28.847656 24.402344 29.648438 22.292969 29.648438 20 C 29.648438 14.671875 25.328125 10.351562 20 10.351562 C 14.671875 10.351562 10.351562 14.671875 10.351562 20 C 10.351562 22.292969 11.152344 24.402344 12.488281 26.058594 C 13.179688 23.585938 15.0625 21.609375 17.472656 20.785156 C 16.425781 20.007812 15.742188 18.761719 15.742188 17.363281 C 15.742188 15.019531 17.65625 13.105469 20 13.105469 C 22.34375 13.105469 24.257812 15.019531 24.257812 17.363281 C 24.257812 18.761719 23.574219 20.007812 22.527344 20.785156 C 24.9375 21.609375 26.820312 23.585938 27.511719 26.058594 Z M 13.53125 27.160156 C 15.242188 28.707031 17.511719 29.648438 20 29.648438 C 22.488281 29.648438 24.757812 28.707031 26.46875 27.160156 C 25.984375 24.023438 23.273438 21.621094 20 21.621094 C 16.726562 21.621094 14.015625 24.023438 13.53125 27.160156 Z M 20 20.363281 C 21.652344 20.363281 23 19.015625 23 17.363281 C 23 15.710938 21.652344 14.359375 20 14.359375 C 18.347656 14.359375 17 15.710938 17 17.363281 C 17 19.015625 18.347656 20.363281 20 20.363281 Z M 38.183594 20.628906 L 34.582031 20.628906 L 35.085938 21.222656 C 35.308594 21.488281 35.273438 21.882812 35.007812 22.105469 C 34.742188 22.332031 34.347656 22.296875 34.125 22.03125 L 32.753906 20.40625 C 32.554688 20.171875 32.554688 19.828125 32.753906 19.59375 L 34.125 17.96875 C 34.347656 17.703125 34.742188 17.667969 35.007812 17.894531 C 35.273438 18.117188 35.308594 18.511719 35.085938 18.777344 L 34.582031 19.371094 L 38.824219 19.371094 C 39.167969 19.371094 39.449219 19.652344 39.449219 20 C 39.449219 29.449219 32.699219 37.332031 23.761719 39.085938 C 23.421875 39.152344 23.09375 38.929688 23.027344 38.589844 C 22.960938 38.25 23.179688 37.921875 23.519531 37.855469 C 31.683594 36.253906 37.894531 29.1875 38.183594 20.628906 Z M 19.371094 5.417969 L 19.371094 1.175781 C 19.371094 0.832031 19.652344 0.550781 20 0.550781 C 29.449219 0.550781 37.332031 7.300781 39.085938 16.238281 C 39.152344 16.578125 38.929688 16.90625 38.589844 16.972656 C 38.25 17.039062 37.921875 16.820312 37.855469 16.480469 C 36.253906 8.316406 29.1875 2.105469 20.628906 1.816406 L 20.628906 5.417969 L 21.222656 4.914062 C 21.488281 4.691406 21.882812 4.726562 22.105469 4.992188 C 22.332031 5.257812 22.296875 5.652344 22.03125 5.875 L 20.40625 7.246094 C 20.171875 7.445312 19.828125 7.445312 19.59375 7.246094 L 17.96875 5.875 C 17.703125 5.652344 17.667969 5.257812 17.894531 4.992188 C 18.117188 4.726562 18.511719 4.691406 18.777344 4.914062 Z M 1.816406 19.371094 L 5.417969 19.371094 L 4.914062 18.777344 C 4.691406 18.511719 4.726562 18.117188 4.992188 17.894531 C 5.257812 17.667969 5.652344 17.703125 5.875 17.96875 L 7.246094 19.59375 C 7.445312 19.828125 7.445312 20.171875 7.246094 20.40625 L 5.875 22.03125 C 5.652344 22.296875 5.257812 22.332031 4.992188 22.105469 C 4.726562 21.882812 4.691406 21.488281 4.914062 21.222656 L 5.417969 20.628906 L 1.175781 20.628906 C 0.832031 20.628906 0.550781 20.347656 0.550781 20 C 0.550781 10.550781 7.300781 2.667969 16.238281 0.914062 C 16.578125 0.847656 16.90625 1.070312 16.972656 1.410156 C 17.039062 1.75 16.820312 2.078125 16.480469 2.144531 C 8.316406 3.746094 2.105469 10.8125 1.816406 19.371094 Z M 19.371094 38.183594 L 19.371094 34.582031 L 18.777344 35.085938 C 18.511719 35.308594 18.117188 35.273438 17.894531 35.007812 C 17.667969 34.742188 17.703125 34.347656 17.96875 34.125 L 19.59375 32.753906 C 19.828125 32.554688 20.171875 32.554688 20.40625 32.753906 L 22.03125 34.125 C 22.296875 34.347656 22.332031 34.742188 22.105469 35.007812 C 21.882812 35.273438 21.488281 35.308594 21.222656 35.085938 L 20.628906 34.582031 L 20.628906 38.824219 C 20.628906 39.167969 20.347656 39.449219 20 39.449219 C 10.550781 39.449219 2.667969 32.699219 0.914062 23.761719 C 0.847656 23.421875 1.070312 23.09375 1.410156 23.027344 C 1.75 22.960938 2.078125 23.179688 2.144531 23.519531 C 3.746094 31.683594 10.8125 37.894531 19.371094 38.183594 Z M 19.371094 38.183594 "/>
</g>
</svg>
