<?xml version="1.0" encoding="UTF-8"?>
<svg xmlns="http://www.w3.org/2000/svg" xmlns:xlink="http://www.w3.org/1999/xlink" width="40px" height="40px" viewBox="0 0 40 40" version="1.1">
<g id="surface1">
<path style=" stroke:none;fill-rule:nonzero;fill:rgb(0%,0%,0%);fill-opacity:1;" d="M 11.601562 29.023438 C 11.601562 26.992188 9.953125 25.34375 7.921875 25.34375 C 5.890625 25.34375 4.242188 26.992188 4.242188 29.023438 C 4.242188 30.304688 4.902344 31.429688 5.898438 32.089844 C 2.871094 32.859375 0.628906 35.601562 0.628906 38.855469 C 0.628906 39.140625 0.859375 39.371094 1.144531 39.371094 L 8.207031 39.371094 C 8.492188 39.371094 8.722656 39.140625 8.722656 38.855469 C 8.722656 38.570312 8.492188 38.339844 8.207031 38.339844 L 1.679688 38.339844 C 1.9375 35.296875 4.503906 32.898438 7.617188 32.898438 C 8.144531 32.898438 8.679688 32.96875 9.199219 33.113281 C 9.480469 33.195312 9.757812 33.03125 9.835938 32.757812 C 9.890625 32.5625 9.824219 32.375 9.683594 32.25 C 10.824219 31.625 11.601562 30.414062 11.601562 29.023438 Z M 5.265625 29.023438 C 5.265625 27.5625 6.453125 26.375 7.914062 26.375 C 9.375 26.375 10.5625 27.5625 10.5625 29.023438 C 10.5625 30.484375 9.375 31.671875 7.914062 31.671875 C 6.453125 31.671875 5.265625 30.484375 5.265625 29.023438 Z M 5.265625 29.023438 "/>
<path style=" stroke:none;fill-rule:nonzero;fill:rgb(0%,0%,0%);fill-opacity:1;" d="M 23.03125 31.21875 L 21.683594 31.21875 L 21.683594 29.832031 C 22.671875 28.957031 23.425781 27.660156 23.722656 26.371094 C 23.945312 26.078125 25.964844 23.339844 24.128906 20.4375 C 24.109375 20.398438 22.109375 16.636719 17.921875 17.890625 C 17.527344 17.757812 16.628906 17.550781 15.921875 18.054688 C 15.371094 18.453125 15.109375 19.164062 15.140625 20.167969 C 14.636719 20.527344 13.625 21.40625 13.386719 22.792969 C 13.167969 24.078125 13.679688 25.429688 14.878906 26.8125 C 15.195312 27.910156 15.804688 29.007812 16.625 29.78125 L 16.625 31.210938 L 15.273438 31.210938 C 12.386719 31.210938 10.042969 33.558594 10.042969 36.441406 L 10.042969 38.847656 C 10.042969 39.132812 10.273438 39.363281 10.558594 39.363281 L 27.738281 39.363281 C 28.023438 39.363281 28.253906 39.132812 28.253906 38.847656 L 28.253906 36.441406 C 28.261719 33.5625 25.914062 31.21875 23.03125 31.21875 Z M 14.40625 22.980469 C 14.625 21.648438 15.914062 20.902344 15.925781 20.898438 C 16.101562 20.800781 16.207031 20.605469 16.1875 20.40625 C 16.121094 19.640625 16.242188 19.109375 16.527344 18.910156 C 16.871094 18.65625 17.507812 18.835938 17.703125 18.921875 C 17.816406 18.96875 17.953125 18.976562 18.066406 18.9375 C 21.527344 17.804688 23.144531 20.800781 23.230469 20.964844 C 24.144531 22.417969 23.890625 23.789062 23.507812 24.695312 C 23.21875 23.804688 22.65625 22.746094 21.59375 22.363281 C 21.042969 22.164062 20.40625 22.265625 19.855469 22.628906 C 19.472656 22.886719 19.121094 22.945312 18.8125 22.804688 C 18.011719 22.441406 17.152344 22.492188 16.519531 22.925781 C 15.96875 23.308594 15.332031 24.019531 15.011719 25.296875 C 14.492188 24.472656 14.285156 23.695312 14.40625 22.980469 Z M 15.859375 26.515625 C 15.953125 25.21875 16.382812 24.273438 17.109375 23.769531 C 17.585938 23.4375 18.164062 23.636719 18.386719 23.738281 C 19.023438 24.023438 19.75 23.933594 20.429688 23.480469 C 20.703125 23.296875 21.011719 23.238281 21.25 23.320312 C 22.320312 23.703125 22.671875 25.425781 22.757812 25.9375 C 22.398438 27.816406 20.847656 29.871094 19.144531 29.871094 C 17.613281 29.871094 16.320312 28.15625 15.859375 26.515625 Z M 19.144531 30.902344 C 19.667969 30.902344 20.175781 30.761719 20.648438 30.535156 L 20.648438 31.515625 L 19.152344 32.925781 L 17.660156 31.515625 L 17.660156 30.539062 C 18.121094 30.769531 18.617188 30.902344 19.144531 30.902344 Z M 27.230469 38.34375 L 25.03125 38.34375 L 25.03125 36.761719 C 25.03125 36.480469 24.800781 36.25 24.515625 36.25 C 24.230469 36.25 24 36.480469 24 36.761719 L 24 38.34375 L 14.382812 38.34375 L 14.382812 36.761719 C 14.382812 36.480469 14.152344 36.25 13.867188 36.25 C 13.582031 36.25 13.351562 36.480469 13.351562 36.761719 L 13.351562 38.34375 L 11.078125 38.34375 L 11.078125 36.453125 C 11.078125 34.140625 12.964844 32.253906 15.277344 32.253906 L 16.9375 32.253906 L 18.800781 34.011719 C 19 34.199219 19.308594 34.199219 19.507812 34.011719 L 21.371094 32.253906 L 23.03125 32.253906 C 25.34375 32.253906 27.230469 34.140625 27.230469 36.453125 Z M 27.230469 38.34375 "/>
<path style=" stroke:none;fill-rule:nonzero;fill:rgb(0%,0%,0%);fill-opacity:1;" d="M 20.835938 25.898438 L 21.175781 25.898438 C 21.460938 25.898438 21.691406 25.667969 21.691406 25.382812 C 21.691406 25.097656 21.460938 24.867188 21.175781 24.867188 L 20.835938 24.867188 C 20.550781 24.867188 20.320312 25.097656 20.320312 25.382812 C 20.320312 25.667969 20.546875 25.898438 20.835938 25.898438 Z M 20.835938 25.898438 "/>
<path style=" stroke:none;fill-rule:nonzero;fill:rgb(0%,0%,0%);fill-opacity:1;" d="M 17.671875 25.898438 C 17.957031 25.898438 18.1875 25.667969 18.1875 25.382812 C 18.1875 25.097656 17.957031 24.867188 17.671875 24.867188 L 17.332031 24.867188 C 17.046875 24.867188 16.816406 25.097656 16.816406 25.382812 C 16.816406 25.667969 17.046875 25.898438 17.332031 25.898438 Z M 17.671875 25.898438 "/>
<path style=" stroke:none;fill-rule:nonzero;fill:rgb(0%,0%,0%);fill-opacity:1;" d="M 17.886719 27.273438 C 17.734375 27.515625 17.800781 27.832031 18.035156 27.988281 C 18.4375 28.242188 18.84375 28.375 19.253906 28.375 C 19.667969 28.375 20.074219 28.25 20.472656 27.988281 C 20.714844 27.832031 20.78125 27.515625 20.625 27.273438 C 20.464844 27.03125 20.152344 26.964844 19.910156 27.121094 C 19.453125 27.417969 19.046875 27.417969 18.59375 27.121094 C 18.359375 26.96875 18.035156 27.035156 17.886719 27.273438 Z M 17.886719 27.273438 "/>
<path style=" stroke:none;fill-rule:nonzero;fill:rgb(0%,0%,0%);fill-opacity:1;" d="M 38.382812 8.371094 L 37.144531 8.175781 C 36.980469 7.601562 36.75 7.042969 36.460938 6.519531 L 37.199219 5.507812 C 37.546875 5.042969 37.496094 4.398438 37.085938 3.988281 L 36.011719 2.914062 C 35.601562 2.503906 34.957031 2.453125 34.492188 2.800781 L 33.480469 3.539062 C 32.957031 3.25 32.40625 3.019531 31.824219 2.855469 L 31.628906 1.617188 C 31.539062 1.042969 31.054688 0.625 30.472656 0.625 L 28.957031 0.625 C 28.375 0.625 27.886719 1.042969 27.800781 1.617188 L 27.605469 2.855469 C 27.03125 3.019531 26.472656 3.25 25.953125 3.539062 L 24.9375 2.800781 C 24.472656 2.453125 23.832031 2.503906 23.417969 2.914062 L 22.34375 3.988281 C 21.933594 4.398438 21.886719 5.042969 22.230469 5.507812 L 22.96875 6.519531 C 22.679688 7.042969 22.449219 7.601562 22.285156 8.175781 L 21.046875 8.371094 C 20.472656 8.460938 20.054688 8.945312 20.054688 9.527344 L 20.054688 11.042969 C 20.054688 11.625 20.472656 12.113281 21.046875 12.199219 L 22.285156 12.394531 C 22.449219 12.96875 22.679688 13.519531 22.96875 14.046875 L 22.230469 15.0625 C 21.886719 15.535156 21.933594 16.167969 22.34375 16.582031 L 23.417969 17.65625 C 23.832031 18.066406 24.464844 18.113281 24.9375 17.769531 L 25.953125 17.03125 C 26.472656 17.320312 27.03125 17.550781 27.605469 17.714844 L 27.800781 18.953125 C 27.890625 19.527344 28.375 19.945312 28.957031 19.945312 L 30.472656 19.945312 C 31.054688 19.945312 31.546875 19.527344 31.628906 18.953125 L 31.824219 17.714844 C 32.398438 17.550781 32.957031 17.320312 33.480469 17.03125 L 34.492188 17.769531 C 34.964844 18.113281 35.601562 18.0625 36.011719 17.65625 L 37.085938 16.582031 C 37.496094 16.167969 37.546875 15.527344 37.199219 15.0625 L 36.460938 14.046875 C 36.75 13.527344 36.980469 12.976562 37.144531 12.394531 L 38.382812 12.199219 C 38.957031 12.109375 39.375 11.625 39.375 11.042969 L 39.375 9.527344 C 39.375 8.945312 38.957031 8.460938 38.382812 8.371094 Z M 38.34375 11.046875 C 38.34375 11.121094 38.296875 11.175781 38.222656 11.1875 L 36.65625 11.429688 C 36.449219 11.460938 36.277344 11.617188 36.230469 11.824219 C 36.066406 12.527344 35.789062 13.199219 35.40625 13.8125 C 35.296875 13.988281 35.304688 14.21875 35.429688 14.386719 L 36.371094 15.671875 C 36.414062 15.726562 36.40625 15.804688 36.359375 15.855469 L 35.285156 16.925781 C 35.238281 16.976562 35.15625 16.980469 35.101562 16.945312 L 33.816406 16.007812 C 33.648438 15.878906 33.417969 15.871094 33.242188 15.980469 C 32.628906 16.363281 31.957031 16.636719 31.253906 16.804688 C 31.046875 16.855469 30.898438 17.023438 30.859375 17.230469 L 30.617188 18.800781 C 30.605469 18.867188 30.546875 18.921875 30.480469 18.921875 L 28.964844 18.921875 C 28.890625 18.921875 28.835938 18.871094 28.824219 18.800781 L 28.582031 17.222656 C 28.550781 17.019531 28.394531 16.847656 28.1875 16.800781 C 27.484375 16.636719 26.8125 16.359375 26.199219 15.976562 C 26.113281 15.921875 26.023438 15.898438 25.925781 15.898438 C 25.816406 15.898438 25.714844 15.933594 25.625 15.992188 L 24.339844 16.933594 C 24.285156 16.976562 24.207031 16.96875 24.15625 16.921875 L 23.085938 15.847656 C 23.035156 15.800781 23.03125 15.722656 23.074219 15.667969 L 24.011719 14.382812 C 24.140625 14.210938 24.144531 13.980469 24.035156 13.804688 C 23.65625 13.1875 23.375 12.519531 23.210938 11.816406 C 23.164062 11.613281 22.992188 11.460938 22.789062 11.425781 L 21.21875 11.183594 C 21.144531 11.167969 21.097656 11.109375 21.097656 11.042969 L 21.097656 9.527344 C 21.097656 9.460938 21.152344 9.398438 21.21875 9.386719 L 22.789062 9.144531 C 22.992188 9.113281 23.164062 8.957031 23.210938 8.75 C 23.375 8.046875 23.65625 7.382812 24.035156 6.761719 C 24.144531 6.585938 24.140625 6.359375 24.011719 6.1875 L 23.074219 4.902344 C 23.03125 4.847656 23.035156 4.769531 23.085938 4.722656 L 24.15625 3.648438 C 24.207031 3.601562 24.285156 3.59375 24.339844 3.636719 L 25.625 4.574219 C 25.792969 4.695312 26.023438 4.710938 26.199219 4.601562 C 26.8125 4.21875 27.484375 3.9375 28.1875 3.777344 C 28.394531 3.726562 28.546875 3.558594 28.582031 3.351562 L 28.824219 1.78125 C 28.835938 1.714844 28.890625 1.660156 28.964844 1.660156 L 30.480469 1.660156 C 30.550781 1.660156 30.605469 1.710938 30.617188 1.78125 L 30.859375 3.359375 C 30.890625 3.5625 31.046875 3.734375 31.253906 3.78125 C 31.957031 3.945312 32.628906 4.222656 33.242188 4.605469 C 33.417969 4.714844 33.648438 4.710938 33.816406 4.582031 L 35.097656 3.636719 C 35.152344 3.59375 35.230469 3.601562 35.277344 3.648438 L 36.351562 4.722656 C 36.398438 4.769531 36.40625 4.847656 36.363281 4.902344 L 35.425781 6.1875 C 35.296875 6.359375 35.289062 6.585938 35.398438 6.761719 C 35.78125 7.375 36.0625 8.046875 36.222656 8.75 C 36.273438 8.957031 36.441406 9.109375 36.648438 9.144531 L 38.21875 9.386719 C 38.285156 9.398438 38.339844 9.460938 38.339844 9.527344 L 38.339844 11.046875 Z M 38.34375 11.046875 "/>
<path style=" stroke:none;fill-rule:nonzero;fill:rgb(0%,0%,0%);fill-opacity:1;" d="M 29.714844 5.824219 C 27.253906 5.824219 25.253906 7.824219 25.253906 10.285156 C 25.253906 12.746094 27.253906 14.746094 29.714844 14.746094 C 32.175781 14.746094 34.175781 12.746094 34.175781 10.285156 C 34.175781 7.824219 32.175781 5.824219 29.714844 5.824219 Z M 29.714844 13.714844 C 27.824219 13.714844 26.285156 12.175781 26.285156 10.285156 C 26.285156 8.394531 27.824219 6.855469 29.714844 6.855469 C 31.605469 6.855469 33.144531 8.394531 33.144531 10.285156 C 33.144531 12.175781 31.605469 13.714844 29.714844 13.714844 Z M 29.714844 13.714844 "/>
<path style=" stroke:none;fill-rule:nonzero;fill:rgb(0%,0%,0%);fill-opacity:1;" d="M 32.777344 32.1875 C 33.855469 31.546875 34.585938 30.371094 34.585938 29.023438 C 34.585938 26.992188 32.9375 25.34375 30.910156 25.34375 C 28.878906 25.34375 27.230469 26.992188 27.230469 29.023438 C 27.230469 30.316406 27.902344 31.453125 28.910156 32.109375 C 28.886719 32.113281 28.855469 32.121094 28.832031 32.128906 C 28.558594 32.207031 28.394531 32.492188 28.472656 32.761719 C 28.550781 33.035156 28.832031 33.199219 29.109375 33.121094 C 29.628906 32.976562 30.164062 32.902344 30.691406 32.902344 C 33.800781 32.902344 36.363281 35.304688 36.628906 38.34375 L 30.101562 38.34375 C 29.816406 38.34375 29.585938 38.574219 29.585938 38.859375 C 29.585938 39.144531 29.816406 39.375 30.101562 39.375 L 37.164062 39.375 C 37.449219 39.375 37.679688 39.144531 37.679688 38.859375 C 37.679688 35.734375 35.613281 33.078125 32.777344 32.1875 Z M 28.261719 29.023438 C 28.261719 27.5625 29.449219 26.375 30.910156 26.375 C 32.371094 26.375 33.558594 27.5625 33.558594 29.023438 C 33.558594 30.484375 32.371094 31.671875 30.910156 31.671875 C 29.449219 31.671875 28.261719 30.484375 28.261719 29.023438 Z M 28.261719 29.023438 "/>
</g>
</svg>
