<?xml version="1.0" encoding="UTF-8"?>
<svg xmlns="http://www.w3.org/2000/svg" xmlns:xlink="http://www.w3.org/1999/xlink" width="40px" height="40px" viewBox="0 0 40 40" version="1.1">
<g id="surface1">
<path style=" stroke:none;fill-rule:nonzero;fill:rgb(0%,0%,0%);fill-opacity:1;" d="M 25.96875 30.507812 C 25.820312 30.25 25.90625 29.914062 26.164062 29.765625 C 26.421875 29.609375 26.757812 29.703125 26.914062 29.960938 L 28.445312 32.617188 L 33.859375 27.203125 C 34.070312 26.992188 34.414062 26.992188 34.632812 27.203125 C 34.84375 27.421875 34.84375 27.765625 34.632812 27.976562 L 28.71875 33.890625 C 28.46875 34.140625 28.039062 34.09375 27.859375 33.78125 Z M 30.34375 22.359375 C 31.960938 22.359375 33.46875 22.820312 34.742188 23.625 C 36.03125 18.820312 35.078125 13.632812 32.101562 9.601562 C 31.921875 9.359375 31.976562 9.015625 32.210938 8.835938 C 32.453125 8.65625 32.796875 8.710938 32.976562 8.945312 C 36.242188 13.359375 37.226562 19.070312 35.679688 24.304688 C 39.375 27.429688 39.617188 33.046875 36.1875 36.476562 C 32.796875 39.867188 27.25 39.671875 24.101562 36.0625 C 21.867188 36.757812 19.515625 36.992188 17.195312 36.773438 C 15.085938 36.570312 13.007812 35.984375 11.0625 35.015625 L 12.046875 36.804688 C 12.1875 37.070312 12.09375 37.398438 11.828125 37.546875 C 11.5625 37.6875 11.234375 37.59375 11.085938 37.328125 L 9.171875 33.84375 C 8.976562 33.484375 9.226562 33.007812 9.695312 33.039062 L 13.632812 33.117188 C 13.9375 33.125 14.171875 33.375 14.171875 33.671875 C 14.164062 33.976562 13.914062 34.210938 13.617188 34.203125 L 11.820312 34.164062 C 13.570312 35 15.421875 35.5 17.304688 35.6875 C 19.351562 35.882812 21.421875 35.695312 23.40625 35.132812 C 22.171875 33.234375 21.757812 30.890625 22.3125 28.640625 C 21.945312 28.773438 21.570312 28.890625 21.195312 28.976562 L 21.195312 30.820312 C 21.195312 31.125 20.953125 31.367188 20.648438 31.367188 L 17.140625 31.367188 C 16.835938 31.367188 16.59375 31.125 16.59375 30.820312 L 16.59375 28.984375 C 15.578125 28.742188 14.601562 28.335938 13.710938 27.789062 L 12.40625 29.09375 C 12.195312 29.3125 11.84375 29.3125 11.632812 29.09375 L 9.140625 26.609375 C 8.929688 26.398438 8.929688 26.046875 9.140625 25.835938 L 10.445312 24.53125 C 9.898438 23.640625 9.492188 22.671875 9.25 21.648438 L 7.414062 21.648438 C 7.109375 21.648438 6.867188 21.40625 6.867188 21.101562 L 6.867188 17.59375 C 6.867188 17.289062 7.109375 17.046875 7.414062 17.046875 L 9.257812 17.046875 C 9.5 16.023438 9.90625 15.054688 10.453125 14.164062 L 9.140625 12.859375 C 8.929688 12.648438 8.929688 12.296875 9.140625 12.085938 L 11.625 9.601562 C 11.835938 9.390625 12.1875 9.390625 12.398438 9.601562 L 13.703125 10.90625 C 14.59375 10.359375 15.5625 9.953125 16.585938 9.710938 L 16.585938 7.867188 C 16.585938 7.5625 16.828125 7.320312 17.132812 7.320312 L 20.640625 7.320312 C 20.945312 7.320312 21.1875 7.5625 21.1875 7.867188 L 21.1875 9.710938 C 22.210938 9.953125 23.179688 10.359375 24.070312 10.90625 L 25.375 9.601562 C 25.585938 9.390625 25.9375 9.390625 26.148438 9.601562 L 28.632812 12.085938 C 28.84375 12.296875 28.84375 12.640625 28.632812 12.859375 L 27.328125 14.164062 C 27.875 15.046875 28.28125 16.023438 28.523438 17.046875 L 30.367188 17.046875 C 30.671875 17.046875 30.914062 17.289062 30.914062 17.59375 L 30.914062 21.101562 C 30.914062 21.414062 30.664062 21.65625 30.320312 21.640625 L 28.523438 21.640625 L 28.234375 22.617188 C 28.90625 22.453125 29.617188 22.359375 30.34375 22.359375 Z M 22.789062 27.257812 C 23.203125 26.328125 23.78125 25.492188 24.492188 24.78125 C 25.171875 24.101562 25.96875 23.539062 26.851562 23.132812 C 26.992188 22.828125 27.125 22.515625 27.234375 22.1875 C 27.367188 21.804688 27.46875 21.414062 27.546875 21.007812 C 27.59375 20.757812 27.820312 20.5625 28.085938 20.5625 L 29.828125 20.5625 L 29.828125 18.140625 L 28.085938 18.140625 C 27.828125 18.140625 27.601562 17.960938 27.546875 17.695312 C 27.4375 17.101562 27.257812 16.523438 27.03125 15.976562 C 26.804688 15.429688 26.523438 14.914062 26.195312 14.429688 C 26.03125 14.210938 26.046875 13.90625 26.242188 13.710938 L 27.46875 12.484375 L 25.757812 10.773438 L 24.53125 12 C 24.351562 12.179688 24.0625 12.210938 23.835938 12.0625 C 23.34375 11.726562 22.8125 11.4375 22.257812 11.210938 C 21.71875 10.984375 21.15625 10.820312 20.578125 10.703125 C 20.304688 10.671875 20.09375 10.4375 20.09375 10.164062 L 20.09375 8.421875 L 17.671875 8.421875 L 17.671875 10.132812 C 17.6875 10.40625 17.5 10.648438 17.226562 10.703125 C 16.625 10.8125 16.054688 10.992188 15.507812 11.21875 C 14.960938 11.445312 14.445312 11.726562 13.953125 12.054688 C 13.742188 12.21875 13.429688 12.203125 13.234375 12.007812 L 12.007812 10.78125 L 10.296875 12.492188 L 11.523438 13.71875 C 11.703125 13.898438 11.734375 14.1875 11.585938 14.414062 C 11.25 14.90625 10.960938 15.4375 10.734375 15.992188 C 10.515625 16.53125 10.34375 17.09375 10.226562 17.671875 C 10.195312 17.945312 9.96875 18.15625 9.6875 18.15625 L 7.945312 18.15625 L 7.945312 20.570312 L 9.6875 20.570312 C 9.945312 20.570312 10.171875 20.757812 10.226562 21.015625 C 10.335938 21.617188 10.515625 22.1875 10.742188 22.734375 C 10.96875 23.28125 11.25 23.796875 11.578125 24.28125 C 11.742188 24.492188 11.726562 24.804688 11.53125 25 L 10.304688 26.226562 L 12.015625 27.9375 L 13.242188 26.710938 C 13.421875 26.53125 13.710938 26.5 13.9375 26.648438 C 14.429688 26.984375 14.960938 27.273438 15.515625 27.5 C 16.054688 27.71875 16.617188 27.890625 17.203125 28.007812 C 17.476562 28.039062 17.6875 28.265625 17.6875 28.546875 L 17.6875 30.289062 L 20.101562 30.289062 L 20.101562 28.546875 C 20.101562 28.289062 20.289062 28.0625 20.546875 28.007812 C 21.328125 27.859375 22.078125 27.601562 22.789062 27.257812 Z M 35.421875 25.554688 C 32.617188 22.75 28.070312 22.75 25.265625 25.554688 C 22.460938 28.359375 22.460938 32.90625 25.265625 35.710938 C 28.070312 38.515625 32.617188 38.515625 35.421875 35.710938 C 38.21875 32.90625 38.21875 28.359375 35.421875 25.554688 Z M 25.734375 1.90625 C 25.59375 1.640625 25.6875 1.3125 25.953125 1.164062 C 26.21875 1.023438 26.546875 1.117188 26.695312 1.375 L 28.609375 4.859375 C 28.804688 5.21875 28.554688 5.695312 28.085938 5.664062 L 24.140625 5.585938 C 23.84375 5.578125 23.601562 5.328125 23.609375 5.03125 C 23.617188 4.734375 23.867188 4.492188 24.164062 4.5 L 25.960938 4.539062 C 22.898438 3.078125 19.46875 2.617188 16.164062 3.171875 C 8.5625 4.4375 2.84375 10.882812 2.492188 18.609375 C 2.328125 22.304688 3.40625 26.023438 5.679688 29.109375 C 5.859375 29.351562 5.804688 29.695312 5.570312 29.875 C 5.328125 30.054688 4.984375 30 4.804688 29.765625 C 2.375 26.484375 1.226562 22.507812 1.398438 18.570312 C 1.773438 10.3125 7.875 3.4375 15.984375 2.085938 C 19.609375 1.484375 23.382812 2.03125 26.71875 3.695312 Z M 18.890625 13.929688 C 21.882812 13.929688 24.304688 16.351562 24.304688 19.34375 C 24.304688 22.335938 21.875 24.757812 18.890625 24.757812 C 15.898438 24.757812 13.46875 22.335938 13.46875 19.34375 C 13.46875 16.359375 15.898438 13.929688 18.890625 13.929688 Z M 21.945312 16.296875 C 20.257812 14.609375 17.515625 14.609375 15.828125 16.296875 C 14.140625 17.984375 14.140625 20.71875 15.828125 22.414062 C 17.515625 24.101562 20.257812 24.101562 21.945312 22.414062 C 23.632812 20.71875 23.632812 17.984375 21.945312 16.296875 Z M 21.945312 16.296875 "/>
</g>
</svg>
