<?xml version="1.0" encoding="UTF-8"?>
<svg xmlns="http://www.w3.org/2000/svg" xmlns:xlink="http://www.w3.org/1999/xlink" width="40px" height="40px" viewBox="0 0 40 40" version="1.1">
<g id="surface1">
<path style=" stroke:none;fill-rule:nonzero;fill:rgb(0%,0%,0%);fill-opacity:1;" d="M 24.925781 12.148438 L 15.214844 12.148438 C 13.46875 12.148438 12.046875 13.566406 12.046875 15.3125 L 12.046875 24.6875 C 12.046875 26.433594 13.46875 27.851562 15.214844 27.851562 L 24.925781 27.851562 C 26.671875 27.851562 28.09375 26.433594 28.09375 24.6875 L 28.09375 15.3125 C 28.09375 13.566406 26.671875 12.148438 24.925781 12.148438 Z M 26.890625 24.6875 C 26.890625 25.769531 26.011719 26.652344 24.925781 26.652344 L 15.214844 26.652344 C 14.128906 26.652344 13.246094 25.769531 13.246094 24.6875 L 13.246094 15.3125 C 13.246094 14.230469 14.128906 13.347656 15.214844 13.347656 L 24.925781 13.347656 C 26.011719 13.347656 26.890625 14.230469 26.890625 15.3125 Z M 26.890625 24.6875 "/>
<path style=" stroke:none;fill-rule:nonzero;fill:rgb(0%,0%,0%);fill-opacity:1;" d="M 15.804688 7.714844 L 15.804688 9.988281 C 15.804688 10.320312 16.074219 10.589844 16.40625 10.589844 C 16.738281 10.589844 17.003906 10.320312 17.003906 9.988281 L 17.003906 7.714844 C 18.074219 7.445312 18.867188 6.476562 18.867188 5.328125 C 18.867188 3.972656 17.761719 2.867188 16.40625 2.867188 C 15.046875 2.867188 13.945312 3.972656 13.945312 5.328125 C 13.945312 6.476562 14.738281 7.445312 15.804688 7.714844 Z M 16.40625 4.066406 C 17.101562 4.066406 17.667969 4.632812 17.667969 5.328125 C 17.667969 6.023438 17.101562 6.589844 16.40625 6.589844 C 15.710938 6.589844 15.144531 6.023438 15.144531 5.328125 C 15.144531 4.632812 15.710938 4.066406 16.40625 4.066406 Z M 16.40625 4.066406 "/>
<path style=" stroke:none;fill-rule:nonzero;fill:rgb(0%,0%,0%);fill-opacity:1;" d="M 22.855469 7.714844 L 22.855469 9.988281 C 22.855469 10.320312 23.125 10.589844 23.457031 10.589844 C 23.789062 10.589844 24.054688 10.320312 24.054688 9.988281 L 24.054688 7.714844 C 25.125 7.445312 25.917969 6.476562 25.917969 5.328125 C 25.917969 3.972656 24.8125 2.867188 23.457031 2.867188 C 22.097656 2.867188 20.996094 3.972656 20.996094 5.328125 C 20.996094 6.476562 21.789062 7.445312 22.855469 7.714844 Z M 23.457031 4.066406 C 24.152344 4.066406 24.71875 4.632812 24.71875 5.328125 C 24.71875 6.023438 24.152344 6.589844 23.457031 6.589844 C 22.761719 6.589844 22.195312 6.023438 22.195312 5.328125 C 22.195312 4.632812 22.761719 4.066406 23.457031 4.066406 Z M 23.457031 4.066406 "/>
<path style=" stroke:none;fill-rule:nonzero;fill:rgb(0%,0%,0%);fill-opacity:1;" d="M 24.195312 32.285156 L 24.195312 30.011719 C 24.195312 29.679688 23.925781 29.410156 23.59375 29.410156 C 23.261719 29.410156 22.996094 29.679688 22.996094 30.011719 L 22.996094 32.285156 C 21.925781 32.554688 21.132812 33.523438 21.132812 34.671875 C 21.132812 36.027344 22.238281 37.132812 23.59375 37.132812 C 24.953125 37.132812 26.054688 36.027344 26.054688 34.671875 C 26.054688 33.523438 25.261719 32.554688 24.195312 32.285156 Z M 23.59375 35.933594 C 22.898438 35.933594 22.332031 35.367188 22.332031 34.671875 C 22.332031 33.976562 22.898438 33.410156 23.59375 33.410156 C 24.289062 33.410156 24.855469 33.976562 24.855469 34.671875 C 24.855469 35.367188 24.289062 35.933594 23.59375 35.933594 Z M 23.59375 35.933594 "/>
<path style=" stroke:none;fill-rule:nonzero;fill:rgb(0%,0%,0%);fill-opacity:1;" d="M 17.144531 32.285156 L 17.144531 30.011719 C 17.144531 29.679688 16.875 29.410156 16.542969 29.410156 C 16.210938 29.410156 15.945312 29.679688 15.945312 30.011719 L 15.945312 32.285156 C 14.875 32.554688 14.082031 33.523438 14.082031 34.671875 C 14.082031 36.027344 15.1875 37.132812 16.542969 37.132812 C 17.902344 37.132812 19.003906 36.027344 19.003906 34.671875 C 19.003906 33.523438 18.210938 32.554688 17.144531 32.285156 Z M 16.542969 35.933594 C 15.847656 35.933594 15.28125 35.367188 15.28125 34.671875 C 15.28125 33.976562 15.847656 33.410156 16.542969 33.410156 C 17.238281 33.410156 17.804688 33.976562 17.804688 34.671875 C 17.804688 35.367188 17.238281 35.933594 16.542969 35.933594 Z M 16.542969 35.933594 "/>
<path style=" stroke:none;fill-rule:nonzero;fill:rgb(0%,0%,0%);fill-opacity:1;" d="M 30.011719 17.003906 L 32.285156 17.003906 C 32.554688 18.074219 33.523438 18.867188 34.671875 18.867188 C 36.027344 18.867188 37.132812 17.761719 37.132812 16.40625 C 37.132812 15.046875 36.027344 13.945312 34.671875 13.945312 C 33.523438 13.945312 32.554688 14.738281 32.285156 15.804688 L 30.011719 15.804688 C 29.679688 15.804688 29.410156 16.074219 29.410156 16.40625 C 29.410156 16.738281 29.679688 17.003906 30.011719 17.003906 Z M 34.671875 15.144531 C 35.367188 15.144531 35.933594 15.710938 35.933594 16.40625 C 35.933594 17.101562 35.367188 17.667969 34.671875 17.667969 C 33.976562 17.667969 33.410156 17.101562 33.410156 16.40625 C 33.410156 15.710938 33.976562 15.144531 34.671875 15.144531 Z M 34.671875 15.144531 "/>
<path style=" stroke:none;fill-rule:nonzero;fill:rgb(0%,0%,0%);fill-opacity:1;" d="M 34.671875 20.996094 C 33.523438 20.996094 32.554688 21.789062 32.285156 22.855469 L 30.011719 22.855469 C 29.679688 22.855469 29.410156 23.125 29.410156 23.457031 C 29.410156 23.789062 29.679688 24.054688 30.011719 24.054688 L 32.285156 24.054688 C 32.554688 25.125 33.523438 25.917969 34.671875 25.917969 C 36.027344 25.917969 37.132812 24.8125 37.132812 23.457031 C 37.132812 22.097656 36.027344 20.996094 34.671875 20.996094 Z M 34.671875 24.71875 C 33.976562 24.71875 33.410156 24.152344 33.410156 23.457031 C 33.410156 22.761719 33.976562 22.195312 34.671875 22.195312 C 35.367188 22.195312 35.933594 22.761719 35.933594 23.457031 C 35.933594 24.152344 35.367188 24.71875 34.671875 24.71875 Z M 34.671875 24.71875 "/>
<path style=" stroke:none;fill-rule:nonzero;fill:rgb(0%,0%,0%);fill-opacity:1;" d="M 9.988281 22.996094 L 7.714844 22.996094 C 7.445312 21.925781 6.476562 21.132812 5.328125 21.132812 C 3.972656 21.132812 2.867188 22.238281 2.867188 23.59375 C 2.867188 24.953125 3.972656 26.054688 5.328125 26.054688 C 6.476562 26.054688 7.445312 25.261719 7.714844 24.195312 L 9.988281 24.195312 C 10.320312 24.195312 10.589844 23.925781 10.589844 23.59375 C 10.589844 23.261719 10.320312 22.996094 9.988281 22.996094 Z M 5.328125 24.855469 C 4.632812 24.855469 4.066406 24.289062 4.066406 23.59375 C 4.066406 22.898438 4.632812 22.332031 5.328125 22.332031 C 6.023438 22.332031 6.589844 22.898438 6.589844 23.59375 C 6.589844 24.289062 6.023438 24.855469 5.328125 24.855469 Z M 5.328125 24.855469 "/>
<path style=" stroke:none;fill-rule:nonzero;fill:rgb(0%,0%,0%);fill-opacity:1;" d="M 9.988281 15.945312 L 7.714844 15.945312 C 7.445312 14.875 6.476562 14.082031 5.328125 14.082031 C 3.972656 14.082031 2.867188 15.1875 2.867188 16.542969 C 2.867188 17.902344 3.972656 19.003906 5.328125 19.003906 C 6.476562 19.003906 7.445312 18.210938 7.714844 17.144531 L 9.988281 17.144531 C 10.320312 17.144531 10.589844 16.875 10.589844 16.542969 C 10.589844 16.210938 10.320312 15.945312 9.988281 15.945312 Z M 5.328125 17.804688 C 4.632812 17.804688 4.066406 17.238281 4.066406 16.542969 C 4.066406 15.847656 4.632812 15.28125 5.328125 15.28125 C 6.023438 15.28125 6.589844 15.847656 6.589844 16.542969 C 6.589844 17.238281 6.023438 17.804688 5.328125 17.804688 Z M 5.328125 17.804688 "/>
<path style=" stroke:none;fill-rule:nonzero;fill:rgb(0%,0%,0%);fill-opacity:1;" d="M 19.40625 16.777344 C 19.242188 16.410156 18.875 16.171875 18.472656 16.171875 C 18.066406 16.171875 17.699219 16.410156 17.539062 16.777344 L 14.949219 22.625 C 14.765625 23.039062 15.066406 23.503906 15.519531 23.503906 C 15.769531 23.503906 15.992188 23.355469 16.09375 23.128906 L 16.585938 21.996094 C 16.613281 21.933594 16.675781 21.894531 16.742188 21.894531 L 20.195312 21.894531 C 20.261719 21.894531 20.324219 21.933594 20.351562 21.996094 L 20.84375 23.125 C 20.941406 23.355469 21.167969 23.503906 21.417969 23.503906 C 21.871094 23.503906 22.175781 23.039062 21.992188 22.621094 Z M 19.585938 20.8125 L 17.367188 20.8125 C 17.242188 20.8125 17.160156 20.6875 17.210938 20.574219 L 18.320312 18.019531 C 18.378906 17.882812 18.574219 17.882812 18.632812 18.019531 L 19.742188 20.574219 C 19.792969 20.6875 19.707031 20.8125 19.585938 20.8125 Z M 19.585938 20.8125 "/>
<path style=" stroke:none;fill-rule:nonzero;fill:rgb(0%,0%,0%);fill-opacity:1;" d="M 23.90625 16.171875 C 23.546875 16.171875 23.257812 16.460938 23.257812 16.820312 L 23.257812 22.855469 C 23.257812 23.214844 23.546875 23.503906 23.90625 23.503906 C 24.265625 23.503906 24.554688 23.214844 24.554688 22.855469 L 24.554688 16.820312 C 24.554688 16.460938 24.265625 16.171875 23.90625 16.171875 Z M 23.90625 16.171875 "/>
</g>
</svg>
