<?xml version="1.0" encoding="UTF-8"?>
<svg xmlns="http://www.w3.org/2000/svg" xmlns:xlink="http://www.w3.org/1999/xlink" width="40px" height="40px" viewBox="0 0 40 40" version="1.1">
<g id="surface1">
<path style=" stroke:none;fill-rule:nonzero;fill:rgb(0%,0%,0%);fill-opacity:1;" d="M 38.234375 37.589844 L 36.46875 37.589844 L 36.46875 25.234375 C 36.46875 24.882812 36.234375 24.648438 35.882812 24.648438 L 32.292969 24.648438 C 31.941406 24.648438 31.707031 24.882812 31.707031 25.234375 L 31.707031 37.589844 L 29.410156 37.589844 L 29.410156 21.589844 C 29.410156 21.234375 29.175781 21 28.824219 21 L 25.292969 21 C 24.941406 21 24.707031 21.234375 24.707031 21.589844 L 24.707031 31.765625 C 24.707031 32.117188 24.941406 32.351562 25.292969 32.351562 C 25.648438 32.351562 25.882812 32.117188 25.882812 31.765625 L 25.882812 22.175781 L 28.234375 22.175781 L 28.234375 37.589844 L 25.882812 37.589844 L 25.882812 34.824219 C 25.882812 34.46875 25.648438 34.234375 25.292969 34.234375 C 24.941406 34.234375 24.707031 34.46875 24.707031 34.824219 L 24.707031 37.589844 L 22.351562 37.589844 L 22.351562 30 C 22.351562 29.648438 22.117188 29.410156 21.765625 29.410156 L 18.234375 29.410156 C 17.882812 29.410156 17.648438 29.648438 17.648438 30 L 17.648438 37.589844 L 15.292969 37.589844 L 15.292969 29.117188 C 15.292969 28.765625 15.058594 28.53125 14.707031 28.53125 L 11.175781 28.53125 C 10.824219 28.53125 10.589844 28.765625 10.589844 29.117188 L 10.589844 37.589844 L 8.292969 37.589844 L 8.292969 33.648438 C 8.292969 33.292969 8.058594 33.058594 7.707031 33.058594 L 4.117188 33.058594 C 3.765625 33.058594 3.53125 33.292969 3.53125 33.648438 L 3.53125 37.589844 L 1.765625 37.589844 C 1.410156 37.589844 1.175781 37.824219 1.175781 38.175781 C 1.175781 38.53125 1.410156 38.765625 1.765625 38.765625 L 38.234375 38.765625 C 38.589844 38.765625 38.824219 38.53125 38.824219 38.175781 C 38.824219 37.824219 38.589844 37.589844 38.234375 37.589844 Z M 4.707031 37.589844 L 4.707031 34.234375 L 7.117188 34.234375 L 7.117188 37.589844 Z M 11.765625 37.589844 L 11.765625 29.707031 L 14.117188 29.707031 L 14.117188 37.589844 Z M 18.824219 37.589844 L 18.824219 30.589844 L 21.175781 30.589844 L 21.175781 37.589844 Z M 32.882812 37.589844 L 32.882812 25.824219 L 35.292969 25.824219 L 35.292969 37.589844 Z M 32.882812 37.589844 "/>
<path style=" stroke:none;fill-rule:nonzero;fill:rgb(0%,0%,0%);fill-opacity:1;" d="M 5.882812 26.882812 C 4.589844 26.882812 3.53125 27.941406 3.53125 29.234375 C 3.53125 30.53125 4.589844 31.589844 5.882812 31.589844 C 7.175781 31.589844 8.234375 30.53125 8.234375 29.234375 C 8.234375 28.824219 8.117188 28.410156 7.882812 28.058594 L 11.410156 24.46875 C 11.824219 24.824219 12.351562 25 12.882812 25 C 13.941406 25 14.765625 24.292969 15.117188 23.410156 L 17.648438 23.882812 C 17.765625 25.058594 18.765625 26.058594 19.941406 26.058594 C 21.234375 26.058594 22.292969 25 22.292969 23.707031 C 22.292969 23.117188 22.058594 22.648438 21.765625 22.234375 L 26.175781 16.234375 C 26.46875 16.351562 26.707031 16.410156 27.058594 16.410156 C 27.648438 16.410156 28.234375 16.175781 28.648438 15.824219 L 31.941406 18 C 31.824219 18.234375 31.765625 18.53125 31.765625 18.824219 C 31.765625 20.117188 32.824219 21.175781 34.117188 21.175781 C 35.410156 21.175781 36.46875 20.117188 36.46875 18.824219 C 36.46875 17.53125 35.410156 16.46875 34.117188 16.46875 C 33.53125 16.46875 33 16.707031 32.589844 17.058594 L 29.234375 14.882812 C 29.292969 14.648438 29.351562 14.410156 29.351562 14.117188 C 29.351562 12.824219 28.292969 11.765625 27 11.765625 C 25.707031 11.765625 24.648438 12.824219 24.648438 14.117188 C 24.648438 14.707031 24.882812 15.175781 25.175781 15.589844 L 20.765625 21.589844 C 20.46875 21.46875 20.234375 21.410156 19.882812 21.410156 C 18.941406 21.410156 18.117188 22 17.765625 22.765625 L 15.117188 22.292969 C 14.882812 21.234375 13.941406 20.410156 12.824219 20.410156 C 11.53125 20.410156 10.46875 21.46875 10.46875 22.765625 C 10.46875 23.058594 10.53125 23.292969 10.648438 23.589844 L 7.058594 27.234375 C 6.707031 27.058594 6.351562 26.882812 5.882812 26.882812 Z M 5.882812 30.410156 C 5.234375 30.410156 4.707031 29.882812 4.707031 29.234375 C 4.707031 28.589844 5.234375 28.058594 5.882812 28.058594 C 6.53125 28.058594 7.058594 28.589844 7.058594 29.234375 C 7.058594 29.882812 6.53125 30.410156 5.882812 30.410156 Z M 34.117188 17.589844 C 34.765625 17.589844 35.292969 18.117188 35.292969 18.765625 C 35.292969 19.410156 34.765625 19.941406 34.117188 19.941406 C 33.46875 19.941406 32.941406 19.410156 32.941406 18.765625 C 32.941406 18.117188 33.46875 17.589844 34.117188 17.589844 Z M 27.058594 12.882812 C 27.707031 12.882812 28.234375 13.410156 28.234375 14.058594 C 28.234375 14.707031 27.707031 15.234375 27.058594 15.234375 C 26.410156 15.234375 25.882812 14.707031 25.882812 14.058594 C 25.882812 13.410156 26.410156 12.882812 27.058594 12.882812 Z M 20 22.589844 C 20.589844 22.589844 21.175781 23.117188 21.175781 23.765625 C 21.175781 24.410156 20.648438 24.941406 20 24.941406 C 19.351562 24.941406 18.824219 24.410156 18.824219 23.765625 C 18.824219 23.117188 19.351562 22.589844 20 22.589844 Z M 12.941406 21.53125 C 13.589844 21.53125 14.117188 22.058594 14.117188 22.707031 C 14.117188 23.351562 13.589844 23.882812 12.941406 23.882812 C 12.292969 23.882812 11.765625 23.351562 11.765625 22.707031 C 11.765625 22.058594 12.292969 21.53125 12.941406 21.53125 Z M 12.941406 21.53125 "/>
<path style=" stroke:none;fill-rule:nonzero;fill:rgb(0%,0%,0%);fill-opacity:1;" d="M 8.707031 1.234375 C 4.351562 1.941406 1.175781 5.707031 1.175781 10.117188 C 1.175781 14.53125 4.351562 18.234375 8.707031 18.941406 C 9.058594 19 9.410156 18.707031 9.410156 18.351562 L 9.410156 15.117188 C 9.410156 14.824219 9.234375 14.648438 9 14.53125 C 7 14 5.589844 12.175781 5.589844 10.058594 C 5.589844 7.941406 7 6.117188 9 5.589844 C 9.234375 5.53125 9.410156 5.292969 9.410156 5.058594 L 9.410156 1.824219 C 9.410156 1.46875 9.058594 1.175781 8.707031 1.234375 Z M 8.234375 4.589844 C 5.941406 5.410156 4.351562 7.589844 4.351562 10.058594 C 4.351562 12.53125 5.941406 14.707031 8.234375 15.53125 L 8.234375 17.648438 C 4.765625 16.765625 2.351562 13.707031 2.351562 10.117188 C 2.351562 6.53125 4.765625 3.410156 8.234375 2.53125 Z M 8.234375 4.589844 "/>
<path style=" stroke:none;fill-rule:nonzero;fill:rgb(0%,0%,0%);fill-opacity:1;" d="M 10.941406 18.410156 C 10.941406 18.765625 11.292969 19.058594 11.648438 19 C 15.46875 18.351562 18.410156 15.410156 19.058594 11.589844 C 19.117188 11.234375 18.824219 10.882812 18.46875 10.882812 L 15.234375 10.882812 C 14.941406 10.882812 14.765625 11.058594 14.648438 11.292969 C 14.234375 12.882812 13 14.117188 11.410156 14.53125 C 11.175781 14.589844 11 14.824219 11 15.117188 L 11 18.410156 Z M 12.117188 15.589844 C 13.765625 15 15 13.707031 15.589844 12.117188 L 17.707031 12.117188 C 17 14.882812 14.882812 17 12.117188 17.707031 Z M 12.117188 15.589844 "/>
<path style=" stroke:none;fill-rule:nonzero;fill:rgb(0%,0%,0%);fill-opacity:1;" d="M 11.410156 5.589844 C 13 6 14.234375 7.292969 14.648438 8.824219 C 14.707031 9.058594 14.941406 9.234375 15.234375 9.234375 L 18.46875 9.234375 C 18.824219 9.234375 19.117188 8.882812 19.058594 8.53125 C 18.410156 4.824219 15.46875 1.882812 11.648438 1.234375 C 11.292969 1.175781 10.941406 1.46875 10.941406 1.824219 L 10.941406 5.058594 C 10.941406 5.292969 11.117188 5.53125 11.410156 5.589844 Z M 12.117188 2.53125 C 14.882812 3.234375 17 5.351562 17.707031 8.117188 L 15.589844 8.117188 C 15 6.46875 13.707031 5.175781 12.117188 4.589844 Z M 12.117188 2.53125 "/>
<path style=" stroke:none;fill-rule:nonzero;fill:rgb(0%,0%,0%);fill-opacity:1;" d="M 36.589844 3.53125 C 36.941406 3.53125 37.175781 3.292969 37.175781 2.941406 C 37.175781 2.589844 36.941406 2.351562 36.589844 2.351562 L 31.941406 2.351562 C 31.589844 2.351562 31.351562 2.589844 31.351562 2.941406 C 31.351562 3.292969 31.589844 3.53125 31.941406 3.53125 Z M 36.589844 3.53125 "/>
<path style=" stroke:none;fill-rule:nonzero;fill:rgb(0%,0%,0%);fill-opacity:1;" d="M 29.53125 2.351562 L 24.234375 2.351562 C 23.882812 2.351562 23.648438 2.589844 23.648438 2.941406 C 23.648438 3.292969 23.882812 3.53125 24.234375 3.53125 L 29.53125 3.53125 C 29.882812 3.53125 30.117188 3.292969 30.117188 2.941406 C 30.117188 2.589844 29.882812 2.351562 29.53125 2.351562 Z M 29.53125 2.351562 "/>
<path style=" stroke:none;fill-rule:nonzero;fill:rgb(0%,0%,0%);fill-opacity:1;" d="M 24.234375 6.589844 L 26.234375 6.589844 C 26.589844 6.589844 26.824219 6.351562 26.824219 6 C 26.824219 5.648438 26.589844 5.410156 26.234375 5.410156 L 24.234375 5.410156 C 23.882812 5.410156 23.648438 5.648438 23.648438 6 C 23.648438 6.351562 23.941406 6.589844 24.234375 6.589844 Z M 24.234375 6.589844 "/>
<path style=" stroke:none;fill-rule:nonzero;fill:rgb(0%,0%,0%);fill-opacity:1;" d="M 37.175781 9.058594 C 37.175781 8.707031 36.941406 8.46875 36.589844 8.46875 L 33.707031 8.46875 C 33.351562 8.46875 33.117188 8.707031 33.117188 9.058594 C 33.117188 9.410156 33.351562 9.648438 33.707031 9.648438 L 36.589844 9.648438 C 36.882812 9.648438 37.175781 9.351562 37.175781 9.058594 Z M 37.175781 9.058594 "/>
<path style=" stroke:none;fill-rule:nonzero;fill:rgb(0%,0%,0%);fill-opacity:1;" d="M 24.234375 8.46875 C 23.882812 8.46875 23.648438 8.707031 23.648438 9.058594 C 23.648438 9.410156 23.882812 9.648438 24.234375 9.648438 L 31.882812 9.648438 C 32.234375 9.648438 32.46875 9.410156 32.46875 9.058594 C 32.46875 8.707031 32.234375 8.46875 31.882812 8.46875 Z M 24.234375 8.46875 "/>
<path style=" stroke:none;fill-rule:nonzero;fill:rgb(0%,0%,0%);fill-opacity:1;" d="M 27.765625 6 C 27.765625 6.351562 28 6.589844 28.351562 6.589844 L 36.589844 6.589844 C 36.941406 6.589844 37.175781 6.351562 37.175781 6 C 37.175781 5.648438 36.941406 5.410156 36.589844 5.410156 L 28.351562 5.410156 C 28.058594 5.410156 27.765625 5.648438 27.765625 6 Z M 27.765625 6 "/>
</g>
</svg>
