<?xml version="1.0" encoding="UTF-8"?>
<svg xmlns="http://www.w3.org/2000/svg" xmlns:xlink="http://www.w3.org/1999/xlink" width="40px" height="40px" viewBox="0 0 40 40" version="1.1">
<g id="surface1">
<path style=" stroke:none;fill-rule:nonzero;fill:rgb(0%,0%,0%);fill-opacity:1;" d="M 9.941406 5.199219 L 12.410156 5.199219 C 12.738281 5.199219 13 4.933594 13 4.609375 C 13 4.28125 12.738281 4.019531 12.410156 4.019531 L 9.941406 4.019531 C 9.617188 4.019531 9.351562 4.28125 9.351562 4.609375 C 9.351562 4.933594 9.617188 5.199219 9.941406 5.199219 Z M 9.941406 5.199219 "/>
<path style=" stroke:none;fill-rule:nonzero;fill:rgb(0%,0%,0%);fill-opacity:1;" d="M 17.511719 5.199219 C 17.835938 5.199219 18.101562 4.933594 18.101562 4.609375 C 18.101562 4.28125 17.835938 4.019531 17.511719 4.019531 L 15.058594 4.019531 C 14.734375 4.019531 14.46875 4.28125 14.46875 4.609375 C 14.46875 4.933594 14.734375 5.199219 15.058594 5.199219 Z M 17.511719 5.199219 "/>
<path style=" stroke:none;fill-rule:nonzero;fill:rgb(0%,0%,0%);fill-opacity:1;" d="M 9.941406 7.667969 L 17.414062 7.667969 C 17.742188 7.667969 18.003906 7.40625 18.003906 7.078125 C 18.003906 6.753906 17.742188 6.488281 17.414062 6.488281 L 9.941406 6.488281 C 9.617188 6.488281 9.351562 6.753906 9.351562 7.078125 C 9.351562 7.40625 9.617188 7.667969 9.941406 7.667969 Z M 9.941406 7.667969 "/>
<path style=" stroke:none;fill-rule:nonzero;fill:rgb(0%,0%,0%);fill-opacity:1;" d="M 9.84375 13.847656 C 9.972656 13.921875 10.074219 13.996094 10.15625 14.078125 C 10.234375 14.15625 10.292969 14.277344 10.335938 14.4375 C 10.351562 14.503906 10.363281 14.648438 10.371094 14.867188 C 10.378906 15.085938 10.386719 15.378906 10.394531 15.738281 C 10.398438 15.957031 10.453125 16.148438 10.554688 16.3125 C 10.660156 16.476562 10.8125 16.605469 11.003906 16.699219 C 11.195312 16.789062 11.414062 16.835938 11.660156 16.835938 C 12.058594 16.835938 12.257812 16.691406 12.257812 16.402344 C 12.257812 16.277344 12.222656 16.175781 12.15625 16.101562 C 12.089844 16.023438 12.003906 15.980469 11.902344 15.96875 C 11.777344 15.949219 11.6875 15.933594 11.636719 15.917969 C 11.585938 15.898438 11.542969 15.859375 11.507812 15.800781 C 11.472656 15.742188 11.445312 15.65625 11.433594 15.542969 C 11.421875 15.429688 11.414062 15.257812 11.414062 15.019531 C 11.414062 14.703125 11.394531 14.445312 11.351562 14.242188 C 11.308594 14.039062 11.230469 13.875 11.125 13.746094 C 11.015625 13.613281 10.867188 13.496094 10.675781 13.390625 C 10.875 13.277344 11.03125 13.152344 11.136719 13.015625 C 11.246094 12.875 11.316406 12.707031 11.351562 12.507812 C 11.390625 12.3125 11.410156 12.058594 11.414062 11.75 C 11.421875 11.4375 11.433594 11.222656 11.453125 11.113281 C 11.472656 11.003906 11.507812 10.929688 11.574219 10.890625 C 11.636719 10.851562 11.746094 10.824219 11.902344 10.804688 C 12.007812 10.792969 12.09375 10.75 12.160156 10.675781 C 12.222656 10.601562 12.257812 10.5 12.257812 10.371094 C 12.257812 10.085938 12.058594 9.945312 11.660156 9.945312 C 11.28125 9.945312 10.976562 10.042969 10.75 10.238281 C 10.519531 10.4375 10.402344 10.699219 10.394531 11.03125 C 10.382812 11.5625 10.375 11.902344 10.371094 12.039062 C 10.367188 12.179688 10.347656 12.308594 10.3125 12.429688 C 10.277344 12.546875 10.21875 12.644531 10.136719 12.71875 C 10.054688 12.796875 9.917969 12.882812 9.722656 12.992188 C 9.566406 13.082031 9.488281 13.214844 9.488281 13.390625 C 9.488281 13.511719 9.515625 13.601562 9.570312 13.660156 C 9.621094 13.714844 9.714844 13.777344 9.84375 13.847656 Z M 9.84375 13.847656 "/>
<path style=" stroke:none;fill-rule:nonzero;fill:rgb(0%,0%,0%);fill-opacity:1;" d="M 15.851562 13.660156 C 15.90625 13.601562 15.933594 13.511719 15.933594 13.390625 C 15.933594 13.214844 15.855469 13.082031 15.699219 12.992188 C 15.503906 12.882812 15.367188 12.796875 15.285156 12.71875 C 15.199219 12.644531 15.144531 12.546875 15.109375 12.429688 C 15.074219 12.308594 15.054688 12.179688 15.050781 12.039062 C 15.046875 11.902344 15.039062 11.5625 15.027344 11.03125 C 15.015625 10.699219 14.902344 10.4375 14.671875 10.238281 C 14.445312 10.042969 14.140625 9.945312 13.757812 9.945312 C 13.363281 9.945312 13.164062 10.085938 13.164062 10.371094 C 13.164062 10.5 13.199219 10.601562 13.261719 10.675781 C 13.328125 10.75 13.414062 10.792969 13.519531 10.804688 C 13.675781 10.824219 13.785156 10.851562 13.847656 10.890625 C 13.910156 10.929688 13.953125 11.003906 13.96875 11.113281 C 13.988281 11.222656 14 11.4375 14.003906 11.75 C 14.011719 12.058594 14.03125 12.3125 14.066406 12.507812 C 14.105469 12.707031 14.175781 12.875 14.285156 13.015625 C 14.390625 13.152344 14.542969 13.277344 14.746094 13.390625 C 14.554688 13.496094 14.40625 13.613281 14.300781 13.746094 C 14.191406 13.875 14.117188 14.039062 14.070312 14.242188 C 14.027344 14.445312 14.003906 14.703125 14.003906 15.019531 C 14.003906 15.257812 14 15.429688 13.988281 15.542969 C 13.976562 15.65625 13.953125 15.742188 13.917969 15.800781 C 13.878906 15.859375 13.835938 15.898438 13.785156 15.917969 C 13.734375 15.933594 13.644531 15.949219 13.519531 15.96875 C 13.417969 15.980469 13.335938 16.023438 13.265625 16.101562 C 13.199219 16.175781 13.164062 16.277344 13.164062 16.402344 C 13.164062 16.691406 13.363281 16.835938 13.757812 16.835938 C 14.003906 16.835938 14.226562 16.789062 14.417969 16.699219 C 14.609375 16.609375 14.761719 16.476562 14.867188 16.3125 C 14.96875 16.148438 15.023438 15.957031 15.027344 15.738281 C 15.035156 15.378906 15.042969 15.085938 15.050781 14.867188 C 15.058594 14.648438 15.070312 14.503906 15.085938 14.4375 C 15.128906 14.277344 15.1875 14.15625 15.269531 14.078125 C 15.347656 13.996094 15.453125 13.921875 15.578125 13.847656 C 15.707031 13.777344 15.796875 13.714844 15.851562 13.660156 Z M 15.851562 13.660156 "/>
<path style=" stroke:none;fill-rule:nonzero;fill:rgb(0%,0%,0%);fill-opacity:1;" d="M 29.855469 11.296875 L 17.96875 11.296875 C 17.640625 11.296875 17.378906 11.5625 17.378906 11.886719 C 17.378906 12.214844 17.640625 12.476562 17.96875 12.476562 L 29.855469 12.476562 C 30.183594 12.476562 30.449219 12.214844 30.449219 11.886719 C 30.449219 11.5625 30.183594 11.296875 29.855469 11.296875 Z M 29.855469 11.296875 "/>
<path style=" stroke:none;fill-rule:nonzero;fill:rgb(0%,0%,0%);fill-opacity:1;" d="M 10.265625 23.148438 L 29.855469 23.148438 C 30.183594 23.148438 30.449219 22.882812 30.449219 22.558594 C 30.449219 22.234375 30.183594 21.96875 29.855469 21.96875 L 10.265625 21.96875 C 9.941406 21.96875 9.675781 22.234375 9.675781 22.558594 C 9.675781 22.882812 9.941406 23.148438 10.265625 23.148438 Z M 10.265625 23.148438 "/>
<path style=" stroke:none;fill-rule:nonzero;fill:rgb(0%,0%,0%);fill-opacity:1;" d="M 29.855469 14.855469 L 17.96875 14.855469 C 17.640625 14.855469 17.378906 15.117188 17.378906 15.445312 C 17.378906 15.769531 17.640625 16.035156 17.96875 16.035156 L 29.855469 16.035156 C 30.183594 16.035156 30.449219 15.769531 30.449219 15.445312 C 30.449219 15.117188 30.183594 14.855469 29.855469 14.855469 Z M 29.855469 14.855469 "/>
<path style=" stroke:none;fill-rule:nonzero;fill:rgb(0%,0%,0%);fill-opacity:1;" d="M 29.855469 18.410156 L 17.558594 18.410156 C 17.234375 18.410156 16.96875 18.675781 16.96875 19.003906 C 16.96875 19.328125 17.234375 19.59375 17.558594 19.59375 L 29.855469 19.59375 C 30.183594 19.59375 30.449219 19.328125 30.449219 19.003906 C 30.449219 18.675781 30.183594 18.410156 29.855469 18.410156 Z M 29.855469 18.410156 "/>
<path style=" stroke:none;fill-rule:nonzero;fill:rgb(0%,0%,0%);fill-opacity:1;" d="M 14.8125 18.410156 L 10.265625 18.410156 C 9.941406 18.410156 9.675781 18.675781 9.675781 19.003906 C 9.675781 19.328125 9.941406 19.59375 10.265625 19.59375 L 14.8125 19.59375 C 15.136719 19.59375 15.402344 19.328125 15.402344 19.003906 C 15.402344 18.675781 15.136719 18.410156 14.8125 18.410156 Z M 14.8125 18.410156 "/>
<path style=" stroke:none;fill-rule:nonzero;fill:rgb(0%,0%,0%);fill-opacity:1;" d="M 18.4375 35.347656 C 18.980469 35.859375 19.695312 36.140625 20.441406 36.140625 C 21.246094 36.140625 22.023438 35.804688 22.574219 35.21875 C 23.109375 34.652344 23.394531 33.910156 23.371094 33.128906 C 23.347656 32.347656 23.019531 31.621094 22.449219 31.082031 C 21.902344 30.570312 21.191406 30.289062 20.441406 30.289062 C 19.636719 30.289062 18.859375 30.625 18.308594 31.210938 C 17.773438 31.777344 17.492188 32.523438 17.515625 33.304688 C 17.539062 34.085938 17.867188 34.808594 18.4375 35.347656 Z M 19.167969 32.019531 C 19.503906 31.664062 19.953125 31.46875 20.441406 31.46875 C 20.890625 31.46875 21.316406 31.636719 21.640625 31.941406 C 21.980469 32.261719 22.175781 32.695312 22.191406 33.164062 C 22.203125 33.628906 22.035156 34.070312 21.714844 34.410156 C 21.382812 34.765625 20.929688 34.960938 20.441406 34.960938 C 19.996094 34.960938 19.570312 34.792969 19.246094 34.488281 C 18.90625 34.167969 18.710938 33.734375 18.695312 33.265625 C 18.683594 32.800781 18.851562 32.359375 19.167969 32.019531 Z M 19.167969 32.019531 "/>
<path style=" stroke:none;fill-rule:nonzero;fill:rgb(0%,0%,0%);fill-opacity:1;" d="M 34.863281 26.152344 C 35.191406 26.152344 35.453125 25.886719 35.453125 25.5625 L 35.453125 8.859375 C 35.453125 6.730469 35.390625 6.101562 33.832031 4.410156 L 31.4375 1.8125 C 31.300781 1.664062 31.179688 1.527344 31.066406 1.402344 C 30.074219 0.300781 29.640625 -0.078125 27.871094 -0.078125 L 7.042969 -0.078125 C 5.699219 -0.078125 4.609375 1.011719 4.609375 2.355469 L 4.609375 34.917969 C 4.609375 36.257812 5.699219 37.347656 7.042969 37.347656 L 15.128906 37.347656 C 15.171875 37.402344 15.214844 37.457031 15.265625 37.507812 L 16.144531 38.386719 C 16.410156 38.652344 16.761719 38.796875 17.136719 38.796875 C 17.511719 38.796875 17.863281 38.652344 18.128906 38.386719 L 18.289062 38.226562 C 18.332031 38.246094 18.375 38.265625 18.417969 38.28125 L 18.417969 38.507812 C 18.417969 39.277344 19.046875 39.90625 19.820312 39.90625 L 21.066406 39.90625 C 21.835938 39.90625 22.464844 39.277344 22.464844 38.507812 L 22.464844 38.28125 C 22.507812 38.265625 22.554688 38.246094 22.597656 38.226562 L 22.757812 38.386719 C 23.019531 38.652344 23.371094 38.796875 23.746094 38.796875 C 24.121094 38.796875 24.476562 38.652344 24.738281 38.386719 L 25.617188 37.507812 C 25.667969 37.457031 25.710938 37.402344 25.753906 37.347656 L 33.019531 37.347656 C 34.363281 37.347656 35.453125 36.257812 35.453125 34.917969 L 35.453125 28.308594 C 35.453125 27.980469 35.191406 27.71875 34.863281 27.71875 C 34.539062 27.71875 34.273438 27.980469 34.273438 28.308594 L 34.273438 34.917969 C 34.273438 35.605469 33.710938 36.167969 33.019531 36.167969 L 25.984375 36.167969 C 25.921875 35.929688 25.800781 35.707031 25.621094 35.527344 L 25.460938 35.367188 C 25.476562 35.324219 25.496094 35.28125 25.515625 35.238281 L 25.742188 35.238281 C 26.511719 35.238281 27.140625 34.609375 27.140625 33.835938 L 27.140625 32.59375 C 27.140625 31.820312 26.511719 31.191406 25.742188 31.191406 L 25.566406 31.191406 C 25.542969 31.136719 25.519531 31.078125 25.496094 31.023438 L 25.617188 30.902344 C 25.882812 30.636719 26.027344 30.285156 26.027344 29.914062 C 26.027344 29.539062 25.882812 29.1875 25.621094 28.921875 L 24.738281 28.042969 C 24.476562 27.777344 24.121094 27.632812 23.746094 27.632812 C 23.371094 27.632812 23.019531 27.777344 22.753906 28.042969 L 22.683594 28.113281 C 22.613281 28.082031 22.539062 28.050781 22.464844 28.019531 L 22.464844 27.921875 C 22.464844 27.152344 21.835938 26.523438 21.066406 26.523438 L 19.820312 26.523438 C 19.046875 26.523438 18.417969 27.152344 18.417969 27.921875 L 18.417969 28.019531 C 18.34375 28.050781 18.273438 28.082031 18.199219 28.117188 L 18.128906 28.042969 C 17.863281 27.777344 17.511719 27.632812 17.136719 27.632812 C 16.761719 27.632812 16.410156 27.777344 16.144531 28.042969 L 15.265625 28.921875 C 15 29.1875 14.855469 29.539062 14.855469 29.914062 C 14.855469 30.285156 15 30.636719 15.265625 30.902344 L 15.386719 31.023438 C 15.363281 31.078125 15.339844 31.136719 15.320312 31.191406 L 15.144531 31.191406 C 14.371094 31.191406 13.742188 31.820312 13.742188 32.59375 L 13.742188 33.835938 C 13.742188 34.609375 14.371094 35.238281 15.144531 35.238281 L 15.371094 35.238281 C 15.386719 35.28125 15.40625 35.324219 15.425781 35.367188 L 15.265625 35.527344 C 15.085938 35.707031 14.960938 35.929688 14.902344 36.167969 L 7.042969 36.167969 C 6.351562 36.167969 5.789062 35.605469 5.789062 34.917969 L 5.789062 2.355469 C 5.789062 1.664062 6.351562 1.101562 7.042969 1.101562 L 27.28125 1.101562 L 27.277344 6.375 C 27.277344 7.71875 28.371094 8.808594 29.710938 8.808594 L 34.273438 8.808594 L 34.273438 25.5625 C 34.273438 25.886719 34.539062 26.152344 34.863281 26.152344 Z M 15.144531 34.058594 C 15.023438 34.058594 14.921875 33.957031 14.921875 33.835938 L 14.921875 32.59375 C 14.921875 32.472656 15.023438 32.371094 15.144531 32.371094 L 15.746094 32.371094 C 16.007812 32.371094 16.238281 32.199219 16.3125 31.945312 C 16.390625 31.667969 16.496094 31.40625 16.621094 31.171875 C 16.738281 30.941406 16.695312 30.664062 16.511719 30.480469 L 16.097656 30.066406 C 16.042969 30.011719 16.035156 29.945312 16.035156 29.914062 C 16.035156 29.878906 16.042969 29.8125 16.101562 29.757812 L 16.980469 28.875 C 17.035156 28.820312 17.101562 28.8125 17.136719 28.8125 C 17.171875 28.8125 17.238281 28.820312 17.292969 28.875 L 17.667969 29.253906 C 17.855469 29.4375 18.144531 29.480469 18.375 29.347656 C 18.628906 29.207031 18.90625 29.085938 19.1875 28.996094 C 19.433594 28.917969 19.597656 28.691406 19.597656 28.433594 L 19.597656 27.921875 C 19.597656 27.804688 19.699219 27.703125 19.820312 27.703125 L 21.066406 27.703125 C 21.183594 27.703125 21.285156 27.804688 21.285156 27.921875 L 21.285156 28.433594 C 21.285156 28.691406 21.453125 28.917969 21.699219 28.996094 C 21.980469 29.085938 22.253906 29.207031 22.511719 29.347656 C 22.742188 29.480469 23.03125 29.4375 23.21875 29.25 L 23.589844 28.875 C 23.644531 28.820312 23.714844 28.8125 23.746094 28.8125 C 23.78125 28.8125 23.851562 28.820312 23.90625 28.875 L 24.785156 29.757812 C 24.839844 29.8125 24.847656 29.878906 24.847656 29.914062 C 24.847656 29.945312 24.839844 30.011719 24.785156 30.066406 L 24.371094 30.480469 C 24.191406 30.664062 24.148438 30.941406 24.265625 31.167969 C 24.394531 31.417969 24.496094 31.679688 24.570312 31.945312 C 24.644531 32.195312 24.875 32.371094 25.140625 32.371094 L 25.742188 32.371094 C 25.859375 32.371094 25.960938 32.472656 25.960938 32.59375 L 25.960938 33.835938 C 25.960938 33.957031 25.859375 34.058594 25.742188 34.058594 L 25.101562 34.058594 C 24.84375 34.058594 24.617188 34.222656 24.539062 34.46875 C 24.457031 34.726562 24.351562 34.972656 24.226562 35.207031 C 24.101562 35.433594 24.144531 35.71875 24.328125 35.902344 L 24.785156 36.363281 C 24.839844 36.417969 24.847656 36.484375 24.847656 36.515625 C 24.847656 36.550781 24.839844 36.617188 24.785156 36.671875 L 23.90625 37.550781 C 23.851562 37.609375 23.78125 37.617188 23.746094 37.617188 C 23.714844 37.617188 23.644531 37.609375 23.59375 37.554688 L 23.136719 37.09375 C 22.953125 36.910156 22.667969 36.867188 22.4375 36.992188 C 22.199219 37.121094 21.949219 37.226562 21.699219 37.304688 C 21.453125 37.378906 21.285156 37.609375 21.285156 37.867188 L 21.285156 38.507812 C 21.285156 38.625 21.183594 38.726562 21.066406 38.726562 L 19.820312 38.726562 C 19.699219 38.726562 19.597656 38.625 19.597656 38.507812 L 19.597656 37.867188 C 19.597656 37.609375 19.429688 37.378906 19.183594 37.304688 C 18.933594 37.226562 18.6875 37.121094 18.445312 36.992188 C 18.359375 36.945312 18.261719 36.921875 18.167969 36.921875 C 18.011719 36.921875 17.863281 36.980469 17.75 37.09375 L 17.292969 37.550781 C 17.238281 37.609375 17.171875 37.617188 17.136719 37.617188 C 17.101562 37.617188 17.035156 37.609375 16.980469 37.554688 L 16.097656 36.671875 C 16.074219 36.644531 16.058594 36.617188 16.046875 36.589844 C 16.046875 36.585938 16.046875 36.582031 16.042969 36.578125 C 16.039062 36.554688 16.035156 36.53125 16.035156 36.515625 C 16.035156 36.484375 16.042969 36.417969 16.101562 36.359375 L 16.558594 35.902344 C 16.742188 35.71875 16.78125 35.433594 16.660156 35.207031 C 16.53125 34.972656 16.425781 34.722656 16.347656 34.472656 C 16.269531 34.226562 16.042969 34.058594 15.785156 34.058594 Z M 29.710938 7.628906 C 29.019531 7.628906 28.457031 7.066406 28.457031 6.375 L 28.460938 1.117188 C 29.273438 1.175781 29.484375 1.410156 30.1875 2.191406 C 30.304688 2.320312 30.429688 2.460938 30.570312 2.609375 L 32.964844 5.210938 C 33.929688 6.261719 34.183594 6.699219 34.25 7.628906 Z M 29.710938 7.628906 "/>
</g>
</svg>
