<?xml version="1.0" encoding="UTF-8"?>
<svg xmlns="http://www.w3.org/2000/svg" xmlns:xlink="http://www.w3.org/1999/xlink" width="40px" height="40px" viewBox="0 0 40 40" version="1.1">
<g id="surface1">
<path style=" stroke:none;fill-rule:nonzero;fill:rgb(0%,0%,0%);fill-opacity:1;" d="M 36.25 30.625 L 21.8125 30.625 C 21.742188 30.347656 21.609375 30.085938 21.425781 29.867188 L 17.972656 25.84375 C 17.855469 25.707031 17.683594 25.625 17.5 25.625 L 10.625 25.625 L 10.625 25 C 10.625 24.65625 10.34375 24.375 10 24.375 L 1.25 24.375 C 0.90625 24.375 0.625 24.65625 0.625 25 L 0.625 38.75 C 0.625 39.09375 0.90625 39.375 1.25 39.375 L 6.25 39.375 C 6.59375 39.375 6.875 39.09375 6.875 38.75 L 6.875 38.125 L 10 38.125 C 10.34375 38.125 10.625 37.84375 10.625 37.5 L 10.625 36.875 L 14.8125 36.875 L 18.40625 39.269531 C 18.507812 39.339844 18.628906 39.375 18.75 39.375 C 18.796875 39.375 18.839844 39.371094 18.882812 39.359375 L 38.882812 34.984375 C 39.171875 34.921875 39.375 34.667969 39.375 34.375 L 39.375 33.75 C 39.371094 32.023438 37.976562 30.628906 36.25 30.625 Z M 5.625 38.125 L 1.875 38.125 L 1.875 25.625 L 5.625 25.625 Z M 9.375 36.875 L 6.875 36.875 L 6.875 25.625 L 9.375 25.625 Z M 38.125 33.875 L 18.875 38.082031 L 15.347656 35.730469 C 15.242188 35.660156 15.125 35.625 15 35.625 L 10.625 35.625 L 10.625 26.875 L 17.210938 26.875 L 20.472656 30.679688 C 20.570312 30.792969 20.625 30.9375 20.625 31.085938 L 20.625 31.875 C 20.625 32.21875 20.34375 32.5 20 32.5 L 19.269531 32.5 C 19.101562 32.5 18.941406 32.433594 18.824219 32.316406 L 16.066406 29.558594 L 15.183594 30.441406 L 17.941406 33.199219 C 18.292969 33.554688 18.769531 33.75 19.269531 33.75 L 20 33.75 C 21.035156 33.75 21.875 32.910156 21.875 31.875 L 36.25 31.875 C 37.285156 31.875 38.125 32.714844 38.125 33.75 Z M 38.125 33.875 "/>
<path style=" stroke:none;fill-rule:nonzero;fill:rgb(0%,0%,0%);fill-opacity:1;" d="M 38.75 19.375 L 37.5 19.375 L 37.5 5.625 C 37.5 4.589844 36.660156 3.75 35.625 3.75 L 31.214844 3.75 L 29.417969 1.9375 C 29.175781 1.695312 28.78125 1.695312 28.535156 1.9375 L 27.886719 2.585938 C 27.5625 2.417969 27.222656 2.277344 26.875 2.167969 L 26.875 1.25 C 26.875 0.90625 26.59375 0.625 26.25 0.625 L 23.75 0.625 C 23.40625 0.625 23.125 0.90625 23.125 1.25 L 23.125 2.167969 C 22.777344 2.277344 22.4375 2.417969 22.113281 2.585938 L 21.464844 1.9375 C 21.21875 1.695312 20.824219 1.695312 20.582031 1.9375 L 18.8125 3.707031 L 14.375 3.75 C 13.339844 3.75 12.5 4.589844 12.5 5.625 L 12.5 9.375 L 1.25 9.375 C 0.90625 9.375 0.625 9.65625 0.625 10 L 0.625 17.5 C 0.625 17.84375 0.90625 18.125 1.25 18.125 L 12.5 18.125 L 12.5 19.375 L 11.25 19.375 C 10.90625 19.375 10.625 19.65625 10.625 20 L 10.625 22.5 C 10.625 23.535156 11.464844 24.375 12.5 24.375 L 37.5 24.375 C 38.535156 24.375 39.375 23.535156 39.375 22.5 L 39.375 20 C 39.375 19.65625 39.09375 19.375 38.75 19.375 Z M 36.25 5.625 L 36.25 19.375 L 35 19.375 L 35 6.875 C 35 6.53125 34.71875 6.25 34.375 6.25 L 30.957031 6.25 C 30.847656 5.902344 30.707031 5.5625 30.539062 5.238281 L 30.777344 5 L 35.625 5 C 35.96875 5 36.25 5.28125 36.25 5.625 Z M 16.875 17.5 L 16.875 10 C 16.875 9.65625 16.59375 9.375 16.25 9.375 L 16.25 7.5 L 17.5 7.5 L 17.5 9.375 C 17.5 9.71875 17.78125 10 18.125 10 L 19.042969 10 C 19.152344 10.347656 19.292969 10.6875 19.460938 11.011719 L 18.8125 11.660156 C 18.570312 11.90625 18.570312 12.300781 18.8125 12.542969 L 20.582031 14.3125 C 20.824219 14.554688 21.21875 14.554688 21.464844 14.3125 L 22.113281 13.664062 C 22.4375 13.832031 22.777344 13.972656 23.125 14.082031 L 23.125 15 C 23.125 15.34375 23.40625 15.625 23.75 15.625 L 26.25 15.625 C 26.59375 15.625 26.875 15.34375 26.875 15 L 26.875 14.082031 C 27.222656 13.972656 27.5625 13.832031 27.886719 13.664062 L 28.535156 14.3125 C 28.78125 14.554688 29.175781 14.554688 29.417969 14.3125 L 31.1875 12.542969 C 31.429688 12.300781 31.429688 11.90625 31.1875 11.660156 L 30.539062 11.011719 C 30.707031 10.6875 30.847656 10.347656 30.957031 10 L 31.875 10 C 32.21875 10 32.5 9.71875 32.5 9.375 L 32.5 7.5 L 33.75 7.5 L 33.75 19.375 L 16.25 19.375 L 16.25 18.125 C 16.59375 18.125 16.875 17.84375 16.875 17.5 Z M 20.128906 7.015625 C 20.253906 6.464844 20.46875 5.941406 20.769531 5.46875 C 20.925781 5.222656 20.890625 4.898438 20.683594 4.691406 L 20.140625 4.148438 L 21.023438 3.265625 L 21.566406 3.808594 C 21.773438 4.015625 22.097656 4.050781 22.34375 3.894531 C 22.816406 3.59375 23.339844 3.378906 23.890625 3.253906 C 24.171875 3.1875 24.375 2.9375 24.375 2.644531 L 24.375 1.875 L 25.625 1.875 L 25.625 2.644531 C 25.625 2.9375 25.828125 3.1875 26.109375 3.253906 C 26.660156 3.378906 27.183594 3.59375 27.65625 3.894531 C 27.902344 4.050781 28.226562 4.015625 28.433594 3.808594 L 28.976562 3.265625 L 29.859375 4.148438 L 29.316406 4.691406 C 29.109375 4.898438 29.074219 5.222656 29.230469 5.46875 C 29.53125 5.941406 29.746094 6.464844 29.871094 7.015625 C 29.9375 7.296875 30.1875 7.5 30.480469 7.5 L 31.25 7.5 L 31.25 8.75 L 30.480469 8.75 C 30.1875 8.75 29.9375 8.953125 29.871094 9.234375 C 29.746094 9.785156 29.53125 10.308594 29.230469 10.78125 C 29.074219 11.027344 29.109375 11.351562 29.316406 11.558594 L 29.859375 12.101562 L 28.976562 12.984375 L 28.433594 12.441406 C 28.226562 12.234375 27.90625 12.199219 27.65625 12.355469 C 27.183594 12.65625 26.660156 12.871094 26.113281 12.996094 C 25.828125 13.0625 25.625 13.3125 25.625 13.605469 L 25.625 14.375 L 24.375 14.375 L 24.375 13.605469 C 24.375 13.3125 24.171875 13.0625 23.886719 12.996094 C 23.339844 12.871094 22.816406 12.65625 22.34375 12.355469 C 22.09375 12.199219 21.773438 12.234375 21.566406 12.441406 L 21.023438 12.984375 L 20.140625 12.101562 L 20.683594 11.558594 C 20.890625 11.351562 20.925781 11.027344 20.769531 10.78125 C 20.46875 10.308594 20.253906 9.785156 20.128906 9.234375 C 20.0625 8.953125 19.8125 8.75 19.519531 8.75 L 18.75 8.75 L 18.75 7.5 L 19.519531 7.5 C 19.8125 7.5 20.0625 7.296875 20.128906 7.015625 Z M 13.75 5.625 C 13.75 5.28125 14.03125 5 14.375 5 L 19.222656 5 L 19.460938 5.238281 C 19.292969 5.5625 19.152344 5.902344 19.042969 6.25 L 15.625 6.25 C 15.28125 6.25 15 6.53125 15 6.875 L 15 9.375 L 13.75 9.375 Z M 1.875 10.625 L 15.625 10.625 L 15.625 16.875 L 1.875 16.875 Z M 13.75 18.125 L 15 18.125 L 15 19.375 L 13.75 19.375 Z M 38.125 22.5 C 38.125 22.84375 37.84375 23.125 37.5 23.125 L 12.5 23.125 C 12.15625 23.125 11.875 22.84375 11.875 22.5 L 11.875 20.625 L 38.125 20.625 Z M 38.125 22.5 "/>
<path style=" stroke:none;fill-rule:nonzero;fill:rgb(0%,0%,0%);fill-opacity:1;" d="M 25 11.875 C 27.070312 11.875 28.75 10.195312 28.75 8.125 C 28.75 6.054688 27.070312 4.375 25 4.375 C 22.929688 4.375 21.25 6.054688 21.25 8.125 C 21.253906 10.195312 22.929688 11.871094 25 11.875 Z M 25 5.625 C 26.378906 5.625 27.5 6.746094 27.5 8.125 C 27.5 9.503906 26.378906 10.625 25 10.625 C 23.621094 10.625 22.5 9.503906 22.5 8.125 C 22.5 6.746094 23.621094 5.625 25 5.625 Z M 25 5.625 "/>
<path style=" stroke:none;fill-rule:nonzero;fill:rgb(0%,0%,0%);fill-opacity:1;" d="M 5.183594 11.433594 L 3.308594 13.308594 C 3.0625 13.550781 3.0625 13.949219 3.308594 14.191406 L 5.183594 16.066406 L 6.066406 15.183594 L 4.632812 13.75 L 6.066406 12.316406 Z M 5.183594 11.433594 "/>
<path style=" stroke:none;fill-rule:nonzero;fill:rgb(0%,0%,0%);fill-opacity:1;" d="M 12.316406 11.433594 L 11.433594 12.316406 L 12.867188 13.75 L 11.433594 15.183594 L 12.316406 16.066406 L 14.191406 14.191406 C 14.4375 13.949219 14.4375 13.550781 14.191406 13.308594 Z M 12.316406 11.433594 "/>
<path style=" stroke:none;fill-rule:nonzero;fill:rgb(0%,0%,0%);fill-opacity:1;" d="M 6.941406 15.96875 L 9.441406 10.96875 L 10.558594 11.53125 L 8.058594 16.527344 Z M 6.941406 15.96875 "/>
</g>
</svg>
