<?xml version="1.0" encoding="UTF-8"?>
<svg xmlns="http://www.w3.org/2000/svg" xmlns:xlink="http://www.w3.org/1999/xlink" width="40px" height="40px" viewBox="0 0 40 40" version="1.1">
<g id="surface1">
<path style=" stroke:none;fill-rule:nonzero;fill:rgb(0%,0%,0%);fill-opacity:1;" d="M 31.871094 13.820312 C 31.902344 13.542969 31.746094 13.277344 31.484375 13.171875 L 26.980469 11.351562 C 25.269531 10.671875 23.695312 9.691406 22.328125 8.457031 L 20.421875 6.722656 C 20.183594 6.507812 19.816406 6.507812 19.578125 6.722656 L 17.671875 8.457031 C 16.304688 9.691406 14.730469 10.671875 13.019531 11.351562 L 8.515625 13.171875 C 8.253906 13.277344 8.097656 13.542969 8.128906 13.820312 L 8.550781 17.460938 C 9.328125 24.148438 13.300781 30.113281 19.449219 33.835938 L 19.675781 33.972656 C 19.875 34.09375 20.125 34.09375 20.324219 33.972656 L 20.546875 33.835938 C 26.699219 30.113281 30.671875 24.148438 31.449219 17.460938 Z M 30.207031 17.316406 C 29.480469 23.582031 25.761719 29.183594 20 32.707031 C 14.238281 29.183594 10.519531 23.582031 9.792969 17.316406 L 9.425781 14.152344 L 13.488281 12.511719 C 15.335938 11.773438 17.035156 10.714844 18.511719 9.382812 L 20 8.03125 L 21.488281 9.382812 C 22.964844 10.714844 24.664062 11.773438 26.511719 12.511719 L 30.574219 14.152344 Z M 30.207031 17.316406 "/>
<path style=" stroke:none;fill-rule:nonzero;fill:rgb(0%,0%,0%);fill-opacity:1;" d="M 20 39.375 C 23.152344 39.375 26.253906 38.609375 29.042969 37.140625 L 28.457031 36.035156 C 21.199219 39.859375 12.273438 38.335938 6.699219 32.3125 C 1.125 26.292969 0.292969 17.277344 4.664062 10.332031 L 3.609375 9.667969 C -0.152344 15.636719 -0.371094 23.179688 3.035156 29.359375 C 6.445312 35.535156 12.945312 39.375 20 39.375 Z M 20 39.375 "/>
<path style=" stroke:none;fill-rule:nonzero;fill:rgb(0%,0%,0%);fill-opacity:1;" d="M 20 1.875 C 26.601562 1.875 32.679688 5.464844 35.867188 11.246094 C 39.058594 17.023438 38.855469 24.082031 35.335938 29.667969 L 36.390625 30.332031 C 41.066406 22.910156 40.171875 13.277344 34.214844 6.839844 C 28.257812 0.402344 18.71875 -1.230469 10.957031 2.859375 L 11.542969 3.964844 C 14.148438 2.59375 17.054688 1.875 20 1.875 Z M 20 1.875 "/>
<path style=" stroke:none;fill-rule:nonzero;fill:rgb(0%,0%,0%);fill-opacity:1;" d="M 24.375 13.75 L 15.625 13.75 C 14.589844 13.75 13.75 14.589844 13.75 15.625 L 13.75 16.875 C 13.75 17.335938 13.925781 17.785156 14.238281 18.125 C 13.925781 18.464844 13.75 18.914062 13.75 19.375 L 13.75 20.625 C 13.75 21.085938 13.925781 21.535156 14.238281 21.875 C 13.925781 22.214844 13.75 22.664062 13.75 23.125 L 13.75 24.375 C 13.75 25.410156 14.589844 26.25 15.625 26.25 L 24.375 26.25 C 25.410156 26.25 26.25 25.410156 26.25 24.375 L 26.25 23.125 C 26.25 22.664062 26.074219 22.214844 25.761719 21.875 C 26.074219 21.535156 26.25 21.085938 26.25 20.625 L 26.25 19.375 C 26.25 18.914062 26.074219 18.464844 25.761719 18.125 C 26.074219 17.785156 26.25 17.335938 26.25 16.875 L 26.25 15.625 C 26.25 14.589844 25.410156 13.75 24.375 13.75 Z M 25 24.375 C 25 24.71875 24.71875 25 24.375 25 L 15.625 25 C 15.28125 25 15 24.71875 15 24.375 L 15 23.125 C 15 22.78125 15.28125 22.5 15.625 22.5 L 24.375 22.5 C 24.71875 22.5 25 22.78125 25 23.125 Z M 25 20.625 C 25 20.96875 24.71875 21.25 24.375 21.25 L 15.625 21.25 C 15.28125 21.25 15 20.96875 15 20.625 L 15 19.375 C 15 19.03125 15.28125 18.75 15.625 18.75 L 24.375 18.75 C 24.71875 18.75 25 19.03125 25 19.375 Z M 25 16.875 C 25 17.21875 24.71875 17.5 24.375 17.5 L 15.625 17.5 C 15.28125 17.5 15 17.21875 15 16.875 L 15 15.625 C 15 15.28125 15.28125 15 15.625 15 L 24.375 15 C 24.71875 15 25 15.28125 25 15.625 Z M 25 16.875 "/>
<path style=" stroke:none;fill-rule:nonzero;fill:rgb(0%,0%,0%);fill-opacity:1;" d="M 15.625 15.625 L 16.875 15.625 L 16.875 16.875 L 15.625 16.875 Z M 15.625 15.625 "/>
<path style=" stroke:none;fill-rule:nonzero;fill:rgb(0%,0%,0%);fill-opacity:1;" d="M 19.375 15.625 L 24.375 15.625 L 24.375 16.875 L 19.375 16.875 Z M 19.375 15.625 "/>
<path style=" stroke:none;fill-rule:nonzero;fill:rgb(0%,0%,0%);fill-opacity:1;" d="M 15.625 19.375 L 16.875 19.375 L 16.875 20.625 L 15.625 20.625 Z M 15.625 19.375 "/>
<path style=" stroke:none;fill-rule:nonzero;fill:rgb(0%,0%,0%);fill-opacity:1;" d="M 19.375 19.375 L 24.375 19.375 L 24.375 20.625 L 19.375 20.625 Z M 19.375 19.375 "/>
<path style=" stroke:none;fill-rule:nonzero;fill:rgb(0%,0%,0%);fill-opacity:1;" d="M 15.625 23.125 L 16.875 23.125 L 16.875 24.375 L 15.625 24.375 Z M 15.625 23.125 "/>
<path style=" stroke:none;fill-rule:nonzero;fill:rgb(0%,0%,0%);fill-opacity:1;" d="M 19.375 23.125 L 24.375 23.125 L 24.375 24.375 L 19.375 24.375 Z M 19.375 23.125 "/>
<path style=" stroke:none;fill-rule:nonzero;fill:rgb(0%,0%,0%);fill-opacity:1;" d="M 30.625 36.25 L 34.375 36.25 C 34.71875 36.25 35 35.96875 35 35.625 L 35 31.875 C 35 31.53125 34.71875 31.25 34.375 31.25 L 30.625 31.25 C 30.28125 31.25 30 31.53125 30 31.875 L 30 35.625 C 30 35.96875 30.28125 36.25 30.625 36.25 Z M 31.25 32.5 L 33.75 32.5 L 33.75 35 L 31.25 35 Z M 31.25 32.5 "/>
<path style=" stroke:none;fill-rule:nonzero;fill:rgb(0%,0%,0%);fill-opacity:1;" d="M 5.625 8.75 L 9.375 8.75 C 9.71875 8.75 10 8.46875 10 8.125 L 10 4.375 C 10 4.03125 9.71875 3.75 9.375 3.75 L 5.625 3.75 C 5.28125 3.75 5 4.03125 5 4.375 L 5 8.125 C 5 8.46875 5.28125 8.75 5.625 8.75 Z M 6.25 5 L 8.75 5 L 8.75 7.5 L 6.25 7.5 Z M 6.25 5 "/>
</g>
</svg>
