<?xml version="1.0" encoding="UTF-8"?>
<svg xmlns="http://www.w3.org/2000/svg" xmlns:xlink="http://www.w3.org/1999/xlink" width="40px" height="40px" viewBox="0 0 40 40" version="1.1">
<g id="surface1">
<path style=" stroke:none;fill-rule:nonzero;fill:rgb(0%,0%,0%);fill-opacity:1;" d="M 35.085938 24.925781 L 29.320312 17.515625 C 29.230469 17.402344 29.09375 17.335938 28.949219 17.335938 C 28.804688 17.335938 28.667969 17.402344 28.578125 17.515625 L 28.527344 17.585938 L 28.167969 17.203125 C 28.53125 16.554688 28.816406 15.863281 29.019531 15.148438 L 30.808594 15.089844 C 31.160156 15.082031 31.4375 14.796875 31.4375 14.445312 L 31.4375 10.785156 C 31.4375 10.429688 31.160156 10.144531 30.808594 10.136719 L 29.019531 10.078125 C 28.816406 9.363281 28.53125 8.671875 28.167969 8.023438 L 29.394531 6.71875 C 29.636719 6.460938 29.628906 6.066406 29.378906 5.816406 L 26.792969 3.230469 C 26.542969 2.980469 26.148438 2.972656 25.890625 3.214844 L 24.585938 4.441406 C 23.9375 4.078125 23.246094 3.789062 22.527344 3.589844 L 22.472656 1.800781 C 22.464844 1.449219 22.179688 1.171875 21.824219 1.171875 L 18.164062 1.171875 C 17.8125 1.171875 17.527344 1.445312 17.519531 1.800781 L 17.464844 3.589844 C 16.746094 3.789062 16.054688 4.078125 15.40625 4.441406 L 14.101562 3.214844 C 13.84375 2.972656 13.449219 2.980469 13.199219 3.226562 L 10.609375 5.816406 C 10.363281 6.066406 10.355469 6.460938 10.597656 6.71875 L 11.824219 8.023438 C 11.460938 8.671875 11.171875 9.363281 10.972656 10.082031 L 9.183594 10.136719 C 8.832031 10.144531 8.554688 10.429688 8.554688 10.78125 L 8.554688 14.441406 C 8.554688 14.796875 8.832031 15.082031 9.183594 15.089844 L 10.972656 15.144531 C 11.171875 15.863281 11.460938 16.554688 11.824219 17.203125 L 11.46875 17.582031 L 11.421875 17.515625 C 11.332031 17.402344 11.195312 17.335938 11.050781 17.335938 C 10.90625 17.335938 10.769531 17.402344 10.679688 17.515625 L 4.914062 24.925781 C 4.800781 25.066406 4.78125 25.257812 4.859375 25.417969 C 4.9375 25.578125 5.101562 25.679688 5.28125 25.679688 L 8.296875 25.679688 L 8.296875 34.902344 C 8.296875 35.160156 8.507812 35.371094 8.765625 35.371094 C 9.023438 35.371094 9.234375 35.160156 9.234375 34.902344 L 9.234375 25.210938 C 9.234375 24.953125 9.023438 24.742188 8.765625 24.742188 L 6.242188 24.742188 L 11.050781 18.570312 L 15.859375 24.742188 L 13.335938 24.742188 C 13.078125 24.742188 12.867188 24.953125 12.867188 25.210938 L 12.867188 34.902344 C 12.867188 35.160156 13.078125 35.371094 13.335938 35.371094 C 13.59375 35.371094 13.804688 35.160156 13.804688 34.902344 L 13.804688 25.679688 L 16.820312 25.679688 C 17 25.679688 17.160156 25.578125 17.242188 25.417969 C 17.242188 25.414062 17.246094 25.40625 17.246094 25.402344 L 17.246094 38.359375 C 17.246094 38.617188 17.457031 38.828125 17.714844 38.828125 C 17.972656 38.828125 18.183594 38.617188 18.183594 38.359375 L 18.183594 20.019531 C 18.183594 19.761719 17.972656 19.550781 17.714844 19.550781 L 15.191406 19.550781 L 20 13.375 L 24.808594 19.550781 L 22.285156 19.550781 C 22.027344 19.550781 21.816406 19.761719 21.816406 20.019531 L 21.816406 38.359375 C 21.816406 38.617188 22.027344 38.828125 22.285156 38.828125 C 22.542969 38.828125 22.753906 38.617188 22.753906 38.359375 L 22.753906 25.402344 C 22.757812 25.410156 22.757812 25.414062 22.761719 25.417969 C 22.839844 25.578125 23.003906 25.683594 23.179688 25.683594 L 26.195312 25.683594 L 26.195312 34.902344 C 26.195312 35.160156 26.40625 35.371094 26.664062 35.371094 C 26.921875 35.371094 27.132812 35.160156 27.132812 34.902344 L 27.132812 25.210938 C 27.132812 24.953125 26.921875 24.742188 26.664062 24.742188 L 24.140625 24.742188 L 28.949219 18.570312 L 33.757812 24.742188 L 31.234375 24.742188 C 30.976562 24.742188 30.765625 24.953125 30.765625 25.210938 L 30.765625 34.902344 C 30.765625 35.160156 30.976562 35.371094 31.234375 35.371094 C 31.492188 35.371094 31.703125 35.160156 31.703125 34.902344 L 31.703125 25.679688 L 34.71875 25.679688 C 34.898438 25.679688 35.058594 25.578125 35.140625 25.417969 C 35.21875 25.257812 35.199219 25.066406 35.085938 24.925781 Z M 15.765625 16.84375 C 14.636719 15.714844 14.015625 14.210938 14.015625 12.613281 C 14.015625 11.015625 14.636719 9.511719 15.765625 8.382812 C 18.097656 6.050781 21.894531 6.050781 24.226562 8.382812 C 25.355469 9.511719 25.980469 11.015625 25.980469 12.613281 C 25.980469 14.210938 25.355469 15.714844 24.226562 16.84375 C 24.164062 16.90625 24.097656 16.96875 24.03125 17.027344 L 22.65625 15.261719 C 23.359375 14.550781 23.75 13.613281 23.75 12.613281 C 23.75 11.609375 23.359375 10.667969 22.648438 9.960938 C 21.1875 8.496094 18.804688 8.496094 17.34375 9.960938 C 16.636719 10.667969 16.246094 11.609375 16.246094 12.613281 C 16.246094 13.613281 16.632812 14.554688 17.339844 15.265625 L 15.964844 17.03125 C 15.898438 16.96875 15.832031 16.90625 15.765625 16.84375 Z M 20 12.144531 C 19.855469 12.144531 19.71875 12.210938 19.628906 12.324219 L 17.921875 14.515625 C 17.445312 13.996094 17.179688 13.324219 17.179688 12.613281 C 17.179688 11.859375 17.472656 11.152344 18.003906 10.621094 C 19.101562 9.523438 20.890625 9.523438 21.988281 10.621094 C 22.519531 11.152344 22.8125 11.859375 22.8125 12.613281 C 22.8125 13.324219 22.550781 13.992188 22.074219 14.511719 L 20.371094 12.324219 C 20.28125 12.210938 20.144531 12.144531 20 12.144531 Z M 22.8125 24.925781 C 22.789062 24.953125 22.769531 24.988281 22.753906 25.019531 L 22.753906 20.488281 L 25.769531 20.488281 C 25.949219 20.488281 26.109375 20.386719 26.191406 20.226562 C 26.269531 20.066406 26.25 19.875 26.136719 19.730469 L 24.609375 17.769531 C 24.707031 17.683594 24.800781 17.597656 24.890625 17.507812 C 26.195312 16.199219 26.914062 14.460938 26.914062 12.613281 C 26.914062 10.765625 26.195312 9.027344 24.890625 7.71875 C 22.191406 5.023438 17.800781 5.023438 15.101562 7.71875 C 13.796875 9.027344 13.078125 10.765625 13.078125 12.613281 C 13.078125 14.460938 13.796875 16.199219 15.101562 17.507812 C 15.195312 17.597656 15.289062 17.6875 15.386719 17.773438 L 13.863281 19.734375 C 13.75 19.875 13.730469 20.066406 13.808594 20.226562 C 13.886719 20.386719 14.050781 20.488281 14.230469 20.488281 L 17.246094 20.488281 L 17.246094 25.023438 C 17.230469 24.988281 17.210938 24.953125 17.1875 24.925781 L 12.054688 18.332031 L 12.65625 17.691406 C 12.855469 17.480469 12.890625 17.167969 12.742188 16.914062 C 12.332031 16.226562 12.023438 15.480469 11.824219 14.703125 C 11.753906 14.417969 11.507812 14.222656 11.214844 14.214844 L 9.492188 14.164062 L 9.492188 11.066406 L 11.214844 11.011719 C 11.507812 11.003906 11.753906 10.808594 11.824219 10.527344 C 12.023438 9.746094 12.332031 9.003906 12.742188 8.3125 C 12.890625 8.0625 12.855469 7.75 12.65625 7.539062 L 11.472656 6.28125 L 13.664062 4.089844 L 14.917969 5.273438 C 15.132812 5.472656 15.445312 5.507812 15.695312 5.359375 C 16.382812 4.949219 17.128906 4.640625 17.90625 4.441406 C 18.191406 4.371094 18.386719 4.125 18.394531 3.832031 L 18.445312 2.109375 L 21.542969 2.109375 L 21.597656 3.832031 C 21.605469 4.125 21.800781 4.371094 22.082031 4.441406 C 22.863281 4.640625 23.605469 4.949219 24.296875 5.355469 C 24.546875 5.503906 24.855469 5.472656 25.070312 5.269531 L 26.328125 4.089844 L 28.519531 6.28125 L 27.335938 7.539062 C 27.136719 7.75 27.105469 8.0625 27.253906 8.3125 C 27.660156 9.003906 27.96875 9.746094 28.167969 10.523438 C 28.238281 10.804688 28.484375 11 28.773438 11.011719 L 30.5 11.0625 L 30.5 14.164062 L 28.773438 14.214844 C 28.484375 14.226562 28.238281 14.421875 28.167969 14.703125 C 27.96875 15.480469 27.660156 16.222656 27.25 16.914062 C 27.101562 17.164062 27.136719 17.476562 27.335938 17.6875 L 27.941406 18.332031 Z M 22.8125 24.925781 "/>
</g>
</svg>
