<?xml version="1.0" encoding="UTF-8"?>
<svg xmlns="http://www.w3.org/2000/svg" xmlns:xlink="http://www.w3.org/1999/xlink" width="40px" height="40px" viewBox="0 0 40 40" version="1.1">
<g id="surface1">
<path style=" stroke:none;fill-rule:nonzero;fill:rgb(0%,0%,0%);fill-opacity:1;" d="M 31.734375 32.246094 C 28.464844 35.515625 24.113281 37.316406 19.488281 37.316406 L 0.625 37.316406 C 0.28125 37.316406 0 37.039062 0 36.691406 C 0 36.347656 0.28125 36.066406 0.625 36.066406 L 19.488281 36.066406 C 28.347656 36.066406 35.558594 28.859375 35.558594 20 C 35.558594 11.867188 29.371094 5.039062 21.460938 4.054688 L 23.308594 5.496094 C 23.582031 5.710938 23.628906 6.101562 23.417969 6.375 C 23.292969 6.53125 23.109375 6.617188 22.925781 6.617188 C 22.789062 6.617188 22.65625 6.574219 22.539062 6.484375 L 19.105469 3.800781 C 18.953125 3.683594 18.863281 3.5 18.863281 3.308594 C 18.863281 3.117188 18.953125 2.933594 19.105469 2.816406 L 22.539062 0.132812 C 22.8125 -0.078125 23.203125 -0.03125 23.417969 0.242188 C 23.628906 0.511719 23.582031 0.90625 23.308594 1.117188 L 21.199219 2.765625 C 25.234375 3.160156 28.972656 4.941406 31.847656 7.867188 C 35.046875 11.125 36.808594 15.433594 36.808594 20 C 36.808594 24.625 35.003906 28.972656 31.734375 32.246094 Z M 8.457031 33.347656 C 8.570312 33.445312 8.714844 33.492188 8.851562 33.492188 C 9.035156 33.492188 9.210938 33.414062 9.335938 33.265625 C 9.554688 33 9.519531 32.605469 9.253906 32.382812 C 5.546875 29.316406 3.421875 24.804688 3.421875 20 C 3.421875 12.714844 8.335938 6.324219 15.371094 4.464844 C 15.707031 4.375 15.90625 4.035156 15.816406 3.699219 C 15.726562 3.367188 15.386719 3.167969 15.050781 3.257812 C 7.46875 5.261719 2.171875 12.144531 2.171875 20 C 2.171875 25.175781 4.460938 30.042969 8.457031 33.347656 Z M 39.757812 36.199219 L 36.324219 33.515625 C 36.050781 33.304688 35.660156 33.351562 35.445312 33.625 C 35.234375 33.898438 35.28125 34.289062 35.554688 34.503906 L 37.558594 36.066406 L 30.695312 36.066406 C 30.347656 36.066406 30.070312 36.347656 30.070312 36.691406 C 30.070312 37.039062 30.347656 37.316406 30.695312 37.316406 L 37.558594 37.316406 L 35.554688 38.882812 C 35.28125 39.09375 35.234375 39.488281 35.445312 39.757812 C 35.570312 39.917969 35.753906 40 35.941406 40 C 36.074219 40 36.210938 39.957031 36.324219 39.867188 L 39.757812 37.183594 C 39.910156 37.066406 40 36.882812 40 36.691406 C 40 36.5 39.910156 36.316406 39.757812 36.199219 Z M 13.320312 20 C 13.320312 16.601562 16.085938 13.832031 19.488281 13.832031 C 22.890625 13.832031 25.660156 16.601562 25.660156 20 C 25.660156 23.402344 22.890625 26.171875 19.488281 26.171875 C 16.085938 26.171875 13.320312 23.402344 13.320312 20 Z M 14.570312 20 C 14.570312 22.714844 16.777344 24.921875 19.488281 24.921875 C 22.203125 24.921875 24.410156 22.714844 24.410156 20 C 24.410156 17.289062 22.203125 15.082031 19.488281 15.082031 C 16.777344 15.082031 14.570312 17.289062 14.570312 20 Z M 14.085938 11.308594 C 15.039062 10.710938 16.074219 10.285156 17.164062 10.03125 L 17.773438 8.449219 C 17.867188 8.207031 18.097656 8.046875 18.359375 8.046875 L 20.621094 8.046875 C 20.878906 8.046875 21.113281 8.207031 21.203125 8.449219 L 21.8125 10.03125 C 22.90625 10.285156 23.941406 10.710938 24.894531 11.308594 L 26.445312 10.621094 C 26.683594 10.515625 26.957031 10.566406 27.140625 10.75 L 28.742188 12.351562 C 28.925781 12.53125 28.976562 12.808594 28.871094 13.046875 L 28.183594 14.59375 C 28.777344 15.550781 29.207031 16.582031 29.460938 17.675781 L 31.042969 18.285156 C 31.285156 18.378906 31.441406 18.609375 31.441406 18.871094 L 31.441406 21.132812 C 31.441406 21.390625 31.285156 21.625 31.042969 21.71875 L 29.460938 22.324219 C 29.207031 23.417969 28.777344 24.453125 28.183594 25.40625 L 28.871094 26.957031 C 28.976562 27.195312 28.925781 27.46875 28.742188 27.652344 L 27.140625 29.253906 C 26.957031 29.4375 26.683594 29.488281 26.445312 29.382812 L 24.894531 28.695312 C 23.941406 29.289062 22.90625 29.71875 21.8125 29.972656 L 21.203125 31.554688 C 21.113281 31.796875 20.878906 31.953125 20.621094 31.953125 L 18.359375 31.953125 C 18.097656 31.953125 17.867188 31.796875 17.773438 31.554688 L 17.164062 29.972656 C 16.074219 29.71875 15.039062 29.289062 14.085938 28.695312 L 12.535156 29.382812 C 12.296875 29.488281 12.019531 29.4375 11.835938 29.253906 L 10.238281 27.652344 C 10.054688 27.46875 10.003906 27.195312 10.109375 26.957031 L 10.796875 25.40625 C 10.199219 24.453125 9.773438 23.417969 9.519531 22.324219 L 7.9375 21.71875 C 7.695312 21.625 7.535156 21.390625 7.535156 21.132812 L 7.535156 18.871094 C 7.535156 18.609375 7.695312 18.378906 7.9375 18.285156 L 9.519531 17.675781 C 9.773438 16.585938 10.199219 15.550781 10.796875 14.597656 L 10.109375 13.046875 C 10.003906 12.808594 10.054688 12.53125 10.238281 12.351562 L 11.839844 10.75 C 12.019531 10.566406 12.296875 10.515625 12.535156 10.621094 Z M 13.886719 12.589844 L 12.417969 11.9375 L 11.425781 12.929688 L 12.074219 14.398438 C 12.164062 14.59375 12.144531 14.820312 12.023438 15 C 11.355469 15.992188 10.902344 17.089844 10.671875 18.257812 C 10.632812 18.46875 10.484375 18.644531 10.285156 18.722656 L 8.785156 19.296875 L 8.785156 20.703125 L 10.28125 21.28125 C 10.484375 21.359375 10.628906 21.53125 10.671875 21.742188 C 10.902344 22.914062 11.355469 24.011719 12.023438 25.003906 C 12.144531 25.183594 12.164062 25.410156 12.074219 25.605469 L 11.425781 27.074219 L 12.417969 28.066406 L 13.886719 27.414062 C 14.082031 27.328125 14.308594 27.347656 14.488281 27.46875 C 15.480469 28.132812 16.578125 28.589844 17.746094 28.820312 C 17.957031 28.859375 18.132812 29.007812 18.210938 29.207031 L 18.785156 30.703125 L 20.191406 30.703125 L 20.769531 29.207031 C 20.847656 29.007812 21.019531 28.859375 21.230469 28.820312 C 22.402344 28.589844 23.5 28.132812 24.492188 27.46875 C 24.671875 27.347656 24.898438 27.328125 25.09375 27.414062 L 26.5625 28.066406 L 27.554688 27.074219 L 26.902344 25.605469 C 26.816406 25.410156 26.835938 25.179688 26.957031 25.003906 C 27.621094 24.007812 28.078125 22.914062 28.304688 21.742188 C 28.347656 21.53125 28.496094 21.359375 28.695312 21.28125 L 30.191406 20.703125 L 30.191406 19.296875 L 28.695312 18.722656 C 28.496094 18.644531 28.347656 18.46875 28.308594 18.257812 C 28.078125 17.089844 27.621094 15.992188 26.957031 15 C 26.835938 14.820312 26.816406 14.59375 26.902344 14.398438 L 27.554688 12.929688 L 26.5625 11.9375 L 25.09375 12.589844 C 24.898438 12.675781 24.667969 12.65625 24.492188 12.535156 C 23.496094 11.867188 22.402344 11.414062 21.230469 11.183594 C 21.019531 11.144531 20.847656 10.996094 20.769531 10.796875 L 20.191406 9.296875 L 18.785156 9.296875 L 18.210938 10.796875 C 18.132812 10.996094 17.957031 11.144531 17.746094 11.183594 C 16.578125 11.414062 15.480469 11.867188 14.488281 12.535156 C 14.308594 12.65625 14.082031 12.675781 13.886719 12.589844 Z M 13.886719 12.589844 "/>
</g>
</svg>
