<?xml version="1.0" encoding="UTF-8"?>
<svg xmlns="http://www.w3.org/2000/svg" xmlns:xlink="http://www.w3.org/1999/xlink" width="40px" height="40px" viewBox="0 0 40 42" version="1.1">
<g id="surface1">
<path style=" stroke:none;fill-rule:nonzero;fill:rgb(0%,0%,0%);fill-opacity:1;" d="M 37.144531 33.601562 C 38.722656 33.601562 40 32.347656 40 30.800781 L 40 7 C 40 5.453125 38.722656 4.199219 37.144531 4.199219 L 29.578125 4.199219 C 29.425781 4.027344 29.261719 3.859375 29.09375 3.691406 C 28.722656 3.328125 28.332031 2.988281 27.917969 2.679688 C 27.714844 2.523438 27.441406 2.492188 27.203125 2.589844 L 25.199219 3.429688 C 24.484375 3.042969 23.722656 2.734375 22.9375 2.511719 L 22.128906 0.53125 C 22.03125 0.296875 21.8125 0.128906 21.554688 0.0976562 C 20.519531 -0.03125 19.472656 -0.03125 18.4375 0.0976562 C 18.179688 0.128906 17.960938 0.296875 17.867188 0.53125 L 17.0625 2.511719 C 16.277344 2.734375 15.515625 3.042969 14.800781 3.433594 L 12.796875 2.589844 C 12.558594 2.492188 12.285156 2.523438 12.082031 2.675781 C 11.667969 2.988281 11.277344 3.324219 10.910156 3.6875 C 10.738281 3.855469 10.578125 4.027344 10.421875 4.199219 L 2.855469 4.199219 C 1.277344 4.199219 0 5.453125 0 7 L 0 30.800781 C 0 32.347656 1.277344 33.601562 2.855469 33.601562 L 11.429688 33.601562 L 11.429688 35.292969 L 6.785156 37.890625 C 6.753906 37.914062 6.722656 37.9375 6.691406 37.964844 C 6.667969 37.984375 6.644531 38.003906 6.621094 38.023438 C 6.566406 38.078125 6.523438 38.140625 6.488281 38.210938 C 6.488281 38.21875 6.480469 38.222656 6.480469 38.230469 C 6.445312 38.308594 6.429688 38.394531 6.429688 38.476562 C 6.429688 38.484375 6.421875 38.492188 6.421875 38.5 L 6.421875 40.601562 C 6.421875 41.375 7.0625 42 7.851562 42 L 32.144531 42 C 32.933594 42 33.570312 41.375 33.570312 40.601562 L 33.570312 38.5 C 33.570312 38.492188 33.566406 38.484375 33.566406 38.476562 C 33.566406 38.394531 33.546875 38.308594 33.515625 38.230469 C 33.515625 38.222656 33.507812 38.21875 33.503906 38.210938 C 33.472656 38.140625 33.429688 38.078125 33.375 38.023438 C 33.351562 38.003906 33.328125 37.984375 33.304688 37.964844 C 33.273438 37.9375 33.242188 37.914062 33.210938 37.890625 L 28.570312 35.292969 L 28.570312 33.601562 Z M 12.625 4.042969 L 14.570312 4.859375 C 14.78125 4.949219 15.027344 4.929688 15.222656 4.816406 C 16.011719 4.347656 16.871094 4 17.765625 3.78125 C 17.988281 3.726562 18.171875 3.570312 18.257812 3.359375 L 19.042969 1.441406 C 19.683594 1.386719 20.324219 1.386719 20.960938 1.441406 L 21.75 3.359375 C 21.832031 3.570312 22.015625 3.726562 22.238281 3.78125 C 23.136719 4 23.996094 4.347656 24.785156 4.816406 C 24.984375 4.933594 25.226562 4.949219 25.4375 4.859375 L 27.378906 4.046875 C 27.617188 4.242188 27.851562 4.453125 28.085938 4.683594 C 28.320312 4.910156 28.539062 5.144531 28.734375 5.375 L 27.898438 7.28125 C 27.808594 7.488281 27.824219 7.726562 27.945312 7.917969 C 28.421875 8.691406 28.777344 9.53125 29 10.410156 C 29.054688 10.628906 29.214844 10.808594 29.429688 10.890625 L 31.386719 11.660156 C 31.414062 11.964844 31.425781 12.277344 31.425781 12.601562 C 31.425781 12.925781 31.414062 13.242188 31.386719 13.542969 L 29.429688 14.3125 C 29.214844 14.398438 29.054688 14.578125 29 14.796875 C 28.777344 15.675781 28.421875 16.515625 27.941406 17.289062 C 27.824219 17.484375 27.804688 17.722656 27.898438 17.929688 L 28.730469 19.832031 C 28.53125 20.0625 28.3125 20.296875 28.078125 20.527344 C 27.84375 20.753906 27.609375 20.96875 27.371094 21.164062 L 25.429688 20.339844 C 25.21875 20.25 24.972656 20.269531 24.777344 20.386719 C 23.988281 20.851562 23.128906 21.203125 22.234375 21.421875 C 22.011719 21.472656 21.828125 21.628906 21.742188 21.839844 L 20.957031 23.757812 C 20.316406 23.8125 19.675781 23.8125 19.039062 23.757812 L 18.25 21.839844 C 18.167969 21.628906 17.984375 21.472656 17.761719 21.421875 C 16.863281 21.203125 16.003906 20.851562 15.214844 20.382812 C 15.015625 20.265625 14.773438 20.25 14.5625 20.339844 L 12.621094 21.15625 C 12.382812 20.960938 12.148438 20.746094 11.914062 20.515625 C 11.679688 20.285156 11.460938 20.054688 11.261719 19.824219 L 12.09375 17.921875 C 12.1875 17.714844 12.167969 17.476562 12.050781 17.28125 C 11.574219 16.507812 11.222656 15.667969 11 14.789062 C 10.945312 14.570312 10.785156 14.390625 10.570312 14.308594 L 8.613281 13.539062 C 8.585938 13.238281 8.570312 12.925781 8.570312 12.601562 C 8.570312 12.277344 8.585938 11.960938 8.613281 11.660156 L 10.570312 10.890625 C 10.785156 10.804688 10.941406 10.625 11 10.40625 C 11.222656 9.527344 11.578125 8.6875 12.054688 7.910156 C 12.175781 7.71875 12.191406 7.480469 12.101562 7.273438 L 11.269531 5.375 L 11.269531 5.371094 C 11.46875 5.136719 11.683594 4.90625 11.917969 4.679688 C 12.152344 4.449219 12.390625 4.238281 12.625 4.042969 Z M 2.855469 5.601562 L 9.8125 5.601562 L 10.644531 7.503906 C 10.246094 8.207031 9.933594 8.949219 9.707031 9.722656 L 7.683594 10.515625 C 7.445312 10.609375 7.273438 10.824219 7.242188 11.074219 C 7.109375 12.089844 7.109375 13.117188 7.242188 14.132812 C 7.273438 14.382812 7.445312 14.597656 7.683594 14.691406 L 9.707031 15.484375 C 9.933594 16.253906 10.246094 17 10.644531 17.699219 L 9.789062 19.664062 C 9.6875 19.898438 9.722656 20.164062 9.878906 20.363281 C 10.515625 21.175781 11.257812 21.902344 12.082031 22.527344 C 12.289062 22.679688 12.5625 22.710938 12.796875 22.613281 L 14.804688 21.773438 C 15.519531 22.164062 16.277344 22.472656 17.066406 22.695312 L 17.875 24.675781 C 17.96875 24.910156 18.1875 25.078125 18.445312 25.109375 C 19.480469 25.238281 20.527344 25.238281 21.5625 25.109375 C 21.820312 25.078125 22.039062 24.910156 22.136719 24.675781 L 22.945312 22.695312 C 23.730469 22.472656 24.484375 22.160156 25.199219 21.769531 L 27.203125 22.609375 C 27.441406 22.710938 27.714844 22.675781 27.917969 22.523438 C 28.742188 21.898438 29.484375 21.171875 30.125 20.363281 C 30.28125 20.160156 30.3125 19.894531 30.210938 19.660156 L 29.355469 17.695312 C 29.753906 16.996094 30.070312 16.25 30.292969 15.480469 L 32.316406 14.6875 C 32.554688 14.59375 32.726562 14.378906 32.757812 14.125 C 32.890625 13.113281 32.890625 12.085938 32.757812 11.070312 C 32.726562 10.820312 32.554688 10.605469 32.316406 10.511719 L 30.292969 9.722656 C 30.070312 8.949219 29.753906 8.207031 29.355469 7.503906 L 30.1875 5.601562 L 37.144531 5.601562 C 37.933594 5.601562 38.570312 6.226562 38.570312 7 L 38.570312 26.601562 L 1.429688 26.601562 L 1.429688 7 C 1.429688 6.226562 2.066406 5.601562 2.855469 5.601562 Z M 1.429688 30.800781 L 1.429688 28 L 38.570312 28 L 38.570312 30.800781 C 38.570312 31.574219 37.933594 32.199219 37.144531 32.199219 L 2.855469 32.199219 C 2.066406 32.199219 1.429688 31.574219 1.429688 30.800781 Z M 7.855469 40.601562 L 7.855469 39.199219 L 32.144531 39.199219 L 32.144531 40.601562 Z M 9.832031 37.800781 L 12.332031 36.398438 L 27.667969 36.398438 L 30.167969 37.800781 Z M 27.144531 35 L 12.855469 35 L 12.855469 33.601562 L 27.144531 33.601562 Z M 27.144531 35 "/>
<path style=" stroke:none;fill-rule:nonzero;fill:rgb(0%,0%,0%);fill-opacity:1;" d="M 18.570312 30.800781 L 21.429688 30.800781 C 21.824219 30.800781 22.144531 30.488281 22.144531 30.101562 C 22.144531 29.714844 21.824219 29.398438 21.429688 29.398438 L 18.570312 29.398438 C 18.175781 29.398438 17.855469 29.714844 17.855469 30.101562 C 17.855469 30.488281 18.175781 30.800781 18.570312 30.800781 Z M 18.570312 30.800781 "/>
<path style=" stroke:none;fill-rule:nonzero;fill:rgb(0%,0%,0%);fill-opacity:1;" d="M 11.636719 13.09375 L 15.210938 16.59375 C 15.488281 16.859375 15.933594 16.855469 16.210938 16.585938 C 16.484375 16.316406 16.488281 15.878906 16.21875 15.605469 L 13.152344 12.601562 L 16.21875 9.59375 C 16.488281 9.320312 16.484375 8.882812 16.210938 8.613281 C 15.933594 8.34375 15.488281 8.339844 15.210938 8.605469 L 11.636719 12.105469 C 11.359375 12.378906 11.359375 12.820312 11.636719 13.09375 Z M 11.636719 13.09375 "/>
<path style=" stroke:none;fill-rule:nonzero;fill:rgb(0%,0%,0%);fill-opacity:1;" d="M 23.78125 16.59375 C 24.058594 16.867188 24.511719 16.867188 24.789062 16.59375 L 28.363281 13.09375 C 28.640625 12.820312 28.640625 12.378906 28.363281 12.105469 L 24.789062 8.605469 C 24.511719 8.339844 24.066406 8.34375 23.789062 8.613281 C 23.515625 8.882812 23.511719 9.320312 23.78125 9.59375 L 26.847656 12.601562 L 23.78125 15.605469 C 23.5 15.878906 23.5 16.320312 23.78125 16.59375 Z M 23.78125 16.59375 "/>
<path style=" stroke:none;fill-rule:nonzero;fill:rgb(0%,0%,0%);fill-opacity:1;" d="M 18.304688 16.75 C 18.390625 16.785156 18.480469 16.800781 18.570312 16.800781 C 18.863281 16.800781 19.125 16.625 19.234375 16.359375 L 22.09375 9.359375 C 22.1875 9.128906 22.148438 8.863281 21.988281 8.667969 C 21.832031 8.46875 21.578125 8.371094 21.328125 8.40625 C 21.074219 8.441406 20.859375 8.609375 20.765625 8.839844 L 17.90625 15.839844 C 17.835938 16.011719 17.839844 16.207031 17.914062 16.375 C 17.988281 16.546875 18.128906 16.679688 18.304688 16.75 Z M 18.304688 16.75 "/>
</g>
</svg>
