<?xml version="1.0" encoding="UTF-8"?>
<svg xmlns="http://www.w3.org/2000/svg" xmlns:xlink="http://www.w3.org/1999/xlink" width="50px" height="50px" viewBox="0 0 50 50" version="1.1">
<g id="surface1">
<path style=" stroke:none;fill-rule:nonzero;fill:rgb(0%,0%,0%);fill-opacity:1;" d="M 25.476562 20.714844 C 25.707031 20.941406 25.707031 21.3125 25.476562 21.542969 L 21.894531 25.125 C 21.664062 25.355469 21.292969 25.355469 21.066406 25.125 L 18.925781 22.984375 C 18.695312 22.757812 18.695312 22.386719 18.925781 22.15625 C 19.152344 21.925781 19.523438 21.925781 19.753906 22.15625 L 21.480469 23.882812 L 24.648438 20.714844 C 24.878906 20.484375 25.25 20.484375 25.480469 20.714844 Z M 24.648438 13.363281 L 21.480469 16.53125 L 19.753906 14.804688 C 19.523438 14.582031 19.15625 14.582031 18.929688 14.808594 C 18.703125 15.035156 18.699219 15.402344 18.925781 15.632812 L 21.066406 17.773438 C 21.292969 18.003906 21.664062 18.003906 21.894531 17.773438 L 25.476562 14.191406 C 25.703125 13.960938 25.699219 13.59375 25.472656 13.367188 C 25.246094 13.140625 24.878906 13.136719 24.648438 13.363281 Z M 27.449219 14.921875 L 40.671875 14.921875 C 40.996094 14.921875 41.257812 14.660156 41.257812 14.335938 C 41.257812 14.011719 40.996094 13.75 40.671875 13.75 L 27.449219 13.75 C 27.125 13.75 26.863281 14.011719 26.863281 14.335938 C 26.863281 14.660156 27.125 14.921875 27.449219 14.921875 Z M 27.449219 17.386719 L 40.671875 17.386719 C 40.996094 17.386719 41.257812 17.125 41.257812 16.800781 C 41.257812 16.476562 40.996094 16.214844 40.671875 16.214844 L 27.449219 16.214844 C 27.125 16.214844 26.863281 16.476562 26.863281 16.800781 C 26.863281 17.125 27.125 17.386719 27.449219 17.386719 Z M 24.648438 6.007812 L 21.480469 9.179688 L 19.753906 7.453125 C 19.523438 7.222656 19.152344 7.222656 18.921875 7.453125 C 18.695312 7.679688 18.695312 8.050781 18.921875 8.28125 L 21.066406 10.421875 C 21.292969 10.652344 21.664062 10.652344 21.894531 10.421875 L 25.476562 6.835938 C 25.703125 6.609375 25.703125 6.238281 25.476562 6.011719 C 25.246094 5.785156 24.878906 5.785156 24.648438 6.007812 Z M 22.222656 36.78125 C 22.222656 40.441406 19.257812 43.40625 15.597656 43.40625 C 11.941406 43.40625 8.976562 40.441406 8.976562 36.785156 C 8.976562 33.125 11.941406 30.160156 15.597656 30.160156 C 19.253906 30.164062 22.21875 33.125 22.222656 36.78125 Z M 21.050781 36.78125 C 21.050781 33.773438 18.609375 31.332031 15.597656 31.332031 C 12.589844 31.332031 10.148438 33.773438 10.148438 36.78125 C 10.148438 39.792969 12.589844 42.234375 15.597656 42.234375 C 18.609375 42.230469 21.046875 39.792969 21.050781 36.78125 Z M 41.203125 39.574219 L 41.203125 38.488281 L 40.460938 38.488281 L 40.460938 41.316406 C 40.460938 42.257812 39.699219 43.023438 38.757812 43.023438 L 25.980469 43.023438 L 26.558594 43.808594 C 26.730469 44.042969 26.707031 44.367188 26.503906 44.570312 L 23.386719 47.6875 C 23.179688 47.890625 22.855469 47.917969 22.625 47.742188 L 20.84375 46.429688 C 20.167969 46.796875 19.449219 47.09375 18.710938 47.3125 L 18.382812 49.5 C 18.339844 49.789062 18.09375 50 17.804688 50 L 13.394531 50 C 13.105469 50 12.859375 49.789062 12.816406 49.5 L 12.488281 47.3125 C 11.746094 47.09375 11.03125 46.796875 10.351562 46.429688 L 8.574219 47.742188 C 8.339844 47.917969 8.015625 47.890625 7.8125 47.6875 L 4.695312 44.570312 C 4.492188 44.367188 4.464844 44.042969 4.640625 43.808594 L 5.953125 42.03125 C 5.585938 41.351562 5.289062 40.636719 5.066406 39.894531 L 2.882812 39.566406 C 2.59375 39.523438 2.382812 39.277344 2.382812 38.988281 L 2.382812 34.578125 C 2.382812 34.289062 2.59375 34.042969 2.882812 34 L 5.070312 33.671875 C 5.289062 32.929688 5.585938 32.214844 5.953125 31.539062 L 4.640625 29.757812 C 4.464844 29.523438 4.492188 29.199219 4.695312 28.996094 L 7.8125 25.878906 C 8.015625 25.675781 8.339844 25.648438 8.574219 25.824219 L 10.351562 27.136719 C 10.394531 27.117188 10.4375 27.09375 10.480469 27.070312 L 10.480469 6.242188 C 10.480469 5.296875 11.242188 4.535156 12.183594 4.535156 L 15.011719 4.535156 L 15.011719 1.707031 C 15.015625 0.765625 15.777344 0 16.71875 0 L 33.496094 0 C 33.945312 -0.00390625 34.378906 0.175781 34.695312 0.492188 L 44.492188 10.179688 C 44.816406 10.5 45 10.9375 44.996094 11.394531 L 44.996094 18.046875 C 46.511719 18.332031 47.613281 19.652344 47.613281 21.195312 L 47.617188 39.574219 C 47.617188 39.679688 47.589844 39.78125 47.539062 39.867188 L 44.917969 44.410156 C 44.8125 44.589844 44.621094 44.703125 44.410156 44.703125 C 44.203125 44.703125 44.007812 44.589844 43.902344 44.410156 L 41.28125 39.867188 C 41.230469 39.78125 41.203125 39.679688 41.203125 39.574219 Z M 42.375 38.980469 L 43.824219 38.980469 L 43.824219 22.925781 L 42.378906 22.925781 Z M 44.996094 22.925781 L 44.996094 38.980469 L 46.445312 38.980469 L 46.441406 22.925781 Z M 46.023438 40.152344 L 42.800781 40.152344 L 44.410156 42.945312 Z M 44.410156 19.164062 C 43.289062 19.164062 42.378906 20.074219 42.378906 21.195312 L 42.378906 21.75 L 46.441406 21.75 L 46.441406 21.195312 C 46.441406 20.074219 45.53125 19.164062 44.410156 19.164062 Z M 34.542969 1.988281 L 34.542969 9.921875 C 34.542969 10.214844 34.78125 10.453125 35.074219 10.453125 L 43.101562 10.453125 Z M 11.648438 26.539062 C 11.925781 26.429688 12.203125 26.335938 12.488281 26.253906 L 12.816406 24.066406 C 12.859375 23.777344 13.105469 23.566406 13.394531 23.566406 L 15.011719 23.566406 L 15.011719 5.707031 L 12.183594 5.707031 C 11.890625 5.707031 11.652344 5.945312 11.648438 6.238281 Z M 25.316406 44.097656 L 24.074219 42.417969 C 23.933594 42.230469 23.921875 41.976562 24.042969 41.773438 C 24.511719 40.976562 24.871094 40.121094 25.097656 39.226562 C 25.15625 38.996094 25.347656 38.824219 25.578125 38.789062 L 27.644531 38.480469 L 27.644531 35.085938 L 25.578125 34.773438 C 25.347656 34.742188 25.15625 34.570312 25.097656 34.339844 C 24.867188 33.445312 24.511719 32.589844 24.042969 31.792969 C 23.921875 31.589844 23.933594 31.335938 24.074219 31.148438 L 25.316406 29.46875 L 22.914062 27.066406 L 21.234375 28.308594 C 21.046875 28.445312 20.789062 28.460938 20.589844 28.339844 C 19.792969 27.867188 18.9375 27.511719 18.039062 27.285156 C 17.8125 27.226562 17.640625 27.035156 17.605469 26.800781 L 17.296875 24.738281 L 13.898438 24.738281 L 13.589844 26.800781 C 13.554688 27.035156 13.386719 27.226562 13.15625 27.285156 C 12.261719 27.511719 11.40625 27.867188 10.609375 28.339844 C 10.40625 28.460938 10.152344 28.445312 9.960938 28.308594 L 8.28125 27.066406 L 5.878906 29.46875 L 7.121094 31.148438 C 7.261719 31.335938 7.277344 31.589844 7.15625 31.792969 C 6.683594 32.589844 6.328125 33.445312 6.097656 34.339844 C 6.039062 34.570312 5.851562 34.742188 5.617188 34.777344 L 3.554688 35.085938 L 3.554688 38.480469 L 5.617188 38.792969 C 5.851562 38.824219 6.039062 38.996094 6.097656 39.226562 C 6.328125 40.121094 6.683594 40.976562 7.15625 41.773438 C 7.277344 41.976562 7.261719 42.230469 7.121094 42.417969 L 5.878906 44.097656 L 8.28125 46.5 L 9.960938 45.257812 C 10.152344 45.121094 10.40625 45.105469 10.609375 45.226562 C 11.40625 45.699219 12.261719 46.054688 13.15625 46.28125 C 13.386719 46.339844 13.554688 46.53125 13.589844 46.765625 L 13.898438 48.828125 L 17.296875 48.828125 L 17.605469 46.765625 C 17.640625 46.53125 17.8125 46.339844 18.039062 46.28125 C 18.9375 46.054688 19.792969 45.699219 20.589844 45.226562 C 20.789062 45.105469 21.046875 45.121094 21.234375 45.257812 L 22.914062 46.5 Z M 39.289062 38.488281 L 28.816406 38.488281 L 28.816406 38.988281 C 28.816406 39.277344 28.605469 39.523438 28.316406 39.566406 L 26.128906 39.894531 C 25.929688 40.570312 25.664062 41.226562 25.339844 41.851562 L 38.757812 41.851562 C 39.050781 41.851562 39.289062 41.613281 39.289062 41.316406 Z M 41.203125 37.316406 L 41.203125 31.746094 C 41.109375 31.957031 40.902344 32.089844 40.671875 32.089844 L 27.449219 32.089844 C 27.125 32.089844 26.863281 31.828125 26.863281 31.503906 C 26.863281 31.179688 27.125 30.917969 27.449219 30.917969 L 40.671875 30.917969 C 40.902344 30.917969 41.109375 31.054688 41.203125 31.261719 L 41.203125 29.28125 C 41.109375 29.492188 40.902344 29.625 40.671875 29.628906 L 27.449219 29.628906 C 27.125 29.628906 26.863281 29.363281 26.863281 29.042969 C 26.863281 28.71875 27.125 28.457031 27.449219 28.457031 L 40.671875 28.457031 C 40.902344 28.457031 41.109375 28.589844 41.207031 28.800781 L 41.207031 24.390625 C 41.113281 24.601562 40.902344 24.738281 40.671875 24.738281 L 27.449219 24.738281 C 27.125 24.738281 26.863281 24.476562 26.863281 24.152344 C 26.863281 23.828125 27.125 23.566406 27.449219 23.566406 L 40.671875 23.566406 C 40.902344 23.566406 41.113281 23.703125 41.207031 23.914062 L 41.207031 21.925781 C 41.113281 22.136719 40.902344 22.273438 40.671875 22.273438 L 27.449219 22.273438 C 27.125 22.273438 26.863281 22.011719 26.863281 21.6875 C 26.863281 21.363281 27.125 21.101562 27.449219 21.101562 L 40.671875 21.101562 C 40.902344 21.101562 41.113281 21.238281 41.207031 21.453125 L 41.207031 21.195312 C 41.210938 19.652344 42.308594 18.332031 43.824219 18.046875 L 43.824219 11.625 L 35.074219 11.625 C 34.179688 11.625 33.433594 10.929688 33.375 10.035156 L 27.449219 10.035156 C 27.125 10.035156 26.863281 9.769531 26.863281 9.449219 C 26.863281 9.125 27.125 8.863281 27.449219 8.863281 L 33.371094 8.863281 L 33.371094 7.570312 L 27.449219 7.570312 C 27.125 7.570312 26.863281 7.308594 26.863281 6.984375 C 26.863281 6.660156 27.125 6.398438 27.449219 6.398438 L 33.371094 6.398438 L 33.371094 1.171875 L 16.71875 1.171875 C 16.425781 1.171875 16.183594 1.410156 16.183594 1.707031 L 16.183594 23.566406 L 17.804688 23.566406 C 18.09375 23.566406 18.339844 23.777344 18.382812 24.066406 L 18.710938 26.253906 C 19.449219 26.472656 20.167969 26.769531 20.84375 27.136719 L 22.625 25.824219 C 22.855469 25.648438 23.183594 25.675781 23.386719 25.878906 L 26.503906 28.996094 C 26.707031 29.199219 26.730469 29.523438 26.558594 29.757812 L 25.242188 31.539062 C 25.613281 32.214844 25.910156 32.929688 26.128906 33.671875 L 28.316406 34 C 28.605469 34.042969 28.816406 34.289062 28.816406 34.578125 L 28.816406 37.316406 Z M 41.203125 37.316406 "/>
</g>
</svg>
