<?xml version="1.0" encoding="UTF-8"?>
<svg xmlns="http://www.w3.org/2000/svg" xmlns:xlink="http://www.w3.org/1999/xlink" width="40px" height="40px" viewBox="0 0 40 40" version="1.1">
<g id="surface1">
<path style="fill:none;stroke-width:1.5;stroke-linecap:round;stroke-linejoin:round;stroke:rgb(0%,0%,0%);stroke-opacity:1;stroke-miterlimit:10;" d="M 40.199414 25.600781 C 41.501367 22.397461 42.197461 18.897656 42.197461 15.900586 C 42.197461 7.302539 36.499805 1.901367 27.302344 1.901367 C 18.098437 1.901367 12.400781 7.199414 12.400781 15.900586 C 12.400781 18.897656 13.096875 22.300781 14.398828 25.600781 " transform="matrix(0.606061,0,0,0.606061,0,0)"/>
<path style="fill:none;stroke-width:1.5;stroke-linecap:round;stroke-linejoin:round;stroke:rgb(0%,0%,0%);stroke-opacity:1;stroke-miterlimit:10;" d="M 38.401172 15.997266 C 38.401172 23.203125 33.399609 33.30293 27.199219 33.30293 C 20.998828 33.30293 16.100391 23.203125 16.100391 15.997266 C 16.100391 8.797852 21.101953 5.800781 27.302344 5.800781 C 33.502734 5.800781 38.401172 8.701172 38.401172 15.997266 Z M 38.401172 15.997266 " transform="matrix(0.606061,0,0,0.606061,0,0)"/>
<path style="fill:none;stroke-width:1.5;stroke-linecap:round;stroke-linejoin:round;stroke:rgb(0%,0%,0%);stroke-opacity:1;stroke-miterlimit:10;" d="M 16.300195 13.999219 C 16.300195 13.999219 20.302734 17.898633 26.999414 17.499023 C 26.999414 17.499023 26.000391 16.100391 25.600781 13.999219 C 25.600781 13.999219 31.601367 19.000781 38.497852 17.002734 " transform="matrix(0.606061,0,0,0.606061,0,0)"/>
<path style="fill:none;stroke-width:1.5;stroke-linecap:round;stroke-linejoin:round;stroke:rgb(0%,0%,0%);stroke-opacity:1;stroke-miterlimit:10;" d="M 45.697266 24.002344 C 45.001172 26.799609 43.299609 28.700977 40.502344 27.998437 C 40.102734 27.901758 39.703125 27.701953 39.29707 27.598828 C 40.798828 24.498633 41.797852 20.998828 42.100781 17.898633 C 42.397266 17.898633 42.59707 18.001758 42.9 18.001758 C 45.697266 18.697852 46.303125 21.198633 45.697266 24.002344 Z M 45.697266 24.002344 " transform="matrix(0.606061,0,0,0.606061,0,0)"/>
<path style="fill:none;stroke-width:1.5;stroke-linecap:round;stroke-linejoin:round;stroke:rgb(0%,0%,0%);stroke-opacity:1;stroke-miterlimit:10;" d="M 15.198047 27.598828 C 14.798437 27.798633 14.398828 27.901758 13.999219 27.998437 C 11.201953 28.700977 9.500391 26.70293 8.797852 24.002344 C 8.101758 21.198633 8.797852 18.697852 11.601562 18.001758 C 11.898047 17.898633 12.097852 17.898633 12.400781 17.898633 C 12.697266 20.998828 13.702734 24.498633 15.198047 27.598828 Z M 15.198047 27.598828 " transform="matrix(0.606061,0,0,0.606061,0,0)"/>
<path style="fill:none;stroke-width:1.5;stroke-linecap:round;stroke-linejoin:round;stroke:rgb(0%,0%,0%);stroke-opacity:1;stroke-miterlimit:10;" d="M 35.597461 64.001953 L 7.998633 64.001953 C 5.497852 64.001953 3.3 62.300391 2.797266 59.799609 C 2.300977 57.601758 1.998047 55.397461 1.998047 53.302734 C 1.998047 42.59707 8.598047 38.098242 18.001758 36.60293 " transform="matrix(0.606061,0,0,0.606061,0,0)"/>
<path style="fill:none;stroke-width:1.5;stroke-linecap:round;stroke-linejoin:round;stroke:rgb(0%,0%,0%);stroke-opacity:1;stroke-miterlimit:10;" d="M 25.400977 41.501367 L 23.299805 53.998828 L 27.302344 58.001367 L 31.298437 53.998828 L 29.100586 41.501367 Z M 25.400977 41.501367 " transform="matrix(0.606061,0,0,0.606061,0,0)"/>
<path style="fill:none;stroke-width:1.5;stroke-linecap:round;stroke-linejoin:round;stroke:rgb(0%,0%,0%);stroke-opacity:1;stroke-miterlimit:10;" d="M 29.803125 38.201367 L 29.100586 41.501367 L 25.400977 41.501367 L 24.801562 38.201367 Z M 29.803125 38.201367 " transform="matrix(0.606061,0,0,0.606061,0,0)"/>
<path style="fill:none;stroke-width:1.5;stroke-linecap:round;stroke-linejoin:round;stroke:rgb(0%,0%,0%);stroke-opacity:1;stroke-miterlimit:10;" d="M 64.001953 46.999219 L 64.001953 51.001758 L 61.101562 51.001758 C 60.798633 52.903125 59.999414 54.701367 58.897266 56.203125 L 60.901758 58.201172 L 58.201172 60.998437 L 56.203125 59.000391 C 54.701367 60.102539 52.903125 60.901758 51.001758 61.198242 L 51.001758 64.001953 L 46.999219 64.001953 L 46.999219 61.101562 C 45.097852 60.798633 43.299609 59.999414 41.797852 58.897266 L 39.799805 60.901758 L 37.002539 58.201172 L 39.000586 56.203125 C 37.898438 54.701367 37.099219 52.903125 36.802734 51.001758 L 33.999023 51.001758 L 33.999023 46.999219 L 36.899414 46.999219 C 37.202344 45.097852 38.001562 43.299609 39.097266 41.797852 L 37.099219 39.799805 L 39.90293 37.002539 L 41.900977 39.000586 C 43.402734 37.898438 45.200977 37.099219 47.102344 36.802734 L 47.102344 33.999023 L 51.001758 33.999023 L 51.001758 36.899414 C 52.903125 37.202344 54.701367 38.001562 56.203125 39.097266 L 58.201172 37.099219 L 60.998437 39.90293 L 59.000391 41.900977 C 60.102539 43.402734 60.901758 45.200977 61.198242 47.102344 L 64.001953 47.102344 Z M 64.001953 46.999219 " transform="matrix(0.606061,0,0,0.606061,0,0)"/>
<path style="fill:none;stroke-width:1.5;stroke-linecap:round;stroke-linejoin:round;stroke:rgb(0%,0%,0%);stroke-opacity:1;stroke-miterlimit:10;" d="M 55.900195 48.997266 C 55.900195 45.188086 52.812891 42.100781 48.997266 42.100781 C 45.188086 42.100781 42.100781 45.188086 42.100781 48.997266 C 42.100781 52.812891 45.188086 55.900195 48.997266 55.900195 C 52.812891 55.900195 55.900195 52.812891 55.900195 48.997266 Z M 55.900195 48.997266 " transform="matrix(0.606061,0,0,0.606061,0,0)"/>
</g>
</svg>
