<?xml version="1.0" encoding="UTF-8"?>
<svg xmlns="http://www.w3.org/2000/svg" xmlns:xlink="http://www.w3.org/1999/xlink" width="50px" height="50px" viewBox="0 0 50 50" version="1.1">
<g id="surface1">
<path style=" stroke:none;fill-rule:nonzero;fill:rgb(0%,0%,0%);fill-opacity:1;" d="M 47.925781 41.007812 L 44.328125 41.007812 L 46.632812 25.167969 C 46.71875 24.59375 46.550781 24.019531 46.171875 23.582031 C 45.796875 23.148438 45.25 22.898438 44.671875 22.898438 L 38.445312 22.898438 C 36.625 20.640625 34.195312 19.007812 31.464844 18.183594 C 33.796875 16.316406 35.289062 13.464844 35.289062 10.277344 C 35.289062 4.667969 30.671875 0.105469 25 0.105469 C 19.328125 0.105469 14.710938 4.667969 14.710938 10.277344 C 14.710938 13.464844 16.203125 16.316406 18.535156 18.183594 C 15.804688 19.007812 13.375 20.640625 11.554688 22.898438 L 5.328125 22.898438 C 4.75 22.898438 4.203125 23.148438 3.828125 23.582031 C 3.449219 24.019531 3.28125 24.59375 3.367188 25.167969 L 5.671875 41.007812 L 2.074219 41.007812 C 0.984375 41.007812 0.0976562 41.894531 0.0976562 42.984375 L 0.0976562 44.675781 C 0.0976562 45.765625 0.984375 46.652344 2.074219 46.652344 L 3.574219 46.652344 L 3.574219 47.917969 C 3.574219 49.007812 4.460938 49.894531 5.550781 49.894531 L 44.449219 49.894531 C 45.539062 49.894531 46.425781 49.007812 46.425781 47.917969 L 46.425781 46.652344 L 47.925781 46.652344 C 49.015625 46.652344 49.902344 45.765625 49.902344 44.675781 L 49.902344 42.984375 C 49.902344 41.894531 49.015625 41.007812 47.925781 41.007812 Z M 16.175781 10.277344 C 16.175781 5.476562 20.132812 1.570312 25 1.570312 C 29.863281 1.570312 33.824219 5.476562 33.824219 10.277344 C 33.824219 15.078125 29.863281 18.984375 25 18.984375 C 20.132812 18.984375 16.175781 15.078125 16.175781 10.277344 Z M 20.210938 19.277344 C 21.640625 20.023438 23.273438 20.449219 25 20.449219 C 26.726562 20.449219 28.359375 20.023438 29.789062 19.277344 C 32.34375 19.773438 34.671875 21.035156 36.488281 22.898438 L 13.511719 22.898438 C 15.328125 21.035156 17.65625 19.773438 20.210938 19.277344 Z M 4.816406 24.957031 C 4.785156 24.75 4.878906 24.609375 4.933594 24.542969 C 4.992188 24.476562 5.121094 24.363281 5.328125 24.363281 L 44.671875 24.363281 C 44.878906 24.363281 45.007812 24.476562 45.066406 24.542969 C 45.121094 24.609375 45.214844 24.75 45.183594 24.957031 L 42.847656 41.007812 L 7.152344 41.007812 Z M 48.4375 44.675781 C 48.4375 44.953125 48.203125 45.1875 47.925781 45.1875 L 45.691406 45.1875 C 45.289062 45.1875 44.960938 45.515625 44.960938 45.917969 L 44.960938 47.917969 C 44.960938 48.195312 44.726562 48.429688 44.449219 48.429688 L 5.550781 48.429688 C 5.273438 48.429688 5.039062 48.195312 5.039062 47.917969 L 5.039062 45.917969 C 5.039062 45.515625 4.710938 45.1875 4.308594 45.1875 L 2.074219 45.1875 C 1.796875 45.1875 1.5625 44.953125 1.5625 44.675781 L 1.5625 42.984375 C 1.5625 42.699219 1.792969 42.472656 2.074219 42.472656 L 47.925781 42.472656 C 48.203125 42.472656 48.4375 42.707031 48.4375 42.984375 Z M 29.648438 28.039062 C 28.40625 26.796875 26.753906 26.113281 25 26.113281 C 23.242188 26.113281 21.59375 26.796875 20.351562 28.039062 C 19.109375 29.277344 18.425781 30.929688 18.425781 32.683594 C 18.425781 34.441406 19.109375 36.089844 20.351562 37.332031 C 21.59375 38.574219 23.242188 39.257812 25 39.257812 C 26.757812 39.257812 28.40625 38.574219 29.648438 37.332031 C 30.890625 36.089844 31.574219 34.441406 31.574219 32.683594 C 31.574219 30.929688 30.890625 29.277344 29.648438 28.039062 Z M 28.613281 36.296875 C 27.648438 37.261719 26.363281 37.792969 25 37.792969 C 23.636719 37.792969 22.351562 37.261719 21.386719 36.296875 C 20.421875 35.332031 19.890625 34.050781 19.890625 32.683594 C 19.890625 31.320312 20.421875 30.039062 21.386719 29.074219 C 22.351562 28.109375 23.636719 27.578125 25 27.578125 C 26.363281 27.578125 27.648438 28.109375 28.613281 29.074219 C 29.578125 30.039062 30.109375 31.320312 30.109375 32.683594 C 30.109375 34.050781 29.578125 35.332031 28.613281 36.296875 Z M 29.804688 32.683594 C 29.804688 32.902344 29.707031 33.113281 29.535156 33.25 L 27.605469 34.839844 C 27.472656 34.953125 27.304688 35.007812 27.140625 35.007812 C 26.929688 35.007812 26.722656 34.914062 26.578125 34.738281 C 26.320312 34.425781 26.363281 33.964844 26.675781 33.707031 L 27.917969 32.683594 L 26.675781 31.660156 C 26.363281 31.40625 26.320312 30.941406 26.578125 30.628906 C 26.832031 30.320312 27.296875 30.273438 27.605469 30.53125 L 29.535156 32.121094 C 29.707031 32.257812 29.804688 32.464844 29.804688 32.683594 Z M 26.132812 31.292969 L 25.285156 34.457031 C 25.195312 34.78125 24.898438 35 24.578125 35 C 24.515625 35 24.449219 34.992188 24.386719 34.972656 C 23.996094 34.867188 23.765625 34.46875 23.867188 34.078125 L 24.714844 30.914062 C 24.820312 30.523438 25.222656 30.292969 25.613281 30.398438 C 26.003906 30.5 26.234375 30.902344 26.132812 31.292969 Z M 23.324219 31.660156 L 22.082031 32.683594 L 23.324219 33.707031 C 23.636719 33.964844 23.679688 34.425781 23.421875 34.738281 C 23.277344 34.914062 23.070312 35.007812 22.859375 35.007812 C 22.695312 35.007812 22.527344 34.953125 22.394531 34.839844 L 20.464844 33.25 C 20.292969 33.113281 20.195312 32.902344 20.195312 32.683594 C 20.195312 32.464844 20.292969 32.257812 20.464844 32.121094 L 22.394531 30.53125 C 22.703125 30.273438 23.167969 30.320312 23.421875 30.628906 C 23.679688 30.941406 23.636719 31.40625 23.324219 31.660156 Z M 23.324219 31.660156 "/>
</g>
</svg>
