<?xml version="1.0" encoding="UTF-8"?>
<svg xmlns="http://www.w3.org/2000/svg" xmlns:xlink="http://www.w3.org/1999/xlink" width="40px" height="40px" viewBox="0 0 40 40" version="1.1">
<g id="surface1">
<path style=" stroke:none;fill-rule:nonzero;fill:rgb(0%,0%,0%);fill-opacity:1;" d="M 34.375 28.128906 L 34.375 25.625 C 34.371094 23.898438 32.976562 22.503906 31.25 22.5 L 25.988281 22.5 C 26.566406 21.433594 27.035156 20.308594 27.382812 19.144531 L 29.757812 17.246094 C 30.511719 16.640625 30.8125 15.628906 30.507812 14.710938 C 30.203125 13.792969 29.355469 13.164062 28.390625 13.132812 L 29.78125 9.304688 C 30.503906 7.320312 30.210938 5.109375 29 3.382812 C 27.789062 1.65625 25.8125 0.625 23.703125 0.625 L 18.394531 0.625 C 14.425781 0.625 10.535156 1.738281 7.167969 3.84375 C 6.960938 3.972656 6.847656 4.207031 6.878906 4.449219 C 6.90625 4.691406 7.070312 4.894531 7.300781 4.96875 L 8.808594 5.46875 C 9.230469 5.609375 9.570312 5.917969 9.757812 6.316406 C 9.945312 6.71875 9.957031 7.179688 9.792969 7.589844 C 9.488281 8.34375 9.523438 9.195312 9.890625 9.925781 L 11.5 13.144531 C 10.558594 13.21875 9.753906 13.863281 9.476562 14.769531 C 9.203125 15.671875 9.503906 16.65625 10.246094 17.246094 L 12.621094 19.144531 C 12.96875 20.308594 13.433594 21.433594 14.011719 22.5 L 8.75 22.5 C 7.023438 22.503906 5.628906 23.898438 5.625 25.625 L 5.625 28.128906 C 2.601562 29.390625 0.628906 32.347656 0.625 35.625 L 0.625 38.75 C 0.625 39.09375 0.90625 39.375 1.25 39.375 L 38.75 39.375 C 39.09375 39.375 39.375 39.09375 39.375 38.75 L 39.375 35.625 C 39.371094 32.347656 37.398438 29.390625 34.375 28.128906 Z M 25 13.125 L 21.25 13.125 C 20.90625 13.125 20.625 13.40625 20.625 13.75 L 20.625 14.375 L 19.375 14.375 L 19.375 13.75 C 19.375 13.40625 19.09375 13.125 18.75 13.125 L 13.125 13.125 L 13.125 12.210938 L 17.027344 9.609375 C 17.867188 9.046875 18.851562 8.75 19.863281 8.75 C 21.308594 8.75 22.707031 8.257812 23.835938 7.355469 L 24.859375 6.539062 L 25.929688 8.148438 C 26.546875 9.070312 26.875 10.15625 26.875 11.265625 L 26.875 13.125 Z M 24.375 14.375 L 24.375 16.25 C 24.375 16.59375 24.09375 16.875 23.75 16.875 L 22.5 16.875 C 22.15625 16.875 21.875 16.59375 21.875 16.25 L 21.875 14.375 Z M 18.125 14.375 L 18.125 16.25 C 18.125 16.59375 17.84375 16.875 17.5 16.875 L 16.25 16.875 C 15.90625 16.875 15.625 16.59375 15.625 16.25 L 15.625 14.375 Z M 29.375 15.4375 C 29.375 15.761719 29.230469 16.066406 28.976562 16.265625 L 27.84375 17.171875 C 28.007812 16.25 28.097656 15.3125 28.113281 14.375 L 28.3125 14.375 C 28.898438 14.375 29.375 14.851562 29.375 15.4375 Z M 10.953125 8.050781 C 11.242188 7.324219 11.222656 6.503906 10.890625 5.792969 C 10.5625 5.078125 9.949219 4.535156 9.203125 4.285156 L 9.015625 4.222656 C 11.902344 2.679688 15.125 1.875 18.394531 1.875 L 23.703125 1.875 C 25.40625 1.875 27 2.707031 27.976562 4.097656 C 28.953125 5.492188 29.1875 7.273438 28.605469 8.875 L 28.0625 10.367188 C 27.929688 9.324219 27.554688 8.328125 26.96875 7.453125 L 25.519531 5.277344 C 25.421875 5.128906 25.269531 5.03125 25.09375 5.003906 C 24.921875 4.980469 24.746094 5.027344 24.609375 5.132812 L 23.054688 6.378906 C 22.148438 7.105469 21.023438 7.5 19.863281 7.5 C 18.605469 7.5 17.378906 7.871094 16.332031 8.570312 L 12.152344 11.355469 C 12.113281 11.382812 12.078125 11.410156 12.046875 11.445312 L 11.007812 9.367188 C 10.800781 8.957031 10.78125 8.476562 10.953125 8.050781 Z M 11.023438 16.269531 C 10.671875 15.988281 10.535156 15.511719 10.683594 15.085938 C 10.832031 14.660156 11.234375 14.375 11.6875 14.375 L 11.882812 14.375 C 11.898438 15.3125 11.992188 16.25 12.15625 17.175781 Z M 13.136719 14.375 L 14.375 14.375 L 14.375 16.25 C 14.375 17.285156 15.214844 18.125 16.25 18.125 L 17.5 18.125 C 18.535156 18.125 19.375 17.285156 19.375 16.25 L 19.375 15.625 L 20.625 15.625 L 20.625 16.25 C 20.625 17.285156 21.464844 18.125 22.5 18.125 L 23.75 18.125 C 24.785156 18.125 25.625 17.285156 25.625 16.25 L 25.625 14.375 L 26.863281 14.375 C 26.816406 17.238281 26.015625 20.042969 24.546875 22.5 L 15.453125 22.5 C 13.984375 20.042969 13.183594 17.238281 13.136719 14.375 Z M 8.75 23.75 L 31.25 23.75 C 32.285156 23.75 33.125 24.589844 33.125 25.625 L 33.125 38.125 L 6.875 38.125 L 6.875 25.625 C 6.875 24.589844 7.714844 23.75 8.75 23.75 Z M 1.875 35.625 C 1.878906 33.042969 3.328125 30.679688 5.625 29.503906 L 5.625 38.125 L 1.875 38.125 Z M 38.125 38.125 L 34.375 38.125 L 34.375 29.503906 C 36.671875 30.679688 38.121094 33.042969 38.125 35.625 Z M 38.125 38.125 "/>
<path style=" stroke:none;fill-rule:nonzero;fill:rgb(0%,0%,0%);fill-opacity:1;" d="M 20 36.25 C 21.378906 36.25 22.5 35.128906 22.5 33.75 C 22.5 32.371094 21.378906 31.25 20 31.25 C 18.621094 31.25 17.5 32.371094 17.5 33.75 C 17.5 35.128906 18.621094 36.25 20 36.25 Z M 20 32.5 C 20.691406 32.5 21.25 33.058594 21.25 33.75 C 21.25 34.441406 20.691406 35 20 35 C 19.308594 35 18.75 34.441406 18.75 33.75 C 18.75 33.058594 19.308594 32.5 20 32.5 Z M 20 32.5 "/>
<path style=" stroke:none;fill-rule:nonzero;fill:rgb(0%,0%,0%);fill-opacity:1;" d="M 15.808594 30.441406 L 16.691406 29.558594 L 14.632812 27.5 L 16.691406 25.441406 L 15.808594 24.558594 L 13.308594 27.058594 C 13.0625 27.300781 13.0625 27.699219 13.308594 27.941406 Z M 15.808594 30.441406 "/>
<path style=" stroke:none;fill-rule:nonzero;fill:rgb(0%,0%,0%);fill-opacity:1;" d="M 24.191406 30.441406 L 26.691406 27.941406 C 26.9375 27.699219 26.9375 27.300781 26.691406 27.058594 L 24.191406 24.558594 L 23.308594 25.441406 L 25.367188 27.5 L 23.308594 29.558594 Z M 24.191406 30.441406 "/>
<path style=" stroke:none;fill-rule:nonzero;fill:rgb(0%,0%,0%);fill-opacity:1;" d="M 17.625 29.625 L 21.375 24.625 L 22.375 25.375 L 18.625 30.375 Z M 17.625 29.625 "/>
</g>
</svg>
