<?xml version="1.0" encoding="UTF-8"?>
<svg xmlns="http://www.w3.org/2000/svg" xmlns:xlink="http://www.w3.org/1999/xlink" width="40px" height="40px" viewBox="0 0 40 40" version="1.1">
<g id="surface1">
<path style=" stroke:none;fill-rule:nonzero;fill:rgb(0%,0%,0%);fill-opacity:1;" d="M 19.375 13.519531 C 19.375 9.386719 16.011719 6.023438 11.878906 6.023438 C 7.742188 6.023438 4.382812 9.386719 4.382812 13.519531 C 4.382812 16.835938 5.761719 18.652344 6.867188 20.113281 C 7.632812 21.117188 8.253906 21.9375 8.410156 23.046875 L 7.605469 23.046875 C 7.304688 23.046875 7.058594 23.292969 7.058594 23.59375 L 7.058594 26.441406 C 7.058594 26.746094 7.304688 26.988281 7.605469 26.988281 L 9.011719 26.988281 C 9.214844 28.390625 10.421875 29.46875 11.878906 29.46875 C 13.332031 29.46875 14.542969 28.390625 14.746094 26.988281 L 16.148438 26.988281 C 16.453125 26.988281 16.695312 26.746094 16.695312 26.441406 L 16.695312 23.59375 C 16.695312 23.292969 16.453125 23.046875 16.148438 23.046875 L 15.347656 23.046875 C 15.503906 21.9375 16.125 21.117188 16.886719 20.113281 C 17.996094 18.652344 19.375 16.835938 19.375 13.519531 Z M 11.878906 28.375 C 11.027344 28.375 10.3125 27.785156 10.125 26.992188 L 13.632812 26.992188 C 13.441406 27.785156 12.730469 28.375 11.878906 28.375 Z M 15.601562 25.894531 L 8.152344 25.894531 L 8.152344 24.140625 L 15.601562 24.140625 Z M 14.242188 23.046875 L 13.515625 23.046875 C 13.113281 18.925781 13.671875 16.308594 15.175781 15.261719 C 15.421875 15.089844 15.484375 14.746094 15.3125 14.5 C 15.140625 14.253906 14.800781 14.191406 14.550781 14.363281 C 12.691406 15.660156 11.988281 18.503906 12.414062 23.046875 L 11.339844 23.046875 C 11.769531 18.503906 11.070312 15.660156 9.207031 14.363281 C 8.957031 14.191406 8.617188 14.253906 8.445312 14.5 C 8.273438 14.746094 8.332031 15.089844 8.582031 15.261719 C 10.085938 16.308594 10.644531 18.925781 10.242188 23.046875 L 9.511719 23.046875 C 9.355469 21.578125 8.566406 20.539062 7.738281 19.449219 C 6.625 17.984375 5.476562 16.46875 5.476562 13.519531 C 5.476562 9.992188 8.347656 7.117188 11.878906 7.117188 C 15.410156 7.117188 18.28125 9.992188 18.28125 13.519531 C 18.28125 16.46875 17.132812 17.984375 16.015625 19.449219 C 15.1875 20.539062 14.402344 21.578125 14.242188 23.046875 Z M 11.332031 4.511719 L 11.332031 1.25 C 11.332031 0.949219 11.574219 0.703125 11.878906 0.703125 C 12.179688 0.703125 12.425781 0.949219 12.425781 1.25 L 12.425781 4.511719 C 12.425781 4.816406 12.179688 5.058594 11.878906 5.058594 C 11.574219 5.058594 11.332031 4.816406 11.332031 4.511719 Z M 15.910156 5.445312 L 17.542969 2.621094 C 17.691406 2.359375 18.027344 2.269531 18.289062 2.421875 C 18.550781 2.570312 18.640625 2.90625 18.488281 3.167969 L 16.855469 5.992188 C 16.753906 6.167969 16.570312 6.265625 16.382812 6.265625 C 16.289062 6.265625 16.195312 6.242188 16.109375 6.191406 C 15.847656 6.042969 15.757812 5.707031 15.910156 5.445312 Z M 19.207031 9.289062 C 19.058594 9.027344 19.148438 8.695312 19.410156 8.542969 L 22.230469 6.914062 C 22.496094 6.761719 22.828125 6.851562 22.980469 7.113281 C 23.128906 7.375 23.039062 7.710938 22.78125 7.859375 L 19.957031 9.492188 C 19.871094 9.539062 19.777344 9.5625 19.683594 9.5625 C 19.492188 9.5625 19.308594 9.464844 19.207031 9.289062 Z M 4.074219 9.5625 C 3.980469 9.5625 3.886719 9.539062 3.800781 9.492188 L 0.976562 7.859375 C 0.714844 7.710938 0.625 7.375 0.777344 7.113281 C 0.929688 6.851562 1.261719 6.761719 1.523438 6.914062 L 4.347656 8.542969 C 4.609375 8.695312 4.699219 9.027344 4.546875 9.289062 C 4.445312 9.464844 4.261719 9.5625 4.074219 9.5625 Z M 5.269531 3.167969 C 5.117188 2.90625 5.207031 2.570312 5.46875 2.417969 C 5.730469 2.269531 6.0625 2.359375 6.214844 2.621094 L 7.847656 5.445312 C 8 5.707031 7.910156 6.042969 7.648438 6.191406 C 7.5625 6.242188 7.46875 6.265625 7.375 6.265625 C 7.183594 6.265625 7 6.167969 6.898438 5.992188 Z M 20.175781 14.339844 C 20.175781 14.535156 20.277344 14.714844 20.445312 14.8125 L 27.320312 18.78125 C 27.492188 18.878906 27.699219 18.878906 27.867188 18.78125 C 28.039062 18.683594 28.140625 18.503906 28.140625 18.308594 L 28.140625 16.820312 C 30.332031 16.339844 33.160156 17.226562 36.554688 19.464844 C 36.644531 19.523438 36.75 19.554688 36.855469 19.554688 C 36.964844 19.554688 37.074219 19.519531 37.167969 19.453125 C 37.351562 19.324219 37.4375 19.097656 37.386719 18.878906 C 36.363281 14.628906 33.253906 12.242188 28.140625 11.773438 L 28.140625 10.371094 C 28.140625 10.175781 28.039062 9.992188 27.867188 9.894531 C 27.699219 9.796875 27.492188 9.796875 27.320312 9.894531 L 20.449219 13.863281 C 20.277344 13.960938 20.175781 14.144531 20.175781 14.339844 Z M 27.046875 11.316406 L 27.046875 12.28125 C 27.046875 12.570312 27.273438 12.808594 27.558594 12.828125 C 31.894531 13.105469 34.632812 14.722656 35.878906 17.757812 C 33.425781 16.324219 31.242188 15.601562 29.347656 15.601562 C 28.671875 15.601562 28.035156 15.695312 27.433594 15.878906 C 27.203125 15.949219 27.046875 16.160156 27.046875 16.398438 L 27.046875 17.359375 L 21.816406 14.339844 Z M 20.996094 34.308594 L 14.121094 30.339844 C 13.953125 30.242188 13.746094 30.242188 13.574219 30.339844 C 13.40625 30.4375 13.300781 30.621094 13.300781 30.816406 L 13.300781 32.296875 C 11.109375 32.78125 8.28125 31.894531 4.890625 29.65625 C 4.703125 29.53125 4.457031 29.535156 4.273438 29.664062 C 4.089844 29.792969 4.003906 30.023438 4.054688 30.242188 C 5.082031 34.488281 8.191406 36.878906 13.300781 37.347656 L 13.300781 38.75 C 13.300781 38.945312 13.40625 39.125 13.574219 39.222656 C 13.660156 39.273438 13.753906 39.296875 13.847656 39.296875 C 13.945312 39.296875 14.039062 39.273438 14.121094 39.222656 L 17.558594 37.238281 L 18.167969 36.890625 L 20.996094 35.253906 C 21.164062 35.15625 21.269531 34.976562 21.269531 34.78125 C 21.269531 34.585938 21.164062 34.40625 20.996094 34.308594 Z M 14.394531 37.800781 L 14.394531 36.839844 C 14.394531 36.550781 14.171875 36.3125 13.882812 36.292969 C 9.550781 36.011719 6.8125 34.394531 5.5625 31.363281 C 8.890625 33.308594 11.726562 33.941406 14.007812 33.242188 C 14.238281 33.171875 14.394531 32.960938 14.394531 32.71875 L 14.394531 31.761719 L 19.628906 34.78125 Z M 38.75 28.238281 L 37.664062 28.238281 C 37.511719 27.714844 37.304688 27.210938 37.042969 26.734375 L 37.808594 25.96875 C 38.023438 25.753906 38.023438 25.410156 37.808594 25.195312 L 35.558594 22.941406 C 35.457031 22.839844 35.320312 22.78125 35.171875 22.78125 C 35.027344 22.78125 34.890625 22.839844 34.785156 22.941406 L 34.019531 23.710938 C 33.542969 23.449219 33.039062 23.242188 32.515625 23.089844 L 32.515625 22.003906 C 32.515625 21.699219 32.269531 21.457031 31.96875 21.457031 L 28.785156 21.457031 C 28.480469 21.457031 28.238281 21.699219 28.238281 22.003906 L 28.238281 23.089844 C 27.714844 23.242188 27.210938 23.449219 26.734375 23.710938 L 25.96875 22.941406 C 25.867188 22.839844 25.726562 22.78125 25.582031 22.78125 C 25.4375 22.78125 25.296875 22.839844 25.195312 22.941406 L 22.941406 25.195312 C 22.839844 25.296875 22.78125 25.4375 22.78125 25.582031 C 22.78125 25.726562 22.839844 25.867188 22.941406 25.96875 L 23.710938 26.734375 C 23.449219 27.210938 23.242188 27.714844 23.089844 28.238281 L 22.003906 28.238281 C 21.699219 28.238281 21.457031 28.480469 21.457031 28.785156 L 21.457031 31.96875 C 21.457031 32.269531 21.699219 32.515625 22.003906 32.515625 L 23.089844 32.515625 C 23.242188 33.039062 23.449219 33.539062 23.710938 34.015625 L 22.941406 34.785156 C 22.839844 34.890625 22.78125 35.027344 22.78125 35.171875 C 22.78125 35.316406 22.839844 35.457031 22.941406 35.558594 L 25.195312 37.808594 C 25.410156 38.023438 25.753906 38.023438 25.96875 37.808594 L 26.734375 37.042969 C 27.210938 37.300781 27.714844 37.511719 28.238281 37.664062 L 28.238281 38.75 C 28.238281 39.050781 28.480469 39.296875 28.785156 39.296875 L 31.96875 39.296875 C 32.269531 39.296875 32.515625 39.050781 32.515625 38.75 L 32.515625 37.664062 C 33.039062 37.511719 33.542969 37.300781 34.019531 37.039062 L 34.785156 37.808594 C 34.890625 37.914062 35.027344 37.96875 35.171875 37.96875 C 35.316406 37.96875 35.457031 37.914062 35.558594 37.808594 L 37.808594 35.558594 C 38.023438 35.347656 38.023438 35 37.808594 34.785156 L 37.042969 34.015625 C 37.304688 33.539062 37.511719 33.039062 37.664062 32.515625 L 38.75 32.515625 C 39.050781 32.515625 39.296875 32.269531 39.296875 31.96875 L 39.296875 28.785156 C 39.296875 28.480469 39.050781 28.238281 38.75 28.238281 Z M 38.203125 31.421875 L 37.242188 31.421875 C 36.988281 31.421875 36.765625 31.597656 36.707031 31.84375 C 36.546875 32.542969 36.273438 33.207031 35.894531 33.816406 C 35.757812 34.03125 35.792969 34.3125 35.96875 34.492188 L 36.648438 35.171875 L 35.171875 36.648438 L 34.492188 35.96875 C 34.3125 35.789062 34.03125 35.757812 33.816406 35.890625 C 33.207031 36.273438 32.546875 36.546875 31.84375 36.707031 C 31.597656 36.765625 31.421875 36.988281 31.421875 37.242188 L 31.421875 38.203125 L 29.332031 38.203125 L 29.332031 37.242188 C 29.332031 36.988281 29.15625 36.765625 28.90625 36.707031 C 28.207031 36.546875 27.542969 36.273438 26.9375 35.894531 C 26.71875 35.757812 26.441406 35.789062 26.261719 35.972656 L 25.582031 36.648438 L 24.101562 35.171875 L 24.785156 34.492188 C 24.964844 34.3125 24.996094 34.03125 24.859375 33.816406 C 24.480469 33.207031 24.207031 32.546875 24.042969 31.84375 C 23.988281 31.597656 23.765625 31.421875 23.511719 31.421875 L 22.550781 31.421875 L 22.550781 29.332031 L 23.511719 29.332031 C 23.765625 29.332031 23.988281 29.15625 24.042969 28.90625 C 24.207031 28.207031 24.480469 27.542969 24.859375 26.9375 C 24.996094 26.722656 24.964844 26.441406 24.785156 26.257812 L 24.105469 25.582031 L 25.582031 24.101562 L 26.261719 24.78125 C 26.441406 24.964844 26.722656 24.996094 26.9375 24.859375 C 27.542969 24.480469 28.207031 24.207031 28.90625 24.042969 C 29.15625 23.984375 29.332031 23.765625 29.332031 23.511719 L 29.332031 22.550781 L 31.421875 22.550781 L 31.421875 23.511719 C 31.421875 23.765625 31.597656 23.984375 31.84375 24.042969 C 32.546875 24.207031 33.207031 24.480469 33.816406 24.859375 C 34.03125 24.996094 34.3125 24.964844 34.492188 24.785156 L 35.171875 24.101562 L 36.648438 25.582031 L 35.972656 26.261719 C 35.792969 26.441406 35.757812 26.71875 35.894531 26.9375 C 36.273438 27.542969 36.546875 28.207031 36.707031 28.90625 C 36.765625 29.15625 36.988281 29.332031 37.242188 29.332031 L 38.203125 29.332031 Z M 27.230469 27.15625 C 25.476562 28.914062 25.476562 31.769531 27.230469 33.523438 C 27.273438 33.566406 27.316406 33.605469 27.359375 33.644531 C 27.367188 33.652344 27.371094 33.664062 27.382812 33.671875 C 27.5 33.777344 27.621094 33.875 27.75 33.96875 C 27.75 33.972656 27.753906 33.972656 27.757812 33.976562 C 27.8125 34.015625 27.871094 34.058594 27.929688 34.09375 C 27.933594 34.101562 27.941406 34.105469 27.949219 34.109375 C 28.003906 34.144531 28.058594 34.179688 28.117188 34.210938 C 28.121094 34.21875 28.128906 34.222656 28.136719 34.226562 C 28.195312 34.257812 28.253906 34.292969 28.3125 34.324219 C 28.316406 34.324219 28.320312 34.328125 28.328125 34.332031 C 28.390625 34.363281 28.453125 34.394531 28.515625 34.425781 C 29.105469 34.699219 29.75 34.84375 30.414062 34.84375 C 31 34.84375 31.570312 34.730469 32.105469 34.511719 C 32.105469 34.511719 32.109375 34.511719 32.113281 34.507812 C 32.175781 34.484375 32.234375 34.457031 32.292969 34.429688 C 32.304688 34.425781 32.316406 34.417969 32.332031 34.414062 C 32.378906 34.390625 32.429688 34.367188 32.480469 34.339844 C 32.5 34.332031 32.515625 34.320312 32.535156 34.308594 C 32.578125 34.289062 32.621094 34.265625 32.660156 34.242188 C 32.683594 34.226562 32.707031 34.214844 32.730469 34.199219 C 32.769531 34.175781 32.804688 34.15625 32.839844 34.132812 C 32.867188 34.113281 32.894531 34.097656 32.921875 34.078125 C 32.953125 34.058594 32.980469 34.035156 33.011719 34.015625 C 33.042969 33.996094 33.070312 33.972656 33.101562 33.953125 C 33.128906 33.933594 33.152344 33.910156 33.179688 33.890625 C 33.210938 33.867188 33.242188 33.839844 33.273438 33.816406 C 33.296875 33.796875 33.316406 33.777344 33.339844 33.761719 C 33.375 33.730469 33.40625 33.703125 33.441406 33.671875 C 33.441406 33.671875 33.441406 33.667969 33.441406 33.667969 C 33.496094 33.621094 33.546875 33.574219 33.59375 33.523438 C 34.445312 32.671875 34.914062 31.542969 34.914062 30.339844 C 34.914062 29.140625 34.445312 28.007812 33.59375 27.15625 C 31.839844 25.402344 28.984375 25.402344 27.230469 27.15625 Z M 29.46875 29.65625 C 29.46875 29.132812 29.890625 28.710938 30.410156 28.710938 C 30.933594 28.710938 31.355469 29.132812 31.355469 29.65625 C 31.355469 30.175781 30.933594 30.597656 30.410156 30.597656 C 29.890625 30.597656 29.46875 30.175781 29.46875 29.65625 Z M 30.410156 31.691406 C 31.320312 31.691406 32.121094 32.246094 32.445312 33.078125 C 32.441406 33.082031 32.433594 33.085938 32.429688 33.089844 C 32.425781 33.089844 32.425781 33.089844 32.425781 33.09375 C 31.222656 33.972656 29.574219 33.964844 28.378906 33.074219 C 28.707031 32.246094 29.515625 31.691406 30.410156 31.691406 Z M 33.25 32.230469 C 32.941406 31.695312 32.492188 31.265625 31.957031 30.984375 C 32.265625 30.625 32.453125 30.160156 32.453125 29.65625 C 32.453125 28.53125 31.535156 27.617188 30.410156 27.617188 C 29.289062 27.617188 28.375 28.53125 28.375 29.65625 C 28.375 30.164062 28.5625 30.628906 28.871094 30.984375 C 28.339844 31.269531 27.886719 31.699219 27.578125 32.230469 C 26.695312 30.90625 26.835938 29.097656 28.003906 27.929688 C 29.332031 26.601562 31.492188 26.601562 32.820312 27.929688 C 33.464844 28.574219 33.820312 29.429688 33.820312 30.339844 C 33.820312 31.023438 33.621094 31.675781 33.25 32.230469 Z M 33.25 32.230469 "/>
</g>
</svg>
