<?xml version="1.0" encoding="UTF-8"?>
<svg xmlns="http://www.w3.org/2000/svg" xmlns:xlink="http://www.w3.org/1999/xlink" width="40px" height="40px" viewBox="0 0 40 40" version="1.1">
<g id="surface1">
<path style=" stroke:none;fill-rule:nonzero;fill:rgb(0%,0%,0%);fill-opacity:1;" d="M 22.125 27.898438 L 26.390625 27.898438 C 27.21875 27.898438 27.894531 27.226562 27.894531 26.398438 L 27.894531 14.816406 C 27.894531 13.988281 27.21875 13.3125 26.390625 13.3125 L 22.125 13.3125 C 21.90625 13.3125 21.726562 13.492188 21.726562 13.714844 C 21.726562 13.933594 21.90625 14.113281 22.125 14.113281 L 26.390625 14.113281 C 26.777344 14.113281 27.09375 14.429688 27.09375 14.816406 L 27.09375 26.398438 C 27.09375 26.785156 26.777344 27.101562 26.390625 27.101562 L 22.125 27.101562 C 21.90625 27.101562 21.726562 27.28125 21.726562 27.5 C 21.726562 27.722656 21.90625 27.898438 22.125 27.898438 Z M 22.125 27.898438 "/>
<path style=" stroke:none;fill-rule:nonzero;fill:rgb(0%,0%,0%);fill-opacity:1;" d="M 22.125 22.796875 C 21.90625 22.796875 21.726562 22.976562 21.726562 23.195312 C 21.726562 23.417969 21.90625 23.597656 22.125 23.597656 L 23.730469 23.597656 C 24.175781 23.597656 24.542969 23.230469 24.542969 22.78125 L 24.542969 18.429688 C 24.542969 17.984375 24.175781 17.617188 23.730469 17.617188 L 22.125 17.617188 C 21.90625 17.617188 21.726562 17.796875 21.726562 18.019531 C 21.726562 18.238281 21.90625 18.417969 22.125 18.417969 L 23.742188 18.429688 L 23.730469 22.796875 Z M 22.125 22.796875 "/>
<path style=" stroke:none;fill-rule:nonzero;fill:rgb(0%,0%,0%);fill-opacity:1;" d="M 29.683594 7.214844 C 30.894531 7.214844 31.527344 5.734375 30.65625 4.863281 C 30.121094 4.324219 29.246094 4.324219 28.710938 4.863281 C 27.851562 5.71875 28.449219 7.214844 29.683594 7.214844 Z M 29.683594 5.261719 C 30.003906 5.261719 30.261719 5.519531 30.261719 5.835938 C 30.261719 6.359375 29.625 6.59375 29.277344 6.242188 C 28.910156 5.878906 29.175781 5.261719 29.683594 5.261719 Z M 29.683594 5.261719 "/>
<path style=" stroke:none;fill-rule:nonzero;fill:rgb(0%,0%,0%);fill-opacity:1;" d="M 26.136719 12.464844 C 26.355469 12.464844 26.535156 12.285156 26.535156 12.066406 L 26.535156 9.871094 C 26.535156 9.683594 26.613281 9.5 26.746094 9.367188 L 28.285156 7.828125 C 28.441406 7.671875 28.441406 7.417969 28.285156 7.261719 C 28.128906 7.105469 27.875 7.105469 27.71875 7.261719 L 26.179688 8.800781 C 25.894531 9.085938 25.734375 9.46875 25.734375 9.871094 L 25.734375 12.066406 C 25.734375 12.285156 25.914062 12.464844 26.136719 12.464844 Z M 26.136719 12.464844 "/>
<path style=" stroke:none;fill-rule:nonzero;fill:rgb(0%,0%,0%);fill-opacity:1;" d="M 37.445312 12.660156 C 37.445312 11.410156 35.925781 10.855469 35.097656 11.683594 C 34.558594 12.222656 34.554688 13.09375 35.097656 13.632812 C 35.957031 14.496094 37.445312 13.878906 37.445312 12.660156 Z M 36.476562 12.25 C 36.703125 12.476562 36.703125 12.839844 36.476562 13.066406 C 36.125 13.417969 35.492188 13.179688 35.492188 12.660156 C 35.492188 12.152344 36.109375 11.882812 36.476562 12.25 Z M 36.476562 12.25 "/>
<path style=" stroke:none;fill-rule:nonzero;fill:rgb(0%,0%,0%);fill-opacity:1;" d="M 33.765625 19.570312 C 33.503906 19.828125 33.363281 20.175781 33.363281 20.542969 C 33.363281 21.308594 33.984375 21.917969 34.738281 21.917969 C 35.957031 21.917969 36.578125 20.433594 35.710938 19.570312 C 35.191406 19.050781 34.285156 19.046875 33.765625 19.570312 Z M 35.144531 20.949219 C 34.785156 21.3125 34.160156 21.054688 34.160156 20.542969 C 34.160156 20.039062 34.777344 19.769531 35.144531 20.136719 C 35.375 20.363281 35.371094 20.726562 35.144531 20.949219 Z M 35.144531 20.949219 "/>
<path style=" stroke:none;fill-rule:nonzero;fill:rgb(0%,0%,0%);fill-opacity:1;" d="M 28.832031 16.429688 C 28.832031 16.652344 29.011719 16.832031 29.230469 16.832031 L 31.6875 16.832031 C 32.128906 16.832031 32.542969 16.660156 32.855469 16.347656 L 34.582031 14.621094 C 34.738281 14.464844 34.738281 14.210938 34.582031 14.054688 C 34.425781 13.898438 34.171875 13.898438 34.015625 14.054688 L 32.289062 15.78125 C 32.128906 15.941406 31.917969 16.03125 31.6875 16.03125 L 29.230469 16.03125 C 29.011719 16.03125 28.832031 16.210938 28.832031 16.429688 Z M 28.832031 16.429688 "/>
<path style=" stroke:none;fill-rule:nonzero;fill:rgb(0%,0%,0%);fill-opacity:1;" d="M 36.070312 30.042969 C 37.285156 30.042969 37.910156 28.558594 37.042969 27.691406 C 36.222656 26.871094 34.691406 27.40625 34.691406 28.664062 C 34.691406 29.03125 34.835938 29.378906 35.097656 29.636719 C 35.355469 29.898438 35.703125 30.042969 36.070312 30.042969 Z M 36.476562 28.257812 C 36.703125 28.480469 36.703125 28.847656 36.476562 29.070312 C 36.125 29.421875 35.492188 29.183594 35.492188 28.664062 C 35.492188 28.15625 36.109375 27.890625 36.476562 28.257812 Z M 36.476562 28.257812 "/>
<path style=" stroke:none;fill-rule:nonzero;fill:rgb(0%,0%,0%);fill-opacity:1;" d="M 32.289062 25.542969 L 34.015625 27.265625 C 34.171875 27.421875 34.425781 27.421875 34.582031 27.265625 C 34.738281 27.109375 34.738281 26.855469 34.582031 26.699219 L 32.855469 24.976562 C 32.542969 24.664062 32.128906 24.492188 31.6875 24.492188 L 29.230469 24.492188 C 29.011719 24.492188 28.832031 24.671875 28.832031 24.890625 C 28.832031 25.113281 29.011719 25.292969 29.230469 25.292969 L 31.6875 25.292969 C 31.917969 25.292969 32.128906 25.378906 32.289062 25.542969 Z M 32.289062 25.542969 "/>
<path style=" stroke:none;fill-rule:nonzero;fill:rgb(0%,0%,0%);fill-opacity:1;" d="M 29.230469 20.941406 L 32.3125 20.941406 C 32.535156 20.941406 32.714844 20.761719 32.714844 20.542969 C 32.714844 20.320312 32.535156 20.144531 32.3125 20.144531 L 29.230469 20.144531 C 29.011719 20.144531 28.832031 20.320312 28.832031 20.542969 C 28.832031 20.761719 29.011719 20.941406 29.230469 20.941406 Z M 29.230469 20.941406 "/>
<path style=" stroke:none;fill-rule:nonzero;fill:rgb(0%,0%,0%);fill-opacity:1;" d="M 29.230469 18.980469 L 30.519531 18.980469 C 30.742188 18.980469 30.921875 18.804688 30.921875 18.582031 C 30.921875 18.359375 30.742188 18.183594 30.519531 18.183594 L 29.230469 18.183594 C 29.011719 18.183594 28.832031 18.359375 28.832031 18.582031 C 28.832031 18.804688 29.011719 18.980469 29.230469 18.980469 Z M 29.230469 18.980469 "/>
<path style=" stroke:none;fill-rule:nonzero;fill:rgb(0%,0%,0%);fill-opacity:1;" d="M 29.230469 23.117188 L 30.519531 23.117188 C 30.742188 23.117188 30.921875 22.9375 30.921875 22.71875 C 30.921875 22.496094 30.742188 22.316406 30.519531 22.316406 L 29.230469 22.316406 C 29.011719 22.316406 28.832031 22.496094 28.832031 22.71875 C 28.832031 22.9375 29.011719 23.117188 29.230469 23.117188 Z M 29.230469 23.117188 "/>
<path style=" stroke:none;fill-rule:nonzero;fill:rgb(0%,0%,0%);fill-opacity:1;" d="M 22.96875 12.464844 C 23.191406 12.464844 23.371094 12.285156 23.371094 12.066406 L 23.371094 10.777344 C 23.371094 10.554688 23.191406 10.375 22.96875 10.375 C 22.75 10.375 22.570312 10.554688 22.570312 10.777344 L 22.570312 12.066406 C 22.570312 12.285156 22.75 12.464844 22.96875 12.464844 Z M 22.96875 12.464844 "/>
<path style=" stroke:none;fill-rule:nonzero;fill:rgb(0%,0%,0%);fill-opacity:1;" d="M 30.65625 36.441406 C 31.195312 35.90625 31.195312 35.03125 30.65625 34.496094 C 29.796875 33.632812 28.304688 34.246094 28.304688 35.46875 C 28.304688 36.6875 29.792969 37.304688 30.65625 36.441406 Z M 29.683594 34.890625 C 30.195312 34.890625 30.453125 35.511719 30.089844 35.875 C 29.726562 36.238281 29.105469 35.980469 29.105469 35.46875 C 29.105469 35.152344 29.363281 34.890625 29.683594 34.890625 Z M 29.683594 34.890625 "/>
<path style=" stroke:none;fill-rule:nonzero;fill:rgb(0%,0%,0%);fill-opacity:1;" d="M 28.285156 34.042969 C 28.441406 33.886719 28.441406 33.632812 28.285156 33.476562 L 26.746094 31.9375 C 26.609375 31.804688 26.535156 31.625 26.535156 31.433594 L 26.535156 29.238281 C 26.535156 29.019531 26.355469 28.839844 26.136719 28.839844 C 25.914062 28.839844 25.734375 29.019531 25.734375 29.238281 L 25.734375 31.433594 C 25.734375 31.835938 25.894531 32.21875 26.179688 32.503906 L 27.71875 34.042969 C 27.875 34.199219 28.128906 34.199219 28.285156 34.042969 Z M 28.285156 34.042969 "/>
<path style=" stroke:none;fill-rule:nonzero;fill:rgb(0%,0%,0%);fill-opacity:1;" d="M 23.371094 30.527344 L 23.371094 29.238281 C 23.371094 29.019531 23.191406 28.839844 22.96875 28.839844 C 22.75 28.839844 22.570312 29.019531 22.570312 29.238281 L 22.570312 30.527344 C 22.570312 30.75 22.75 30.929688 22.96875 30.929688 C 23.191406 30.929688 23.371094 30.75 23.371094 30.527344 Z M 23.371094 30.527344 "/>
<path style=" stroke:none;fill-rule:nonzero;fill:rgb(0%,0%,0%);fill-opacity:1;" d="M 15.507812 17.363281 C 13.601562 17.210938 12.617188 19.351562 13.835938 20.773438 C 13.972656 20.992188 14.957031 21.757812 14.8125 23.144531 C 14.722656 24.007812 14.929688 24.859375 15.410156 25.609375 C 15.527344 25.734375 16.117188 27.152344 17.929688 27.503906 L 18 27.515625 C 18.242188 27.566406 18.472656 27.398438 18.492188 27.15625 C 18.511719 26.9375 18.347656 26.746094 18.128906 26.726562 C 18.078125 26.703125 16.996094 26.59375 16.34375 25.578125 C 16.234375 25.355469 15.472656 24.546875 15.609375 23.226562 C 15.792969 21.453125 14.570312 20.460938 14.441406 20.253906 C 13.699219 19.386719 14.238281 18.058594 15.449219 18.160156 C 15.601562 18.1875 16.511719 18.152344 17.515625 18.707031 L 17.902344 18.917969 C 18.09375 19.023438 18.335938 18.953125 18.445312 18.761719 C 18.550781 18.566406 18.480469 18.324219 18.285156 18.214844 L 17.902344 18.003906 C 16.738281 17.363281 15.652344 17.386719 15.507812 17.363281 Z M 15.507812 17.363281 "/>
<path style=" stroke:none;fill-rule:nonzero;fill:rgb(0%,0%,0%);fill-opacity:1;" d="M 18.855469 37.460938 C 19.714844 37.523438 20.457031 36.832031 20.457031 35.960938 L 20.457031 4.039062 C 20.457031 3.183594 19.742188 2.484375 18.855469 2.535156 C 9.714844 3.15625 2.554688 10.828125 2.554688 20 C 2.554688 29.171875 9.714844 36.84375 18.855469 37.460938 Z M 8.136719 31.675781 C 8.394531 31.371094 8.769531 31.179688 9.171875 31.152344 C 9.582031 31.128906 9.976562 31.269531 10.28125 31.554688 C 11.675781 32.863281 13.246094 32.558594 13.597656 32.609375 C 14.742188 32.617188 15.480469 33.820312 14.972656 34.847656 L 14.527344 35.757812 C 12.085938 34.898438 9.910156 33.484375 8.136719 31.675781 Z M 18.910156 3.335938 C 19.308594 3.304688 19.65625 3.628906 19.65625 4.039062 L 19.65625 35.960938 C 19.65625 36.378906 19.300781 36.695312 18.910156 36.664062 C 17.660156 36.578125 16.453125 36.351562 15.296875 36.007812 L 15.691406 35.203125 C 16.460938 33.636719 15.332031 31.824219 13.605469 31.808594 C 13.222656 31.757812 11.964844 32.035156 10.828125 30.972656 C 10.363281 30.53125 9.75 30.316406 9.121094 30.355469 C 8.53125 30.394531 7.988281 30.667969 7.59375 31.09375 C 6.722656 30.117188 5.964844 29.035156 5.34375 27.875 L 6.511719 25.777344 C 7.167969 24.59375 8.230469 23.691406 9.5 23.230469 C 9.816406 23.113281 10.152344 22.90625 10.496094 22.605469 C 11.199219 21.992188 10.933594 20.757812 10.519531 20.074219 C 10.097656 19.378906 9.367188 18.8125 9.363281 18.8125 C 8.882812 18.355469 9.035156 17.730469 9.496094 17.371094 L 11.027344 16.179688 C 11.910156 15.488281 12.53125 14.507812 12.777344 13.40625 C 12.996094 12.433594 13.480469 11.546875 14.179688 10.835938 L 16.117188 8.882812 C 16.921875 8.066406 16.484375 6.679688 15.359375 6.472656 C 15.285156 6.460938 15.3125 6.46875 15.105469 6.472656 C 14.480469 6.492188 13.925781 6.007812 13.867188 5.375 C 13.84375 5.144531 13.800781 4.632812 13.785156 4.523438 C 15.382812 3.871094 17.105469 3.457031 18.910156 3.335938 Z M 13.015625 4.859375 L 13.070312 5.449219 C 13.167969 6.5 14.070312 7.300781 15.125 7.269531 L 15.25 7.269531 C 15.71875 7.382812 15.894531 7.96875 15.546875 8.320312 L 13.613281 10.273438 C 12.804688 11.089844 12.246094 12.113281 11.996094 13.242188 C 11.789062 14.152344 11.269531 14.972656 10.535156 15.546875 L 9.003906 16.742188 C 8.164062 17.394531 7.957031 18.582031 8.84375 19.417969 C 8.851562 19.425781 9.492188 19.917969 9.835938 20.492188 C 10.128906 20.972656 10.253906 21.753906 9.96875 22 C 9.699219 22.238281 9.449219 22.394531 9.226562 22.476562 C 7.773438 23.003906 6.5625 24.035156 5.8125 25.386719 L 4.90625 27.011719 C 3.910156 24.875 3.355469 22.496094 3.355469 20 C 3.355469 13.351562 7.296875 7.53125 13.015625 4.859375 Z M 13.015625 4.859375 "/>
</g>
</svg>
