<?xml version="1.0" encoding="UTF-8"?>
<svg xmlns="http://www.w3.org/2000/svg" xmlns:xlink="http://www.w3.org/1999/xlink" width="40px" height="40px" viewBox="0 0 40 40" version="1.1">
<g id="surface1">
<path style=" stroke:none;fill-rule:nonzero;fill:rgb(0%,0%,0%);fill-opacity:1;" d="M 33.816406 26.726562 C 32.847656 26.363281 31.757812 26.484375 30.789062 27.089844 L 24.96875 30.605469 C 24.726562 30.425781 24.484375 30.242188 24.242188 30.183594 L 15.453125 27.03125 C 14.789062 26.789062 14.0625 26.789062 13.453125 27.089844 C 13.453125 27.089844 13.394531 27.089844 13.394531 27.152344 L 9.878906 29.273438 L 9.878906 29.089844 C 9.878906 28.425781 9.332031 27.878906 8.667969 27.878906 L 5.757812 27.878906 C 5.089844 27.878906 4.546875 28.425781 4.546875 29.089844 L 4.546875 38.183594 C 4.546875 38.847656 5.089844 39.394531 5.757812 39.394531 L 8.605469 39.394531 C 9.273438 39.394531 9.816406 38.847656 9.816406 38.183594 L 9.816406 37.878906 C 11.152344 37.152344 11.695312 36.484375 12.605469 36.605469 L 22.304688 38.726562 C 23.089844 38.96875 23.9375 38.789062 24.667969 38.304688 L 34.546875 30.484375 C 35.878906 29.574219 35.757812 27.453125 33.816406 26.726562 Z M 5.757812 38.183594 L 5.757812 29.089844 L 8.605469 29.089844 L 8.605469 38.183594 Z M 33.816406 29.515625 C 23.757812 37.152344 24 37.9375 22.605469 37.515625 L 12.847656 35.394531 L 12.789062 35.394531 C 11.394531 35.152344 10.425781 36.121094 9.816406 36.425781 L 9.816406 30.605469 L 13.9375 28.121094 C 14.304688 28 14.667969 28 15.03125 28.121094 L 23.816406 31.273438 C 24.605469 31.574219 24.910156 32.546875 24.425781 33.210938 C 24.0625 33.695312 23.453125 33.878906 22.847656 33.636719 L 17.636719 31.636719 C 17.332031 31.515625 16.96875 31.695312 16.847656 32 C 16.726562 32.304688 16.910156 32.667969 17.210938 32.789062 L 22.425781 34.789062 C 23.515625 35.273438 24.726562 34.910156 25.394531 34 C 25.878906 33.332031 26.0625 32.546875 25.695312 31.636719 L 31.453125 28.183594 C 32.0625 27.816406 32.789062 27.695312 33.453125 27.9375 C 34.363281 28.242188 34.425781 29.089844 33.816406 29.515625 Z M 33.816406 29.515625 "/>
<path style=" stroke:none;fill-rule:nonzero;fill:rgb(0%,0%,0%);fill-opacity:1;" d="M 18.96875 20.667969 C 19.515625 21.03125 19.878906 21.636719 20 22.242188 C 19.453125 22.546875 19.152344 23.152344 19.152344 23.757812 C 19.152344 24.605469 19.757812 25.332031 20.605469 25.515625 L 20.847656 27.453125 C 20.910156 27.757812 21.152344 28 21.453125 28 L 26.183594 28 C 26.484375 28 26.726562 27.757812 26.789062 27.453125 L 27.03125 25.453125 C 27.757812 25.210938 28.363281 24.546875 28.363281 23.757812 C 28.363281 23.089844 28 22.546875 27.515625 22.242188 C 27.574219 21.636719 27.9375 21.03125 28.546875 20.605469 C 30.789062 19.03125 32.183594 16.484375 32.183594 13.757812 C 32.183594 9.03125 28.242188 5.210938 23.453125 5.453125 C 19.152344 5.636719 15.574219 9.332031 15.515625 13.636719 C 15.332031 16.484375 16.667969 19.089844 18.96875 20.667969 Z M 21.9375 26.847656 L 21.816406 25.636719 L 25.757812 25.636719 L 25.636719 26.847656 Z M 26.425781 24.425781 L 20.910156 24.425781 C 20.605469 24.425781 20.304688 24.183594 20.304688 23.816406 C 20.304688 23.515625 20.546875 23.210938 20.910156 23.210938 L 26.425781 23.210938 C 26.726562 23.210938 27.03125 23.453125 27.03125 23.816406 C 27.03125 24.121094 26.789062 24.425781 26.425781 24.425781 Z M 23.332031 6.726562 C 27.394531 6.546875 30.789062 9.816406 30.789062 13.816406 C 30.789062 16.183594 29.636719 18.363281 27.695312 19.695312 C 26.847656 20.242188 26.304688 21.089844 26.183594 22.0625 L 21.210938 22.0625 C 21.089844 21.152344 20.546875 20.304688 19.695312 19.695312 C 17.757812 18.363281 16.605469 16.121094 16.605469 13.757812 C 16.667969 10.0625 19.695312 6.910156 23.332031 6.726562 Z M 23.332031 6.726562 "/>
<path style=" stroke:none;fill-rule:nonzero;fill:rgb(0%,0%,0%);fill-opacity:1;" d="M 23.515625 9.757812 C 25.816406 9.636719 27.757812 11.515625 27.757812 13.816406 C 27.757812 14.183594 28 14.425781 28.363281 14.425781 C 28.726562 14.425781 28.96875 14.183594 28.96875 13.816406 C 28.96875 10.847656 26.484375 8.425781 23.453125 8.546875 C 23.089844 8.546875 22.847656 8.847656 22.847656 9.152344 C 22.847656 9.515625 23.152344 9.757812 23.515625 9.757812 Z M 23.515625 9.757812 "/>
<path style=" stroke:none;fill-rule:nonzero;fill:rgb(0%,0%,0%);fill-opacity:1;" d="M 23.695312 4.183594 C 24.0625 4.183594 24.304688 3.9375 24.304688 3.574219 L 24.304688 1.210938 C 24.304688 0.847656 24.0625 0.605469 23.695312 0.605469 C 23.332031 0.605469 23.089844 0.847656 23.089844 1.210938 L 23.089844 3.574219 C 23.089844 3.9375 23.332031 4.183594 23.695312 4.183594 Z M 23.695312 4.183594 "/>
<path style=" stroke:none;fill-rule:nonzero;fill:rgb(0%,0%,0%);fill-opacity:1;" d="M 19.394531 4.484375 C 19.515625 4.726562 19.695312 4.847656 19.9375 4.847656 C 20 4.847656 20.121094 4.847656 20.183594 4.789062 C 20.484375 4.667969 20.667969 4.304688 20.484375 4 L 19.574219 1.816406 C 19.453125 1.515625 19.089844 1.332031 18.789062 1.515625 C 18.484375 1.636719 18.304688 2 18.484375 2.304688 Z M 19.394531 4.484375 "/>
<path style=" stroke:none;fill-rule:nonzero;fill:rgb(0%,0%,0%);fill-opacity:1;" d="M 16.363281 6.789062 C 16.605469 7.03125 16.96875 7.03125 17.210938 6.789062 C 17.453125 6.546875 17.453125 6.183594 17.210938 5.9375 L 15.515625 4.242188 C 15.273438 4 14.910156 4 14.667969 4.242188 C 14.425781 4.484375 14.425781 4.847656 14.667969 5.089844 Z M 16.363281 6.789062 "/>
<path style=" stroke:none;fill-rule:nonzero;fill:rgb(0%,0%,0%);fill-opacity:1;" d="M 30.96875 6.96875 L 32.667969 5.273438 C 32.910156 5.03125 32.910156 4.667969 32.667969 4.425781 C 32.425781 4.183594 32.0625 4.183594 31.816406 4.425781 L 30.121094 6.0625 C 29.878906 6.304688 29.878906 6.667969 30.121094 6.910156 C 30.304688 7.152344 30.726562 7.152344 30.96875 6.96875 Z M 30.96875 6.96875 "/>
<path style=" stroke:none;fill-rule:nonzero;fill:rgb(0%,0%,0%);fill-opacity:1;" d="M 27.152344 4.910156 C 27.210938 4.96875 27.332031 4.96875 27.394531 4.96875 C 27.636719 4.96875 27.878906 4.847656 27.9375 4.605469 L 28.847656 2.425781 C 28.96875 2.121094 28.847656 1.757812 28.546875 1.636719 C 28.242188 1.515625 27.878906 1.636719 27.757812 1.9375 L 26.847656 4.121094 C 26.726562 4.425781 26.847656 4.789062 27.152344 4.910156 Z M 27.152344 4.910156 "/>
</g>
</svg>
