<?xml version="1.0" encoding="UTF-8"?>
<svg xmlns="http://www.w3.org/2000/svg" xmlns:xlink="http://www.w3.org/1999/xlink" width="40px" height="40px" viewBox="0 0 40 40" version="1.1">
<g id="surface1">
<path style=" stroke:none;fill-rule:nonzero;fill:rgb(0%,0%,0%);fill-opacity:1;" d="M 40.054688 19.992188 C 40.054688 19.761719 39.921875 19.554688 39.714844 19.460938 L 29.464844 14.75 L 39.714844 10.039062 C 40.15625 9.835938 40.15625 9.179688 39.714844 8.972656 L 20.308594 0.0546875 C 20.148438 -0.0195312 19.960938 -0.0195312 19.804688 0.0585938 L 18.046875 0.917969 C 17.371094 1.25 17.878906 2.304688 18.5625 1.972656 L 20.070312 1.234375 L 23.378906 2.753906 L 20.039062 4.289062 L 15.738281 2.316406 C 15.523438 2.21875 15.328125 2.132812 15.09375 2.238281 L 0.410156 8.972656 C -0.03125 9.179688 -0.0351562 9.835938 0.410156 10.039062 L 10.660156 14.75 L 8.648438 15.671875 C 7.964844 15.988281 8.449219 17.054688 9.140625 16.738281 L 12.027344 15.410156 C 12.039062 15.40625 12.050781 15.398438 12.058594 15.394531 L 19.816406 18.960938 C 19.972656 19.03125 20.152344 19.03125 20.308594 18.960938 L 28.0625 15.394531 L 38.066406 19.992188 L 20.0625 28.269531 L 2.058594 19.992188 L 5.996094 18.183594 C 6.683594 17.867188 6.195312 16.800781 5.507812 17.117188 L 0.410156 19.460938 C -0.03125 19.664062 -0.0351562 20.320312 0.410156 20.523438 L 10.660156 25.234375 L 0.410156 29.945312 C -0.03125 30.148438 -0.0351562 30.804688 0.410156 31.011719 L 19.816406 39.929688 C 19.972656 40.003906 20.152344 40.003906 20.308594 39.929688 L 23.664062 38.386719 C 24.351562 38.074219 23.867188 37.007812 23.175781 37.324219 L 20.0625 38.753906 L 2.058594 30.476562 L 12.0625 25.878906 L 19.816406 29.445312 C 19.972656 29.515625 20.152344 29.515625 20.308594 29.445312 L 28.097656 25.863281 C 28.144531 25.90625 28.195312 25.941406 28.25 25.964844 L 38.066406 30.476562 L 27.003906 35.5625 C 26.316406 35.878906 26.800781 36.945312 27.492188 36.628906 L 39.714844 31.011719 C 40.15625 30.804688 40.15625 30.148438 39.714844 29.945312 L 29.464844 25.234375 L 39.714844 20.523438 C 39.921875 20.429688 40.054688 20.222656 40.054688 19.992188 Z M 24.78125 15.613281 L 21.464844 14.089844 L 25.109375 12.414062 L 28.414062 13.945312 Z M 11.714844 13.945312 L 15.03125 12.421875 L 18.660156 14.089844 L 15.34375 15.613281 Z M 6.777344 11.675781 L 10.09375 10.152344 L 13.628906 11.777344 L 10.3125 13.300781 Z M 10.484375 5.640625 L 13.78125 7.167969 L 10.09375 8.863281 L 6.78125 7.339844 Z M 15.175781 7.8125 L 18.699219 9.445312 L 15.03125 11.132812 L 11.496094 9.507812 Z M 33.347656 7.335938 L 30.023438 8.867188 L 26.390625 7.199219 L 29.71875 5.667969 Z M 28.621094 9.511719 L 25.113281 11.125 L 21.496094 9.449219 L 24.984375 7.84375 Z M 29.8125 13.300781 L 26.507812 11.769531 L 30.023438 10.15625 L 33.347656 11.675781 Z M 20.097656 8.800781 L 16.578125 7.171875 L 20.039062 5.578125 L 23.582031 7.203125 Z M 16.433594 11.777344 L 20.097656 10.09375 L 23.710938 11.765625 L 20.0625 13.445312 Z M 34.75 11.03125 L 31.429688 9.507812 L 34.75 7.980469 L 38.066406 9.507812 Z M 24.78125 3.398438 L 28.316406 5.023438 L 24.984375 6.554688 L 21.445312 4.933594 Z M 15.179688 6.523438 L 11.886719 5 L 15.332031 3.421875 L 18.636719 4.933594 Z M 5.378906 7.984375 L 8.691406 9.507812 L 5.375 11.03125 L 2.058594 9.507812 Z M 20.0625 17.78125 L 16.746094 16.257812 L 20.0625 14.734375 L 23.378906 16.257812 Z M 20.0625 17.78125 "/>
</g>
</svg>
