<?xml version="1.0" encoding="UTF-8"?>
<svg xmlns="http://www.w3.org/2000/svg" xmlns:xlink="http://www.w3.org/1999/xlink" width="35px" height="35px" viewBox="0 0 35 35" version="1.1">
<g id="surface1">
<path style=" stroke:none;fill-rule:nonzero;fill:rgb(0%,0%,0%);fill-opacity:1;" d="M 27.578125 12.667969 L 25.066406 12.667969 C 24.820312 12.667969 24.578125 12.691406 24.335938 12.734375 C 23.5625 11.777344 22.503906 11.050781 21.335938 10.683594 C 21.148438 10.625 20.941406 10.707031 20.851562 10.878906 L 18.886719 14.523438 L 18.484375 13.082031 C 18.433594 12.894531 18.460938 12.726562 18.574219 12.570312 L 19.667969 11.039062 C 19.757812 10.914062 19.769531 10.75 19.699219 10.613281 C 19.628906 10.476562 19.488281 10.390625 19.335938 10.390625 L 15.664062 10.390625 C 15.511719 10.390625 15.371094 10.476562 15.300781 10.613281 C 15.230469 10.75 15.242188 10.914062 15.332031 11.039062 L 16.425781 12.570312 C 16.539062 12.730469 16.570312 12.898438 16.519531 13.082031 L 16.121094 14.539062 L 14.152344 10.878906 C 14.058594 10.707031 13.855469 10.625 13.664062 10.683594 C 12.496094 11.050781 11.441406 11.777344 10.664062 12.734375 C 10.425781 12.691406 10.179688 12.667969 9.9375 12.667969 L 7.421875 12.667969 C 5.101562 12.667969 3.210938 14.6875 3.210938 17.164062 L 3.210938 21.28125 C 3.210938 22.03125 3.820312 22.636719 4.570312 22.636719 L 6.871094 22.636719 C 7.109375 22.636719 7.304688 22.78125 7.382812 23.007812 C 7.546875 23.515625 7.753906 24.011719 7.996094 24.488281 C 8.105469 24.703125 8.066406 24.941406 7.894531 25.109375 L 6.265625 26.738281 C 5.738281 27.269531 5.738281 28.128906 6.265625 28.660156 L 8.523438 30.917969 C 9.054688 31.445312 9.914062 31.445312 10.445312 30.917969 L 12.074219 29.289062 C 12.242188 29.117188 12.480469 29.082031 12.695312 29.1875 C 13.171875 29.429688 13.667969 29.636719 14.175781 29.800781 C 14.402344 29.878906 14.546875 30.074219 14.546875 30.3125 L 14.546875 32.617188 C 14.546875 33.363281 15.15625 33.972656 15.902344 33.972656 L 19.09375 33.972656 C 19.84375 33.972656 20.453125 33.363281 20.453125 32.617188 L 20.453125 30.3125 C 20.453125 30.074219 20.59375 29.878906 20.824219 29.800781 C 21.328125 29.636719 21.828125 29.429688 22.304688 29.1875 C 22.519531 29.082031 22.757812 29.117188 22.925781 29.289062 L 24.554688 30.917969 C 24.8125 31.171875 25.152344 31.3125 25.515625 31.3125 C 25.878906 31.3125 26.21875 31.171875 26.476562 30.917969 L 28.730469 28.660156 C 28.988281 28.402344 29.128906 28.0625 29.128906 27.699219 C 29.128906 27.335938 28.988281 26.996094 28.730469 26.738281 L 27.105469 25.109375 C 26.933594 24.941406 26.894531 24.703125 27.003906 24.488281 C 27.246094 24.011719 27.453125 23.511719 27.617188 23.007812 C 27.691406 22.78125 27.886719 22.636719 28.128906 22.636719 L 30.429688 22.636719 C 31.179688 22.636719 31.789062 22.027344 31.789062 21.28125 L 31.789062 17.164062 C 31.789062 14.6875 29.902344 12.667969 27.578125 12.667969 Z M 21.40625 11.574219 C 23.515625 12.386719 24.914062 14.398438 24.914062 16.679688 L 24.914062 18.269531 L 22.511719 18.269531 L 22.511719 16.5 C 22.511719 16.273438 22.328125 16.089844 22.101562 16.089844 C 21.875 16.089844 21.691406 16.273438 21.691406 16.5 L 21.691406 18.269531 L 17.777344 18.269531 C 17.808594 18.238281 17.839844 18.203125 17.859375 18.160156 Z M 11.761719 19.089844 L 23.238281 19.089844 L 23.238281 19.453125 C 23.238281 22.617188 20.664062 25.191406 17.5 25.191406 C 14.335938 25.191406 11.761719 22.617188 11.761719 19.453125 Z M 17.09375 12.09375 L 16.464844 11.210938 L 18.535156 11.210938 L 17.90625 12.09375 C 17.652344 12.449219 17.574219 12.882812 17.695312 13.304688 L 18.328125 15.566406 L 17.5 17.101562 L 16.683594 15.585938 L 17.308594 13.300781 C 17.425781 12.878906 17.347656 12.449219 17.09375 12.09375 Z M 13.59375 11.574219 L 17.140625 18.160156 C 17.160156 18.203125 17.191406 18.238281 17.222656 18.269531 L 13.308594 18.269531 L 13.308594 16.5 C 13.308594 16.273438 13.125 16.089844 12.898438 16.089844 C 12.671875 16.089844 12.488281 16.273438 12.488281 16.5 L 12.488281 18.269531 L 10.085938 18.269531 L 10.085938 16.679688 C 10.085938 14.398438 11.484375 12.386719 13.59375 11.574219 Z M 4.03125 17.164062 C 4.03125 15.136719 5.550781 13.488281 7.421875 13.488281 L 9.933594 13.488281 C 10.003906 13.488281 10.070312 13.492188 10.136719 13.496094 C 9.566406 14.457031 9.265625 15.546875 9.265625 16.679688 L 9.265625 18.269531 L 4.660156 18.269531 C 4.3125 18.269531 4.03125 17.988281 4.03125 17.640625 Z M 30.429688 21.816406 L 28.128906 21.816406 C 27.53125 21.816406 27.027344 22.183594 26.839844 22.753906 C 26.6875 23.21875 26.496094 23.675781 26.273438 24.117188 C 26.003906 24.652344 26.101562 25.269531 26.523438 25.691406 L 28.152344 27.320312 C 28.253906 27.421875 28.308594 27.554688 28.308594 27.699219 C 28.308594 27.84375 28.253906 27.980469 28.152344 28.082031 L 25.894531 30.335938 C 25.792969 30.4375 25.660156 30.496094 25.515625 30.496094 C 25.371094 30.496094 25.234375 30.4375 25.132812 30.335938 L 23.507812 28.710938 C 23.082031 28.289062 22.464844 28.1875 21.933594 28.457031 C 21.492188 28.679688 21.035156 28.871094 20.566406 29.023438 C 20 29.210938 19.632812 29.71875 19.632812 30.316406 L 19.632812 32.617188 C 19.632812 32.914062 19.390625 33.15625 19.09375 33.15625 L 15.902344 33.15625 C 15.605469 33.15625 15.363281 32.914062 15.363281 32.617188 L 15.363281 30.316406 C 15.363281 29.71875 15 29.210938 14.429688 29.023438 C 13.964844 28.871094 13.503906 28.679688 13.066406 28.457031 C 12.53125 28.1875 11.914062 28.289062 11.492188 28.710938 L 9.863281 30.339844 C 9.652344 30.546875 9.3125 30.546875 9.101562 30.339844 L 6.847656 28.082031 C 6.636719 27.871094 6.636719 27.53125 6.847656 27.320312 L 8.472656 25.691406 C 8.898438 25.269531 8.996094 24.652344 8.726562 24.117188 C 8.503906 23.679688 8.3125 23.21875 8.160156 22.753906 C 7.972656 22.1875 7.46875 21.820312 6.871094 21.820312 L 4.570312 21.820312 C 4.273438 21.820312 4.03125 21.578125 4.03125 21.28125 L 4.03125 18.945312 C 4.222656 19.039062 4.433594 19.09375 4.660156 19.09375 L 10.945312 19.09375 L 10.945312 19.453125 C 10.945312 23.070312 13.886719 26.011719 17.5 26.011719 C 21.117188 26.011719 24.058594 23.070312 24.058594 19.453125 L 24.058594 19.09375 L 30.339844 19.09375 C 30.566406 19.09375 30.78125 19.039062 30.972656 18.945312 L 30.972656 21.28125 C 30.96875 21.578125 30.726562 21.816406 30.429688 21.816406 Z M 30.339844 18.269531 L 25.734375 18.269531 L 25.734375 16.679688 C 25.734375 15.546875 25.433594 14.457031 24.863281 13.496094 C 24.929688 13.492188 24.996094 13.488281 25.066406 13.488281 L 27.578125 13.488281 C 29.449219 13.488281 30.96875 15.136719 30.96875 17.164062 L 30.96875 17.640625 C 30.96875 17.988281 30.6875 18.269531 30.339844 18.269531 Z M 26.324219 12.035156 C 27.535156 12.035156 28.507812 11.375 28.988281 10.230469 C 29.53125 8.9375 29.332031 7.292969 28.535156 6.484375 C 27.953125 5.890625 27.25 5.613281 26.324219 5.613281 C 25.394531 5.613281 24.6875 5.890625 24.105469 6.484375 C 23.3125 7.292969 23.113281 8.9375 23.65625 10.230469 C 24.136719 11.375 25.109375 12.035156 26.324219 12.035156 Z M 24.691406 7.058594 C 25.121094 6.621094 25.609375 6.433594 26.324219 6.433594 C 27.035156 6.433594 27.523438 6.621094 27.953125 7.058594 C 28.511719 7.628906 28.640625 8.9375 28.230469 9.914062 C 27.984375 10.503906 27.449219 11.214844 26.324219 11.214844 C 25.195312 11.214844 24.660156 10.503906 24.410156 9.910156 C 24.003906 8.933594 24.128906 7.628906 24.691406 7.058594 Z M 8.679688 12.035156 C 9.890625 12.035156 10.863281 11.375 11.34375 10.230469 C 11.886719 8.9375 11.6875 7.292969 10.894531 6.484375 C 10.3125 5.890625 9.605469 5.613281 8.679688 5.613281 C 7.75 5.613281 7.046875 5.890625 6.464844 6.484375 C 5.667969 7.292969 5.46875 8.9375 6.011719 10.230469 C 6.492188 11.375 7.464844 12.035156 8.679688 12.035156 Z M 7.046875 7.058594 C 7.476562 6.621094 7.964844 6.433594 8.679688 6.433594 C 9.390625 6.433594 9.878906 6.621094 10.308594 7.058594 C 10.867188 7.628906 10.996094 8.9375 10.589844 9.914062 C 10.339844 10.503906 9.804688 11.214844 8.679688 11.214844 C 7.550781 11.214844 7.015625 10.503906 6.769531 9.910156 C 6.359375 8.933594 6.488281 7.628906 7.046875 7.058594 Z M 17.5 9.964844 C 19.183594 9.964844 20.53125 9.054688 21.195312 7.460938 C 21.953125 5.652344 21.683594 3.355469 20.578125 2.230469 C 19.773438 1.410156 18.792969 1.027344 17.503906 1.027344 C 16.207031 1.027344 15.226562 1.410156 14.417969 2.230469 C 13.316406 3.355469 13.042969 5.652344 13.804688 7.460938 C 14.46875 9.054688 15.816406 9.964844 17.5 9.964844 Z M 15.003906 2.804688 C 15.65625 2.140625 16.425781 1.847656 17.503906 1.847656 C 18.574219 1.847656 19.34375 2.140625 19.996094 2.804688 C 20.871094 3.695312 21.070312 5.640625 20.4375 7.144531 C 20.125 7.890625 19.328125 9.144531 17.5 9.144531 C 15.671875 9.144531 14.871094 7.890625 14.558594 7.144531 C 13.929688 5.640625 14.128906 3.695312 15.003906 2.804688 Z M 15.003906 2.804688 "/>
</g>
</svg>
