<?xml version="1.0" encoding="UTF-8"?>
<svg xmlns="http://www.w3.org/2000/svg" xmlns:xlink="http://www.w3.org/1999/xlink" width="35px" height="35px" viewBox="0 0 35 35" version="1.1">
<g id="surface1">
<path style=" stroke:none;fill-rule:nonzero;fill:rgb(0%,0%,0%);fill-opacity:1;" d="M 33.484375 27.75 L 32.332031 27.75 L 32.332031 10.496094 C 32.332031 9.257812 31.324219 8.25 30.085938 8.25 L 27.101562 8.25 C 27.101562 7.160156 27.101562 4.492188 27.101562 3.496094 C 27.101562 2.820312 26.546875 2.265625 25.871094 2.265625 L 9.136719 2.265625 C 8.457031 2.265625 7.90625 2.820312 7.90625 3.496094 L 7.90625 8.25 L 4.914062 8.25 C 3.675781 8.25 2.667969 9.257812 2.667969 10.496094 L 2.667969 27.75 L 1.515625 27.75 C 0.976562 27.75 0.535156 28.1875 0.535156 28.726562 L 0.535156 29.828125 C 0.535156 31.429688 1.839844 32.734375 3.445312 32.734375 L 31.554688 32.734375 C 33.160156 32.734375 34.464844 31.429688 34.464844 29.828125 L 34.464844 28.726562 C 34.464844 28.1875 34.023438 27.75 33.484375 27.75 Z M 27.101562 10.832031 L 29.144531 10.832031 C 29.480469 10.832031 29.753906 11.105469 29.753906 11.441406 L 29.75 25.222656 C 29.75 25.558594 29.476562 25.832031 29.140625 25.832031 L 27.101562 25.832031 Z M 8.570312 3.496094 C 8.570312 3.183594 8.824219 2.929688 9.136719 2.929688 L 25.871094 2.929688 C 26.179688 2.929688 26.433594 3.183594 26.433594 3.496094 L 26.433594 6.335938 L 8.570312 6.335938 Z M 8.570312 7.003906 L 26.433594 7.003906 L 26.433594 25.832031 L 8.570312 25.832031 Z M 3.332031 10.496094 C 3.332031 9.625 4.042969 8.914062 4.914062 8.914062 L 7.90625 8.914062 L 7.90625 10.164062 L 5.863281 10.164062 C 5.15625 10.164062 4.585938 10.734375 4.585938 11.4375 L 4.585938 25.222656 C 4.585938 25.925781 5.160156 26.496094 5.863281 26.496094 L 29.140625 26.496094 C 29.84375 26.496094 30.414062 25.925781 30.414062 25.222656 L 30.417969 11.441406 C 30.417969 10.742188 29.847656 10.167969 29.144531 10.167969 L 27.101562 10.167969 L 27.101562 8.914062 L 30.085938 8.914062 C 30.957031 8.914062 31.667969 9.625 31.667969 10.496094 L 31.667969 27.75 L 3.332031 27.75 Z M 7.90625 10.828125 L 7.90625 25.832031 L 5.863281 25.832031 C 5.527344 25.832031 5.253906 25.558594 5.253906 25.222656 L 5.253906 11.4375 C 5.253906 11.101562 5.523438 10.828125 5.863281 10.828125 Z M 20.785156 28.414062 C 20.628906 29.28125 19.871094 29.9375 18.960938 29.9375 L 16.039062 29.9375 C 15.128906 29.9375 14.371094 29.28125 14.214844 28.414062 Z M 33.796875 29.828125 C 33.796875 31.0625 32.792969 32.070312 31.554688 32.070312 L 3.445312 32.070312 C 2.207031 32.070312 1.203125 31.0625 1.203125 29.828125 L 1.203125 28.726562 C 1.203125 28.554688 1.339844 28.414062 1.515625 28.414062 L 2.992188 28.414062 C 2.996094 28.414062 2.996094 28.414062 3 28.414062 L 13.542969 28.414062 C 13.707031 29.648438 14.761719 30.601562 16.039062 30.601562 L 18.960938 30.601562 C 20.238281 30.601562 21.292969 29.648438 21.457031 28.414062 C 22.6875 28.414062 17 28.417969 33.484375 28.414062 C 33.660156 28.414062 33.796875 28.554688 33.796875 28.726562 Z M 33.796875 29.828125 "/>
<path style=" stroke:none;fill-rule:nonzero;fill:rgb(0%,0%,0%);fill-opacity:1;" d="M 25.714844 29.910156 L 24.589844 29.910156 C 24.40625 29.910156 24.257812 30.058594 24.257812 30.242188 C 24.257812 30.425781 24.40625 30.574219 24.589844 30.574219 L 25.714844 30.574219 C 25.898438 30.574219 26.046875 30.425781 26.046875 30.242188 C 26.046875 30.058594 25.898438 29.910156 25.714844 29.910156 Z M 25.714844 29.910156 "/>
<path style=" stroke:none;fill-rule:nonzero;fill:rgb(0%,0%,0%);fill-opacity:1;" d="M 28.566406 29.910156 L 27.441406 29.910156 C 27.257812 29.910156 27.109375 30.058594 27.109375 30.242188 C 27.109375 30.425781 27.257812 30.574219 27.441406 30.574219 L 28.566406 30.574219 C 28.75 30.574219 28.898438 30.425781 28.898438 30.242188 C 28.898438 30.058594 28.75 29.910156 28.566406 29.910156 Z M 28.566406 29.910156 "/>
<path style=" stroke:none;fill-rule:nonzero;fill:rgb(0%,0%,0%);fill-opacity:1;" d="M 31.417969 29.910156 L 30.292969 29.910156 C 30.109375 29.910156 29.960938 30.058594 29.960938 30.242188 C 29.960938 30.425781 30.109375 30.574219 30.292969 30.574219 L 31.417969 30.574219 C 31.601562 30.574219 31.75 30.425781 31.75 30.242188 C 31.75 30.058594 31.601562 29.910156 31.417969 29.910156 Z M 31.417969 29.910156 "/>
<path style=" stroke:none;fill-rule:nonzero;fill:rgb(0%,0%,0%);fill-opacity:1;" d="M 18.960938 3.511719 C 18.34375 3.511719 17.84375 4.015625 17.84375 4.632812 C 17.84375 5.25 18.34375 5.753906 18.960938 5.753906 C 19.578125 5.753906 20.082031 5.25 20.082031 4.632812 C 20.082031 4.015625 19.578125 3.511719 18.960938 3.511719 Z M 18.960938 5.089844 C 18.710938 5.089844 18.507812 4.882812 18.507812 4.632812 C 18.507812 4.382812 18.710938 4.179688 18.960938 4.179688 C 19.210938 4.179688 19.414062 4.382812 19.414062 4.632812 C 19.414062 4.882812 19.210938 5.089844 18.960938 5.089844 Z M 18.960938 5.089844 "/>
<path style=" stroke:none;fill-rule:nonzero;fill:rgb(0%,0%,0%);fill-opacity:1;" d="M 21.574219 3.511719 C 20.957031 3.511719 20.453125 4.015625 20.453125 4.632812 C 20.453125 5.25 20.957031 5.753906 21.574219 5.753906 C 22.191406 5.753906 22.691406 5.25 22.691406 4.632812 C 22.691406 4.015625 22.191406 3.511719 21.574219 3.511719 Z M 21.574219 5.089844 C 21.324219 5.089844 21.121094 4.882812 21.121094 4.632812 C 21.121094 4.382812 21.324219 4.179688 21.574219 4.179688 C 21.824219 4.179688 22.027344 4.382812 22.027344 4.632812 C 22.027344 4.882812 21.824219 5.089844 21.574219 5.089844 Z M 21.574219 5.089844 "/>
<path style=" stroke:none;fill-rule:nonzero;fill:rgb(0%,0%,0%);fill-opacity:1;" d="M 24.183594 3.511719 C 23.566406 3.511719 23.066406 4.015625 23.066406 4.632812 C 23.066406 5.25 23.566406 5.753906 24.183594 5.753906 C 24.800781 5.753906 25.304688 5.25 25.304688 4.632812 C 25.304688 4.015625 24.800781 3.511719 24.183594 3.511719 Z M 24.183594 5.089844 C 23.933594 5.089844 23.730469 4.882812 23.730469 4.632812 C 23.730469 4.382812 23.933594 4.179688 24.183594 4.179688 C 24.433594 4.179688 24.636719 4.382812 24.636719 4.632812 C 24.636719 4.882812 24.433594 5.089844 24.183594 5.089844 Z M 24.183594 5.089844 "/>
<path style=" stroke:none;fill-rule:nonzero;fill:rgb(0%,0%,0%);fill-opacity:1;" d="M 15.136719 14.070312 C 15.007812 13.941406 14.796875 13.941406 14.664062 14.070312 L 12.410156 16.328125 C 12.28125 16.457031 12.28125 16.667969 12.410156 16.796875 L 14.664062 19.050781 C 14.796875 19.179688 15.007812 19.179688 15.136719 19.050781 C 15.265625 18.921875 15.265625 18.710938 15.136719 18.582031 L 13.117188 16.5625 L 15.136719 14.542969 C 15.265625 14.410156 15.265625 14.203125 15.136719 14.070312 Z M 15.136719 14.070312 "/>
<path style=" stroke:none;fill-rule:nonzero;fill:rgb(0%,0%,0%);fill-opacity:1;" d="M 20.339844 14.070312 C 20.210938 13.941406 20 13.941406 19.871094 14.070312 C 19.738281 14.203125 19.738281 14.410156 19.871094 14.542969 L 21.890625 16.5625 L 19.871094 18.582031 C 19.738281 18.710938 19.738281 18.921875 19.871094 19.050781 C 20 19.179688 20.210938 19.179688 20.339844 19.050781 L 22.59375 16.796875 C 22.726562 16.667969 22.726562 16.457031 22.59375 16.328125 Z M 20.339844 14.070312 "/>
<path style=" stroke:none;fill-rule:nonzero;fill:rgb(0%,0%,0%);fill-opacity:1;" d="M 18.457031 12.480469 C 18.277344 12.4375 18.097656 12.546875 18.058594 12.726562 L 16.300781 20.242188 C 16.257812 20.421875 16.371094 20.601562 16.550781 20.644531 C 16.730469 20.6875 16.90625 20.570312 16.949219 20.394531 L 18.703125 12.878906 C 18.746094 12.699219 18.636719 12.519531 18.457031 12.480469 Z M 18.457031 12.480469 "/>
</g>
</svg>
