<?xml version="1.0" encoding="UTF-8"?>
<svg xmlns="http://www.w3.org/2000/svg" xmlns:xlink="http://www.w3.org/1999/xlink" width="35px" height="35px" viewBox="0 0 35 35" version="1.1">
<g id="surface1">
<path style=" stroke:none;fill-rule:nonzero;fill:rgb(0%,0%,0%);fill-opacity:1;" d="M 27.042969 26.648438 C 26.648438 26.648438 26.277344 26.773438 25.976562 26.988281 L 23.148438 24.25 L 23.148438 17.84375 L 24.316406 17.84375 C 24.507812 17.84375 24.660156 17.6875 24.660156 17.5 C 24.660156 13.550781 21.449219 10.339844 17.5 10.339844 C 13.550781 10.339844 10.339844 13.550781 10.339844 17.5 C 10.339844 17.6875 10.492188 17.84375 10.683594 17.84375 L 11.851562 17.84375 L 11.851562 24.25 L 9.023438 26.988281 C 8.722656 26.773438 8.351562 26.648438 7.957031 26.648438 C 6.9375 26.648438 6.105469 27.476562 6.105469 28.496094 C 6.105469 29.515625 6.9375 30.34375 7.957031 30.34375 C 8.976562 30.34375 9.804688 29.515625 9.804688 28.496094 C 9.804688 28.121094 9.691406 27.769531 9.5 27.480469 L 12.433594 24.640625 C 12.5 24.574219 12.535156 24.488281 12.535156 24.394531 L 12.535156 17.84375 L 17.15625 17.84375 L 17.15625 30.582031 C 16.300781 30.742188 15.652344 31.496094 15.652344 32.398438 C 15.652344 33.417969 16.480469 34.25 17.5 34.25 C 18.519531 34.25 19.347656 33.417969 19.347656 32.398438 C 19.347656 31.496094 18.699219 30.742188 17.84375 30.582031 L 17.84375 17.84375 L 22.464844 17.84375 L 22.464844 24.394531 C 22.464844 24.488281 22.5 24.574219 22.566406 24.640625 L 25.5 27.476562 C 25.308594 27.769531 25.195312 28.121094 25.195312 28.496094 C 25.195312 29.515625 26.023438 30.34375 27.042969 30.34375 C 28.0625 30.34375 28.894531 29.515625 28.894531 28.496094 C 28.894531 27.476562 28.0625 26.648438 27.042969 26.648438 Z M 7.957031 29.660156 C 7.3125 29.660156 6.789062 29.136719 6.789062 28.496094 C 6.789062 27.851562 7.3125 27.328125 7.957031 27.328125 C 8.597656 27.328125 9.121094 27.851562 9.121094 28.496094 C 9.121094 29.136719 8.597656 29.660156 7.957031 29.660156 Z M 18.664062 32.398438 C 18.664062 33.042969 18.140625 33.5625 17.5 33.5625 C 16.855469 33.5625 16.335938 33.042969 16.335938 32.398438 C 16.335938 31.757812 16.855469 31.234375 17.5 31.234375 C 18.140625 31.234375 18.664062 31.757812 18.664062 32.398438 Z M 11.03125 17.15625 C 11.210938 13.746094 14.042969 11.023438 17.5 11.023438 C 20.957031 11.023438 23.789062 13.746094 23.964844 17.15625 Z M 27.042969 29.660156 C 26.402344 29.660156 25.878906 29.136719 25.878906 28.496094 C 25.878906 27.851562 26.402344 27.328125 27.042969 27.328125 C 27.6875 27.328125 28.210938 27.851562 28.210938 28.496094 C 28.210938 29.136719 27.6875 29.660156 27.042969 29.660156 Z M 32.398438 20.042969 C 31.59375 20.042969 30.910156 20.558594 30.65625 21.277344 L 28.300781 20.917969 L 28.300781 17.839844 L 33.90625 17.839844 C 34.09375 17.839844 34.25 17.6875 34.25 17.5 L 34.25 16.046875 C 34.25 14.96875 33.4375 14.089844 32.367188 14 L 30.230469 13.824219 C 29.59375 13.769531 29.089844 13.398438 28.84375 12.800781 C 28.59375 12.207031 28.691406 11.585938 29.101562 11.097656 L 30.484375 9.460938 C 31.179688 8.640625 31.128906 7.445312 30.371094 6.683594 L 28.3125 4.628906 C 27.550781 3.867188 26.359375 3.820312 25.535156 4.515625 L 23.902344 5.898438 C 23.414062 6.308594 22.792969 6.402344 22.195312 6.15625 C 21.601562 5.910156 21.230469 5.402344 21.175781 4.769531 L 20.996094 2.632812 C 20.910156 1.5625 20.03125 0.75 18.953125 0.75 L 16.046875 0.75 C 14.96875 0.75 14.089844 1.5625 14 2.632812 L 13.824219 4.769531 C 13.769531 5.40625 13.398438 5.910156 12.800781 6.15625 C 12.207031 6.40625 11.585938 6.308594 11.097656 5.898438 L 9.464844 4.515625 C 8.640625 3.820312 7.445312 3.867188 6.683594 4.628906 L 4.628906 6.683594 C 3.867188 7.445312 3.820312 8.640625 4.515625 9.460938 L 5.898438 11.097656 C 6.308594 11.585938 6.402344 12.203125 6.15625 12.800781 C 5.910156 13.398438 5.402344 13.769531 4.769531 13.824219 L 2.632812 14 C 1.5625 14.089844 0.75 14.96875 0.75 16.046875 L 0.75 17.5 C 0.75 17.6875 0.90625 17.84375 1.09375 17.84375 L 6.699219 17.84375 L 6.699219 20.917969 L 4.34375 21.277344 C 4.089844 20.558594 3.40625 20.042969 2.601562 20.042969 C 1.582031 20.042969 0.75 20.875 0.75 21.894531 C 0.75 22.914062 1.582031 23.742188 2.601562 23.742188 C 3.597656 23.742188 4.414062 22.945312 4.449219 21.953125 L 7.09375 21.546875 C 7.257812 21.523438 7.382812 21.378906 7.382812 21.210938 L 7.382812 17.84375 L 8.945312 17.84375 C 9.132812 17.84375 9.289062 17.6875 9.289062 17.5 C 9.289062 12.972656 12.972656 9.289062 17.5 9.289062 C 22.027344 9.289062 25.710938 12.972656 25.710938 17.5 C 25.710938 17.6875 25.863281 17.84375 26.054688 17.84375 L 27.617188 17.84375 L 27.617188 21.210938 C 27.617188 21.378906 27.738281 21.523438 27.90625 21.546875 L 30.550781 21.953125 C 30.582031 22.945312 31.398438 23.742188 32.398438 23.742188 C 33.417969 23.742188 34.246094 22.914062 34.246094 21.894531 C 34.246094 20.871094 33.417969 20.042969 32.398438 20.042969 Z M 2.601562 23.058594 C 1.957031 23.058594 1.4375 22.535156 1.4375 21.894531 C 1.4375 21.25 1.957031 20.726562 2.601562 20.726562 C 3.242188 20.726562 3.765625 21.25 3.765625 21.894531 C 3.765625 22.535156 3.242188 23.058594 2.601562 23.058594 Z M 26.390625 17.15625 C 26.210938 12.410156 22.289062 8.605469 17.5 8.605469 C 12.710938 8.605469 8.789062 12.410156 8.609375 17.15625 L 1.433594 17.15625 L 1.433594 16.046875 C 1.433594 15.328125 1.976562 14.742188 2.691406 14.683594 L 4.824219 14.503906 C 5.710938 14.429688 6.445312 13.890625 6.789062 13.0625 C 7.132812 12.234375 6.996094 11.332031 6.417969 10.65625 L 5.035156 9.019531 C 4.570312 8.472656 4.605469 7.675781 5.113281 7.167969 L 7.167969 5.113281 C 7.675781 4.605469 8.472656 4.570312 9.019531 5.035156 L 10.65625 6.417969 C 11.335938 6.992188 12.234375 7.132812 13.0625 6.785156 C 13.890625 6.445312 14.429688 5.710938 14.503906 4.824219 L 14.683594 2.691406 C 14.742188 1.976562 15.328125 1.433594 16.046875 1.433594 L 18.953125 1.433594 C 19.671875 1.433594 20.257812 1.976562 20.316406 2.691406 L 20.496094 4.824219 C 20.570312 5.710938 21.109375 6.445312 21.9375 6.785156 C 22.765625 7.132812 23.664062 6.992188 24.34375 6.417969 L 25.980469 5.035156 C 26.527344 4.570312 27.324219 4.605469 27.832031 5.113281 L 29.886719 7.167969 C 30.394531 7.675781 30.425781 8.472656 29.964844 9.019531 L 28.582031 10.65625 C 28.003906 11.335938 27.867188 12.234375 28.210938 13.0625 C 28.554688 13.890625 29.289062 14.429688 30.175781 14.503906 L 32.308594 14.683594 C 33.023438 14.742188 33.5625 15.328125 33.5625 16.046875 L 33.5625 17.15625 Z M 32.398438 23.058594 C 31.757812 23.058594 31.234375 22.535156 31.234375 21.894531 C 31.234375 21.25 31.757812 20.726562 32.398438 20.726562 C 33.042969 20.726562 33.5625 21.25 33.5625 21.894531 C 33.5625 22.535156 33.042969 23.058594 32.398438 23.058594 Z M 32.398438 23.058594 "/>
</g>
</svg>
