<?xml version="1.0" encoding="UTF-8"?>
<svg xmlns="http://www.w3.org/2000/svg" xmlns:xlink="http://www.w3.org/1999/xlink" width="50px" height="50px" viewBox="0 0 50 50" version="1.1">
<g id="surface1">
<path style=" stroke:none;fill-rule:nonzero;fill:rgb(0%,0%,0%);fill-opacity:1;" d="M 11.953125 18.539062 C 11.953125 18.164062 11.648438 17.855469 11.269531 17.855469 C 7.074219 17.863281 3.675781 21.261719 3.671875 25.457031 C 3.671875 25.832031 3.976562 26.140625 4.355469 26.140625 C 4.734375 26.140625 5.039062 25.832031 5.039062 25.457031 C 5.042969 22.015625 7.828125 19.226562 11.269531 19.222656 C 11.648438 19.222656 11.953125 18.917969 11.953125 18.539062 Z M 11.953125 18.539062 "/>
<path style=" stroke:none;fill-rule:nonzero;fill:rgb(0%,0%,0%);fill-opacity:1;" d="M 17.894531 3.933594 C 15.707031 3.9375 13.929688 5.710938 13.929688 7.902344 C 13.929688 8.277344 14.234375 8.585938 14.613281 8.585938 C 14.988281 8.585938 15.296875 8.277344 15.296875 7.902344 C 15.296875 6.464844 16.460938 5.300781 17.894531 5.300781 C 19.332031 5.300781 20.496094 6.464844 20.496094 7.902344 C 20.496094 8.277344 20.800781 8.585938 21.179688 8.585938 C 21.558594 8.585938 21.863281 8.277344 21.863281 7.902344 C 21.859375 5.710938 20.085938 3.9375 17.894531 3.933594 Z M 17.894531 3.933594 "/>
<path style=" stroke:none;fill-rule:nonzero;fill:rgb(0%,0%,0%);fill-opacity:1;" d="M 14.015625 13.929688 L 14.308594 13.929688 C 16.164062 13.929688 17.667969 15.433594 17.671875 17.289062 L 17.671875 19.5 C 17.667969 21.355469 16.164062 22.863281 14.308594 22.863281 C 13.929688 22.863281 13.625 23.167969 13.625 23.546875 C 13.625 23.925781 13.929688 24.230469 14.308594 24.230469 C 16.917969 24.226562 19.035156 22.113281 19.039062 19.5 L 19.039062 17.289062 C 19.035156 14.679688 16.917969 12.5625 14.308594 12.5625 L 14.015625 12.5625 C 13.636719 12.5625 13.332031 12.867188 13.332031 13.246094 C 13.332031 13.621094 13.636719 13.929688 14.015625 13.929688 Z M 14.015625 13.929688 "/>
<path style=" stroke:none;fill-rule:nonzero;fill:rgb(0%,0%,0%);fill-opacity:1;" d="M 18.359375 31.117188 C 18.738281 31.117188 19.042969 30.808594 19.042969 30.433594 C 19.042969 30.054688 18.738281 29.75 18.359375 29.75 L 14.453125 29.75 C 12.269531 29.746094 10.5 27.976562 10.5 25.792969 C 10.496094 25.414062 10.191406 25.109375 9.8125 25.109375 C 9.4375 25.109375 9.132812 25.414062 9.132812 25.792969 C 9.132812 28.730469 11.515625 31.113281 14.453125 31.117188 Z M 18.359375 31.117188 "/>
<path style=" stroke:none;fill-rule:nonzero;fill:rgb(0%,0%,0%);fill-opacity:1;" d="M 20.851562 39.222656 C 18.152344 39.21875 15.96875 37.035156 15.96875 34.339844 C 15.964844 33.960938 15.660156 33.65625 15.28125 33.65625 C 14.90625 33.65625 14.601562 33.960938 14.601562 34.339844 C 14.601562 37.789062 17.398438 40.585938 20.847656 40.589844 C 21.226562 40.589844 21.53125 40.28125 21.53125 39.90625 C 21.53125 39.527344 21.226562 39.222656 20.851562 39.222656 Z M 20.851562 39.222656 "/>
<path style=" stroke:none;fill-rule:nonzero;fill:rgb(0%,0%,0%);fill-opacity:1;" d="M 11.148438 37.796875 C 10.007812 37.625 9.222656 36.5625 9.390625 35.421875 C 9.433594 35.179688 9.339844 34.933594 9.144531 34.777344 C 8.953125 34.625 8.695312 34.585938 8.464844 34.675781 C 8.234375 34.769531 8.074219 34.976562 8.039062 35.21875 C 7.761719 37.105469 9.0625 38.867188 10.949219 39.148438 C 10.980469 39.15625 11.015625 39.15625 11.050781 39.15625 C 11.40625 39.15625 11.707031 38.882812 11.730469 38.523438 C 11.757812 38.167969 11.503906 37.851562 11.148438 37.796875 Z M 11.148438 37.796875 "/>
<path style=" stroke:none;fill-rule:nonzero;fill:rgb(0%,0%,0%);fill-opacity:1;" d="M 18.066406 45.015625 C 16.449219 45.015625 15.136719 43.703125 15.136719 42.085938 C 15.136719 41.710938 14.832031 41.402344 14.453125 41.402344 C 14.074219 41.402344 13.769531 41.710938 13.769531 42.085938 C 13.773438 44.460938 15.695312 46.382812 18.066406 46.382812 C 18.445312 46.382812 18.75 46.078125 18.75 45.699219 C 18.75 45.324219 18.445312 45.015625 18.066406 45.015625 Z M 18.066406 45.015625 "/>
<path style=" stroke:none;fill-rule:nonzero;fill:rgb(0%,0%,0%);fill-opacity:1;" d="M 47.289062 27.503906 C 46.808594 27.503906 46.335938 27.632812 45.921875 27.878906 L 37.054688 19.011719 C 36.925781 18.882812 36.753906 18.808594 36.570312 18.808594 L 25.683594 18.808594 L 25.683594 14.578125 L 44.671875 14.578125 C 45.015625 15.898438 46.285156 16.757812 47.636719 16.582031 C 48.992188 16.410156 50.003906 15.257812 50.003906 13.894531 C 50.003906 12.53125 48.992188 11.382812 47.636719 11.207031 C 46.285156 11.035156 45.015625 11.894531 44.671875 13.210938 L 25.683594 13.210938 L 25.683594 10.152344 L 36.570312 10.152344 C 36.753906 10.152344 36.925781 10.082031 37.054688 9.953125 L 39.984375 7.023438 C 41.195312 7.652344 42.6875 7.285156 43.46875 6.164062 C 44.25 5.042969 44.074219 3.515625 43.058594 2.597656 C 42.046875 1.683594 40.507812 1.664062 39.472656 2.550781 C 38.433594 3.441406 38.21875 4.960938 38.96875 6.105469 L 36.289062 8.785156 L 25.683594 8.785156 L 25.683594 7.75 C 25.679688 3.570312 22.375 0.136719 18.195312 -0.0234375 C 14.019531 -0.1875 10.457031 2.980469 10.132812 7.148438 C 6.824219 7.632812 4.371094 10.472656 4.371094 13.816406 C 4.367188 14.636719 4.519531 15.453125 4.816406 16.21875 C 1.84375 18.296875 0.0507812 21.675781 0 25.300781 C -0.0507812 28.929688 1.648438 32.355469 4.5625 34.515625 C 4.113281 36.355469 4.457031 38.304688 5.519531 39.878906 C 6.578125 41.453125 8.253906 42.503906 10.132812 42.78125 C 10.457031 46.949219 14.019531 50.117188 18.199219 49.953125 C 22.375 49.792969 25.679688 46.359375 25.683594 42.175781 L 25.683594 42.054688 L 33.164062 42.054688 L 36.078125 45.757812 C 35.28125 46.871094 35.4375 48.40625 36.441406 49.335938 C 37.445312 50.269531 38.984375 50.308594 40.035156 49.429688 C 41.089844 48.550781 41.324219 47.027344 40.585938 45.875 C 39.847656 44.71875 38.367188 44.292969 37.125 44.878906 L 34.03125 40.949219 C 33.902344 40.785156 33.707031 40.6875 33.496094 40.6875 L 25.683594 40.6875 L 25.683594 36.585938 L 32.902344 36.585938 C 33.246094 37.90625 34.519531 38.761719 35.871094 38.589844 C 37.222656 38.417969 38.234375 37.265625 38.234375 35.902344 C 38.234375 34.539062 37.222656 33.386719 35.871094 33.214844 C 34.519531 33.039062 33.246094 33.898438 32.902344 35.21875 L 25.683594 35.21875 L 25.683594 31.117188 L 37.199219 31.117188 C 37.542969 32.4375 38.8125 33.292969 40.167969 33.121094 C 41.519531 32.949219 42.53125 31.796875 42.53125 30.433594 C 42.53125 29.070312 41.519531 27.917969 40.167969 27.746094 C 38.8125 27.570312 37.542969 28.429688 37.199219 29.75 L 25.683594 29.75 L 25.683594 25.648438 L 29.792969 25.648438 C 30.167969 26.957031 31.460938 27.785156 32.808594 27.578125 C 34.15625 27.371094 35.140625 26.195312 35.109375 24.832031 C 35.074219 23.46875 34.03125 22.34375 32.675781 22.203125 C 31.320312 22.0625 30.070312 22.953125 29.757812 24.28125 L 25.683594 24.28125 L 25.683594 20.179688 L 36.289062 20.179688 L 44.953125 28.84375 C 44.335938 29.902344 44.507812 31.246094 45.371094 32.117188 C 46.234375 32.988281 47.578125 33.167969 48.640625 32.558594 C 49.707031 31.949219 50.226562 30.695312 49.910156 29.511719 C 49.589844 28.328125 48.515625 27.503906 47.289062 27.503906 Z M 47.289062 12.554688 C 48.03125 12.550781 48.632812 13.152344 48.632812 13.894531 C 48.632812 14.636719 48.03125 15.238281 47.289062 15.238281 C 46.546875 15.238281 45.949219 14.636719 45.945312 13.894531 C 45.949219 13.15625 46.546875 12.554688 47.289062 12.554688 Z M 41.234375 3.273438 C 41.976562 3.273438 42.578125 3.875 42.578125 4.617188 C 42.578125 5.359375 41.976562 5.960938 41.234375 5.960938 C 40.492188 5.960938 39.894531 5.359375 39.894531 4.617188 C 39.894531 3.875 40.492188 3.277344 41.234375 3.273438 Z M 39.625 47.328125 C 39.625 48.066406 39.023438 48.667969 38.28125 48.667969 C 37.539062 48.667969 36.9375 48.066406 36.9375 47.328125 C 36.9375 46.585938 37.539062 45.984375 38.28125 45.984375 C 39.023438 45.984375 39.621094 46.585938 39.625 47.328125 Z M 35.523438 34.558594 C 36.265625 34.558594 36.867188 35.160156 36.867188 35.902344 C 36.867188 36.644531 36.265625 37.246094 35.523438 37.242188 C 34.78125 37.242188 34.179688 36.644531 34.179688 35.902344 C 34.179688 35.160156 34.78125 34.558594 35.523438 34.558594 Z M 39.820312 29.089844 C 40.5625 29.089844 41.164062 29.691406 41.164062 30.433594 C 41.164062 31.175781 40.5625 31.777344 39.820312 31.773438 C 39.078125 31.773438 38.476562 31.175781 38.476562 30.433594 C 38.476562 29.691406 39.078125 29.089844 39.820312 29.089844 Z M 32.394531 23.554688 C 33.136719 23.554688 33.738281 24.15625 33.738281 24.898438 C 33.738281 25.640625 33.136719 26.242188 32.394531 26.242188 C 31.652344 26.242188 31.050781 25.640625 31.050781 24.898438 C 31.054688 24.15625 31.652344 23.554688 32.394531 23.554688 Z M 24.316406 42.175781 C 24.292969 45.703125 21.429688 48.550781 17.902344 48.554688 C 14.375 48.558594 11.507812 45.71875 11.472656 42.191406 C 11.476562 42.179688 11.476562 42.167969 11.476562 42.160156 C 11.476562 41.796875 11.191406 41.496094 10.828125 41.476562 C 9.15625 41.390625 7.625 40.53125 6.675781 39.152344 C 5.730469 37.773438 5.480469 36.035156 6 34.445312 C 6.097656 34.15625 5.988281 33.835938 5.734375 33.667969 C 2.949219 31.789062 1.308594 28.632812 1.367188 25.277344 C 1.429688 21.921875 3.183594 18.824219 6.035156 17.050781 C 6.332031 16.863281 6.4375 16.484375 6.285156 16.167969 C 5.492188 14.550781 5.5625 12.640625 6.476562 11.085938 C 7.394531 9.53125 9.027344 8.542969 10.828125 8.449219 C 11.191406 8.429688 11.476562 8.132812 11.476562 7.765625 C 11.476562 7.757812 11.476562 7.746094 11.476562 7.734375 C 11.507812 4.210938 14.375 1.367188 17.902344 1.371094 C 21.429688 1.375 24.292969 4.222656 24.316406 7.75 Z M 47.289062 31.554688 C 46.546875 31.554688 45.945312 30.953125 45.945312 30.210938 C 45.945312 29.46875 46.546875 28.871094 47.289062 28.871094 C 48.03125 28.871094 48.632812 29.472656 48.632812 30.214844 C 48.632812 30.953125 48.03125 31.554688 47.289062 31.554688 Z M 47.289062 31.554688 "/>
<path style=" stroke:none;fill-rule:nonzero;fill:rgb(0%,0%,0%);fill-opacity:1;" d="M 45.261719 17.640625 C 43.765625 17.640625 42.554688 18.851562 42.554688 20.347656 C 42.554688 21.847656 43.765625 23.058594 45.261719 23.058594 C 46.761719 23.058594 47.972656 21.847656 47.972656 20.347656 C 47.972656 18.851562 46.757812 17.640625 45.265625 17.640625 Z M 45.261719 21.691406 C 44.523438 21.691406 43.921875 21.089844 43.921875 20.347656 C 43.921875 19.605469 44.523438 19.003906 45.261719 19.007812 C 46.003906 19.007812 46.605469 19.605469 46.605469 20.347656 C 46.605469 21.089844 46.003906 21.691406 45.265625 21.691406 Z M 45.261719 21.691406 "/>
<path style=" stroke:none;fill-rule:nonzero;fill:rgb(0%,0%,0%);fill-opacity:1;" d="M 45.261719 36.214844 C 43.765625 36.214844 42.554688 37.425781 42.554688 38.921875 C 42.554688 40.421875 43.765625 41.632812 45.261719 41.632812 C 46.761719 41.632812 47.972656 40.421875 47.972656 38.925781 C 47.972656 37.429688 46.757812 36.214844 45.265625 36.214844 Z M 45.261719 40.265625 C 44.523438 40.265625 43.921875 39.664062 43.921875 38.921875 C 43.921875 38.183594 44.519531 37.582031 45.261719 37.582031 C 46.003906 37.582031 46.605469 38.183594 46.605469 38.921875 C 46.605469 39.664062 46.003906 40.265625 45.265625 40.265625 Z M 45.261719 40.265625 "/>
</g>
</svg>
