<?xml version="1.0" encoding="UTF-8"?>
<svg xmlns="http://www.w3.org/2000/svg" xmlns:xlink="http://www.w3.org/1999/xlink" width="50px" height="50px" viewBox="0 0 50 50" version="1.1">
<g id="surface1">
<path style=" stroke:none;fill-rule:nonzero;fill:rgb(0%,0%,0%);fill-opacity:1;" d="M 47.65625 42.1875 L 46.875 42.1875 L 46.875 14.0625 C 46.875 12.335938 45.476562 10.9375 43.75 10.9375 L 39.84375 10.9375 L 39.84375 0.78125 C 39.84375 0.351562 39.492188 0 39.0625 0 L 10.9375 0 C 10.507812 0 10.15625 0.351562 10.15625 0.78125 L 10.15625 10.9375 L 6.25 10.9375 C 4.523438 10.9375 3.125 12.335938 3.125 14.0625 L 3.125 42.1875 L 2.34375 42.1875 C 1.050781 42.1875 0 43.238281 0 44.53125 L 0 46.09375 C 0 48.25 1.75 50 3.90625 50 L 46.09375 50 C 48.25 50 50 48.25 50 46.09375 L 50 44.53125 C 50 43.238281 48.949219 42.1875 47.65625 42.1875 Z M 7.8125 39.0625 L 7.8125 15.625 L 10.15625 15.625 L 10.15625 39.0625 Z M 11.71875 6.25 L 38.28125 6.25 L 38.28125 39.0625 L 11.71875 39.0625 Z M 39.84375 15.625 L 42.1875 15.625 L 42.1875 39.0625 L 39.84375 39.0625 Z M 11.71875 1.5625 L 38.28125 1.5625 L 38.28125 4.6875 L 11.71875 4.6875 Z M 4.6875 14.0625 C 4.6875 13.199219 5.386719 12.5 6.25 12.5 L 10.15625 12.5 L 10.15625 14.0625 L 7.03125 14.0625 C 6.601562 14.0625 6.25 14.414062 6.25 14.84375 L 6.25 39.84375 C 6.25 40.273438 6.601562 40.625 7.03125 40.625 L 42.96875 40.625 C 43.398438 40.625 43.75 40.273438 43.75 39.84375 L 43.75 14.84375 C 43.75 14.414062 43.398438 14.0625 42.96875 14.0625 L 39.84375 14.0625 L 39.84375 12.5 L 43.75 12.5 C 44.613281 12.5 45.3125 13.199219 45.3125 14.0625 L 45.3125 42.1875 L 4.6875 42.1875 Z M 31.351562 43.75 L 30.828125 44.53125 L 19.171875 44.53125 L 18.648438 43.75 Z M 48.4375 46.09375 C 48.4375 47.386719 47.386719 48.4375 46.09375 48.4375 L 3.90625 48.4375 C 2.613281 48.4375 1.5625 47.386719 1.5625 46.09375 L 1.5625 44.53125 C 1.5625 44.101562 1.914062 43.75 2.34375 43.75 L 16.765625 43.75 L 18.101562 45.742188 C 18.429688 46.242188 17.78125 46.09375 31.25 46.09375 C 31.789062 46.09375 31.828125 45.859375 33.234375 43.75 L 47.65625 43.75 C 48.085938 43.75 48.4375 44.101562 48.4375 44.53125 Z M 48.4375 46.09375 "/>
<path style=" stroke:none;fill-rule:nonzero;fill:rgb(0%,0%,0%);fill-opacity:1;" d="M 14.0625 2.34375 C 13.632812 2.34375 13.28125 2.695312 13.28125 3.125 C 13.28125 3.554688 13.632812 3.90625 14.0625 3.90625 C 14.492188 3.90625 14.84375 3.554688 14.84375 3.125 C 14.84375 2.695312 14.492188 2.34375 14.0625 2.34375 Z M 14.0625 2.34375 "/>
<path style=" stroke:none;fill-rule:nonzero;fill:rgb(0%,0%,0%);fill-opacity:1;" d="M 17.1875 2.34375 C 16.757812 2.34375 16.40625 2.695312 16.40625 3.125 C 16.40625 3.554688 16.757812 3.90625 17.1875 3.90625 C 17.617188 3.90625 17.96875 3.554688 17.96875 3.125 C 17.96875 2.695312 17.617188 2.34375 17.1875 2.34375 Z M 17.1875 2.34375 "/>
<path style=" stroke:none;fill-rule:nonzero;fill:rgb(0%,0%,0%);fill-opacity:1;" d="M 20.3125 2.34375 C 19.882812 2.34375 19.53125 2.695312 19.53125 3.125 C 19.53125 3.554688 19.882812 3.90625 20.3125 3.90625 C 20.742188 3.90625 21.09375 3.554688 21.09375 3.125 C 21.09375 2.695312 20.742188 2.34375 20.3125 2.34375 Z M 20.3125 2.34375 "/>
<path style=" stroke:none;fill-rule:nonzero;fill:rgb(0%,0%,0%);fill-opacity:1;" d="M 34.375 24.21875 L 32.03125 24.21875 L 32.03125 16.40625 C 32.03125 15.976562 31.679688 15.625 31.25 15.625 C 30.820312 15.625 30.46875 15.976562 30.46875 16.40625 L 30.46875 24.21875 L 28.125 24.21875 L 28.125 20.3125 C 28.125 19.882812 27.773438 19.53125 27.34375 19.53125 C 26.914062 19.53125 26.5625 19.882812 26.5625 20.3125 L 26.5625 24.21875 L 24.21875 24.21875 L 24.21875 17.96875 C 24.21875 17.539062 23.867188 17.1875 23.4375 17.1875 C 23.007812 17.1875 22.65625 17.539062 22.65625 17.96875 L 22.65625 24.21875 L 20.3125 24.21875 L 20.3125 21.875 C 20.3125 21.445312 19.960938 21.09375 19.53125 21.09375 C 19.101562 21.09375 18.75 21.445312 18.75 21.875 L 18.75 24.21875 L 16.40625 24.21875 L 16.40625 21.414062 L 23.4375 14.382812 L 26.007812 16.960938 C 26.15625 17.109375 26.355469 17.191406 26.5625 17.191406 C 26.769531 17.191406 26.96875 17.109375 27.117188 16.960938 L 32.8125 11.257812 L 32.8125 12.5 C 32.8125 12.929688 33.164062 13.28125 33.59375 13.28125 C 34.023438 13.28125 34.375 12.929688 34.375 12.5 C 34.375 7.859375 35.054688 8.59375 30.46875 8.59375 C 30.039062 8.59375 29.6875 8.945312 29.6875 9.375 C 29.6875 9.804688 30.039062 10.15625 30.46875 10.15625 L 31.710938 10.15625 L 26.5625 15.304688 L 23.992188 12.726562 C 23.84375 12.578125 23.644531 12.496094 23.4375 12.496094 C 23.230469 12.496094 23.03125 12.578125 22.882812 12.726562 L 16.40625 19.210938 L 16.40625 9.375 C 16.40625 8.945312 16.054688 8.59375 15.625 8.59375 C 15.195312 8.59375 14.84375 8.945312 14.84375 9.375 L 14.84375 25 C 14.84375 25.429688 15.195312 25.78125 15.625 25.78125 L 34.375 25.78125 C 34.804688 25.78125 35.15625 25.429688 35.15625 25 C 35.15625 24.570312 34.804688 24.21875 34.375 24.21875 Z M 34.375 24.21875 "/>
<path style=" stroke:none;fill-rule:nonzero;fill:rgb(0%,0%,0%);fill-opacity:1;" d="M 34.375 28.90625 L 18.75 28.90625 C 18.320312 28.90625 17.96875 29.257812 17.96875 29.6875 C 17.96875 30.117188 18.320312 30.46875 18.75 30.46875 L 34.375 30.46875 C 34.804688 30.46875 35.15625 30.117188 35.15625 29.6875 C 35.15625 29.257812 34.804688 28.90625 34.375 28.90625 Z M 34.375 28.90625 "/>
<path style=" stroke:none;fill-rule:nonzero;fill:rgb(0%,0%,0%);fill-opacity:1;" d="M 34.375 32.03125 L 18.75 32.03125 C 18.320312 32.03125 17.96875 32.382812 17.96875 32.8125 C 17.96875 33.242188 18.320312 33.59375 18.75 33.59375 L 34.375 33.59375 C 34.804688 33.59375 35.15625 33.242188 35.15625 32.8125 C 35.15625 32.382812 34.804688 32.03125 34.375 32.03125 Z M 34.375 32.03125 "/>
<path style=" stroke:none;fill-rule:nonzero;fill:rgb(0%,0%,0%);fill-opacity:1;" d="M 34.375 35.15625 L 18.75 35.15625 C 18.320312 35.15625 17.96875 35.507812 17.96875 35.9375 C 17.96875 36.367188 18.320312 36.71875 18.75 36.71875 L 34.375 36.71875 C 34.804688 36.71875 35.15625 36.367188 35.15625 35.9375 C 35.15625 35.507812 34.804688 35.15625 34.375 35.15625 Z M 34.375 35.15625 "/>
<path style=" stroke:none;fill-rule:nonzero;fill:rgb(0%,0%,0%);fill-opacity:1;" d="M 15.625 28.90625 C 15.195312 28.90625 14.84375 29.257812 14.84375 29.6875 C 14.84375 30.117188 15.195312 30.46875 15.625 30.46875 C 16.054688 30.46875 16.40625 30.117188 16.40625 29.6875 C 16.40625 29.257812 16.054688 28.90625 15.625 28.90625 Z M 15.625 28.90625 "/>
<path style=" stroke:none;fill-rule:nonzero;fill:rgb(0%,0%,0%);fill-opacity:1;" d="M 15.625 32.03125 C 15.195312 32.03125 14.84375 32.382812 14.84375 32.8125 C 14.84375 33.242188 15.195312 33.59375 15.625 33.59375 C 16.054688 33.59375 16.40625 33.242188 16.40625 32.8125 C 16.40625 32.382812 16.054688 32.03125 15.625 32.03125 Z M 15.625 32.03125 "/>
<path style=" stroke:none;fill-rule:nonzero;fill:rgb(0%,0%,0%);fill-opacity:1;" d="M 15.625 35.15625 C 15.195312 35.15625 14.84375 35.507812 14.84375 35.9375 C 14.84375 36.367188 15.195312 36.71875 15.625 36.71875 C 16.054688 36.71875 16.40625 36.367188 16.40625 35.9375 C 16.40625 35.507812 16.054688 35.15625 15.625 35.15625 Z M 15.625 35.15625 "/>
</g>
</svg>
