<?xml version="1.0" encoding="UTF-8"?>
<svg xmlns="http://www.w3.org/2000/svg" xmlns:xlink="http://www.w3.org/1999/xlink" width="50px" height="50px" viewBox="0 0 50 50" version="1.1">
<g id="surface1">
<path style=" stroke:none;fill-rule:nonzero;fill:rgb(0%,0%,0%);fill-opacity:1;" d="M 46.121094 12.425781 C 45.503906 11.355469 44.546875 10.550781 43.332031 9.980469 C 43.34375 9.878906 43.351562 9.777344 43.351562 9.675781 C 43.351562 8.234375 42.179688 7.0625 40.738281 7.0625 C 39.535156 7.0625 38.523438 7.878906 38.21875 8.984375 C 36.832031 8.972656 35.320312 9.109375 33.71875 9.402344 C 31.695312 4.171875 28.640625 0.894531 25.167969 0.894531 C 21.644531 0.894531 18.546875 4.273438 16.523438 9.648438 C 15.515625 9.457031 14.542969 9.324219 13.613281 9.25 C 13.226562 8.28125 12.285156 7.597656 11.183594 7.597656 C 9.984375 7.597656 8.972656 8.410156 8.667969 9.515625 C 6.476562 10.003906 4.800781 11.023438 3.878906 12.621094 C 2.0625 15.761719 3.578125 20.296875 7.460938 24.871094 C 3.945312 29.242188 2.632812 33.523438 4.371094 36.527344 C 4.699219 37.097656 5.121094 37.589844 5.625 38.015625 C 5.550781 38.261719 5.507812 38.523438 5.507812 38.796875 C 5.507812 40.238281 6.679688 41.410156 8.121094 41.410156 C 9.183594 41.410156 10.097656 40.773438 10.503906 39.863281 C 11.992188 40.035156 13.761719 40.050781 16.265625 39.640625 C 18.28125 45.425781 21.488281 49.105469 25.167969 49.105469 C 28.804688 49.105469 31.980469 45.511719 34 39.84375 C 35.167969 40.023438 36.332031 40.144531 37.625 40.144531 C 37.632812 40.144531 37.640625 40.144531 37.652344 40.144531 C 38.011719 41.152344 38.976562 41.878906 40.109375 41.878906 C 41.550781 41.878906 42.722656 40.707031 42.722656 39.265625 C 42.722656 39.246094 42.722656 39.226562 42.722656 39.210938 C 44.011719 38.636719 45.003906 37.808594 45.628906 36.726562 C 47.152344 34.089844 46.351562 30.359375 43.378906 26.222656 C 43.058594 25.777344 42.714844 25.335938 42.355469 24.890625 C 46.375 20.246094 47.964844 15.617188 46.121094 12.425781 Z M 40.738281 8.007812 C 41.65625 8.007812 42.40625 8.753906 42.40625 9.675781 C 42.40625 10.59375 41.65625 11.34375 40.738281 11.34375 C 39.816406 11.34375 39.070312 10.59375 39.070312 9.675781 C 39.070312 8.753906 39.816406 8.007812 40.738281 8.007812 Z M 34.878906 17.988281 C 32.113281 15.980469 29.105469 14.21875 25.960938 12.769531 C 28.445312 11.730469 30.863281 10.972656 33.109375 10.5 C 33.886719 12.703125 34.496094 15.234375 34.878906 17.988281 Z M 35.046875 19.285156 C 35.441406 22.832031 35.46875 26.554688 35.097656 30.195312 C 31.929688 32.527344 28.355469 34.5625 24.773438 36.085938 C 21.542969 34.675781 18.289062 32.835938 15.289062 30.671875 C 14.859375 26.804688 14.871094 22.714844 15.355469 18.785156 C 18.238281 16.660156 21.429688 14.789062 24.78125 13.28125 C 28.316406 14.832031 31.839844 16.863281 35.046875 19.285156 Z M 25.167969 1.839844 C 28.1875 1.839844 30.902344 4.839844 32.769531 9.59375 C 30.257812 10.128906 27.554688 11.015625 24.773438 12.242188 C 22.238281 11.15625 19.777344 10.355469 17.472656 9.84375 C 19.34375 4.945312 22.097656 1.839844 25.167969 1.839844 Z M 17.144531 10.75 C 19.183594 11.195312 21.355469 11.875 23.589844 12.78125 C 20.871094 14.066406 18.097656 15.667969 15.535156 17.480469 C 15.90625 15.027344 16.453125 12.757812 17.144531 10.75 Z M 11.183594 8.542969 C 12.105469 8.542969 12.851562 9.292969 12.851562 10.210938 C 12.851562 11.132812 12.105469 11.878906 11.183594 11.878906 C 10.265625 11.878906 9.515625 11.132812 9.515625 10.210938 C 9.515625 9.292969 10.265625 8.542969 11.183594 8.542969 Z M 4.699219 13.09375 C 5.445312 11.796875 6.804688 10.945312 8.585938 10.5 C 8.730469 11.804688 9.839844 12.824219 11.183594 12.824219 C 12.621094 12.824219 13.792969 11.660156 13.796875 10.222656 C 14.566406 10.292969 15.367188 10.40625 16.195312 10.558594 C 15.417969 12.839844 14.828125 15.4375 14.460938 18.261719 C 11.941406 20.148438 9.789062 22.140625 8.082031 24.125 C 4.550781 19.929688 3.117188 15.832031 4.699219 13.09375 Z M 14.253906 29.90625 C 12.113281 28.273438 10.246094 26.5625 8.714844 24.855469 C 10.230469 23.082031 12.117188 21.289062 14.308594 19.578125 C 13.957031 23.023438 13.949219 26.5625 14.253906 29.90625 Z M 8.121094 40.464844 C 7.203125 40.464844 6.453125 39.714844 6.453125 38.796875 C 6.453125 37.875 7.203125 37.128906 8.121094 37.128906 C 9.042969 37.128906 9.789062 37.875 9.789062 38.796875 C 9.789062 39.714844 9.042969 40.464844 8.121094 40.464844 Z M 10.726562 38.9375 C 10.808594 37.414062 9.59375 36.183594 8.121094 36.183594 C 7.300781 36.183594 6.566406 36.5625 6.085938 37.15625 C 5.730469 36.832031 5.425781 36.46875 5.1875 36.054688 C 3.679688 33.445312 4.917969 29.59375 8.101562 25.601562 C 9.820312 27.503906 11.9375 29.402344 14.390625 31.195312 C 14.714844 33.933594 15.25 36.464844 15.960938 38.714844 C 14.035156 39.023438 12.269531 39.097656 10.726562 38.9375 Z M 15.449219 31.949219 C 18.03125 33.738281 20.746094 35.285156 23.5625 36.578125 C 21.246094 37.484375 19 38.148438 16.914062 38.550781 C 16.28125 36.5625 15.78125 34.339844 15.449219 31.949219 Z M 25.167969 48.160156 C 21.957031 48.160156 19.089844 44.761719 17.21875 39.464844 C 19.589844 39 22.140625 38.210938 24.777344 37.113281 C 27.613281 38.320312 30.414062 39.191406 33.042969 39.683594 C 31.171875 44.855469 28.339844 48.160156 25.167969 48.160156 Z M 33.355469 38.78125 C 31.007812 38.355469 28.515625 37.613281 25.984375 36.59375 C 29.128906 35.179688 32.210938 33.414062 34.953125 31.472656 C 34.609375 34.136719 34.066406 36.605469 33.355469 38.78125 Z M 40.109375 40.933594 C 39.191406 40.933594 38.441406 40.183594 38.441406 39.265625 C 38.441406 38.34375 39.191406 37.59375 40.109375 37.59375 C 41.03125 37.59375 41.777344 38.34375 41.777344 39.265625 C 41.777344 40.183594 41.03125 40.933594 40.109375 40.933594 Z M 42.613281 26.773438 C 45.355469 30.589844 46.136719 33.957031 44.808594 36.253906 C 44.316406 37.109375 43.539062 37.78125 42.523438 38.265625 C 42.132812 37.320312 41.199219 36.648438 40.109375 36.648438 C 38.695312 36.648438 37.539062 37.78125 37.5 39.1875 C 36.285156 39.179688 35.417969 39.097656 34.308594 38.9375 C 35.09375 36.5 35.671875 33.722656 36 30.710938 C 38.203125 29.066406 40.125 27.339844 41.71875 25.605469 C 42.03125 25.996094 42.332031 26.382812 42.613281 26.773438 Z M 36.082031 20.089844 C 37.992188 21.617188 39.683594 23.226562 41.097656 24.863281 C 39.695312 26.402344 38.023438 27.941406 36.121094 29.421875 C 36.382812 26.28125 36.363281 23.117188 36.082031 20.089844 Z M 41.726562 24.148438 C 40.117188 22.296875 38.160156 20.480469 35.945312 18.777344 C 35.570312 15.652344 34.925781 12.792969 34.058594 10.316406 C 35.507812 10.058594 36.878906 9.929688 38.136719 9.933594 C 38.265625 11.253906 39.382812 12.289062 40.738281 12.289062 C 41.742188 12.289062 42.613281 11.71875 43.050781 10.886719 C 44.035156 11.371094 44.804688 12.035156 45.300781 12.898438 C 46.910156 15.683594 45.394531 19.875 41.726562 24.148438 Z M 41.726562 24.148438 "/>
<path style=" stroke:none;fill-rule:nonzero;fill:rgb(0%,0%,0%);fill-opacity:1;" d="M 29.765625 21.8125 C 29.765625 20.941406 29.058594 20.234375 28.1875 20.234375 L 27.757812 20.234375 L 27.757812 18.335938 C 27.757812 18.074219 27.546875 17.863281 27.285156 17.863281 C 27.023438 17.863281 26.8125 18.074219 26.8125 18.335938 L 26.8125 20.234375 L 25.472656 20.234375 L 25.472656 18.335938 C 25.472656 18.074219 25.261719 17.863281 25 17.863281 C 24.738281 17.863281 24.527344 18.074219 24.527344 18.335938 L 24.527344 20.234375 L 23.1875 20.234375 L 23.1875 18.335938 C 23.1875 18.074219 22.976562 17.863281 22.714844 17.863281 C 22.453125 17.863281 22.242188 18.074219 22.242188 18.335938 L 22.242188 20.234375 L 21.8125 20.234375 C 20.941406 20.234375 20.234375 20.941406 20.234375 21.8125 L 20.234375 22.242188 L 18.335938 22.242188 C 18.074219 22.242188 17.863281 22.453125 17.863281 22.714844 C 17.863281 22.976562 18.074219 23.1875 18.335938 23.1875 L 20.234375 23.1875 L 20.234375 24.527344 L 18.335938 24.527344 C 18.074219 24.527344 17.863281 24.738281 17.863281 25 C 17.863281 25.261719 18.074219 25.472656 18.335938 25.472656 L 20.234375 25.472656 L 20.234375 26.8125 L 18.335938 26.8125 C 18.074219 26.8125 17.863281 27.023438 17.863281 27.285156 C 17.863281 27.546875 18.074219 27.757812 18.335938 27.757812 L 20.234375 27.757812 L 20.234375 28.1875 C 20.234375 29.058594 20.941406 29.765625 21.8125 29.765625 L 22.242188 29.765625 L 22.242188 31.664062 C 22.242188 31.925781 22.453125 32.136719 22.714844 32.136719 C 22.976562 32.136719 23.1875 31.925781 23.1875 31.664062 L 23.1875 29.765625 L 24.527344 29.765625 L 24.527344 31.664062 C 24.527344 31.925781 24.738281 32.136719 25 32.136719 C 25.261719 32.136719 25.472656 31.925781 25.472656 31.664062 L 25.472656 29.765625 L 26.8125 29.765625 L 26.8125 31.664062 C 26.8125 31.925781 27.023438 32.136719 27.285156 32.136719 C 27.546875 32.136719 27.757812 31.925781 27.757812 31.664062 L 27.757812 29.765625 L 28.1875 29.765625 C 29.058594 29.765625 29.765625 29.058594 29.765625 28.1875 L 29.765625 27.757812 L 31.664062 27.757812 C 31.925781 27.757812 32.136719 27.546875 32.136719 27.285156 C 32.136719 27.023438 31.925781 26.8125 31.664062 26.8125 L 29.765625 26.8125 L 29.765625 25.472656 L 31.664062 25.472656 C 31.925781 25.472656 32.136719 25.261719 32.136719 25 C 32.136719 24.738281 31.925781 24.527344 31.664062 24.527344 L 29.765625 24.527344 L 29.765625 23.1875 L 31.664062 23.1875 C 31.925781 23.1875 32.136719 22.976562 32.136719 22.714844 C 32.136719 22.453125 31.925781 22.242188 31.664062 22.242188 L 29.765625 22.242188 Z M 28.820312 28.1875 C 28.820312 28.535156 28.535156 28.820312 28.1875 28.820312 L 21.8125 28.820312 C 21.460938 28.820312 21.179688 28.535156 21.179688 28.1875 L 21.179688 21.8125 C 21.179688 21.464844 21.460938 21.179688 21.8125 21.179688 L 28.1875 21.179688 C 28.535156 21.179688 28.820312 21.464844 28.820312 21.8125 Z M 28.820312 28.1875 "/>
<path style=" stroke:none;fill-rule:nonzero;fill:rgb(0%,0%,0%);fill-opacity:1;" d="M 24.132812 22.726562 C 23.375 22.726562 22.761719 23.34375 22.761719 24.097656 C 22.761719 24.175781 22.761719 26.847656 22.761719 26.800781 C 22.761719 27.0625 22.972656 27.273438 23.234375 27.273438 C 23.492188 27.273438 23.707031 27.0625 23.707031 26.800781 L 23.707031 25.472656 L 24.5625 25.472656 L 24.5625 26.800781 C 24.5625 27.0625 24.773438 27.273438 25.035156 27.273438 C 25.296875 27.273438 25.507812 27.0625 25.507812 26.800781 C 25.507812 26.6875 25.507812 23.933594 25.507812 24.097656 C 25.507812 23.34375 24.890625 22.726562 24.132812 22.726562 Z M 24.5625 24.527344 L 23.707031 24.527344 L 23.707031 24.097656 C 23.707031 23.863281 23.898438 23.671875 24.132812 23.671875 C 24.371094 23.671875 24.5625 23.863281 24.5625 24.097656 Z M 24.5625 24.527344 "/>
<path style=" stroke:none;fill-rule:nonzero;fill:rgb(0%,0%,0%);fill-opacity:1;" d="M 26.765625 22.726562 C 26.503906 22.726562 26.292969 22.9375 26.292969 23.199219 L 26.292969 26.800781 C 26.292969 27.0625 26.503906 27.273438 26.765625 27.273438 C 27.027344 27.273438 27.238281 27.0625 27.238281 26.800781 L 27.238281 23.199219 C 27.238281 22.9375 27.027344 22.726562 26.765625 22.726562 Z M 26.765625 22.726562 "/>
</g>
</svg>
