<?xml version="1.0" encoding="UTF-8"?>
<svg xmlns="http://www.w3.org/2000/svg" xmlns:xlink="http://www.w3.org/1999/xlink" width="50px" height="50px" viewBox="0 0 50 50" version="1.1">
<g id="surface1">
<path style=" stroke:none;fill-rule:nonzero;fill:rgb(0%,0%,0%);fill-opacity:1;" d="M 44.414062 34.0625 C 42.136719 34.0625 40.226562 35.65625 39.734375 37.789062 L 32.089844 37.789062 L 32.089844 30.113281 L 39.382812 30.113281 C 44.808594 30.113281 49.21875 25.699219 49.21875 20.273438 C 49.21875 14.851562 44.808594 10.4375 39.382812 10.4375 C 39.289062 10.4375 39.195312 10.4375 39.101562 10.441406 C 38.894531 5.195312 34.566406 0.992188 29.269531 0.992188 C 25.355469 0.992188 21.851562 3.300781 20.285156 6.820312 C 19.296875 6.347656 18.210938 6.101562 17.101562 6.101562 C 13.777344 6.101562 10.898438 8.316406 10.015625 11.460938 C 4.914062 11.511719 0.78125 15.675781 0.78125 20.785156 C 0.78125 25.929688 4.964844 30.113281 10.109375 30.113281 L 17.914062 30.113281 L 17.914062 37.789062 L 10.269531 37.789062 C 9.777344 35.65625 7.867188 34.0625 5.585938 34.0625 C 2.9375 34.0625 0.78125 36.21875 0.78125 38.867188 C 0.78125 41.515625 2.9375 43.671875 5.585938 43.671875 C 8.074219 43.671875 10.125 41.773438 10.367188 39.351562 L 18.695312 39.351562 C 19.125 39.351562 19.476562 39 19.476562 38.570312 L 19.476562 30.113281 L 24.21875 30.113281 L 24.21875 39.195312 C 21.941406 39.570312 20.195312 41.550781 20.195312 43.933594 C 20.195312 46.585938 22.351562 48.738281 25 48.738281 C 27.652344 48.738281 29.804688 46.585938 29.804688 43.933594 C 29.804688 41.550781 28.0625 39.570312 25.78125 39.195312 L 25.78125 30.113281 L 30.527344 30.113281 L 30.527344 38.570312 C 30.527344 39 30.875 39.351562 31.308594 39.351562 L 39.632812 39.351562 C 39.878906 41.773438 41.929688 43.671875 44.414062 43.671875 C 47.066406 43.671875 49.21875 41.515625 49.21875 38.867188 C 49.21875 36.21875 47.066406 34.0625 44.414062 34.0625 Z M 5.585938 42.109375 C 3.800781 42.109375 2.34375 40.65625 2.34375 38.867188 C 2.34375 37.078125 3.800781 35.625 5.585938 35.625 C 7.375 35.625 8.828125 37.078125 8.828125 38.867188 C 8.828125 40.65625 7.375 42.109375 5.585938 42.109375 Z M 28.242188 43.933594 C 28.242188 45.722656 26.789062 47.175781 25 47.175781 C 23.214844 47.175781 21.757812 45.722656 21.757812 43.933594 C 21.757812 42.148438 23.214844 40.691406 25 40.691406 C 26.789062 40.691406 28.242188 42.148438 28.242188 43.933594 Z M 2.34375 20.785156 C 2.34375 16.507812 5.828125 13.023438 10.109375 13.023438 C 10.261719 13.023438 10.421875 13.027344 10.582031 13.039062 C 10.976562 13.0625 11.328125 12.789062 11.398438 12.402344 C 11.90625 9.65625 14.304688 7.660156 17.101562 7.660156 C 18.230469 7.660156 19.320312 7.984375 20.261719 8.597656 C 20.460938 8.726562 20.714844 8.757812 20.941406 8.679688 C 21.171875 8.597656 21.347656 8.417969 21.425781 8.191406 C 22.558594 4.820312 25.710938 2.554688 29.269531 2.554688 C 33.832031 2.554688 37.546875 6.265625 37.546875 10.828125 C 37.546875 10.964844 37.542969 11.105469 37.535156 11.242188 C 37.523438 11.472656 37.613281 11.695312 37.78125 11.851562 C 37.949219 12.007812 38.179688 12.085938 38.40625 12.058594 C 38.734375 12.019531 39.0625 12 39.382812 12 C 43.945312 12 47.65625 15.710938 47.65625 20.273438 C 47.65625 24.835938 43.945312 28.550781 39.382812 28.550781 L 10.109375 28.550781 C 5.828125 28.550781 2.34375 25.066406 2.34375 20.785156 Z M 44.414062 42.109375 C 42.628906 42.109375 41.171875 40.65625 41.171875 38.867188 C 41.171875 37.078125 42.628906 35.625 44.414062 35.625 C 46.203125 35.625 47.65625 37.078125 47.65625 38.867188 C 47.65625 40.65625 46.203125 42.109375 44.414062 42.109375 Z M 24.433594 8.445312 C 24.140625 8.128906 24.160156 7.636719 24.476562 7.34375 C 25.890625 6.039062 27.734375 5.585938 29.960938 5.996094 C 32.640625 6.492188 34.679688 8.574219 35.160156 11.300781 C 35.234375 11.726562 34.953125 12.132812 34.527344 12.207031 C 34.480469 12.214844 34.4375 12.21875 34.390625 12.21875 C 34.019531 12.21875 33.6875 11.953125 33.621094 11.574219 C 33.257812 9.496094 31.707031 7.910156 29.675781 7.535156 C 27.9375 7.210938 26.582031 7.523438 25.539062 8.492188 C 25.21875 8.785156 24.726562 8.765625 24.433594 8.445312 Z M 8.40625 25.332031 C 8.253906 25.511719 8.035156 25.601562 7.816406 25.601562 C 7.632812 25.601562 7.453125 25.539062 7.304688 25.414062 C 5.910156 24.210938 5.109375 22.484375 5.109375 20.671875 C 5.109375 19.003906 5.769531 17.433594 6.964844 16.242188 C 7.269531 15.9375 7.765625 15.941406 8.070312 16.246094 C 8.375 16.550781 8.371094 17.046875 8.066406 17.351562 C 7.167969 18.246094 6.671875 19.425781 6.671875 20.671875 C 6.671875 22.027344 7.273438 23.324219 8.324219 24.230469 C 8.652344 24.511719 8.6875 25.003906 8.40625 25.332031 Z M 8.40625 25.332031 "/>
</g>
</svg>
