<?xml version="1.0" encoding="UTF-8"?>
<svg xmlns="http://www.w3.org/2000/svg" xmlns:xlink="http://www.w3.org/1999/xlink" width="50px" height="50px" viewBox="0 0 50 50" version="1.1">
<g id="surface1">
<path style=" stroke:none;fill-rule:nonzero;fill:rgb(0%,0%,0%);fill-opacity:1;" d="M 47.757812 30.574219 L 45.804688 30.121094 C 45.703125 29.621094 45.570312 29.125 45.410156 28.640625 L 46.867188 27.277344 C 47.109375 27.050781 47.179688 26.691406 47.042969 26.386719 C 46.617188 25.445312 46.09375 24.542969 45.488281 23.695312 C 45.292969 23.425781 44.945312 23.308594 44.625 23.40625 L 42.730469 23.980469 C 42.390625 23.597656 42.027344 23.234375 41.640625 22.894531 L 42.21875 21 C 42.316406 20.679688 42.199219 20.335938 41.929688 20.140625 C 41.507812 19.835938 41.074219 19.554688 40.625 19.292969 L 40.625 5.46875 C 40.625 3.316406 38.871094 1.5625 36.71875 1.5625 L 5.46875 1.5625 C 3.316406 1.5625 1.5625 3.316406 1.5625 5.46875 L 1.5625 25.78125 C 1.5625 27.933594 3.316406 29.6875 5.46875 29.6875 L 13.730469 29.6875 L 11.171875 36.71875 L 7.03125 36.71875 C 6.597656 36.71875 6.25 37.070312 6.25 37.5 C 6.25 39.652344 8.003906 41.40625 10.15625 41.40625 L 19.800781 41.40625 C 19.914062 41.578125 20.015625 41.757812 20.136719 41.925781 C 20.332031 42.199219 20.675781 42.316406 21 42.21875 L 22.894531 41.644531 C 23.234375 42.027344 23.597656 42.390625 23.984375 42.730469 L 23.40625 44.625 C 23.308594 44.945312 23.425781 45.289062 23.695312 45.484375 C 24.539062 46.09375 25.445312 46.617188 26.386719 47.042969 C 26.691406 47.179688 27.050781 47.109375 27.277344 46.863281 L 28.640625 45.410156 C 29.125 45.570312 29.621094 45.699219 30.121094 45.804688 L 30.578125 47.757812 C 30.652344 48.085938 30.925781 48.324219 31.261719 48.359375 C 31.789062 48.410156 32.308594 48.4375 32.8125 48.4375 C 33.316406 48.4375 33.835938 48.410156 34.363281 48.359375 C 34.699219 48.328125 34.972656 48.085938 35.050781 47.757812 L 35.503906 45.804688 C 36.007812 45.703125 36.5 45.570312 36.984375 45.410156 L 38.347656 46.867188 C 38.578125 47.109375 38.9375 47.183594 39.238281 47.042969 C 40.175781 46.621094 41.082031 46.09375 41.925781 45.484375 C 42.199219 45.289062 42.316406 44.945312 42.21875 44.625 L 41.644531 42.730469 C 42.027344 42.390625 42.390625 42.023438 42.730469 41.640625 L 44.625 42.21875 C 44.945312 42.316406 45.292969 42.199219 45.488281 41.925781 C 46.09375 41.082031 46.621094 40.179688 47.042969 39.238281 C 47.183594 38.933594 47.109375 38.574219 46.867188 38.347656 L 45.410156 36.980469 C 45.570312 36.496094 45.703125 36.003906 45.804688 35.503906 L 47.761719 35.046875 C 48.085938 34.972656 48.328125 34.695312 48.359375 34.363281 C 48.410156 33.839844 48.4375 33.316406 48.4375 32.8125 C 48.4375 32.308594 48.410156 31.785156 48.359375 31.257812 C 48.324219 30.925781 48.085938 30.652344 47.757812 30.574219 Z M 5.46875 3.125 L 36.71875 3.125 C 38.011719 3.125 39.0625 4.175781 39.0625 5.46875 L 39.0625 18.53125 C 38.804688 18.484375 38.535156 18.558594 38.347656 18.757812 L 36.984375 20.214844 C 36.5 20.054688 36.007812 19.921875 35.503906 19.820312 L 35.050781 17.863281 C 34.972656 17.539062 34.699219 17.296875 34.363281 17.265625 C 33.308594 17.160156 32.316406 17.160156 31.257812 17.265625 C 30.925781 17.296875 30.652344 17.539062 30.574219 17.863281 L 30.117188 19.820312 C 29.617188 19.921875 29.125 20.054688 28.640625 20.214844 L 27.277344 18.757812 C 27.046875 18.515625 26.691406 18.441406 26.382812 18.582031 C 25.445312 19.003906 24.542969 19.527344 23.695312 20.136719 C 23.425781 20.332031 23.308594 20.679688 23.40625 21 L 23.671875 21.875 L 7.8125 21.875 L 7.8125 12.5 L 15.625 12.5 L 15.625 10.9375 L 7.8125 10.9375 L 7.8125 6.25 L 34.375 6.25 L 34.375 15.625 L 35.9375 15.625 L 35.9375 5.46875 C 35.9375 5.039062 35.589844 4.6875 35.15625 4.6875 L 7.03125 4.6875 C 6.597656 4.6875 6.25 5.039062 6.25 5.46875 L 6.25 21.875 L 3.125 21.875 L 3.125 5.46875 C 3.125 4.175781 4.175781 3.125 5.46875 3.125 Z M 23.4375 23.4375 C 23.257812 23.617188 23.0625 23.789062 22.894531 23.980469 L 21.101562 23.4375 Z M 3.125 25.78125 L 3.125 23.4375 L 20.476562 23.4375 C 20.34375 23.492188 20.226562 23.574219 20.136719 23.695312 C 19.53125 24.542969 19.007812 25.445312 18.582031 26.386719 C 18.441406 26.691406 18.515625 27.046875 18.757812 27.277344 L 19.664062 28.125 L 5.46875 28.125 C 4.175781 28.125 3.125 27.074219 3.125 25.78125 Z M 15.390625 29.6875 L 19.921875 29.6875 C 19.886719 29.832031 19.847656 29.972656 19.820312 30.121094 L 17.867188 30.574219 C 17.539062 30.652344 17.296875 30.925781 17.265625 31.257812 C 17.214844 31.785156 17.1875 32.308594 17.1875 32.8125 C 17.1875 33.316406 17.214844 33.839844 17.265625 34.367188 C 17.300781 34.699219 17.539062 34.972656 17.867188 35.050781 L 19.820312 35.503906 C 19.90625 35.914062 20.023438 36.316406 20.144531 36.71875 L 12.835938 36.71875 Z M 10.15625 39.84375 C 9.136719 39.84375 8.269531 39.191406 7.945312 38.28125 L 18.828125 38.28125 L 18.757812 38.347656 C 18.515625 38.574219 18.441406 38.933594 18.582031 39.238281 C 18.671875 39.445312 18.789062 39.640625 18.890625 39.84375 Z M 46.847656 33.65625 L 44.953125 34.101562 C 44.644531 34.171875 44.410156 34.421875 44.359375 34.734375 C 44.234375 35.480469 44.039062 36.222656 43.773438 36.929688 C 43.660156 37.226562 43.738281 37.558594 43.96875 37.773438 L 45.378906 39.097656 C 45.128906 39.597656 44.84375 40.089844 44.535156 40.558594 L 42.699219 40 C 42.394531 39.90625 42.066406 40.007812 41.867188 40.25 C 41.382812 40.839844 40.839844 41.382812 40.25 41.867188 C 40.007812 42.066406 39.910156 42.394531 40 42.699219 L 40.558594 44.535156 C 40.085938 44.847656 39.597656 45.128906 39.097656 45.382812 L 37.777344 43.96875 C 37.558594 43.738281 37.222656 43.660156 36.929688 43.773438 C 36.222656 44.039062 35.484375 44.234375 34.734375 44.359375 C 34.421875 44.410156 34.171875 44.644531 34.101562 44.953125 L 33.660156 46.847656 C 33.082031 46.882812 32.542969 46.882812 31.96875 46.847656 L 31.527344 44.953125 C 31.453125 44.644531 31.203125 44.410156 30.890625 44.359375 C 30.140625 44.234375 29.402344 44.039062 28.695312 43.773438 C 28.402344 43.660156 28.066406 43.738281 27.851562 43.96875 L 26.527344 45.382812 C 26.027344 45.128906 25.539062 44.847656 25.066406 44.535156 L 25.625 42.699219 C 25.71875 42.394531 25.617188 42.070312 25.375 41.867188 C 24.785156 41.382812 24.242188 40.839844 23.757812 40.25 C 23.558594 40.007812 23.230469 39.910156 22.929688 40 L 21.09375 40.558594 C 20.78125 40.085938 20.496094 39.597656 20.246094 39.097656 L 21.65625 37.773438 C 21.886719 37.558594 21.964844 37.226562 21.855469 36.929688 C 21.589844 36.21875 21.390625 35.480469 21.265625 34.734375 C 21.214844 34.421875 20.980469 34.171875 20.675781 34.101562 L 18.777344 33.65625 C 18.757812 33.371094 18.75 33.089844 18.75 32.8125 C 18.75 32.535156 18.757812 32.253906 18.777344 31.96875 L 20.671875 31.523438 C 20.980469 31.453125 21.214844 31.203125 21.265625 30.890625 C 21.390625 30.140625 21.585938 29.402344 21.851562 28.695312 C 21.964844 28.398438 21.886719 28.066406 21.65625 27.847656 L 20.246094 26.527344 C 20.496094 26.023438 20.78125 25.535156 21.089844 25.066406 L 22.925781 25.625 C 23.230469 25.714844 23.558594 25.617188 23.757812 25.371094 C 24.242188 24.785156 24.785156 24.242188 25.375 23.757812 C 25.617188 23.554688 25.714844 23.226562 25.625 22.925781 L 25.066406 21.089844 C 25.539062 20.777344 26.027344 20.492188 26.527344 20.242188 L 27.847656 21.652344 C 28.0625 21.882812 28.398438 21.960938 28.695312 21.851562 C 29.402344 21.585938 30.140625 21.386719 30.890625 21.261719 C 31.203125 21.210938 31.453125 20.976562 31.523438 20.671875 L 31.964844 18.773438 C 32.542969 18.738281 33.082031 18.738281 33.65625 18.773438 L 34.097656 20.671875 C 34.171875 20.976562 34.421875 21.210938 34.734375 21.261719 C 35.484375 21.386719 36.222656 21.585938 36.929688 21.851562 C 37.222656 21.960938 37.558594 21.882812 37.773438 21.652344 L 39.097656 20.242188 C 39.597656 20.492188 40.085938 20.777344 40.558594 21.089844 L 40 22.925781 C 39.90625 23.226562 40.007812 23.554688 40.25 23.753906 C 40.839844 24.238281 41.382812 24.785156 41.867188 25.371094 C 42.066406 25.617188 42.394531 25.714844 42.695312 25.621094 L 44.53125 25.066406 C 44.84375 25.535156 45.128906 26.023438 45.378906 26.527344 L 43.96875 27.847656 C 43.738281 28.0625 43.660156 28.398438 43.769531 28.691406 C 44.035156 29.402344 44.234375 30.140625 44.359375 30.890625 C 44.410156 31.203125 44.644531 31.453125 44.949219 31.523438 L 46.847656 31.964844 C 46.867188 32.253906 46.875 32.535156 46.875 32.8125 C 46.875 33.089844 46.867188 33.371094 46.847656 33.65625 Z M 46.847656 33.65625 "/>
<path style=" stroke:none;fill-rule:nonzero;fill:rgb(0%,0%,0%);fill-opacity:1;" d="M 38.28125 32.8125 C 38.28125 29.796875 35.828125 27.34375 32.8125 27.34375 C 29.796875 27.34375 27.34375 29.796875 27.34375 32.8125 C 27.34375 35.828125 29.796875 38.28125 32.8125 38.28125 C 35.828125 38.28125 38.28125 35.828125 38.28125 32.8125 Z M 32.8125 36.71875 C 30.660156 36.71875 28.90625 34.964844 28.90625 32.8125 C 28.90625 30.660156 30.660156 28.90625 32.8125 28.90625 C 34.964844 28.90625 36.71875 30.660156 36.71875 32.8125 C 36.71875 34.964844 34.964844 36.71875 32.8125 36.71875 Z M 32.8125 36.71875 "/>
<path style=" stroke:none;fill-rule:nonzero;fill:rgb(0%,0%,0%);fill-opacity:1;" d="M 26.480469 28.234375 L 25.214844 27.320312 C 24.886719 27.773438 24.597656 28.257812 24.355469 28.761719 L 25.765625 29.4375 C 25.964844 29.019531 26.207031 28.613281 26.480469 28.234375 Z M 26.480469 28.234375 "/>
<path style=" stroke:none;fill-rule:nonzero;fill:rgb(0%,0%,0%);fill-opacity:1;" d="M 32.4375 25.007812 L 32.363281 23.449219 C 31.804688 23.476562 31.246094 23.550781 30.699219 23.675781 L 31.050781 25.199219 C 31.503906 25.09375 31.972656 25.03125 32.4375 25.007812 Z M 32.4375 25.007812 "/>
<path style=" stroke:none;fill-rule:nonzero;fill:rgb(0%,0%,0%);fill-opacity:1;" d="M 38.632812 25.464844 L 37.660156 26.6875 C 38.027344 26.976562 38.371094 27.300781 38.679688 27.652344 L 39.851562 26.621094 C 39.480469 26.199219 39.070312 25.8125 38.632812 25.464844 Z M 38.632812 25.464844 "/>
<path style=" stroke:none;fill-rule:nonzero;fill:rgb(0%,0%,0%);fill-opacity:1;" d="M 25.285156 34.90625 L 23.777344 35.324219 C 23.925781 35.859375 24.125 36.390625 24.371094 36.894531 L 25.777344 36.214844 C 25.574219 35.792969 25.40625 35.351562 25.285156 34.90625 Z M 25.285156 34.90625 "/>
<path style=" stroke:none;fill-rule:nonzero;fill:rgb(0%,0%,0%);fill-opacity:1;" d="M 29.09375 25.941406 L 28.347656 24.566406 C 27.855469 24.832031 27.386719 25.148438 26.949219 25.496094 L 27.925781 26.714844 C 28.289062 26.421875 28.683594 26.164062 29.09375 25.941406 Z M 29.09375 25.941406 "/>
<path style=" stroke:none;fill-rule:nonzero;fill:rgb(0%,0%,0%);fill-opacity:1;" d="M 40.5 34.207031 L 42.039062 34.484375 C 42.136719 33.9375 42.1875 33.375 42.1875 32.8125 L 42.1875 32.777344 L 40.625 32.8125 C 40.625 33.28125 40.582031 33.753906 40.5 34.207031 Z M 40.5 34.207031 "/>
<path style=" stroke:none;fill-rule:nonzero;fill:rgb(0%,0%,0%);fill-opacity:1;" d="M 33.171875 40.617188 L 33.242188 42.179688 C 33.800781 42.152344 34.363281 42.078125 34.90625 41.953125 L 34.558594 40.429688 C 34.105469 40.53125 33.640625 40.597656 33.171875 40.617188 Z M 33.171875 40.617188 "/>
<path style=" stroke:none;fill-rule:nonzero;fill:rgb(0%,0%,0%);fill-opacity:1;" d="M 39.136719 37.402344 L 40.398438 38.320312 C 40.726562 37.871094 41.019531 37.382812 41.261719 36.878906 L 39.855469 36.203125 C 39.652344 36.621094 39.410156 37.027344 39.136719 37.402344 Z M 39.136719 37.402344 "/>
<path style=" stroke:none;fill-rule:nonzero;fill:rgb(0%,0%,0%);fill-opacity:1;" d="M 40.335938 30.703125 L 41.84375 30.285156 C 41.695312 29.746094 41.492188 29.21875 41.246094 28.714844 L 39.839844 29.398438 C 40.046875 29.816406 40.214844 30.257812 40.335938 30.703125 Z M 40.335938 30.703125 "/>
<path style=" stroke:none;fill-rule:nonzero;fill:rgb(0%,0%,0%);fill-opacity:1;" d="M 36.519531 39.691406 L 37.261719 41.066406 C 37.753906 40.800781 38.222656 40.488281 38.660156 40.140625 L 37.6875 38.917969 C 37.320312 39.210938 36.929688 39.46875 36.519531 39.691406 Z M 36.519531 39.691406 "/>
<path style=" stroke:none;fill-rule:nonzero;fill:rgb(0%,0%,0%);fill-opacity:1;" d="M 29.136719 41.441406 C 29.652344 41.660156 30.191406 41.832031 30.738281 41.957031 L 31.082031 40.433594 C 30.625 40.332031 30.179688 40.1875 29.75 40.003906 Z M 29.136719 41.441406 "/>
<path style=" stroke:none;fill-rule:nonzero;fill:rgb(0%,0%,0%);fill-opacity:1;" d="M 26.9375 37.960938 L 25.761719 38.992188 C 26.132812 39.410156 26.539062 39.800781 26.976562 40.148438 L 27.949219 38.925781 C 27.585938 38.636719 27.242188 38.3125 26.9375 37.960938 Z M 26.9375 37.960938 "/>
<path style=" stroke:none;fill-rule:nonzero;fill:rgb(0%,0%,0%);fill-opacity:1;" d="M 36.472656 24.179688 C 35.957031 23.960938 35.417969 23.785156 34.871094 23.664062 L 34.527344 25.1875 C 34.984375 25.289062 35.433594 25.433594 35.859375 25.617188 Z M 36.472656 24.179688 "/>
<path style=" stroke:none;fill-rule:nonzero;fill:rgb(0%,0%,0%);fill-opacity:1;" d="M 25.121094 31.433594 L 23.582031 31.160156 C 23.484375 31.699219 23.4375 32.257812 23.4375 32.8125 L 23.4375 32.828125 L 25 32.8125 C 25 32.347656 25.042969 31.882812 25.121094 31.433594 Z M 25.121094 31.433594 "/>
<path style=" stroke:none;fill-rule:nonzero;fill:rgb(0%,0%,0%);fill-opacity:1;" d="M 29.457031 8.824219 L 28.355469 9.925781 L 30.144531 11.71875 L 20.3125 11.71875 C 18.160156 11.71875 16.40625 13.472656 16.40625 15.625 L 16.40625 20.3125 L 17.96875 20.3125 L 17.96875 15.625 C 17.96875 14.332031 19.019531 13.28125 20.3125 13.28125 L 30.144531 13.28125 L 28.355469 15.074219 L 29.457031 16.175781 L 32.582031 13.050781 C 32.890625 12.746094 32.890625 12.253906 32.582031 11.949219 Z M 29.457031 8.824219 "/>
<path style=" stroke:none;fill-rule:nonzero;fill:rgb(0%,0%,0%);fill-opacity:1;" d="M 9.375 7.8125 L 10.9375 7.8125 L 10.9375 9.375 L 9.375 9.375 Z M 9.375 7.8125 "/>
<path style=" stroke:none;fill-rule:nonzero;fill:rgb(0%,0%,0%);fill-opacity:1;" d="M 12.5 7.8125 L 14.0625 7.8125 L 14.0625 9.375 L 12.5 9.375 Z M 12.5 7.8125 "/>
<path style=" stroke:none;fill-rule:nonzero;fill:rgb(0%,0%,0%);fill-opacity:1;" d="M 15.625 7.8125 L 17.1875 7.8125 L 17.1875 9.375 L 15.625 9.375 Z M 15.625 7.8125 "/>
</g>
</svg>
