<?xml version="1.0" encoding="UTF-8"?>
<svg xmlns="http://www.w3.org/2000/svg" xmlns:xlink="http://www.w3.org/1999/xlink" width="40px" height="40px" viewBox="0 0 40 40" version="1.1">
<g id="surface1">
<path style=" stroke:none;fill-rule:nonzero;fill:rgb(0%,0%,0%);fill-opacity:1;" d="M 16.003906 20.703125 C 16.078125 20.730469 16.152344 20.746094 16.226562 20.746094 C 16.402344 20.746094 16.574219 20.671875 16.695312 20.535156 C 17.75 19.347656 19.109375 18.492188 20.621094 18.054688 C 20.890625 17.980469 21.074219 17.734375 21.074219 17.457031 L 21.074219 8.128906 L 22.027344 8.128906 C 22.449219 8.128906 22.828125 7.894531 23.011719 7.515625 C 23.195312 7.132812 23.148438 6.691406 22.886719 6.363281 L 19.277344 1.773438 C 19.0625 1.507812 18.757812 1.359375 18.417969 1.359375 C 18.074219 1.359375 17.769531 1.507812 17.558594 1.773438 L 13.949219 6.363281 C 13.6875 6.691406 13.640625 7.136719 13.824219 7.515625 C 14.007812 7.894531 14.382812 8.128906 14.804688 8.128906 L 15.601562 8.128906 L 15.601562 20.121094 C 15.601562 20.378906 15.761719 20.613281 16.003906 20.703125 Z M 15.128906 6.878906 L 18.417969 2.707031 L 21.703125 6.878906 L 20.449219 6.878906 C 20.105469 6.878906 19.824219 7.160156 19.824219 7.503906 L 19.824219 16.996094 C 18.742188 17.367188 17.738281 17.929688 16.851562 18.65625 L 16.851562 7.503906 C 16.851562 7.339844 16.785156 7.179688 16.667969 7.0625 C 16.550781 6.945312 16.394531 6.878906 16.226562 6.878906 Z M 38.957031 28.214844 L 34.371094 24.605469 C 34.039062 24.34375 33.597656 24.296875 33.21875 24.480469 C 32.839844 24.664062 32.601562 25.042969 32.601562 25.464844 L 32.601562 26.257812 L 22.871094 26.257812 C 22.527344 26.257812 22.246094 26.539062 22.246094 26.882812 L 22.246094 31.105469 C 22.246094 31.453125 22.527344 31.730469 22.871094 31.730469 L 32.601562 31.730469 L 32.601562 32.683594 C 32.601562 33.105469 32.839844 33.484375 33.21875 33.667969 C 33.371094 33.742188 33.535156 33.777344 33.699219 33.777344 C 33.9375 33.777344 34.175781 33.699219 34.371094 33.542969 L 38.957031 29.933594 C 39.226562 29.722656 39.375 29.417969 39.375 29.074219 C 39.375 28.730469 39.226562 28.425781 38.957031 28.214844 Z M 33.851562 32.359375 L 33.851562 31.105469 C 33.851562 30.761719 33.574219 30.480469 33.226562 30.480469 L 23.496094 30.480469 L 23.496094 27.507812 L 33.226562 27.507812 C 33.394531 27.507812 33.554688 27.441406 33.671875 27.324219 C 33.789062 27.207031 33.851562 27.050781 33.851562 26.882812 L 33.851562 25.789062 L 38.027344 29.074219 Z M 25.519531 24.300781 C 29.511719 24.300781 32.757812 21.050781 32.757812 17.058594 L 32.757812 12.332031 L 33.710938 12.332031 C 34.132812 12.332031 34.511719 12.09375 34.695312 11.714844 C 34.878906 11.335938 34.832031 10.894531 34.570312 10.5625 L 30.960938 5.976562 C 30.746094 5.707031 30.441406 5.558594 30.101562 5.558594 C 29.757812 5.558594 29.453125 5.707031 29.242188 5.976562 L 25.632812 10.5625 C 25.371094 10.894531 25.324219 11.335938 25.507812 11.714844 C 25.691406 12.09375 26.066406 12.332031 26.492188 12.332031 L 27.285156 12.332031 L 27.285156 17.058594 C 27.285156 18.035156 26.492188 18.828125 25.519531 18.828125 L 22.921875 18.828125 C 18.929688 18.828125 15.679688 22.074219 15.679688 26.066406 L 15.679688 38.015625 C 15.679688 38.363281 15.960938 38.640625 16.304688 38.640625 L 20.527344 38.640625 C 20.875 38.640625 21.152344 38.363281 21.152344 38.015625 L 21.152344 26.066406 C 21.152344 25.09375 21.945312 24.300781 22.921875 24.300781 Z M 19.902344 26.066406 L 19.902344 37.390625 L 16.929688 37.390625 L 16.929688 26.066406 C 16.929688 22.765625 19.617188 20.078125 22.921875 20.078125 L 25.519531 20.078125 C 27.183594 20.078125 28.535156 18.722656 28.535156 17.058594 L 28.535156 11.707031 C 28.535156 11.539062 28.46875 11.382812 28.351562 11.265625 C 28.234375 11.148438 28.078125 11.082031 27.910156 11.082031 L 26.816406 11.082031 L 30.101562 6.90625 L 33.386719 11.082031 L 32.132812 11.082031 C 31.789062 11.082031 31.507812 11.359375 31.507812 11.707031 L 31.507812 17.058594 C 31.507812 20.363281 28.820312 23.050781 25.519531 23.050781 L 22.921875 23.050781 C 21.257812 23.050781 19.902344 24.402344 19.902344 26.066406 Z M 13.960938 26.257812 L 9.898438 26.257812 C 8.917969 26.257812 8.121094 25.460938 8.121094 24.480469 C 8.121094 22.34375 8.125 20.1875 8.132812 18.101562 C 8.136719 16.214844 8.144531 14.265625 8.144531 12.332031 L 8.941406 12.332031 C 9.363281 12.332031 9.738281 12.09375 9.921875 11.714844 C 10.109375 11.335938 10.058594 10.894531 9.800781 10.5625 L 6.1875 5.976562 C 5.976562 5.707031 5.671875 5.558594 5.328125 5.558594 C 4.988281 5.558594 4.683594 5.707031 4.472656 5.976562 L 0.859375 10.5625 C 0.597656 10.894531 0.550781 11.335938 0.734375 11.714844 C 0.921875 12.09375 1.296875 12.332031 1.71875 12.332031 L 2.671875 12.332031 L 2.671875 24.480469 C 2.671875 28.464844 5.914062 31.707031 9.898438 31.707031 L 13.960938 31.707031 C 14.308594 31.707031 14.585938 31.425781 14.585938 31.082031 L 14.585938 26.882812 C 14.585938 26.539062 14.308594 26.257812 13.960938 26.257812 Z M 13.335938 30.457031 L 9.898438 30.457031 C 6.605469 30.457031 3.921875 27.773438 3.921875 24.480469 L 3.921875 11.707031 C 3.921875 11.359375 3.640625 11.082031 3.296875 11.082031 L 2.042969 11.082031 L 5.328125 6.90625 L 8.617188 11.082031 L 7.519531 11.082031 C 7.355469 11.082031 7.195312 11.148438 7.078125 11.265625 C 6.960938 11.382812 6.894531 11.539062 6.894531 11.707031 C 6.894531 13.847656 6.886719 16.007812 6.882812 18.097656 C 6.875 20.183594 6.871094 22.34375 6.871094 24.480469 C 6.871094 26.148438 8.230469 27.507812 9.898438 27.507812 L 13.335938 27.507812 Z M 13.335938 30.457031 "/>
</g>
</svg>
