<?xml version="1.0" encoding="UTF-8"?>
<svg xmlns="http://www.w3.org/2000/svg" xmlns:xlink="http://www.w3.org/1999/xlink" width="40px" height="40px" viewBox="0 0 40 40" version="1.1">
<g id="surface1">
<path style=" stroke:none;fill-rule:nonzero;fill:rgb(0%,0%,0%);fill-opacity:1;" d="M 17.800781 3.839844 C 17.621094 3.65625 17.621094 3.359375 17.800781 3.175781 L 19.667969 1.308594 C 19.757812 1.222656 19.875 1.171875 20 1.171875 C 20.125 1.171875 20.242188 1.222656 20.332031 1.308594 L 22.199219 3.175781 C 22.378906 3.359375 22.378906 3.65625 22.199219 3.839844 C 22.105469 3.929688 21.984375 3.976562 21.867188 3.976562 C 21.746094 3.976562 21.625 3.929688 21.535156 3.839844 L 20.46875 2.773438 L 20.46875 8.136719 C 20.46875 8.394531 20.257812 8.605469 20 8.605469 C 19.742188 8.605469 19.53125 8.394531 19.53125 8.136719 L 19.53125 2.773438 L 18.464844 3.839844 C 18.28125 4.023438 17.984375 4.023438 17.800781 3.839844 Z M 28.386719 12.082031 C 28.507812 12.082031 28.628906 12.035156 28.71875 11.941406 L 32.511719 8.148438 L 32.511719 9.65625 C 32.511719 9.914062 32.722656 10.125 32.980469 10.125 C 33.242188 10.125 33.449219 9.914062 33.449219 9.65625 L 33.449219 7.019531 C 33.449219 6.757812 33.242188 6.550781 32.980469 6.550781 L 30.34375 6.550781 C 30.082031 6.550781 29.875 6.757812 29.875 7.019531 C 29.875 7.277344 30.082031 7.488281 30.34375 7.488281 L 31.851562 7.488281 L 28.054688 11.28125 C 27.875 11.464844 27.875 11.761719 28.054688 11.941406 C 28.148438 12.035156 28.269531 12.082031 28.386719 12.082031 Z M 38.691406 19.667969 L 36.824219 17.800781 C 36.640625 17.621094 36.34375 17.621094 36.160156 17.800781 C 35.976562 17.984375 35.976562 18.28125 36.160156 18.464844 L 37.226562 19.53125 L 31.863281 19.53125 C 31.605469 19.53125 31.394531 19.742188 31.394531 20 C 31.394531 20.257812 31.605469 20.46875 31.863281 20.46875 L 37.226562 20.46875 L 36.160156 21.535156 C 35.976562 21.71875 35.976562 22.015625 36.160156 22.199219 C 36.253906 22.289062 36.371094 22.335938 36.492188 22.335938 C 36.613281 22.335938 36.730469 22.289062 36.824219 22.199219 L 38.691406 20.332031 C 38.875 20.148438 38.875 19.851562 38.691406 19.667969 Z M 32.980469 29.875 C 32.722656 29.875 32.511719 30.082031 32.511719 30.34375 L 32.511719 31.851562 L 28.71875 28.054688 C 28.535156 27.875 28.238281 27.875 28.054688 28.054688 C 27.875 28.238281 27.875 28.535156 28.054688 28.71875 L 31.851562 32.511719 L 30.34375 32.511719 C 30.082031 32.511719 29.875 32.722656 29.875 32.980469 C 29.875 33.238281 30.082031 33.449219 30.34375 33.449219 L 32.980469 33.449219 C 33.242188 33.449219 33.449219 33.238281 33.449219 32.980469 L 33.449219 30.339844 C 33.449219 30.082031 33.242188 29.875 32.980469 29.875 Z M 21.535156 36.160156 L 20.46875 37.226562 L 20.46875 31.863281 C 20.46875 31.605469 20.257812 31.394531 20 31.394531 C 19.742188 31.394531 19.53125 31.605469 19.53125 31.863281 L 19.53125 37.226562 L 18.464844 36.160156 C 18.28125 35.976562 17.984375 35.976562 17.800781 36.160156 C 17.617188 36.34375 17.617188 36.640625 17.800781 36.824219 L 19.667969 38.691406 C 19.753906 38.777344 19.875 38.828125 20 38.828125 C 20.125 38.828125 20.242188 38.777344 20.332031 38.691406 L 22.195312 36.824219 C 22.378906 36.640625 22.378906 36.34375 22.195312 36.160156 C 22.015625 35.976562 21.71875 35.976562 21.535156 36.160156 Z M 11.28125 28.058594 L 7.488281 31.851562 L 7.488281 30.34375 C 7.488281 30.085938 7.277344 29.875 7.019531 29.875 C 6.757812 29.875 6.550781 30.085938 6.550781 30.34375 L 6.550781 32.984375 C 6.550781 33.242188 6.757812 33.453125 7.019531 33.453125 L 9.65625 33.453125 C 9.917969 33.453125 10.125 33.242188 10.125 32.984375 C 10.125 32.722656 9.917969 32.515625 9.65625 32.515625 L 8.148438 32.515625 L 11.945312 28.71875 C 12.125 28.539062 12.125 28.242188 11.945312 28.058594 C 11.761719 27.875 11.464844 27.875 11.28125 28.058594 Z M 2.773438 20.46875 L 8.136719 20.46875 C 8.394531 20.46875 8.605469 20.257812 8.605469 20 C 8.605469 19.742188 8.394531 19.53125 8.136719 19.53125 L 2.773438 19.53125 L 3.839844 18.464844 C 4.023438 18.28125 4.023438 17.984375 3.839844 17.800781 C 3.65625 17.621094 3.359375 17.621094 3.175781 17.800781 L 1.308594 19.667969 C 1.125 19.851562 1.125 20.148438 1.308594 20.332031 L 3.175781 22.199219 C 3.265625 22.289062 3.386719 22.335938 3.507812 22.335938 C 3.625 22.335938 3.746094 22.289062 3.839844 22.199219 C 4.019531 22.015625 4.019531 21.71875 3.839844 21.535156 Z M 7.019531 10.125 C 7.277344 10.125 7.488281 9.917969 7.488281 9.65625 L 7.488281 8.148438 L 11.28125 11.945312 C 11.371094 12.035156 11.492188 12.082031 11.613281 12.082031 C 11.730469 12.082031 11.851562 12.035156 11.941406 11.945312 C 12.125 11.761719 12.125 11.464844 11.941406 11.28125 L 8.148438 7.488281 L 9.65625 7.488281 C 9.914062 7.488281 10.125 7.277344 10.125 7.019531 C 10.125 6.761719 9.914062 6.550781 9.65625 6.550781 L 7.019531 6.550781 C 6.757812 6.550781 6.550781 6.761719 6.550781 7.019531 L 6.550781 9.660156 C 6.550781 9.917969 6.757812 10.125 7.019531 10.125 Z M 29.4375 20 C 29.4375 25.203125 25.203125 29.4375 20 29.4375 C 14.796875 29.4375 10.5625 25.203125 10.5625 20 C 10.5625 14.796875 14.796875 10.5625 20 10.5625 C 25.203125 10.5625 29.4375 14.796875 29.4375 20 Z M 19.53125 11.558594 C 18.386719 11.832031 17.371094 13.082031 16.6875 14.875 C 17.585938 15.066406 18.542969 15.183594 19.53125 15.210938 Z M 16.390625 15.773438 C 16.0625 16.898438 15.859375 18.175781 15.824219 19.53125 L 19.53125 19.53125 L 19.53125 16.148438 C 18.441406 16.121094 17.378906 15.988281 16.390625 15.773438 Z M 15.824219 20.46875 C 15.859375 21.824219 16.0625 23.105469 16.390625 24.226562 C 17.378906 24.007812 18.441406 23.878906 19.53125 23.851562 L 19.53125 20.46875 Z M 16.6875 25.121094 C 17.367188 26.917969 18.386719 28.167969 19.53125 28.441406 L 19.53125 24.789062 C 18.542969 24.816406 17.585938 24.933594 16.6875 25.121094 Z M 20.46875 28.441406 C 21.613281 28.167969 22.628906 26.917969 23.3125 25.125 C 22.414062 24.933594 21.457031 24.816406 20.46875 24.789062 Z M 23.609375 24.226562 C 23.9375 23.101562 24.140625 21.824219 24.175781 20.46875 L 20.46875 20.46875 L 20.46875 23.851562 C 21.558594 23.878906 22.621094 24.011719 23.609375 24.226562 Z M 24.175781 19.53125 C 24.140625 18.175781 23.9375 16.894531 23.609375 15.773438 C 22.621094 15.992188 21.558594 16.121094 20.46875 16.148438 L 20.46875 19.53125 Z M 23.3125 14.878906 C 22.632812 13.082031 21.613281 11.832031 20.46875 11.558594 L 20.46875 15.210938 C 21.457031 15.183594 22.414062 15.066406 23.3125 14.878906 Z M 24.230469 14.648438 C 24.863281 14.464844 25.457031 14.238281 25.988281 13.976562 C 25.066406 13.0625 23.941406 12.355469 22.6875 11.9375 C 23.054688 12.351562 23.398438 12.859375 23.703125 13.449219 C 23.898438 13.824219 24.074219 14.226562 24.230469 14.648438 Z M 17.3125 11.9375 C 16.058594 12.355469 14.929688 13.0625 14.011719 13.976562 C 14.542969 14.238281 15.132812 14.464844 15.769531 14.648438 C 15.925781 14.226562 16.101562 13.824219 16.296875 13.449219 C 16.601562 12.859375 16.945312 12.351562 17.3125 11.9375 Z M 13.363281 14.695312 C 12.289062 16.039062 11.613281 17.707031 11.515625 19.53125 L 14.882812 19.53125 C 14.921875 18.117188 15.125 16.761719 15.476562 15.539062 C 14.707031 15.3125 13.996094 15.03125 13.363281 14.695312 Z M 11.515625 20.46875 C 11.613281 22.292969 12.289062 23.960938 13.363281 25.304688 C 13.992188 24.96875 14.707031 24.6875 15.476562 24.460938 C 15.125 23.242188 14.921875 21.882812 14.886719 20.46875 Z M 14.011719 26.023438 C 14.933594 26.9375 16.058594 27.644531 17.3125 28.0625 C 16.945312 27.648438 16.601562 27.140625 16.296875 26.550781 C 16.101562 26.175781 15.925781 25.773438 15.769531 25.351562 C 15.136719 25.535156 14.542969 25.761719 14.011719 26.023438 Z M 22.6875 28.0625 C 23.941406 27.644531 25.070312 26.9375 25.988281 26.023438 C 25.457031 25.761719 24.867188 25.535156 24.230469 25.351562 C 24.074219 25.773438 23.898438 26.175781 23.703125 26.550781 C 23.398438 27.140625 23.054688 27.648438 22.6875 28.0625 Z M 26.636719 25.304688 C 27.710938 23.960938 28.386719 22.292969 28.484375 20.46875 L 25.117188 20.46875 C 25.078125 21.882812 24.875 23.238281 24.523438 24.460938 C 25.292969 24.6875 26.003906 24.96875 26.636719 25.304688 Z M 28.484375 19.53125 C 28.386719 17.707031 27.710938 16.039062 26.636719 14.695312 C 26.007812 15.03125 25.292969 15.3125 24.523438 15.539062 C 24.875 16.757812 25.078125 18.117188 25.113281 19.53125 Z M 28.484375 19.53125 "/>
</g>
</svg>
