<?xml version="1.0" encoding="UTF-8"?>
<svg xmlns="http://www.w3.org/2000/svg" xmlns:xlink="http://www.w3.org/1999/xlink" width="40px" height="40px" viewBox="0 0 40 40" version="1.1">
<g id="surface1">
<path style=" stroke:none;fill-rule:nonzero;fill:rgb(0%,0%,0%);fill-opacity:1;" d="M 24.515625 16.277344 L 18.507812 21.953125 L 15.625 18.984375 C 15.304688 18.65625 14.777344 18.648438 14.449219 18.96875 C 14.121094 19.289062 14.113281 19.816406 14.433594 20.144531 L 17.890625 23.695312 C 18.210938 24.015625 18.730469 24.027344 19.066406 23.71875 L 25.671875 17.484375 C 25.832031 17.335938 25.925781 17.125 25.933594 16.90625 C 25.9375 16.683594 25.855469 16.472656 25.707031 16.3125 C 25.382812 15.976562 24.855469 15.960938 24.515625 16.277344 Z M 24.515625 16.277344 "/>
<path style=" stroke:none;fill-rule:nonzero;fill:rgb(0%,0%,0%);fill-opacity:1;" d="M 20.054688 7.546875 C 13.191406 7.546875 7.609375 13.128906 7.609375 19.992188 C 7.609375 26.859375 13.191406 32.441406 20.054688 32.441406 C 26.921875 32.441406 32.503906 26.859375 32.503906 19.992188 C 32.503906 13.128906 26.921875 7.546875 20.054688 7.546875 Z M 20.054688 30.777344 C 14.105469 30.777344 9.273438 25.933594 9.273438 19.992188 C 9.273438 14.050781 14.105469 9.210938 20.054688 9.210938 C 26.011719 9.210938 30.839844 14.039062 30.839844 19.992188 C 30.839844 25.949219 26.011719 30.777344 20.054688 30.777344 Z M 20.054688 30.777344 "/>
<path style=" stroke:none;fill-rule:nonzero;fill:rgb(0%,0%,0%);fill-opacity:1;" d="M 37.1875 15.410156 L 37.460938 10.46875 C 37.480469 10.136719 37.300781 9.828125 37.003906 9.679688 L 32.605469 7.453125 L 30.378906 3.054688 C 30.230469 2.757812 29.917969 2.578125 29.589844 2.59375 L 24.640625 2.863281 L 20.515625 0.136719 C 20.238281 -0.046875 19.875 -0.046875 19.597656 0.136719 L 15.472656 2.863281 L 10.53125 2.585938 C 10.199219 2.566406 9.890625 2.75 9.742188 3.046875 L 7.515625 7.445312 L 3.117188 9.667969 C 2.820312 9.820312 2.640625 10.128906 2.65625 10.460938 L 2.933594 15.402344 L 0.207031 19.527344 C 0.0234375 19.804688 0.0234375 20.164062 0.207031 20.445312 L 2.925781 24.578125 L 2.648438 29.519531 C 2.628906 29.847656 2.808594 30.160156 3.109375 30.308594 L 7.507812 32.535156 L 9.730469 36.933594 C 9.882812 37.230469 10.191406 37.40625 10.523438 37.390625 L 15.464844 37.117188 L 19.589844 39.839844 C 19.867188 40.03125 20.230469 40.03125 20.507812 39.839844 L 24.628906 37.117188 L 29.570312 37.390625 C 29.902344 37.410156 30.214844 37.230469 30.363281 36.933594 L 32.589844 32.535156 L 36.988281 30.308594 C 37.28125 30.15625 37.460938 29.847656 37.445312 29.519531 L 37.171875 24.578125 L 39.894531 20.453125 C 40.078125 20.175781 40.078125 19.8125 39.894531 19.535156 Z M 35.636719 23.894531 C 35.535156 24.042969 35.488281 24.222656 35.503906 24.402344 L 35.761719 29.074219 L 31.605469 31.175781 C 31.445312 31.253906 31.316406 31.382812 31.238281 31.542969 L 29.136719 35.699219 L 24.464844 35.441406 C 24.285156 35.4375 24.109375 35.480469 23.957031 35.574219 L 20.054688 38.148438 L 16.15625 35.574219 C 16.019531 35.484375 15.863281 35.433594 15.699219 35.433594 L 15.65625 35.433594 L 10.980469 35.691406 L 8.882812 31.535156 C 8.804688 31.375 8.675781 31.246094 8.515625 31.167969 L 4.347656 29.074219 L 4.609375 24.402344 C 4.613281 24.222656 4.566406 24.046875 4.472656 23.894531 L 1.898438 19.992188 L 4.472656 16.09375 C 4.578125 15.945312 4.625 15.765625 4.609375 15.585938 L 4.347656 10.910156 L 8.507812 8.8125 C 8.667969 8.730469 8.792969 8.605469 8.875 8.445312 L 10.972656 4.285156 L 15.648438 4.546875 C 15.828125 4.550781 16.003906 4.503906 16.15625 4.410156 L 20.054688 1.835938 L 23.957031 4.410156 C 24.105469 4.515625 24.285156 4.5625 24.464844 4.546875 L 29.136719 4.285156 L 31.238281 8.445312 C 31.316406 8.605469 31.445312 8.730469 31.605469 8.8125 L 35.761719 10.910156 L 35.503906 15.585938 C 35.5 15.765625 35.542969 15.941406 35.636719 16.09375 L 38.210938 19.992188 Z M 35.636719 23.894531 "/>
</g>
</svg>
