<?xml version="1.0" encoding="UTF-8"?>
<svg xmlns="http://www.w3.org/2000/svg" xmlns:xlink="http://www.w3.org/1999/xlink" width="40px" height="40px" viewBox="0 0 40 40" version="1.1">
<g id="surface1">
<path style=" stroke:none;fill-rule:nonzero;fill:rgb(0%,0%,0%);fill-opacity:1;" d="M 30.113281 8.625 C 32.128906 8.625 33.765625 6.988281 33.765625 4.976562 C 33.765625 2.960938 32.128906 1.324219 30.113281 1.324219 C 28.101562 1.324219 26.464844 2.960938 26.464844 4.976562 C 26.464844 6.988281 28.101562 8.625 30.113281 8.625 Z M 30.113281 2.261719 C 31.609375 2.261719 32.828125 3.480469 32.828125 4.976562 C 32.828125 6.472656 31.609375 7.6875 30.113281 7.6875 C 28.617188 7.6875 27.402344 6.472656 27.402344 4.976562 C 27.402344 3.480469 28.617188 2.261719 30.113281 2.261719 Z M 2.910156 17.707031 L 11.289062 17.707031 C 11.023438 18.53125 10.816406 19.402344 10.683594 20.308594 C 10.664062 20.445312 10.707031 20.582031 10.792969 20.683594 C 10.882812 20.785156 11.011719 20.847656 11.148438 20.847656 L 28.851562 20.847656 C 28.988281 20.847656 29.117188 20.785156 29.207031 20.683594 C 29.292969 20.582031 29.335938 20.445312 29.316406 20.308594 C 29.183594 19.402344 28.976562 18.53125 28.710938 17.707031 L 37.089844 17.707031 C 37.226562 17.707031 37.355469 17.648438 37.445312 17.542969 C 37.535156 17.441406 37.574219 17.304688 37.554688 17.171875 C 36.867188 12.453125 33.738281 9.027344 30.113281 9.027344 C 28.144531 9.027344 26.246094 10.054688 24.839844 11.863281 C 23.414062 10.730469 21.753906 10.089844 20 10.089844 C 18.246094 10.089844 16.585938 10.730469 15.160156 11.863281 C 13.753906 10.054688 11.855469 9.027344 9.886719 9.027344 C 6.261719 9.027344 3.132812 12.453125 2.445312 17.171875 C 2.425781 17.304688 2.464844 17.441406 2.554688 17.542969 C 2.644531 17.648438 2.773438 17.707031 2.910156 17.707031 Z M 30.113281 9.964844 C 33.132812 9.964844 35.773438 12.796875 36.535156 16.769531 L 28.367188 16.769531 C 27.683594 15.0625 26.710938 13.597656 25.546875 12.480469 C 26.789062 10.855469 28.398438 9.964844 30.113281 9.964844 Z M 20 11.027344 C 23.929688 11.027344 27.355469 14.730469 28.300781 19.910156 L 11.699219 19.910156 C 12.644531 14.730469 16.070312 11.027344 20 11.027344 Z M 9.886719 9.964844 C 11.601562 9.964844 13.210938 10.855469 14.453125 12.480469 C 13.289062 13.597656 12.316406 15.0625 11.628906 16.769531 L 3.464844 16.769531 C 4.226562 12.796875 6.867188 9.964844 9.886719 9.964844 Z M 9.886719 8.625 C 11.898438 8.625 13.535156 6.988281 13.535156 4.976562 C 13.535156 2.960938 11.898438 1.324219 9.886719 1.324219 C 7.871094 1.324219 6.234375 2.960938 6.234375 4.976562 C 6.234375 6.988281 7.871094 8.625 9.886719 8.625 Z M 9.886719 2.261719 C 11.378906 2.261719 12.597656 3.480469 12.597656 4.976562 C 12.597656 6.472656 11.378906 7.6875 9.886719 7.6875 C 8.390625 7.6875 7.171875 6.472656 7.171875 4.976562 C 7.171875 3.480469 8.390625 2.261719 9.886719 2.261719 Z M 20 9.324219 C 22.484375 9.324219 24.503906 7.304688 24.503906 4.820312 C 24.503906 2.332031 22.484375 0.3125 20 0.3125 C 17.515625 0.3125 15.492188 2.332031 15.492188 4.820312 C 15.492188 7.304688 17.515625 9.324219 20 9.324219 Z M 20 1.25 C 21.96875 1.25 23.566406 2.851562 23.566406 4.820312 C 23.566406 6.785156 21.96875 8.386719 20 8.386719 C 18.03125 8.386719 16.429688 6.785156 16.429688 4.820312 C 16.429688 2.851562 18.03125 1.25 20 1.25 Z M 37.089844 21.660156 L 2.910156 21.660156 C 2.648438 21.660156 2.441406 21.867188 2.441406 22.128906 C 2.441406 26.816406 4.265625 31.226562 7.582031 34.542969 C 10.898438 37.859375 15.308594 39.6875 20 39.6875 C 24.691406 39.6875 29.101562 37.859375 32.417969 34.542969 C 35.734375 31.226562 37.558594 26.816406 37.558594 22.128906 C 37.558594 21.867188 37.351562 21.660156 37.089844 21.660156 Z M 3.382812 22.597656 L 10.328125 22.597656 C 10.371094 25.746094 10.867188 28.753906 11.757812 31.371094 C 10.511719 32.0625 9.347656 32.910156 8.285156 33.910156 C 5.359375 31 3.507812 27.011719 3.382812 22.597656 Z M 13.875 37.582031 C 13.835938 37.5625 13.792969 37.546875 13.753906 37.53125 C 13.695312 37.507812 13.632812 37.480469 13.574219 37.457031 C 13.480469 37.417969 13.386719 37.378906 13.292969 37.335938 C 13.28125 37.332031 13.273438 37.328125 13.265625 37.324219 C 11.6875 36.621094 10.242188 35.683594 8.96875 34.550781 C 9.925781 33.660156 10.96875 32.894531 12.082031 32.265625 C 12.378906 33.027344 12.710938 33.753906 13.074219 34.433594 C 13.980469 36.113281 15.039062 37.414062 16.199219 38.304688 C 15.410156 38.121094 14.636719 37.878906 13.875 37.582031 Z M 19.53125 38.726562 C 17.425781 38.511719 15.441406 36.847656 13.902344 33.992188 C 13.535156 33.3125 13.207031 32.589844 12.914062 31.824219 C 14.960938 30.820312 17.207031 30.257812 19.53125 30.191406 Z M 19.53125 29.253906 C 17.097656 29.320312 14.746094 29.898438 12.597656 30.9375 C 11.769531 28.449219 11.308594 25.589844 11.261719 22.597656 L 19.53125 22.597656 Z M 20.46875 22.597656 L 28.734375 22.597656 C 28.691406 25.589844 28.230469 28.449219 27.402344 30.9375 C 25.253906 29.898438 22.902344 29.320312 20.46875 29.253906 Z M 20.46875 30.191406 C 22.792969 30.257812 25.039062 30.820312 27.085938 31.824219 C 26.792969 32.589844 26.460938 33.3125 26.097656 33.992188 C 24.558594 36.847656 22.574219 38.511719 20.46875 38.726562 Z M 26.734375 37.324219 C 26.726562 37.328125 26.71875 37.332031 26.707031 37.335938 C 26.613281 37.378906 26.519531 37.417969 26.425781 37.457031 C 26.367188 37.480469 26.304688 37.507812 26.246094 37.53125 C 26.207031 37.546875 26.164062 37.5625 26.125 37.582031 C 25.363281 37.878906 24.589844 38.121094 23.800781 38.304688 C 24.960938 37.414062 26.019531 36.113281 26.925781 34.433594 C 27.289062 33.753906 27.621094 33.03125 27.917969 32.265625 C 29.03125 32.894531 30.074219 33.660156 31.03125 34.550781 C 29.757812 35.683594 28.3125 36.621094 26.734375 37.324219 Z M 31.714844 33.910156 C 30.652344 32.910156 29.488281 32.0625 28.242188 31.371094 C 29.132812 28.753906 29.628906 25.746094 29.671875 22.597656 L 36.617188 22.597656 C 36.492188 27.011719 34.640625 31 31.714844 33.910156 Z M 16.515625 15.355469 L 18.082031 16.652344 L 17.578125 18.625 C 17.53125 18.808594 17.601562 19.007812 17.757812 19.121094 C 17.910156 19.230469 18.121094 19.238281 18.28125 19.136719 L 20 18.046875 L 21.71875 19.136719 C 21.792969 19.183594 21.882812 19.207031 21.96875 19.207031 C 22.066406 19.207031 22.160156 19.179688 22.242188 19.121094 C 22.398438 19.007812 22.46875 18.808594 22.421875 18.625 L 21.917969 16.652344 L 23.484375 15.355469 C 23.632812 15.234375 23.691406 15.035156 23.628906 14.851562 C 23.570312 14.667969 23.40625 14.539062 23.214844 14.527344 L 21.1875 14.398438 L 20.4375 12.507812 C 20.363281 12.332031 20.191406 12.214844 20 12.214844 C 19.808594 12.214844 19.636719 12.332031 19.5625 12.507812 L 18.8125 14.398438 L 16.785156 14.527344 C 16.59375 14.539062 16.429688 14.667969 16.371094 14.851562 C 16.308594 15.035156 16.367188 15.234375 16.515625 15.355469 Z M 19.171875 15.316406 C 19.351562 15.304688 19.507812 15.1875 19.574219 15.019531 L 20 13.953125 L 20.425781 15.019531 C 20.492188 15.1875 20.648438 15.304688 20.828125 15.316406 L 21.976562 15.386719 L 21.09375 16.121094 C 20.953125 16.238281 20.890625 16.421875 20.9375 16.597656 L 21.222656 17.710938 L 20.25 17.097656 C 20.097656 17 19.902344 17 19.75 17.097656 L 18.777344 17.710938 L 19.0625 16.597656 C 19.109375 16.421875 19.046875 16.238281 18.90625 16.121094 L 18.023438 15.386719 Z M 19.171875 15.316406 "/>
</g>
</svg>
